<svg width="20" height="20" viewBox="0 0 20 20" fill="none" xmlns="http://www.w3.org/2000/svg">
<path d="M17.2051 2.22852L10.959 6.86756L12.114 4.13059L17.2051 2.22852Z" fill="#E2761B" stroke="#E2761B" stroke-width="0.0627746" stroke-linecap="round" stroke-linejoin="round"/>
<path d="M2.78906 2.22949L8.98492 6.91248L7.88636 4.13156L2.78906 2.22949Z" fill="#E4761B" stroke="#E4761B" stroke-width="0.0627746" stroke-linecap="round" stroke-linejoin="round"/>
<path d="M14.9604 12.9834L13.2969 15.532L16.8562 16.5113L17.8794 13.0399L14.9604 12.9834Z" fill="#E4761B" stroke="#E4761B" stroke-width="0.0627746" stroke-linecap="round" stroke-linejoin="round"/>
<path d="M2.12891 13.0399L3.14586 16.5113L6.70518 15.532L5.04165 12.9834L2.12891 13.0399Z" fill="#E4761B" stroke="#E4761B" stroke-width="0.0627746" stroke-linecap="round" stroke-linejoin="round"/>
<path d="M6.50356 8.67577L5.51172 10.1761L9.04593 10.333L8.92038 6.53516L6.50356 8.67577Z" fill="#E4761B" stroke="#E4761B" stroke-width="0.0627746" stroke-linecap="round" stroke-linejoin="round"/>
<path d="M13.4908 8.67674L11.0425 6.49219L10.9609 10.334L14.4889 10.1771L13.4908 8.67674Z" fill="#E4761B" stroke="#E4761B" stroke-width="0.0627746" stroke-linecap="round" stroke-linejoin="round"/>
<path d="M6.70508 15.5315L8.82686 14.4957L6.99384 13.0645L6.70508 15.5315Z" fill="#E4761B" stroke="#E4761B" stroke-width="0.0627746" stroke-linecap="round" stroke-linejoin="round"/>
<path d="M11.1699 14.4957L13.298 15.5315L13.0029 13.0645L11.1699 14.4957Z" fill="#E4761B" stroke="#E4761B" stroke-width="0.0627746" stroke-linecap="round" stroke-linejoin="round"/>
<path d="M13.2999 15.5309L11.1719 14.4951L11.3414 15.8824L11.3225 16.4662L13.2999 15.5309Z" fill="#D7C1B3" stroke="#D7C1B3" stroke-width="0.0627746" stroke-linecap="round" stroke-linejoin="round"/>
<path d="M6.70703 15.5309L8.68443 16.4662L8.67188 15.8824L8.82881 14.4951L6.70703 15.5309Z" fill="#D7C1B3" stroke="#D7C1B3" stroke-width="0.0627746" stroke-linecap="round" stroke-linejoin="round"/>
<path d="M8.71165 12.147L6.94141 11.6259L8.19062 11.0547L8.71165 12.147Z" fill="#233447" stroke="#233447" stroke-width="0.0627746" stroke-linecap="round" stroke-linejoin="round"/>
<path d="M11.2793 12.147L11.8003 11.0547L13.0558 11.6259L11.2793 12.147Z" fill="#233447" stroke="#233447" stroke-width="0.0627746" stroke-linecap="round" stroke-linejoin="round"/>
<path d="M6.70454 15.5311L7.00586 12.9824L5.04102 13.0389L6.70454 15.5311Z" fill="#CD6116" stroke="#CD6116" stroke-width="0.0627746" stroke-linecap="round" stroke-linejoin="round"/>
<path d="M12.9941 12.9824L13.2955 15.5311L14.959 13.0389L12.9941 12.9824Z" fill="#CD6116" stroke="#CD6116" stroke-width="0.0627746" stroke-linecap="round" stroke-linejoin="round"/>
<path d="M14.4889 10.1758L10.9609 10.3327L11.2874 12.1469L11.8084 11.0546L13.0639 11.6259L14.4889 10.1758Z" fill="#CD6116" stroke="#CD6116" stroke-width="0.0627746" stroke-linecap="round" stroke-linejoin="round"/>
<path d="M6.94298 11.6259L8.19847 11.0546L8.71323 12.1469L9.04593 10.3327L5.51172 10.1758L6.94298 11.6259Z" fill="#CD6116" stroke="#CD6116" stroke-width="0.0627746" stroke-linecap="round" stroke-linejoin="round"/>
<path d="M5.51367 10.1758L6.99515 13.0634L6.94493 11.6259L5.51367 10.1758Z" fill="#E4751F" stroke="#E4751F" stroke-width="0.0627746" stroke-linecap="round" stroke-linejoin="round"/>
<path d="M13.0647 11.6259L13.002 13.0634L14.4897 10.1758L13.0647 11.6259Z" fill="#E4751F" stroke="#E4751F" stroke-width="0.0627746" stroke-linecap="round" stroke-linejoin="round"/>
<path d="M9.04755 10.334L8.71484 12.1482L9.12916 14.2888L9.22332 11.4702L9.04755 10.334Z" fill="#E4751F" stroke="#E4751F" stroke-width="0.0627746" stroke-linecap="round" stroke-linejoin="round"/>
<path d="M10.9625 10.334L10.793 11.4639L10.8683 14.2888L11.2889 12.1482L10.9625 10.334Z" fill="#E4751F" stroke="#E4751F" stroke-width="0.0627746" stroke-linecap="round" stroke-linejoin="round"/>
<path d="M11.2858 12.147L10.8652 14.2876L11.1666 14.4948L12.9996 13.0635L13.0623 11.626L11.2858 12.147Z" fill="#F6851B" stroke="#F6851B" stroke-width="0.0627746" stroke-linecap="round" stroke-linejoin="round"/>
<path d="M6.94141 11.626L6.99163 13.0635L8.82465 14.4948L9.12596 14.2876L8.71165 12.147L6.94141 11.626Z" fill="#F6851B" stroke="#F6851B" stroke-width="0.0627746" stroke-linecap="round" stroke-linejoin="round"/>
<path d="M11.3171 16.4656L11.3359 15.8818L11.179 15.7437H8.81235L8.66797 15.8818L8.68053 16.4656L6.70312 15.5303L7.39365 16.0952L8.79352 17.0683H11.1978L12.6039 16.0952L13.2945 15.5303L11.3171 16.4656Z" fill="#C0AD9E" stroke="#C0AD9E" stroke-width="0.0627746" stroke-linecap="round" stroke-linejoin="round"/>
<path d="M11.1664 14.4952L10.8651 14.2881H9.12622L8.82491 14.4952L8.66797 15.8826L8.81235 15.7445H11.179L11.3359 15.8826L11.1664 14.4952Z" fill="#161616" stroke="#161616" stroke-width="0.0627746" stroke-linecap="round" stroke-linejoin="round"/>
<path d="M17.4725 7.16986L18.0061 4.60865L17.2088 2.22949L11.1699 6.7116L13.4926 8.67645L16.7757 9.6369L17.5039 8.78944L17.19 8.56345L17.6922 8.1052L17.303 7.80388L17.8052 7.42095L17.4725 7.16986Z" fill="#763D16" stroke="#763D16" stroke-width="0.0627746" stroke-linecap="round" stroke-linejoin="round"/>
<path d="M2 4.60865L2.53358 7.16986L2.1946 7.42095L2.6968 7.80388L2.31387 8.1052L2.81607 8.56345L2.5022 8.78944L3.22411 9.6369L6.50722 8.67645L8.82988 6.7116L2.79096 2.22949L2 4.60865Z" fill="#763D16" stroke="#763D16" stroke-width="0.0627746" stroke-linecap="round" stroke-linejoin="round"/>
<path d="M16.7747 9.63623L13.4916 8.67578L14.4897 10.1761L13.002 13.0637L14.9605 13.0386H17.8795L16.7747 9.63623Z" fill="#F6851B" stroke="#F6851B" stroke-width="0.0627746" stroke-linecap="round" stroke-linejoin="round"/>
<path d="M6.5043 8.67578L3.22118 9.63623L2.12891 13.0386H5.04165L6.99394 13.0637L5.51246 10.1761L6.5043 8.67578Z" fill="#F6851B" stroke="#F6851B" stroke-width="0.0627746" stroke-linecap="round" stroke-linejoin="round"/>
<path d="M10.9607 10.332L11.1679 6.70992L12.1221 4.12988H7.88477L8.82639 6.70992L9.0461 10.332L9.12143 11.4745L9.1277 14.2868H10.8666L10.8791 11.4745L10.9607 10.332Z" fill="#F6851B" stroke="#F6851B" stroke-width="0.0627746" stroke-linecap="round" stroke-linejoin="round"/>
</svg>
