<svg width="76" height="59" viewBox="0 0 76 59" fill="none" xmlns="http://www.w3.org/2000/svg">
<path d="M63.5688 5.25372C58.7886 3.02631 53.6625 1.38525 48.3028 0.445349C48.2052 0.427209 48.1077 0.472542 48.0574 0.563208C47.3982 1.75395 46.6679 3.30736 46.1565 4.52834C40.3919 3.65192 34.6568 3.65192 29.0104 4.52834C28.4989 3.28022 27.7421 1.75395 27.0799 0.563208C27.0296 0.475567 26.9321 0.430234 26.8345 0.445349C21.4778 1.38225 16.3518 3.02331 11.5685 5.25372C11.5271 5.27185 11.4916 5.3021 11.4681 5.34136C1.74497 20.0929 -0.918595 34.4818 0.388063 48.6923C0.393975 48.7618 0.432406 48.8283 0.485619 48.8706C6.90065 53.6547 13.1147 56.5592 19.2134 58.4843C19.311 58.5145 19.4144 58.4783 19.4765 58.3966C20.9191 56.396 22.2051 54.2865 23.3077 52.0681C23.3728 51.9382 23.3107 51.784 23.1777 51.7326C21.1379 50.9469 19.1956 49.9888 17.3273 48.9008C17.1795 48.8132 17.1677 48.5985 17.3036 48.4958C17.6968 48.1966 18.0901 47.8853 18.4655 47.571C18.5334 47.5136 18.6281 47.5015 18.7079 47.5377C30.9821 53.2287 44.2705 53.2287 56.3999 47.5377C56.4797 47.4985 56.5744 47.5106 56.6452 47.568C57.0208 47.8823 57.4139 48.1966 57.8101 48.4958C57.946 48.5985 57.9371 48.8132 57.7894 48.9008C55.921 50.0099 53.9787 50.9469 51.936 51.7296C51.803 51.781 51.7438 51.9382 51.8089 52.0681C52.9352 54.2834 54.2212 56.3929 55.6372 58.3936C55.6963 58.4783 55.8027 58.5145 55.9003 58.4843C62.0286 56.5592 68.2426 53.6547 74.6576 48.8706C74.7138 48.8283 74.7493 48.7648 74.7552 48.6953C76.319 32.2664 72.1359 17.9955 63.6663 5.34437C63.6456 5.3021 63.6102 5.27185 63.5688 5.25372ZM25.1407 40.0396C21.4453 40.0396 18.4004 36.5943 18.4004 32.3631C18.4004 28.132 21.3863 24.6867 25.1407 24.6867C28.9246 24.6867 31.94 28.1622 31.8809 32.3631C31.8809 36.5943 28.895 40.0396 25.1407 40.0396ZM50.0617 40.0396C46.3664 40.0396 43.3215 36.5943 43.3215 32.3631C43.3215 28.132 46.3073 24.6867 50.0617 24.6867C53.8457 24.6867 56.861 28.1622 56.802 32.3631C56.802 36.5943 53.8457 40.0396 50.0617 40.0396Z" fill="white"/>
</svg>
