<svg width="103" height="58" viewBox="0 0 103 58" fill="none" xmlns="http://www.w3.org/2000/svg">
<path d="M29.1738 0C45.0617 0 57.9404 12.9302 57.9404 28.8794C57.9404 44.8285 45.0608 57.7578 29.1738 57.7578C13.2868 57.7578 0.40625 44.8285 0.40625 28.8794C0.40625 12.9302 13.2859 0 29.1738 0ZM75.1135 1.69168C83.0575 1.69168 89.4973 13.8628 89.4973 28.8794H89.4983C89.4983 43.8921 83.0585 56.0671 75.1145 56.0671C67.1705 56.0671 60.7307 43.8921 60.7307 28.8794C60.7307 13.8667 67.1696 1.69168 75.1135 1.69168ZM97.3474 4.52349C100.141 4.52349 102.406 15.4278 102.406 28.8794C102.406 42.3271 100.142 53.2353 97.3474 53.2353C94.5532 53.2353 92.2896 42.33 92.2896 28.8794C92.2896 15.4288 94.5542 4.52349 97.3474 4.52349Z" fill="white"/>
</svg>
