<svg width="76" height="61" viewBox="0 0 76 61" fill="none" xmlns="http://www.w3.org/2000/svg">
<path fill-rule="evenodd" clip-rule="evenodd" d="M5.20835 26.3088C25.3788 17.7274 38.8066 12.0253 45.5493 9.25889C64.74 1.41142 68.7741 0.0564567 71.3674 0C71.9437 0 73.2116 0.112914 74.076 0.790394C74.7676 1.35496 74.9405 2.0889 75.0558 2.65347C75.171 3.21803 75.2863 4.40362 75.171 5.30693C74.1337 16.0337 69.6385 42.0602 67.3334 54.029C66.3536 59.1101 64.4519 60.8038 62.6077 60.9732C58.5736 61.3119 55.5192 58.3762 51.658 55.8921C45.5493 51.9966 42.1491 49.5689 36.2132 45.7299C29.3553 41.3263 33.7928 38.8986 37.7116 34.9467C38.7489 33.9305 56.4413 18.1226 56.7871 16.7112C56.8447 16.5418 56.8447 15.8643 56.4413 15.5256C56.0379 15.1868 55.4616 15.2998 55.0006 15.4127C54.3666 15.5256 44.6848 21.8487 25.8398 34.3256C23.0736 36.1887 20.5955 37.092 18.348 37.0356C15.8699 36.9791 11.1442 35.6806 7.57118 34.5515C3.24893 33.1965 -0.208858 32.4626 0.0792917 30.0914C0.252181 28.8493 1.98108 27.6073 5.20835 26.3088Z" fill="white"/>
</svg>
