<svg width="80" height="68" viewBox="0 0 80 68" fill="none" xmlns="http://www.w3.org/2000/svg">
<path d="M79.5938 8.14686C76.6165 9.50882 73.4679 10.4092 70.2459 10.8199C73.6451 8.67862 76.1924 5.31004 77.4152 1.33902C74.2209 3.34404 70.7243 4.75671 67.0772 5.51561C64.6394 2.72803 61.3931 0.872476 57.8475 0.239952C54.3018 -0.392571 50.6573 0.233717 47.4856 2.02059C44.3138 3.80747 41.7943 6.65386 40.322 10.1133C38.8498 13.5728 38.5081 17.4498 39.3506 21.1361C32.892 20.7916 26.5744 19.0183 20.8081 15.9314C15.0418 12.8446 9.9559 8.51312 5.8807 3.21848C4.45135 5.85044 3.70028 8.83108 3.70219 11.864C3.69712 14.6806 4.35264 17.4549 5.61039 19.9397C6.86814 22.4246 8.68908 24.5429 10.9111 26.1062C8.32847 26.0321 5.80103 25.3014 3.54375 23.9761V24.185C3.56311 28.1314 4.8746 31.9496 7.25639 34.9938C9.63819 38.038 12.9441 40.1213 16.6148 40.8913C15.2018 41.3448 13.7347 41.5838 12.2578 41.6013C11.2355 41.5888 10.2156 41.491 9.20789 41.309C10.2532 44.7038 12.2761 47.6705 14.9951 49.7965C17.7141 51.9224 20.994 53.1018 24.3783 53.1705C18.6635 57.912 11.6078 60.4998 4.33594 60.5213C3.01194 60.5259 1.68898 60.4422 0.375 60.2707C7.79949 65.3254 16.4517 68.0088 25.2893 67.9974C31.3879 68.0642 37.438 66.8489 43.0862 64.4226C48.7345 61.9962 53.8675 58.4075 58.1857 53.8659C62.5038 49.3243 65.9204 43.921 68.236 37.9715C70.5515 32.022 71.7196 25.6456 71.6719 19.2148C71.6719 18.5048 71.6719 17.753 71.6719 17.0012C74.78 14.5571 77.4607 11.5609 79.5938 8.14686Z" fill="white"/>
</svg>
