<svg width="86" height="16" viewBox="0 0 86 16" fill="none" xmlns="http://www.w3.org/2000/svg">
<g clip-path="url(#clip0_1_478)">
<path d="M23.6763 13.9612V1.95605H26.7174V11.5663H32.0731V13.9689L23.6763 13.9612Z" fill="white"/>
<path d="M85.1208 13.9623L79.1862 7.99633L85.1208 2.02922H80.7785L77.015 5.81327V1.95605H73.9761V13.9623H77.015V10.1783L80.7785 13.9623H85.1208Z" fill="white"/>
<path d="M50.4513 11.6339L49.728 13.9622H46.5435L50.6685 1.95703H54.7209L58.8481 13.9633H55.6625L54.9381 11.635L54.2147 9.38315L52.6942 4.3596L51.103 9.38315L50.4513 11.6339Z" fill="white"/>
<path d="M63.7658 6.10692V13.9699H60.8745V1.95703H64.6347L69.1214 10.1804V1.95703H72.0203V13.9622H68.2569L63.7658 6.10692Z" fill="white"/>
<path d="M44.3021 9.3053C44.1524 8.96528 43.9577 8.64716 43.7232 8.35956C43.4756 8.1086 43.18 7.91061 42.8543 7.77749C42.5643 7.63115 42.2026 7.55907 41.9137 7.4859C42.2131 7.42165 42.5046 7.32422 42.7826 7.19541C43.0511 7.06846 43.2958 6.89594 43.506 6.68541C43.7338 6.47338 43.8863 6.19226 43.9404 5.88492C44.0849 5.59443 44.0849 5.22968 44.0849 4.86601C44.0727 4.49809 44.0243 4.13228 43.9404 3.77394C43.796 3.41028 43.6515 3.11869 43.2888 2.8282C42.9668 2.51072 42.5669 2.28464 42.1299 2.17296C41.5402 2.01531 40.9315 1.94178 40.3215 1.95454H34.022V13.9674H40.7559C41.9865 13.9674 42.8554 13.6769 43.506 13.0937C44.1566 12.5105 44.4477 11.7111 44.4477 10.6911C44.5116 10.2242 44.4616 9.74856 44.3021 9.3053ZM37.1381 3.92246H40.3226C40.5702 3.92906 40.8148 3.97818 41.0459 4.06771C41.2365 4.12028 41.4106 4.2206 41.5521 4.35929C41.6734 4.48671 41.7716 4.63457 41.8421 4.79612C41.9148 4.94137 41.9148 5.08661 41.9148 5.30503C41.9173 5.65508 41.7877 5.99307 41.5521 6.25077C41.3348 6.54235 40.9004 6.61552 40.3226 6.61552H37.1381V3.92246ZM41.917 11.4174C41.6998 11.709 41.2653 11.781 40.6864 11.781H37.1381V9.08689H40.6842C40.9318 9.09348 41.1765 9.14261 41.4076 9.23213C41.5985 9.28467 41.773 9.38499 41.9148 9.52372C42.0354 9.6515 42.1332 9.79929 42.2037 9.96055C42.2765 10.1058 42.2765 10.251 42.2765 10.4695C42.2765 10.8331 42.2037 11.1968 41.9148 11.4152L41.917 11.4174Z" fill="white"/>
<path d="M8.83817 15.9989C13.2321 15.9989 16.794 12.4174 16.794 7.99945C16.794 3.58148 13.2321 0 8.83817 0C4.44428 0 0.882324 3.58148 0.882324 7.99945C0.882324 12.4174 4.44428 15.9989 8.83817 15.9989Z" fill="white"/>
<path d="M10.9434 9.05017C11.5558 9.05017 12.0523 8.5451 12.0523 7.92206C12.0523 7.29902 11.5558 6.79395 10.9434 6.79395C10.331 6.79395 9.83447 7.29902 9.83447 7.92206C9.83447 8.5451 10.331 9.05017 10.9434 9.05017Z" fill="#080D0B"/>
<path d="M13.9761 9.58778L13.9435 9.53645L13.9348 9.52226C13.8132 9.33005 13.7762 9.28964 13.7176 9.20119C12.9063 7.9453 13.37 7.13826 13.735 6.72654C13.7795 6.67631 13.8208 6.61734 13.8588 6.57147C13.9144 6.50678 13.9622 6.43566 14.0011 6.35961L14.0076 6.34868C14.0809 6.20052 14.1182 6.03694 14.1162 5.87145C14.092 5.59979 13.9675 5.34709 13.7673 5.16305C13.5671 4.97901 13.3057 4.87695 13.0344 4.87695C12.7632 4.87695 12.5017 4.97901 12.3015 5.16305C12.1013 5.34709 11.9769 5.59979 11.9526 5.87145C11.9523 6.05252 11.9979 6.2307 12.0851 6.38909C12.0982 6.4153 12.1601 6.4983 12.1666 6.5125C12.1731 6.52669 12.1959 6.55181 12.2122 6.57038C12.2502 6.61711 12.2908 6.6616 12.3339 6.70361C12.4427 6.82493 12.5374 6.95829 12.6163 7.10112C12.772 7.42185 12.8367 7.77959 12.8032 8.13492C12.7696 8.49026 12.6392 8.82938 12.4262 9.11491L12.1547 9.50151C12.1461 9.51272 12.1381 9.52438 12.1308 9.53645L12.1242 9.54519C12.0139 9.71851 11.9562 9.92039 11.9581 10.1262C11.9823 10.3978 12.1068 10.6505 12.307 10.8346C12.5072 11.0186 12.7686 11.1207 13.0398 11.1207C13.3111 11.1207 13.5725 11.0186 13.7727 10.8346C13.9729 10.6505 14.0974 10.3978 14.1216 10.1262C14.1214 9.93677 14.0708 9.75088 13.975 9.58778H13.9761Z" fill="#080D0B"/>
<path d="M9.77456 9.58767L9.74306 9.53634L9.73329 9.52214C9.61164 9.32994 9.57471 9.28953 9.51606 9.20107C8.70473 7.94518 9.1685 7.13814 9.53344 6.72643C9.57797 6.67619 9.61924 6.61722 9.65726 6.57135C9.71288 6.50666 9.76065 6.43554 9.79954 6.35949L9.80606 6.34857C9.8789 6.20023 9.9161 6.03676 9.91467 5.87133C9.9178 5.70337 9.88235 5.53695 9.81108 5.38501C9.73981 5.23307 9.63464 5.09971 9.50375 4.99531C9.37286 4.89091 9.21979 4.81827 9.05642 4.78305C8.89306 4.74784 8.72382 4.75099 8.56187 4.79227C8.39992 4.83354 8.24962 4.91183 8.12267 5.02104C7.99571 5.13024 7.89553 5.26743 7.82991 5.42192C7.76428 5.5764 7.73499 5.74403 7.74431 5.91176C7.75362 6.07949 7.8013 6.2428 7.88362 6.38898C7.89665 6.41519 7.95856 6.49818 7.96508 6.51238C7.9716 6.52658 7.9944 6.55169 8.0107 6.57026C8.04866 6.61699 8.08927 6.66148 8.13234 6.70349C8.24134 6.82491 8.33643 6.95825 8.41582 7.10101C8.57212 7.42131 8.63758 7.77873 8.60501 8.134C8.57244 8.48927 8.44309 8.82863 8.23118 9.1148C8.16562 9.20802 8.093 9.29601 8.01396 9.37799L7.99549 9.39655C7.87474 9.50615 7.74212 9.60176 7.60014 9.68158C6.4684 10.2211 5.54846 9.47081 5.54846 9.47081L5.45614 9.39437C5.3875 9.34088 5.329 9.2754 5.28345 9.20107C4.47211 7.94518 4.93589 7.13814 5.30082 6.72643C5.34535 6.67619 5.38663 6.61722 5.42464 6.57135C5.48027 6.50666 5.52803 6.43554 5.56692 6.35949L5.57344 6.34857C5.64867 6.20088 5.68777 6.03727 5.68748 5.87133C5.66324 5.59968 5.53879 5.34698 5.33859 5.16294C5.1384 4.9789 4.87696 4.87684 4.60571 4.87684C4.33445 4.87684 4.07301 4.9789 3.87282 5.16294C3.67262 5.34698 3.54817 5.59968 3.52393 5.87133C3.52356 6.05241 3.56917 6.23058 3.65643 6.38898C3.66947 6.41519 3.73138 6.49818 3.73789 6.51238C3.74441 6.52658 3.76722 6.55169 3.78351 6.57026C3.82147 6.61699 3.86209 6.66148 3.90516 6.70349C4.01396 6.82481 4.1087 6.95817 4.18755 7.10101C4.34333 7.42173 4.40801 7.77948 4.37448 8.13481C4.34094 8.49014 4.21048 8.82926 3.99748 9.1148L3.85954 9.31137C3.75344 9.41335 3.669 9.53589 3.61132 9.6716C3.55364 9.80731 3.52391 9.95336 3.52393 10.1009C3.52393 10.1009 3.52393 10.1108 3.52393 10.1162C3.52393 10.1217 3.52393 10.1228 3.52393 10.1261C3.52777 10.3402 3.59416 10.5485 3.71484 10.725C3.83552 10.9015 4.00515 11.0384 4.20263 11.1188C4.40011 11.1991 4.61672 11.2192 4.8255 11.1767C5.03429 11.1342 5.22602 11.0308 5.37685 10.8796C5.43007 10.8425 5.46483 10.8162 5.5137 10.7846C6.76274 9.9688 7.56539 10.4351 7.97594 10.8021C8.00852 10.8315 8.04328 10.8599 8.07804 10.8861C8.22985 11.0358 8.422 11.1374 8.63068 11.1783C8.83936 11.2192 9.05538 11.1976 9.25197 11.1162C9.44856 11.0348 9.61707 10.8972 9.73661 10.7204C9.85615 10.5436 9.92146 10.3354 9.92444 10.1217C9.92421 9.93229 9.87359 9.74639 9.77782 9.5833L9.77456 9.58767Z" fill="#080D0B"/>
</g>
<defs>
<clipPath id="clip0_1_478">
<rect width="84.2353" height="16" fill="white" transform="translate(0.882324)"/>
</clipPath>
</defs>
</svg>
