<svg width="126" height="16" viewBox="0 0 126 16" fill="none" xmlns="http://www.w3.org/2000/svg">
<g clip-path="url(#clip0_1_452)">
<path d="M24.9341 10.9559L19.6104 1.46707C18.4432 -0.510634 15.5971 -0.531674 14.4709 1.55122L8.88105 11.4187C7.83675 13.2281 9.12671 15.5003 11.2153 15.5003H22.4155C24.5246 15.5003 26.1012 13.1649 24.9341 10.9559Z" fill="white"/>
<path d="M17.256 11.6915L16.9284 11.1024C16.6213 10.5553 15.9456 9.37713 15.9456 9.37713L11.4409 1.34012C10.2738 -0.448226 7.50955 -0.595503 6.34243 1.65571L1.10062 10.9761C0.0154018 12.9328 1.30538 15.4785 3.6601 15.4996H14.7989H19.5493H22.375C19.4879 15.5207 18.5665 13.9847 17.256 11.6915Z" fill="white"/>
<path d="M17.2556 11.6913L16.928 11.1023C16.6209 10.5552 15.9451 9.37703 15.9451 9.37703L13.0376 4.11719L8.86051 11.4389C7.81627 13.2483 9.10624 15.5205 11.1948 15.5205H14.778H19.5284H22.3746C19.467 15.4995 18.566 13.9847 17.2556 11.6913Z" fill="white"/>
<path d="M123.661 14.7625C122.903 14.7625 122.309 14.5942 121.859 14.2996C121.388 13.984 121.142 13.5211 121.142 12.8899V3.7168H122.33C122.76 3.7168 123.129 4.07447 123.129 4.53733V12.6164C123.129 12.6375 123.129 13.0162 123.436 13.3318C123.619 13.5211 123.845 13.6263 124.152 13.6263H124.377C124.46 13.6263 124.541 13.7105 124.541 13.7946V14.7835L123.661 14.7625Z" fill="white"/>
<path d="M98.0677 14.7625C96.839 14.7625 95.8358 14.4259 95.078 13.7526C94.6894 13.4159 94.4232 13.0372 94.2594 12.6164C94.0955 12.1957 94.0132 11.5855 94.0132 10.765C94.0132 9.96551 94.0955 9.33427 94.2594 8.91347C94.4025 8.51378 94.6687 8.15606 95.0579 7.81945C95.815 7.1462 96.8183 6.80957 98.0469 6.80957C99.2756 6.80957 100.279 7.1462 101.037 7.81945C101.426 8.15606 101.692 8.53481 101.835 8.91347C101.999 9.3553 102.081 9.96551 102.081 10.765C102.081 11.5855 101.999 12.1957 101.835 12.6164C101.671 13.0372 101.405 13.4159 101.016 13.7526C100.3 14.4259 99.2963 14.7625 98.0677 14.7625ZM98.0677 7.96673C96.7159 7.96673 96.0404 8.91347 96.0404 10.786C96.0404 12.6796 96.7159 13.6263 98.0677 13.6263C99.4187 13.6263 100.095 12.6796 100.095 10.807C100.095 8.91347 99.3987 7.96673 98.0677 7.96673Z" fill="white"/>
<path d="M106.544 14.7634C105.479 14.7634 104.496 14.4689 103.657 13.9008C103.575 13.8166 103.411 13.7115 103.206 13.5852C103.165 13.5642 103.125 13.501 103.125 13.438V3.71777H104.332C104.762 3.71777 105.131 4.09648 105.131 4.53831V7.37862L105.5 7.16823C105.93 6.9368 106.503 6.8316 107.24 6.8316C108.53 6.8316 109.513 7.23134 110.168 8.00977C110.741 8.7041 111.028 9.62981 111.028 10.766C111.028 11.9021 110.7 12.8278 110.045 13.501C109.287 14.3426 108.1 14.7634 106.544 14.7634ZM106.748 7.96772C106.298 7.96772 105.786 8.13602 105.213 8.49373L105.131 8.53579V13.1014L105.213 13.1644C105.663 13.459 106.196 13.6063 106.748 13.6063C107.485 13.6063 108.059 13.2907 108.448 12.6595C108.775 12.1545 108.96 11.5023 108.96 10.766C108.96 8.91446 108.202 7.96772 106.748 7.96772Z" fill="white"/>
<path d="M115.757 14.7424C113.504 14.7424 112.091 13.2276 112.091 10.766C112.091 8.32542 113.483 6.81055 115.715 6.81055C116.575 6.81055 117.312 7.04198 117.906 7.48381L118.029 7.56796V6.95782H119.606C119.708 6.95782 119.77 7.04198 119.77 7.12614V14.5951H118.008V13.9218L117.885 14.0271C117.394 14.4899 116.616 14.7424 115.757 14.7424ZM116.166 8.15704C114.753 8.15704 113.913 9.27216 113.913 10.766C113.913 12.2597 114.753 13.4169 116.166 13.4169C116.616 13.4169 117.394 13.3749 118.008 12.7436L118.029 12.7226V8.89342L118.008 8.87239C117.578 8.36748 116.944 8.15704 116.166 8.15704Z" fill="white"/>
<path d="M43.0083 14.6578V3.69629H51.8743V4.39059C51.8743 4.93761 51.4443 5.37944 50.912 5.37944H45.2197V8.32492H50.912V10.0081H45.2197V12.9536H50.912C51.4443 12.9536 51.8743 13.3954 51.8743 13.9424V14.6368L43.0083 14.6578Z" fill="white"/>
<path d="M64.6071 3.69629H62.5185C62.1294 3.69629 61.7814 3.8646 61.5357 4.18019L59.0172 7.4413L56.4986 4.20123C56.2529 3.88565 55.9048 3.71733 55.5158 3.71733H53.4272L57.6657 9.18755L53.4272 14.6578H55.5158C55.9048 14.6578 56.2529 14.4895 56.4986 14.1739L59.0172 10.9338L61.5561 14.1949C61.8019 14.4895 62.15 14.6788 62.539 14.6788H64.6276L60.389 9.20858L64.6071 3.69629Z" fill="white"/>
<path d="M36.0672 13.5011L38.9748 8.28339V14.6373H41.1862V3.67578H39.8143C39.3843 3.67578 38.9748 3.90721 38.77 4.30696L35.2891 10.8291L31.8083 4.30696C31.6035 3.90721 31.1939 3.67578 30.7639 3.67578H29.3921V14.6373H31.6035V8.28339L34.511 13.5011H36.0672Z" fill="white"/>
<path d="M70.3843 14.7839C67.3129 14.8259 64.8149 12.3433 64.7944 9.18738C64.7944 7.46215 65.3063 6.03147 66.2687 5.04263C67.2311 4.07482 68.6234 3.54883 70.282 3.54883C72.2271 3.54883 73.7628 4.24313 74.8685 5.58965L74.1724 6.19979C73.7424 6.5785 73.1076 6.59954 72.6367 6.24187C72.0224 5.75796 71.2443 5.52653 70.3638 5.52653C68.1934 5.52653 66.9034 6.87305 66.9034 9.14532C66.9034 11.4386 68.2343 12.8483 70.3638 12.8483C71.2647 12.8483 72.0224 12.5958 72.6367 12.1329C73.0871 11.7752 73.7218 11.7963 74.1724 12.175L74.8685 12.7851C73.7628 14.1106 72.2886 14.7839 70.3843 14.7839Z" fill="white"/>
<path d="M83.9996 14.7838C80.5597 14.7838 78.4302 12.6378 78.4302 9.18726C78.4302 5.73683 80.5597 3.59082 83.9588 3.59082C85.5967 3.59082 86.9685 4.07472 88.0333 5.06357L87.5217 5.65268C87.2962 5.90515 86.9685 6.05243 86.6408 6.05243C86.4569 6.05243 86.2722 6.01035 86.1084 5.92619C85.4736 5.58956 84.7366 5.42124 83.9588 5.42124C81.7469 5.42124 80.3751 6.87296 80.3751 9.20836C80.3751 11.5647 81.8084 13.0164 84.1019 13.0164C85.2074 13.0164 86.0676 12.8061 86.7023 12.3432L86.7431 12.3222V10.0709H84.3065V9.33453C84.3065 8.78756 84.7366 8.34573 85.269 8.34573H88.2787C88.361 8.34573 88.4426 8.42985 88.4426 8.51404V13.3742C87.3986 14.2999 85.9037 14.7838 83.9996 14.7838Z" fill="white"/>
<path d="M92.3934 14.7625C91.6356 14.7625 91.0416 14.5942 90.5915 14.2996C90.1207 13.984 89.8745 13.5211 89.8745 12.8899V3.7168H91.0624C91.4925 3.7168 91.861 4.07447 91.861 4.53733V12.6164C91.861 12.6375 91.861 13.0162 92.168 13.3318C92.3526 13.5211 92.5773 13.6263 92.8842 13.6263H93.1097C93.192 13.6263 93.2735 13.7105 93.2735 13.7946V14.7835L92.3934 14.7625Z" fill="white"/>
</g>
<defs>
<clipPath id="clip0_1_452">
<rect width="124.571" height="16" fill="white" transform="translate(0.714355)"/>
</clipPath>
</defs>
</svg>
