<svg width="70" height="16" viewBox="0 0 70 16" fill="none" xmlns="http://www.w3.org/2000/svg">
<g clip-path="url(#clip0_1_468)">
<mask id="mask0_1_468" style="mask-type:alpha" maskUnits="userSpaceOnUse" x="0" y="0" width="70" height="16">
<path d="M0.0908203 0H69.909V16H0.0908203V0Z" fill="white"/>
</mask>
<g mask="url(#mask0_1_468)">
<path fill-rule="evenodd" clip-rule="evenodd" d="M57.8909 4.75523H59.8737V2.77051H57.8909V4.75523ZM47.3519 8.06043C47.7307 7.0548 48.7009 6.33878 49.8386 6.33878C50.9761 6.33878 51.9463 7.0548 52.3253 8.06043H47.3519ZM49.8386 4.49348C47.3532 4.49348 45.3377 6.51057 45.3377 8.99885C45.3377 11.4871 47.3532 13.5039 49.8386 13.5039C51.5442 13.5039 53.0279 12.5547 53.7916 11.1555L52.1285 10.3479C51.6664 11.1321 50.8141 11.6586 49.8386 11.6586C48.6061 11.6586 47.5701 10.8188 47.2695 9.67968H52.4076C52.4072 9.68051 52.4071 9.68167 52.4069 9.68266H54.2887C54.3227 9.4596 54.3403 9.23122 54.3403 8.99885C54.3403 6.51057 52.3248 4.49348 49.8386 4.49348ZM54.863 13.2637H56.8458V11.279H54.863V13.2637ZM57.8909 13.2637H59.8737V5.62775H57.8909V13.2637ZM65.408 11.6586C63.9403 11.6586 62.7506 10.4677 62.7506 8.99885C62.7506 7.52965 63.9403 6.33878 65.408 6.33878C66.8756 6.33878 68.0653 7.52965 68.0653 8.99885C68.0653 10.4677 66.8756 11.6586 65.408 11.6586ZM65.4071 4.49348C62.9217 4.49348 60.9062 6.51057 60.9062 8.99885C60.9062 11.4871 62.9217 13.5039 65.4071 13.5039C67.8934 13.5039 69.9088 11.4871 69.9088 8.99885C69.9088 6.51057 67.8934 4.49348 65.4071 4.49348ZM23.9512 7.33811V9.39022H26.7236C26.5789 9.9766 26.2927 10.5021 25.8823 10.9218C25.2633 11.555 24.4051 11.9039 23.4654 11.9039C21.5156 11.9039 19.929 10.316 19.929 8.36417C19.929 6.41231 21.5156 4.82427 23.4654 4.82427C24.5098 4.82427 25.4699 5.27174 26.1355 6.04352L27.7228 4.74527C26.6704 3.51075 25.1089 2.772 23.4654 2.772C20.385 2.772 17.8789 5.2807 17.8789 8.36417C17.8789 11.4476 20.385 13.9562 23.4654 13.9562C24.961 13.9562 26.3398 13.4167 27.3478 12.3857C28.1936 11.5203 28.7542 10.3132 28.862 9.10391C28.9146 8.51404 28.9194 7.92815 28.8884 7.33811H23.9512ZM34.0507 11.6591C32.5831 11.6591 31.3932 10.4679 31.3932 8.99885C31.3932 7.52948 32.5831 6.33862 34.0507 6.33862C35.5185 6.33862 36.7084 7.52948 36.7084 8.99885C36.7084 10.4679 35.5185 11.6591 34.0507 11.6591ZM36.7087 5.37149C35.9637 4.82477 35.0451 4.50112 34.0507 4.50112C31.5653 4.50112 29.5505 6.51804 29.5505 9.00582C29.5505 11.4939 31.5653 13.5105 34.0507 13.5105C35.0451 13.5105 35.9637 13.187 36.7087 12.6403V13.2637H38.5511V4.74809H36.7087V5.37149ZM42.5061 2.77067H40.6635V4.75523H39.5592V6.4958H40.6635V11.0508C40.6635 11.5212 40.7226 11.9168 40.8396 12.2274C40.9551 12.5346 41.1315 12.7751 41.3412 12.963C41.5538 13.1537 41.8032 13.3022 42.0988 13.3865C42.3993 13.4712 42.7308 13.5039 43.0811 13.5039C43.4438 13.5039 43.7671 13.4662 44.043 13.3917C44.2992 13.3228 44.5448 13.2254 44.7733 13.1016V11.6991C44.4098 11.8564 44.0701 11.9134 43.6824 11.9314C43.2731 11.9507 43.0311 11.8337 42.8296 11.6415C42.6185 11.4402 42.5061 11.1778 42.5061 10.7376V6.4958H44.7733V4.75523H42.5061V2.77067Z" fill="white"/>
<path fill-rule="evenodd" clip-rule="evenodd" d="M8.08327 12.4001C5.65557 12.4001 3.68751 10.4303 3.68751 8.00012C3.68751 5.57009 5.65557 3.59998 8.08327 3.59998V0C3.66911 0 0.0908203 3.58172 0.0908203 8.00012C0.0908203 12.4183 3.66911 16.0001 8.08327 16.0001C12.4973 16.0001 16.0757 12.4183 16.0757 8.00012H12.479C12.479 10.4303 10.511 12.4001 8.08327 12.4001Z" fill="white"/>
<path fill-rule="evenodd" clip-rule="evenodd" d="M8.08301 7.99958H12.4788V3.59961H8.08301V7.99958Z" fill="white"/>
</g>
</g>
<defs>
<clipPath id="clip0_1_468">
<rect width="69.8182" height="16" fill="white" transform="translate(0.0908203)"/>
</clipPath>
</defs>
</svg>
