<svg width="48" height="48" viewBox="0 0 48 48" fill="none" xmlns="http://www.w3.org/2000/svg">
<path d="M0 24C0 10.7452 10.7452 0 24 0V0C37.2548 0 48 10.7452 48 24V24C48 37.2548 37.2548 48 24 48V48C10.7452 48 0 37.2548 0 24V24Z" fill="black"/>
<path d="M0 24C0 10.7452 10.7452 0 24 0V0C37.2548 0 48 10.7452 48 24V24C48 37.2548 37.2548 48 24 48V48C10.7452 48 0 37.2548 0 24V24Z" fill="#1A1D22"/>
<path d="M22.8063 13.5921C23.1057 12.6708 24.4091 12.6708 24.7085 13.5921L26.5808 19.3547C26.7147 19.7667 27.0987 20.0457 27.5319 20.0457H33.591C34.5598 20.0457 34.9625 21.2853 34.1788 21.8547L29.2769 25.4161C28.9264 25.6708 28.7797 26.1222 28.9136 26.5342L30.786 32.2968C31.0853 33.2181 30.0308 33.9842 29.2471 33.4148L24.3452 29.8533C23.9947 29.5987 23.5201 29.5987 23.1696 29.8533L18.2677 33.4148C17.484 33.9842 16.4295 33.2181 16.7288 32.2968L18.6012 26.5342C18.7351 26.1222 18.5884 25.6708 18.2379 25.4161L13.336 21.8547C12.5523 21.2853 12.955 20.0457 13.9238 20.0457H19.9829C20.4161 20.0457 20.8001 19.7667 20.934 19.3547L22.8063 13.5921Z" fill="#FFF959"/>
</svg>
