<svg width="48" height="48" viewBox="0 0 48 48" fill="none" xmlns="http://www.w3.org/2000/svg">
<path d="M0 24C0 10.7452 10.7452 0 24 0C37.2548 0 48 10.7452 48 24C48 37.2548 37.2548 48 24 48C10.7452 48 0 37.2548 0 24Z" fill="#1A1D22"/>
<path d="M16.9414 35.7646L16.9414 30.6824L23.5296 27.2942L30.1179 30.6824L30.1179 35.7646L23.5296 32.3765L16.9414 35.7646Z" fill="#FFF959"/>
<path d="M16.9414 27.2949L16.9414 22.2126L23.5296 18.8244L30.1179 22.2126L30.1179 27.2949L23.5296 23.9067L16.9414 27.2949Z" fill="#FFF959"/>
<path d="M16.9414 18.8223L16.9414 13.74L23.5296 10.3518L30.1179 13.74L30.1179 18.8223L23.5296 15.4341L16.9414 18.8223Z" fill="#FFF959"/>
</svg>
