<svg width="25" height="17" viewBox="0 0 25 17" fill="none" xmlns="http://www.w3.org/2000/svg">
<g clip-path="url(#clip0_1_318)">
<path d="M24.0216 13.1786V12.8906H23.9466L23.8598 13.0883L23.7735 12.8906H23.6983V13.1786H23.7516V12.9617L23.8327 13.1489H23.8879L23.969 12.9612V13.1786H24.0218H24.0216ZM23.5458 13.1786V12.9399H23.6418V12.8913H23.3965V12.9399H23.4925V13.1786H23.5453H23.5458Z" fill="#F79410"/>
<path d="M15.4972 14.414H9.00684V2.75H15.4973L15.4972 14.414Z" fill="#FF5F00"/>
<path d="M9.418 8.58211C9.418 6.21607 10.5258 4.10839 12.251 2.75011C10.9451 1.72045 9.33002 1.16161 7.66708 1.16407C3.57064 1.16407 0.25 4.48519 0.25 8.58211C0.25 12.679 3.57064 16.0002 7.66708 16.0002C9.33007 16.0026 10.9452 15.4438 12.2511 14.4141C10.5261 13.0561 9.418 10.9483 9.418 8.58211Z" fill="#EB001B"/>
<path d="M24.2527 8.58211C24.2527 12.679 20.932 16.0001 16.8356 16.0001C15.1724 16.0026 13.5571 15.4438 12.251 14.4141C13.9766 13.0558 15.0844 10.9483 15.0844 8.58211C15.0844 6.21595 13.9766 4.10839 12.251 2.75011C13.5571 1.72048 15.1723 1.16166 16.8355 1.16407C20.9319 1.16407 24.2525 4.48519 24.2525 8.58211" fill="#F79E1B"/>
</g>
<defs>
<clipPath id="clip0_1_318">
<rect width="24" height="16" fill="white" transform="translate(0.25 0.5)"/>
</clipPath>
</defs>
</svg>
