<svg width="350" height="59" viewBox="0 0 350 59" fill="none" xmlns="http://www.w3.org/2000/svg">
<rect x="0.5" y="0.5" width="349" height="26" rx="13" stroke="#3F3F3F"/>
<rect x="209" width="141" height="27" rx="13.5" fill="#0CFF8A"/>
<rect x="104" width="141" height="27" rx="13.5" fill="#3287F5"/>
<rect x="43" width="82" height="27" rx="13.5" fill="#40F59F"/>
<rect width="69" height="27" rx="13.5" fill="#FFF61B"/>
<path d="M6.612 40.484L5.316 40.892C5.26 40.564 5.096 40.264 4.824 39.992C4.552 39.72 4.16 39.584 3.648 39.584C3.224 39.584 2.872 39.704 2.592 39.944C2.32 40.184 2.184 40.472 2.184 40.808C2.184 41.392 2.516 41.756 3.18 41.9L4.404 42.152C5.14 42.296 5.708 42.588 6.108 43.028C6.508 43.468 6.708 43.992 6.708 44.6C6.708 45.304 6.436 45.912 5.892 46.424C5.356 46.928 4.624 47.18 3.696 47.18C2.696 47.18 1.916 46.92 1.356 46.4C0.796 45.872 0.48 45.26 0.408 44.564L1.752 44.18C1.8 44.66 1.992 45.064 2.328 45.392C2.664 45.72 3.12 45.884 3.696 45.884C4.192 45.884 4.572 45.776 4.836 45.56C5.108 45.336 5.244 45.052 5.244 44.708C5.244 44.428 5.144 44.188 4.944 43.988C4.744 43.78 4.464 43.636 4.104 43.556L2.904 43.304C2.24 43.168 1.712 42.892 1.32 42.476C0.936 42.06 0.744 41.54 0.744 40.916C0.744 40.204 1.028 39.592 1.596 39.08C2.164 38.568 2.844 38.312 3.636 38.312C4.54 38.312 5.232 38.532 5.712 38.972C6.192 39.404 6.492 39.908 6.612 40.484ZM8.97356 43.436H11.8416C11.8256 43.068 11.6936 42.76 11.4456 42.512C11.2056 42.264 10.8576 42.14 10.4016 42.14C9.98556 42.14 9.64956 42.272 9.39356 42.536C9.13756 42.792 8.99756 43.092 8.97356 43.436ZM11.9976 44.96L13.1736 45.332C13.0056 45.868 12.6896 46.312 12.2256 46.664C11.7696 47.008 11.2056 47.18 10.5336 47.18C9.70156 47.18 8.99356 46.896 8.40956 46.328C7.83356 45.76 7.54556 45 7.54556 44.048C7.54556 43.152 7.82556 42.416 8.38556 41.84C8.95356 41.264 9.62156 40.976 10.3896 40.976C11.2856 40.976 11.9856 41.252 12.4896 41.804C12.9936 42.348 13.2456 43.084 13.2456 44.012C13.2456 44.26 13.2336 44.408 13.2096 44.456H8.93756C8.95356 44.896 9.11356 45.26 9.41756 45.548C9.72956 45.836 10.1016 45.98 10.5336 45.98C11.2856 45.98 11.7736 45.64 11.9976 44.96ZM15.5478 43.436H18.4158C18.3998 43.068 18.2678 42.76 18.0198 42.512C17.7798 42.264 17.4318 42.14 16.9758 42.14C16.5598 42.14 16.2238 42.272 15.9678 42.536C15.7118 42.792 15.5718 43.092 15.5478 43.436ZM18.5718 44.96L19.7478 45.332C19.5798 45.868 19.2638 46.312 18.7998 46.664C18.3438 47.008 17.7798 47.18 17.1078 47.18C16.2758 47.18 15.5678 46.896 14.9838 46.328C14.4078 45.76 14.1198 45 14.1198 44.048C14.1198 43.152 14.3998 42.416 14.9598 41.84C15.5278 41.264 16.1958 40.976 16.9638 40.976C17.8598 40.976 18.5598 41.252 19.0638 41.804C19.5678 42.348 19.8198 43.084 19.8198 44.012C19.8198 44.26 19.8078 44.408 19.7838 44.456H15.5118C15.5278 44.896 15.6878 45.26 15.9918 45.548C16.3038 45.836 16.6758 45.98 17.1078 45.98C17.8598 45.98 18.3478 45.64 18.5718 44.96ZM22.086 44.06C22.086 44.62 22.23 45.072 22.518 45.416C22.806 45.752 23.186 45.92 23.658 45.92C24.114 45.92 24.486 45.748 24.774 45.404C25.062 45.06 25.206 44.608 25.206 44.048C25.206 43.496 25.066 43.056 24.786 42.728C24.506 42.4 24.134 42.236 23.67 42.236C23.206 42.236 22.826 42.404 22.53 42.74C22.234 43.068 22.086 43.508 22.086 44.06ZM26.55 38.312V45.932C26.55 46.324 26.57 46.68 26.61 47H25.278C25.238 46.776 25.218 46.524 25.218 46.244C25.074 46.508 24.85 46.724 24.546 46.892C24.242 47.06 23.894 47.144 23.502 47.144C22.67 47.144 21.994 46.852 21.474 46.268C20.954 45.684 20.694 44.948 20.694 44.06C20.694 43.204 20.954 42.48 21.474 41.888C22.002 41.296 22.67 41 23.478 41C23.942 41 24.314 41.084 24.594 41.252C24.882 41.42 25.082 41.616 25.194 41.84V38.312H26.55ZM32.7253 49.28H31.3453V41.156H32.6893V41.948C32.8413 41.684 33.0813 41.464 33.4093 41.288C33.7373 41.112 34.1173 41.024 34.5493 41.024C35.3893 41.024 36.0493 41.312 36.5293 41.888C37.0093 42.456 37.2493 43.184 37.2493 44.072C37.2493 44.96 36.9973 45.696 36.4933 46.28C35.9893 46.856 35.3253 47.144 34.5013 47.144C34.1013 47.144 33.7453 47.068 33.4333 46.916C33.1213 46.764 32.8853 46.572 32.7253 46.34V49.28ZM35.8573 44.072C35.8573 43.528 35.7133 43.092 35.4253 42.764C35.1373 42.428 34.7573 42.26 34.2853 42.26C33.8213 42.26 33.4413 42.428 33.1453 42.764C32.8573 43.092 32.7133 43.528 32.7133 44.072C32.7133 44.624 32.8573 45.068 33.1453 45.404C33.4413 45.74 33.8213 45.908 34.2853 45.908C34.7493 45.908 35.1253 45.74 35.4133 45.404C35.7093 45.068 35.8573 44.624 35.8573 44.072ZM42.0075 41.12V42.536C41.8475 42.512 41.6955 42.5 41.5515 42.5C40.5035 42.5 39.9795 43.072 39.9795 44.216V47H38.5875V41.156H39.9435V42.092C40.0795 41.78 40.2995 41.536 40.6035 41.36C40.9075 41.176 41.2515 41.084 41.6355 41.084C41.7635 41.084 41.8875 41.096 42.0075 41.12ZM44.5495 47H43.1695V41.156H44.5495V47ZM43.2175 39.74C43.0415 39.564 42.9535 39.352 42.9535 39.104C42.9535 38.856 43.0415 38.644 43.2175 38.468C43.3935 38.284 43.6055 38.192 43.8535 38.192C44.1095 38.192 44.3255 38.28 44.5015 38.456C44.6775 38.632 44.7655 38.848 44.7655 39.104C44.7655 39.352 44.6775 39.564 44.5015 39.74C44.3255 39.916 44.1095 40.004 43.8535 40.004C43.6055 40.004 43.3935 39.916 43.2175 39.74ZM51.6253 41.156L49.3333 47H47.9413L45.5653 41.156H47.1013L48.6493 45.332L50.1613 41.156H51.6253ZM52.2548 45.416C52.2548 44.92 52.4148 44.524 52.7348 44.228C53.0628 43.924 53.4908 43.732 54.0188 43.652L55.5188 43.424C55.8068 43.384 55.9508 43.244 55.9508 43.004C55.9508 42.74 55.8588 42.528 55.6748 42.368C55.4908 42.2 55.2148 42.116 54.8468 42.116C54.4948 42.116 54.2148 42.216 54.0068 42.416C53.7988 42.608 53.6788 42.86 53.6468 43.172L52.3748 42.884C52.4308 42.356 52.6828 41.908 53.1308 41.54C53.5788 41.164 54.1468 40.976 54.8348 40.976C55.6828 40.976 56.3068 41.18 56.7068 41.588C57.1148 41.996 57.3188 42.52 57.3188 43.16V46.064C57.3188 46.448 57.3428 46.76 57.3908 47H56.0948C56.0548 46.88 56.0348 46.632 56.0348 46.256C55.6508 46.872 55.0508 47.18 54.2348 47.18C53.6428 47.18 53.1628 47.008 52.7948 46.664C52.4348 46.312 52.2548 45.896 52.2548 45.416ZM54.4988 46.088C54.9308 46.088 55.2788 45.972 55.5428 45.74C55.8148 45.5 55.9508 45.112 55.9508 44.576V44.312L54.4268 44.54C53.9068 44.628 53.6468 44.892 53.6468 45.332C53.6468 45.54 53.7228 45.72 53.8748 45.872C54.0268 46.016 54.2348 46.088 54.4988 46.088ZM60.7421 39.368V41.156H61.9541V42.392H60.7421V45.104C60.7421 45.36 60.8021 45.548 60.9221 45.668C61.0421 45.78 61.2301 45.836 61.4861 45.836C61.6461 45.836 61.8061 45.82 61.9661 45.788V46.94C61.7581 47.028 61.4741 47.072 61.1141 47.072C60.5701 47.072 60.1421 46.92 59.8301 46.616C59.5181 46.304 59.3621 45.876 59.3621 45.332V42.392H58.2821V41.156H58.5821C58.8781 41.156 59.1021 41.072 59.2541 40.904C59.4061 40.736 59.4821 40.516 59.4821 40.244V39.368H60.7421ZM64.2978 43.436H67.1658C67.1498 43.068 67.0178 42.76 66.7698 42.512C66.5298 42.264 66.1818 42.14 65.7258 42.14C65.3098 42.14 64.9738 42.272 64.7178 42.536C64.4618 42.792 64.3218 43.092 64.2978 43.436ZM67.3218 44.96L68.4978 45.332C68.3298 45.868 68.0138 46.312 67.5498 46.664C67.0938 47.008 66.5298 47.18 65.8578 47.18C65.0258 47.18 64.3178 46.896 63.7338 46.328C63.1578 45.76 62.8698 45 62.8698 44.048C62.8698 43.152 63.1498 42.416 63.7098 41.84C64.2778 41.264 64.9458 40.976 65.7138 40.976C66.6098 40.976 67.3098 41.252 67.8138 41.804C68.3178 42.348 68.5698 43.084 68.5698 44.012C68.5698 44.26 68.5578 44.408 68.5338 44.456H64.2618C64.2778 44.896 64.4378 45.26 64.7418 45.548C65.0538 45.836 65.4258 45.98 65.8578 45.98C66.6098 45.98 67.0978 45.64 67.3218 44.96Z" fill="#D9D9D9"/>
<path d="M100.484 47H99.02V38.492H100.484V47ZM103.964 45.68H105.476C106.26 45.68 106.904 45.432 107.408 44.936C107.92 44.432 108.176 43.708 108.176 42.764C108.176 41.812 107.924 41.084 107.42 40.58C106.916 40.068 106.272 39.812 105.488 39.812H103.964V45.68ZM105.524 47H102.524V38.492H105.536C106.736 38.492 107.724 38.872 108.5 39.632C109.284 40.392 109.676 41.436 109.676 42.764C109.676 44.084 109.284 45.12 108.5 45.872C107.716 46.624 106.724 47 105.524 47ZM112.984 40.484C112.424 41.02 112.144 41.772 112.144 42.74C112.144 43.708 112.424 44.464 112.984 45.008C113.544 45.544 114.212 45.812 114.988 45.812C115.764 45.812 116.432 45.544 116.992 45.008C117.56 44.464 117.844 43.708 117.844 42.74C117.844 41.772 117.56 41.02 116.992 40.484C116.432 39.94 115.764 39.668 114.988 39.668C114.212 39.668 113.544 39.94 112.984 40.484ZM111.28 45.116C110.872 44.428 110.668 43.636 110.668 42.74C110.668 41.844 110.872 41.056 111.28 40.376C111.696 39.688 112.228 39.172 112.876 38.828C113.524 38.484 114.228 38.312 114.988 38.312C115.748 38.312 116.452 38.484 117.1 38.828C117.748 39.172 118.28 39.688 118.696 40.376C119.112 41.056 119.32 41.844 119.32 42.74C119.32 43.636 119.112 44.428 118.696 45.116C118.28 45.804 117.748 46.32 117.1 46.664C116.452 47.008 115.748 47.18 114.988 47.18C114.228 47.18 113.524 47.008 112.876 46.664C112.228 46.32 111.696 45.804 111.28 45.116Z" fill="#D9D9D9"/>
<path d="M206.612 40.484L205.316 40.892C205.26 40.564 205.096 40.264 204.824 39.992C204.552 39.72 204.16 39.584 203.648 39.584C203.224 39.584 202.872 39.704 202.592 39.944C202.32 40.184 202.184 40.472 202.184 40.808C202.184 41.392 202.516 41.756 203.18 41.9L204.404 42.152C205.14 42.296 205.708 42.588 206.108 43.028C206.508 43.468 206.708 43.992 206.708 44.6C206.708 45.304 206.436 45.912 205.892 46.424C205.356 46.928 204.624 47.18 203.696 47.18C202.696 47.18 201.916 46.92 201.356 46.4C200.796 45.872 200.48 45.26 200.408 44.564L201.752 44.18C201.8 44.66 201.992 45.064 202.328 45.392C202.664 45.72 203.12 45.884 203.696 45.884C204.192 45.884 204.572 45.776 204.836 45.56C205.108 45.336 205.244 45.052 205.244 44.708C205.244 44.428 205.144 44.188 204.944 43.988C204.744 43.78 204.464 43.636 204.104 43.556L202.904 43.304C202.24 43.168 201.712 42.892 201.32 42.476C200.936 42.06 200.744 41.54 200.744 40.916C200.744 40.204 201.028 39.592 201.596 39.08C202.164 38.568 202.844 38.312 203.636 38.312C204.54 38.312 205.232 38.532 205.712 38.972C206.192 39.404 206.492 39.908 206.612 40.484ZM208.974 43.436H211.842C211.826 43.068 211.694 42.76 211.446 42.512C211.206 42.264 210.858 42.14 210.402 42.14C209.986 42.14 209.65 42.272 209.394 42.536C209.138 42.792 208.998 43.092 208.974 43.436ZM211.998 44.96L213.174 45.332C213.006 45.868 212.69 46.312 212.226 46.664C211.77 47.008 211.206 47.18 210.534 47.18C209.702 47.18 208.994 46.896 208.41 46.328C207.834 45.76 207.546 45 207.546 44.048C207.546 43.152 207.826 42.416 208.386 41.84C208.954 41.264 209.622 40.976 210.39 40.976C211.286 40.976 211.986 41.252 212.49 41.804C212.994 42.348 213.246 43.084 213.246 44.012C213.246 44.26 213.234 44.408 213.21 44.456H208.938C208.954 44.896 209.114 45.26 209.418 45.548C209.73 45.836 210.102 45.98 210.534 45.98C211.286 45.98 211.774 45.64 211.998 44.96ZM217.996 41.12V42.536C217.836 42.512 217.684 42.5 217.54 42.5C216.492 42.5 215.968 43.072 215.968 44.216V47H214.576V41.156H215.932V42.092C216.068 41.78 216.288 41.536 216.592 41.36C216.896 41.176 217.24 41.084 217.624 41.084C217.752 41.084 217.876 41.096 217.996 41.12ZM220.538 47H219.158V41.156H220.538V47ZM219.206 39.74C219.03 39.564 218.942 39.352 218.942 39.104C218.942 38.856 219.03 38.644 219.206 38.468C219.382 38.284 219.594 38.192 219.842 38.192C220.098 38.192 220.314 38.28 220.49 38.456C220.666 38.632 220.754 38.848 220.754 39.104C220.754 39.352 220.666 39.564 220.49 39.74C220.314 39.916 220.098 40.004 219.842 40.004C219.594 40.004 219.382 39.916 219.206 39.74ZM223.306 43.436H226.174C226.158 43.068 226.026 42.76 225.778 42.512C225.538 42.264 225.19 42.14 224.734 42.14C224.318 42.14 223.982 42.272 223.726 42.536C223.47 42.792 223.33 43.092 223.306 43.436ZM226.33 44.96L227.506 45.332C227.338 45.868 227.022 46.312 226.558 46.664C226.102 47.008 225.538 47.18 224.866 47.18C224.034 47.18 223.326 46.896 222.742 46.328C222.166 45.76 221.878 45 221.878 44.048C221.878 43.152 222.158 42.416 222.718 41.84C223.286 41.264 223.954 40.976 224.722 40.976C225.618 40.976 226.318 41.252 226.822 41.804C227.326 42.348 227.578 43.084 227.578 44.012C227.578 44.26 227.566 44.408 227.542 44.456H223.27C223.286 44.896 223.446 45.26 223.75 45.548C224.062 45.836 224.434 45.98 224.866 45.98C225.618 45.98 226.106 45.64 226.33 44.96ZM228.392 45.416L229.604 45.08C229.628 45.36 229.744 45.596 229.952 45.788C230.16 45.98 230.44 46.076 230.792 46.076C231.064 46.076 231.276 46.012 231.428 45.884C231.588 45.756 231.668 45.596 231.668 45.404C231.668 45.068 231.44 44.852 230.984 44.756L230.12 44.564C229.616 44.452 229.228 44.244 228.956 43.94C228.684 43.636 228.548 43.276 228.548 42.86C228.548 42.348 228.756 41.908 229.172 41.54C229.588 41.164 230.096 40.976 230.696 40.976C231.08 40.976 231.42 41.032 231.716 41.144C232.012 41.256 232.24 41.404 232.4 41.588C232.568 41.764 232.696 41.936 232.784 42.104C232.872 42.272 232.928 42.44 232.952 42.608L231.776 42.944C231.744 42.72 231.64 42.52 231.464 42.344C231.296 42.16 231.04 42.068 230.696 42.068C230.456 42.068 230.256 42.136 230.096 42.272C229.936 42.4 229.856 42.556 229.856 42.74C229.856 43.068 230.052 43.272 230.444 43.352L231.332 43.532C231.876 43.652 232.292 43.868 232.58 44.18C232.868 44.492 233.012 44.868 233.012 45.308C233.012 45.796 232.816 46.232 232.424 46.616C232.04 46.992 231.5 47.18 230.804 47.18C230.404 47.18 230.044 47.12 229.724 47C229.412 46.88 229.164 46.728 228.98 46.544C228.804 46.352 228.664 46.164 228.56 45.98C228.464 45.788 228.408 45.6 228.392 45.416ZM243.309 47L242.505 44.864H238.905L238.113 47H236.589L239.901 38.492H241.569L244.881 47H243.309ZM240.705 40.052L239.409 43.532H242.001L240.705 40.052Z" fill="#D9D9D9"/>
<path d="M332.16 47H330.66L326.46 40.556V47H325.02V38.492H326.856L330.72 44.528V38.492H332.16V47ZM340.304 39.848H337.532V47H336.092V39.848H333.332V38.492H340.304V39.848ZM343.015 40.484C342.455 41.02 342.175 41.772 342.175 42.74C342.175 43.708 342.455 44.464 343.015 45.008C343.575 45.544 344.243 45.812 345.019 45.812C345.795 45.812 346.463 45.544 347.023 45.008C347.591 44.464 347.875 43.708 347.875 42.74C347.875 41.772 347.591 41.02 347.023 40.484C346.463 39.94 345.795 39.668 345.019 39.668C344.243 39.668 343.575 39.94 343.015 40.484ZM341.311 45.116C340.903 44.428 340.699 43.636 340.699 42.74C340.699 41.844 340.903 41.056 341.311 40.376C341.727 39.688 342.259 39.172 342.907 38.828C343.555 38.484 344.259 38.312 345.019 38.312C345.779 38.312 346.483 38.484 347.131 38.828C347.779 39.172 348.311 39.688 348.727 40.376C349.143 41.056 349.351 41.844 349.351 42.74C349.351 43.636 349.143 44.428 348.727 45.116C348.311 45.804 347.779 46.32 347.131 46.664C346.483 47.008 345.779 47.18 345.019 47.18C344.259 47.18 343.555 47.008 342.907 46.664C342.259 46.32 341.727 45.804 341.311 45.116Z" fill="#D9D9D9"/>
<path d="M98.32 19.404H97.096V18.12C96.32 18.016 95.712 17.724 95.272 17.244C94.84 16.764 94.592 16.236 94.528 15.66L96.016 15.3C96.056 15.716 96.216 16.064 96.496 16.344C96.776 16.616 97.176 16.752 97.696 16.752C98.08 16.752 98.38 16.672 98.596 16.512C98.82 16.344 98.932 16.124 98.932 15.852C98.932 15.412 98.632 15.128 98.032 15L96.928 14.76C96.272 14.616 95.756 14.348 95.38 13.956C95.012 13.556 94.828 13.072 94.828 12.504C94.828 11.88 95.04 11.348 95.464 10.908C95.896 10.468 96.44 10.196 97.096 10.092V8.808H98.32V10.128C98.952 10.24 99.444 10.488 99.796 10.872C100.148 11.248 100.372 11.672 100.468 12.144L98.992 12.564C98.944 12.284 98.812 12.028 98.596 11.796C98.388 11.564 98.064 11.448 97.624 11.448C97.256 11.448 96.964 11.54 96.748 11.724C96.54 11.908 96.436 12.128 96.436 12.384C96.436 12.8 96.712 13.068 97.264 13.188L98.356 13.44C99.084 13.6 99.632 13.888 100 14.304C100.368 14.712 100.552 15.196 100.552 15.756C100.552 16.332 100.352 16.84 99.952 17.28C99.56 17.72 99.016 17.996 98.32 18.108V19.404ZM101.45 15.816L102.998 15.468C103.014 15.836 103.15 16.148 103.406 16.404C103.67 16.652 104.006 16.776 104.414 16.776C104.798 16.776 105.118 16.66 105.374 16.428C105.63 16.196 105.758 15.888 105.758 15.504C105.758 15.08 105.622 14.756 105.35 14.532C105.086 14.308 104.762 14.196 104.378 14.196C103.89 14.196 103.49 14.372 103.178 14.724C102.61 14.508 102.106 14.336 101.666 14.208L102.59 10.212H106.982V11.64H103.718L103.334 13.356C103.678 13.036 104.146 12.876 104.738 12.876C105.538 12.876 106.182 13.108 106.67 13.572C107.158 14.028 107.402 14.664 107.402 15.48C107.402 16.232 107.13 16.872 106.586 17.4C106.042 17.928 105.318 18.192 104.414 18.192C103.598 18.192 102.91 17.956 102.35 17.484C101.798 17.012 101.498 16.456 101.45 15.816ZM108.721 17.772C108.505 17.556 108.397 17.296 108.397 16.992C108.397 16.688 108.505 16.432 108.721 16.224C108.937 16.008 109.193 15.9 109.489 15.9C109.793 15.9 110.053 16.008 110.269 16.224C110.485 16.432 110.593 16.688 110.593 16.992C110.593 17.296 110.485 17.556 110.269 17.772C110.053 17.98 109.793 18.084 109.489 18.084C109.193 18.084 108.937 17.98 108.721 17.772ZM111.703 15.816L113.251 15.468C113.267 15.836 113.403 16.148 113.659 16.404C113.923 16.652 114.259 16.776 114.667 16.776C115.051 16.776 115.371 16.66 115.627 16.428C115.883 16.196 116.011 15.888 116.011 15.504C116.011 15.08 115.875 14.756 115.603 14.532C115.339 14.308 115.015 14.196 114.631 14.196C114.143 14.196 113.743 14.372 113.431 14.724C112.863 14.508 112.359 14.336 111.919 14.208L112.843 10.212H117.235V11.64H113.971L113.587 13.356C113.931 13.036 114.399 12.876 114.991 12.876C115.791 12.876 116.435 13.108 116.923 13.572C117.411 14.028 117.655 14.664 117.655 15.48C117.655 16.232 117.383 16.872 116.839 17.4C116.295 17.928 115.571 18.192 114.667 18.192C113.851 18.192 113.163 17.956 112.603 17.484C112.051 17.012 111.751 16.456 111.703 15.816Z" fill="black"/>
<path d="M217.32 19.404H216.096V18.12C215.32 18.016 214.712 17.724 214.272 17.244C213.84 16.764 213.592 16.236 213.528 15.66L215.016 15.3C215.056 15.716 215.216 16.064 215.496 16.344C215.776 16.616 216.176 16.752 216.696 16.752C217.08 16.752 217.38 16.672 217.596 16.512C217.82 16.344 217.932 16.124 217.932 15.852C217.932 15.412 217.632 15.128 217.032 15L215.928 14.76C215.272 14.616 214.756 14.348 214.38 13.956C214.012 13.556 213.828 13.072 213.828 12.504C213.828 11.88 214.04 11.348 214.464 10.908C214.896 10.468 215.44 10.196 216.096 10.092V8.808H217.32V10.128C217.952 10.24 218.444 10.488 218.796 10.872C219.148 11.248 219.372 11.672 219.468 12.144L217.992 12.564C217.944 12.284 217.812 12.028 217.596 11.796C217.388 11.564 217.064 11.448 216.624 11.448C216.256 11.448 215.964 11.54 215.748 11.724C215.54 11.908 215.436 12.128 215.436 12.384C215.436 12.8 215.712 13.068 216.264 13.188L217.356 13.44C218.084 13.6 218.632 13.888 219 14.304C219.368 14.712 219.552 15.196 219.552 15.756C219.552 16.332 219.352 16.84 218.952 17.28C218.56 17.72 218.016 17.996 217.32 18.108V19.404ZM223.966 18H222.322V12.792H220.45V11.676C221.01 11.668 221.478 11.528 221.854 11.256C222.23 10.976 222.458 10.628 222.538 10.212H223.966V18ZM225.289 15.816L226.837 15.468C226.853 15.836 226.989 16.148 227.245 16.404C227.509 16.652 227.845 16.776 228.253 16.776C228.637 16.776 228.957 16.66 229.213 16.428C229.469 16.196 229.597 15.888 229.597 15.504C229.597 15.08 229.461 14.756 229.189 14.532C228.925 14.308 228.601 14.196 228.217 14.196C227.729 14.196 227.329 14.372 227.017 14.724C226.449 14.508 225.945 14.336 225.505 14.208L226.429 10.212H230.821V11.64H227.557L227.173 13.356C227.517 13.036 227.985 12.876 228.577 12.876C229.377 12.876 230.021 13.108 230.509 13.572C230.997 14.028 231.241 14.664 231.241 15.48C231.241 16.232 230.969 16.872 230.425 17.4C229.881 17.928 229.157 18.192 228.253 18.192C227.437 18.192 226.749 17.956 226.189 17.484C225.637 17.012 225.337 16.456 225.289 15.816Z" fill="white"/>
</svg>
