<svg width="1236" height="287" viewBox="0 0 1236 287" fill="none" xmlns="http://www.w3.org/2000/svg">
<path d="M75.408 104H64.656L63.792 96.224C62.064 98.848 59.472 101.056 56.016 102.848C52.624 104.576 48.528 105.44 43.728 105.44C34.256 105.44 26.224 102.208 19.632 95.744C13.04 89.28 9.744 80.704 9.744 70.016C9.744 59.392 13.136 50.816 19.92 44.288C26.768 37.76 34.992 34.496 44.592 34.496C52.912 34.496 59.696 36.512 64.944 40.544C70.256 44.576 73.84 49.536 75.696 55.424L63.024 59.936C62 56.416 59.92 53.376 56.784 50.816C53.712 48.192 49.648 46.88 44.592 46.88C38.832 46.88 33.808 48.864 29.52 52.832C25.296 56.8 23.184 62.528 23.184 70.016C23.184 77.376 25.232 83.104 29.328 87.2C33.488 91.296 38.608 93.344 44.688 93.344C50.32 93.344 54.64 91.936 57.648 89.12C60.656 86.24 62.416 83.232 62.928 80.096H41.424V68.576H75.408V104ZM131.4 104H88.776V35.936H131.4V48.416H102.024V63.968H128.616V75.776H102.024V91.52H131.4V104ZM195.888 48.512H174.384V104H161.04V48.512H139.536V35.936H195.888V48.512ZM303.154 115.232H293.362V104.96C287.154 104.128 282.29 101.792 278.77 97.952C275.314 94.112 273.33 89.888 272.818 85.28L284.722 82.4C285.042 85.728 286.322 88.512 288.562 90.752C290.802 92.928 294.002 94.016 298.162 94.016C301.234 94.016 303.634 93.376 305.362 92.096C307.154 90.752 308.05 88.992 308.05 86.816C308.05 83.296 305.65 81.024 300.85 80L292.018 78.08C286.77 76.928 282.642 74.784 279.634 71.648C276.69 68.448 275.218 64.576 275.218 60.032C275.218 55.04 276.914 50.784 280.306 47.264C283.762 43.744 288.114 41.568 293.362 40.736V30.464H303.154V41.024C308.21 41.92 312.146 43.904 314.962 46.976C317.778 49.984 319.57 53.376 320.338 57.152L308.53 60.512C308.146 58.272 307.09 56.224 305.362 54.368C303.698 52.512 301.106 51.584 297.586 51.584C294.642 51.584 292.306 52.32 290.578 53.792C288.914 55.264 288.082 57.024 288.082 59.072C288.082 62.4 290.29 64.544 294.706 65.504L303.442 67.52C309.266 68.8 313.65 71.104 316.594 74.432C319.538 77.696 321.01 81.568 321.01 86.048C321.01 90.656 319.41 94.72 316.21 98.24C313.074 101.76 308.722 103.968 303.154 104.864V115.232ZM356.323 104H343.171V62.336H328.195V53.408C332.675 53.344 336.419 52.224 339.427 50.048C342.435 47.808 344.259 45.024 344.899 41.696H356.323V104ZM384.857 57.056C382.617 60.576 381.497 65.856 381.497 72.896C381.497 79.936 382.617 85.216 384.857 88.736C386.969 92.128 390.105 93.824 394.265 93.824C398.361 93.824 401.465 92.128 403.577 88.736C405.881 85.28 407.033 80 407.033 72.896C407.033 65.792 405.881 60.512 403.577 57.056C401.465 53.664 398.361 51.968 394.265 51.968C390.105 51.968 386.969 53.664 384.857 57.056ZM373.721 95.072C370.073 89.504 368.249 82.112 368.249 72.896C368.249 63.68 370.073 56.288 373.721 50.72C378.393 43.744 385.241 40.256 394.265 40.256C403.289 40.256 410.105 43.744 414.713 50.72C418.425 56.352 420.281 63.744 420.281 72.896C420.281 82.048 418.425 89.44 414.713 95.072C410.105 102.048 403.289 105.536 394.265 105.536C385.241 105.536 378.393 102.048 373.721 95.072ZM444.575 57.056C442.335 60.576 441.215 65.856 441.215 72.896C441.215 79.936 442.335 85.216 444.575 88.736C446.687 92.128 449.823 93.824 453.983 93.824C458.079 93.824 461.183 92.128 463.295 88.736C465.599 85.28 466.751 80 466.751 72.896C466.751 65.792 465.599 60.512 463.295 57.056C461.183 53.664 458.079 51.968 453.983 51.968C449.823 51.968 446.687 53.664 444.575 57.056ZM433.439 95.072C429.791 89.504 427.967 82.112 427.967 72.896C427.967 63.68 429.791 56.288 433.439 50.72C438.111 43.744 444.959 40.256 453.983 40.256C463.007 40.256 469.823 43.744 474.431 50.72C478.143 56.352 479.999 63.744 479.999 72.896C479.999 82.048 478.143 89.44 474.431 95.072C469.823 102.048 463.007 105.536 453.983 105.536C444.959 105.536 438.111 102.048 433.439 95.072ZM488.158 102.08C486.686 100.544 485.95 98.624 485.95 96.32C485.95 94.016 486.782 92.096 488.446 90.56C490.11 89.024 492.19 88.256 494.686 88.256C497.566 88.256 499.87 89.312 501.598 91.424C503.326 93.472 504.19 96.096 504.19 99.296C504.19 105.696 502.43 110.656 498.91 114.176C495.454 117.696 491.582 119.712 487.294 120.224V114.08C489.598 113.568 491.678 112.32 493.534 110.336C495.39 108.416 496.35 106.208 496.414 103.712C495.902 104.096 495.07 104.288 493.918 104.288C491.55 104.288 489.63 103.552 488.158 102.08ZM528.669 57.056C526.429 60.576 525.309 65.856 525.309 72.896C525.309 79.936 526.429 85.216 528.669 88.736C530.781 92.128 533.917 93.824 538.077 93.824C542.173 93.824 545.277 92.128 547.389 88.736C549.693 85.28 550.845 80 550.845 72.896C550.845 65.792 549.693 60.512 547.389 57.056C545.277 53.664 542.173 51.968 538.077 51.968C533.917 51.968 530.781 53.664 528.669 57.056ZM517.533 95.072C513.885 89.504 512.061 82.112 512.061 72.896C512.061 63.68 513.885 56.288 517.533 50.72C522.205 43.744 529.053 40.256 538.077 40.256C547.101 40.256 553.917 43.744 558.525 50.72C562.237 56.352 564.093 63.744 564.093 72.896C564.093 82.048 562.237 89.44 558.525 95.072C553.917 102.048 547.101 105.536 538.077 105.536C529.053 105.536 522.205 102.048 517.533 95.072ZM588.388 57.056C586.148 60.576 585.028 65.856 585.028 72.896C585.028 79.936 586.148 85.216 588.388 88.736C590.5 92.128 593.636 93.824 597.796 93.824C601.892 93.824 604.996 92.128 607.108 88.736C609.412 85.28 610.564 80 610.564 72.896C610.564 65.792 609.412 60.512 607.108 57.056C604.996 53.664 601.892 51.968 597.796 51.968C593.636 51.968 590.5 53.664 588.388 57.056ZM577.252 95.072C573.604 89.504 571.78 82.112 571.78 72.896C571.78 63.68 573.604 56.288 577.252 50.72C581.924 43.744 588.772 40.256 597.796 40.256C606.82 40.256 613.636 43.744 618.244 50.72C621.956 56.352 623.812 63.744 623.812 72.896C623.812 82.048 621.956 89.44 618.244 95.072C613.636 102.048 606.82 105.536 597.796 105.536C588.772 105.536 581.924 102.048 577.252 95.072ZM648.107 57.056C645.867 60.576 644.747 65.856 644.747 72.896C644.747 79.936 645.867 85.216 648.107 88.736C650.219 92.128 653.355 93.824 657.515 93.824C661.611 93.824 664.715 92.128 666.827 88.736C669.131 85.28 670.283 80 670.283 72.896C670.283 65.792 669.131 60.512 666.827 57.056C664.715 53.664 661.611 51.968 657.515 51.968C653.355 51.968 650.219 53.664 648.107 57.056ZM636.971 95.072C633.323 89.504 631.499 82.112 631.499 72.896C631.499 63.68 633.323 56.288 636.971 50.72C641.643 43.744 648.491 40.256 657.515 40.256C666.539 40.256 673.355 43.744 677.963 50.72C681.675 56.352 683.531 63.744 683.531 72.896C683.531 82.048 681.675 89.44 677.963 95.072C673.355 102.048 666.539 105.536 657.515 105.536C648.491 105.536 641.643 102.048 636.971 95.072ZM752.564 104L739.22 77.792H732.308V104H718.964V35.936H745.556C752.084 35.936 757.332 37.92 761.3 41.888C765.268 45.856 767.252 50.848 767.252 56.864C767.252 61.6 765.94 65.696 763.316 69.152C760.756 72.544 757.236 74.88 752.756 76.16L767.348 104H752.564ZM732.308 66.368H743.06C746.388 66.368 748.98 65.504 750.836 63.776C752.756 62.048 753.716 59.776 753.716 56.96C753.716 54.08 752.756 51.776 750.836 50.048C748.98 48.32 746.388 47.456 743.06 47.456H732.308V66.368ZM821.588 104H778.964V35.936H821.588V48.416H792.212V63.968H818.804V75.776H792.212V91.52H821.588V104ZM898.96 82.976L911.248 35.936H924.784L905.968 104H892.336L876.784 55.52L861.232 104H847.408L828.496 35.936H842.512L854.992 82.784L870.064 35.936H883.792L898.96 82.976ZM975.89 104L970.226 88.448H942.578L936.914 104H922.898L949.01 35.936H964.37L990.29 104H975.89ZM956.402 50.624L946.994 76.352H965.81L956.402 50.624ZM1032.59 104L1019.25 77.792H1012.34V104H998.995V35.936H1025.59C1032.11 35.936 1037.36 37.92 1041.33 41.888C1045.3 45.856 1047.28 50.848 1047.28 56.864C1047.28 61.6 1045.97 65.696 1043.35 69.152C1040.79 72.544 1037.27 74.88 1032.79 76.16L1047.38 104H1032.59ZM1012.34 66.368H1023.09C1026.42 66.368 1029.01 65.504 1030.87 63.776C1032.79 62.048 1033.75 59.776 1033.75 56.96C1033.75 54.08 1032.79 51.776 1030.87 50.048C1029.01 48.32 1026.42 47.456 1023.09 47.456H1012.34V66.368ZM1072.24 91.712H1082.8C1088.75 91.712 1093.65 89.856 1097.49 86.144C1101.33 82.432 1103.25 77.056 1103.25 70.016C1103.25 62.976 1101.33 57.6 1097.49 53.888C1093.65 50.112 1088.79 48.224 1082.9 48.224H1072.24V91.712ZM1083.28 104H1058.99V35.936H1083.38C1093.3 35.936 1101.36 38.976 1107.57 45.056C1113.84 51.136 1116.98 59.456 1116.98 70.016C1116.98 80.512 1113.84 88.8 1107.57 94.88C1101.3 100.96 1093.2 104 1083.28 104ZM1125.28 102.08C1123.81 100.544 1123.07 98.624 1123.07 96.32C1123.07 94.016 1123.91 92.096 1125.57 90.56C1127.23 89.024 1129.31 88.256 1131.81 88.256C1134.69 88.256 1136.99 89.312 1138.72 91.424C1140.45 93.472 1141.31 96.096 1141.31 99.296C1141.31 105.696 1139.55 110.656 1136.03 114.176C1132.58 117.696 1128.71 119.712 1124.42 120.224V114.08C1126.72 113.568 1128.8 112.32 1130.66 110.336C1132.51 108.416 1133.47 106.208 1133.54 103.712C1133.03 104.096 1132.19 104.288 1131.04 104.288C1128.67 104.288 1126.75 103.552 1125.28 102.08ZM11.088 197.984L14.352 187.328C17.552 189.12 21.232 190.016 25.392 190.016C31.152 190.016 35.76 188.48 39.216 185.408C42.736 182.336 44.72 177.984 45.168 172.352C43.824 174.4 41.872 176.032 39.312 177.248C36.816 178.464 33.968 179.072 30.768 179.072C24.752 179.072 19.664 177.152 15.504 173.312C11.344 169.472 9.264 164.416 9.264 158.144C9.264 151.744 11.504 146.496 15.984 142.4C20.528 138.304 26.256 136.256 33.168 136.256C40.336 136.256 46.256 138.816 50.928 143.936C55.664 148.992 58.032 156.256 58.032 165.728C58.032 177.056 55.248 185.856 49.68 192.128C44.112 198.336 36.048 201.44 25.488 201.44C19.6 201.44 14.8 200.288 11.088 197.984ZM40.272 165.152C42.384 163.232 43.44 160.768 43.44 157.76C43.44 154.752 42.384 152.288 40.272 150.368C38.224 148.448 35.696 147.488 32.688 147.488C29.744 147.488 27.216 148.448 25.104 150.368C23.056 152.288 22.032 154.752 22.032 157.76C22.032 160.832 23.056 163.328 25.104 165.248C27.152 167.104 29.68 168.032 32.688 168.032C35.696 168.032 38.224 167.072 40.272 165.152ZM67.0568 197.984L70.3208 187.328C73.5208 189.12 77.2008 190.016 81.3608 190.016C87.1208 190.016 91.7288 188.48 95.1848 185.408C98.7048 182.336 100.689 177.984 101.137 172.352C99.7928 174.4 97.8408 176.032 95.2808 177.248C92.7848 178.464 89.9368 179.072 86.7368 179.072C80.7208 179.072 75.6328 177.152 71.4728 173.312C67.3128 169.472 65.2328 164.416 65.2328 158.144C65.2328 151.744 67.4728 146.496 71.9528 142.4C76.4968 138.304 82.2248 136.256 89.1368 136.256C96.3048 136.256 102.225 138.816 106.897 143.936C111.633 148.992 114.001 156.256 114.001 165.728C114.001 177.056 111.217 185.856 105.649 192.128C100.081 198.336 92.0168 201.44 81.4568 201.44C75.5688 201.44 70.7688 200.288 67.0568 197.984ZM96.2408 165.152C98.3528 163.232 99.4088 160.768 99.4088 157.76C99.4088 154.752 98.3528 152.288 96.2408 150.368C94.1928 148.448 91.6648 147.488 88.6568 147.488C85.7128 147.488 83.1848 148.448 81.0728 150.368C79.0248 152.288 78.0008 154.752 78.0008 157.76C78.0008 160.832 79.0248 163.328 81.0728 165.248C83.1208 167.104 85.6488 168.032 88.6568 168.032C91.6648 168.032 94.1928 167.072 96.2408 165.152ZM129.887 152.384C129.887 154.368 130.495 156 131.711 157.28C132.927 158.496 134.431 159.104 136.223 159.104C138.079 159.104 139.583 158.496 140.734 157.28C141.951 156 142.559 154.368 142.559 152.384C142.559 150.4 141.951 148.8 140.734 147.584C139.583 146.368 138.079 145.76 136.223 145.76C134.431 145.76 132.927 146.4 131.711 147.68C130.495 148.896 129.887 150.464 129.887 152.384ZM124.895 163.52C121.823 160.448 120.287 156.736 120.287 152.384C120.287 148.032 121.855 144.32 124.991 141.248C128.127 138.176 131.871 136.64 136.223 136.64C140.575 136.64 144.319 138.176 147.455 141.248C150.655 144.32 152.255 148.032 152.255 152.384C152.255 156.8 150.655 160.512 147.455 163.52C144.319 166.528 140.575 168.032 136.223 168.032C131.807 168.032 128.031 166.528 124.895 163.52ZM171.839 185.408C171.839 187.392 172.447 189.024 173.663 190.304C174.879 191.52 176.383 192.128 178.175 192.128C180.031 192.128 181.535 191.52 182.687 190.304C183.903 189.024 184.511 187.392 184.511 185.408C184.511 183.424 183.903 181.824 182.687 180.608C181.535 179.392 180.031 178.784 178.175 178.784C176.383 178.784 174.879 179.424 173.663 180.704C172.447 181.92 171.839 183.488 171.839 185.408ZM166.847 196.544C163.775 193.472 162.239 189.76 162.239 185.408C162.239 181.056 163.807 177.344 166.943 174.272C170.079 171.2 173.823 169.664 178.175 169.664C182.527 169.664 186.271 171.2 189.407 174.272C192.607 177.344 194.207 181.056 194.207 185.408C194.207 189.824 192.607 193.536 189.407 196.544C186.271 199.552 182.527 201.056 178.175 201.056C173.759 201.056 169.983 199.552 166.847 196.544ZM140.831 200H129.695L173.663 137.696H184.799L140.831 200ZM260.311 201.44C250.519 201.44 242.263 198.176 235.543 191.648C228.823 185.12 225.463 176.576 225.463 166.016C225.463 155.52 228.855 146.976 235.639 140.384C242.487 133.792 250.647 130.496 260.119 130.496C268.823 130.496 275.799 132.704 281.047 137.12C286.359 141.536 289.783 146.848 291.319 153.056L278.839 156.992C277.879 153.152 275.863 149.92 272.791 147.296C269.719 144.608 265.495 143.264 260.119 143.264C254.551 143.264 249.655 145.248 245.431 149.216C241.271 153.184 239.191 158.784 239.191 166.016C239.191 172.928 241.239 178.4 245.335 182.432C249.495 186.464 254.487 188.48 260.311 188.48C265.623 188.48 269.847 187.104 272.983 184.352C276.183 181.6 278.327 178.336 279.415 174.56L291.799 178.304C291.095 181.056 289.943 183.744 288.343 186.368C286.807 188.992 284.791 191.456 282.295 193.76C279.799 196.064 276.631 197.92 272.791 199.328C269.015 200.736 264.855 201.44 260.311 201.44ZM346.171 200L340.507 184.448H312.859L307.195 200H293.179L319.291 131.936H334.651L360.571 200H346.171ZM326.683 146.624L317.275 172.352H336.091L326.683 146.624ZM414.693 148.16L402.789 151.808C402.341 149.376 401.125 147.168 399.141 145.184C397.157 143.2 394.245 142.208 390.405 142.208C387.269 142.208 384.709 143.072 382.725 144.8C380.741 146.464 379.749 148.48 379.749 150.848C379.749 155.008 382.213 157.568 387.141 158.528L396.645 160.352C402.661 161.504 407.333 163.904 410.661 167.552C413.989 171.2 415.653 175.488 415.653 180.416C415.653 186.048 413.413 190.976 408.933 195.2C404.517 199.36 398.565 201.44 391.077 201.44C386.789 201.44 382.917 200.8 379.461 199.52C376.005 198.24 373.221 196.544 371.109 194.432C368.997 192.256 367.333 189.984 366.117 187.616C364.965 185.184 364.261 182.688 364.005 180.128L376.293 176.864C376.613 180.512 378.021 183.552 380.517 185.984C383.077 188.416 386.629 189.632 391.173 189.632C394.629 189.632 397.317 188.864 399.237 187.328C401.221 185.792 402.213 183.776 402.213 181.28C402.213 179.296 401.477 177.6 400.005 176.192C398.597 174.72 396.581 173.728 393.957 173.216L384.453 171.296C378.949 170.144 374.597 167.872 371.397 164.48C368.197 161.088 366.597 156.864 366.597 151.808C366.597 145.792 368.901 140.736 373.509 136.64C378.181 132.544 383.781 130.496 390.309 130.496C394.213 130.496 397.701 131.04 400.773 132.128C403.845 133.216 406.309 134.688 408.165 136.544C410.021 138.336 411.461 140.192 412.485 142.112C413.509 144.032 414.245 146.048 414.693 148.16ZM483.095 200H469.75V171.776H440.087V200H426.839V131.936H440.087V159.296H469.75V131.936H483.095V200ZM498.651 131.936H523.131C529.595 131.936 534.651 133.632 538.299 137.024C542.011 140.416 543.867 144.832 543.867 150.272C543.867 153.728 542.939 156.8 541.083 159.488C539.227 162.112 536.859 163.904 533.979 164.864C537.435 165.696 540.283 167.584 542.523 170.528C544.827 173.408 545.979 176.896 545.979 180.992C545.979 186.56 544.059 191.136 540.219 194.72C536.379 198.24 531.291 200 524.955 200H498.651V131.936ZM511.707 160.064H521.115C524.123 160.064 526.491 159.296 528.219 157.76C529.947 156.224 530.811 154.144 530.811 151.52C530.811 148.896 529.947 146.848 528.219 145.376C526.555 143.84 524.155 143.072 521.019 143.072H511.707V160.064ZM511.707 188.96H522.459C525.659 188.96 528.155 188.192 529.947 186.656C531.803 185.056 532.731 182.88 532.731 180.128C532.731 177.376 531.835 175.168 530.043 173.504C528.315 171.84 525.851 171.008 522.651 171.008H511.707V188.96ZM601.827 200L596.163 184.448H568.515L562.851 200H548.835L574.947 131.936H590.307L616.227 200H601.827ZM582.339 146.624L572.931 172.352H591.747L582.339 146.624ZM652.467 201.44C642.675 201.44 634.419 198.176 627.699 191.648C620.979 185.12 617.619 176.576 617.619 166.016C617.619 155.52 621.011 146.976 627.795 140.384C634.643 133.792 642.803 130.496 652.275 130.496C660.979 130.496 667.955 132.704 673.203 137.12C678.515 141.536 681.939 146.848 683.475 153.056L670.995 156.992C670.035 153.152 668.019 149.92 664.947 147.296C661.875 144.608 657.651 143.264 652.275 143.264C646.707 143.264 641.811 145.248 637.587 149.216C633.427 153.184 631.347 158.784 631.347 166.016C631.347 172.928 633.395 178.4 637.491 182.432C641.651 186.464 646.643 188.48 652.467 188.48C657.779 188.48 662.003 187.104 665.139 184.352C668.339 181.6 670.483 178.336 671.571 174.56L683.955 178.304C683.251 181.056 682.099 183.744 680.499 186.368C678.963 188.992 676.947 191.456 674.451 193.76C671.955 196.064 668.787 197.92 664.947 199.328C661.171 200.736 657.011 201.44 652.467 201.44ZM736.436 200L716.66 171.776L708.212 181.088V200H694.964V131.936H708.212V162.752L735.476 131.936H752.852L725.876 161.6L753.044 200H736.436ZM33.888 280L30.192 270.496H15.12L11.52 280H6.48L20.016 245.968H25.44L38.976 280H33.888ZM22.608 250.864L16.8 266.128H28.512L22.608 250.864ZM71.7728 280H66.8768L48.4928 252.256V280H43.7888V245.968H50.0768L67.0688 272.08V245.968H71.7728V280ZM85.1021 275.824H92.0621C95.3901 275.824 98.1421 274.72 100.318 272.512C102.526 270.304 103.63 267.152 103.63 263.056C103.63 258.928 102.542 255.744 100.366 253.504C98.2221 251.264 95.4861 250.144 92.1581 250.144H85.1021V275.824ZM92.2061 280H80.3981V245.968H92.3021C96.8781 245.968 100.718 247.488 103.822 250.528C106.926 253.536 108.478 257.712 108.478 263.056C108.478 268.368 106.91 272.528 103.774 275.536C100.638 278.512 96.7821 280 92.2061 280ZM150.561 250.336H139.185V280H134.481V250.336H123.105V245.968H150.561V250.336ZM182.135 280H177.431V264.88H160.055V280H155.351V245.968H160.055V260.512H177.431V245.968H182.135V280ZM197.029 253.12C194.629 255.456 193.429 258.736 193.429 262.96C193.429 267.184 194.629 270.48 197.029 272.848C199.429 275.216 202.325 276.4 205.717 276.4C209.109 276.4 212.005 275.216 214.405 272.848C216.805 270.48 218.005 267.184 218.005 262.96C218.005 258.736 216.805 255.456 214.405 253.12C212.005 250.752 209.109 249.568 205.717 249.568C202.325 249.568 199.429 250.752 197.029 253.12ZM188.629 262.96C188.629 260.208 189.109 257.696 190.069 255.424C191.061 253.152 192.357 251.296 193.957 249.856C195.589 248.384 197.413 247.248 199.429 246.448C201.445 245.648 203.541 245.248 205.717 245.248C207.893 245.248 209.989 245.648 212.005 246.448C214.021 247.248 215.829 248.384 217.429 249.856C219.061 251.296 220.357 253.152 221.317 255.424C222.309 257.696 222.805 260.208 222.805 262.96C222.805 266.608 221.957 269.808 220.261 272.56C218.597 275.312 216.485 277.36 213.925 278.704C211.365 280.048 208.629 280.72 205.717 280.72C202.805 280.72 200.069 280.048 197.509 278.704C194.949 277.36 192.821 275.312 191.125 272.56C189.461 269.808 188.629 266.608 188.629 262.96ZM249.817 277.456C247.545 279.632 244.617 280.72 241.033 280.72C237.449 280.72 234.505 279.632 232.201 277.456C229.929 275.28 228.793 272.256 228.793 268.384V245.968H233.449V268.24C233.449 270.832 234.105 272.832 235.417 274.24C236.761 275.648 238.633 276.352 241.033 276.352C243.433 276.352 245.289 275.648 246.601 274.24C247.913 272.832 248.569 270.832 248.569 268.24V245.968H253.273V268.384C253.273 272.256 252.121 275.28 249.817 277.456ZM283.125 253.696L278.901 255.184C278.677 253.712 277.957 252.384 276.741 251.2C275.525 249.984 273.845 249.376 271.701 249.376C269.813 249.376 268.245 249.92 266.997 251.008C265.749 252.096 265.125 253.44 265.125 255.04C265.125 256.288 265.493 257.344 266.229 258.208C266.997 259.072 268.085 259.664 269.493 259.984L274.581 261.088C277.397 261.696 279.573 262.848 281.109 264.544C282.645 266.208 283.413 268.24 283.413 270.64C283.413 273.392 282.325 275.76 280.149 277.744C277.973 279.728 275.141 280.72 271.653 280.72C267.845 280.72 264.853 279.728 262.677 277.744C260.533 275.728 259.285 273.344 258.933 270.592L263.445 269.152C263.637 271.2 264.437 272.928 265.845 274.336C267.253 275.744 269.173 276.448 271.605 276.448C273.845 276.448 275.573 275.936 276.789 274.912C278.005 273.888 278.613 272.592 278.613 271.024C278.613 269.744 278.181 268.64 277.317 267.712C276.453 266.752 275.189 266.096 273.525 265.744L268.677 264.688C266.149 264.144 264.133 263.072 262.629 261.472C261.125 259.872 260.373 257.84 260.373 255.376C260.373 252.688 261.461 250.336 263.637 248.32C265.845 246.272 268.501 245.248 271.605 245.248C275.093 245.248 277.765 246.096 279.621 247.792C281.477 249.488 282.645 251.456 283.125 253.696ZM313.216 280L309.52 270.496H294.448L290.848 280H285.808L299.344 245.968H304.768L318.304 280H313.216ZM301.936 250.864L296.128 266.128H307.84L301.936 250.864ZM351.101 280H346.205L327.821 252.256V280H323.117V245.968H329.405L346.397 272.08V245.968H351.101V280ZM364.43 275.824H371.39C374.718 275.824 377.47 274.72 379.646 272.512C381.854 270.304 382.958 267.152 382.958 263.056C382.958 258.928 381.87 255.744 379.694 253.504C377.55 251.264 374.814 250.144 371.486 250.144H364.43V275.824ZM371.534 280H359.726V245.968H371.63C376.206 245.968 380.046 247.488 383.15 250.528C386.254 253.536 387.806 257.712 387.806 263.056C387.806 268.368 386.238 272.528 383.102 275.536C379.966 278.512 376.11 280 371.534 280ZM415.735 253.696L411.511 255.184C411.287 253.712 410.567 252.384 409.351 251.2C408.135 249.984 406.455 249.376 404.311 249.376C402.423 249.376 400.855 249.92 399.607 251.008C398.359 252.096 397.735 253.44 397.735 255.04C397.735 256.288 398.103 257.344 398.839 258.208C399.607 259.072 400.695 259.664 402.103 259.984L407.191 261.088C410.007 261.696 412.183 262.848 413.719 264.544C415.255 266.208 416.023 268.24 416.023 270.64C416.023 273.392 414.935 275.76 412.759 277.744C410.583 279.728 407.751 280.72 404.263 280.72C400.455 280.72 397.463 279.728 395.287 277.744C393.143 275.728 391.895 273.344 391.543 270.592L396.055 269.152C396.247 271.2 397.047 272.928 398.455 274.336C399.863 275.744 401.783 276.448 404.215 276.448C406.455 276.448 408.183 275.936 409.399 274.912C410.615 273.888 411.223 272.592 411.223 271.024C411.223 269.744 410.791 268.64 409.927 267.712C409.063 266.752 407.799 266.096 406.135 265.744L401.287 264.688C398.759 264.144 396.743 263.072 395.239 261.472C393.735 259.872 392.983 257.84 392.983 255.376C392.983 252.688 394.071 250.336 396.247 248.32C398.455 246.272 401.111 245.248 404.215 245.248C407.703 245.248 410.375 246.096 412.231 247.792C414.087 249.488 415.255 251.456 415.735 253.696ZM440.732 253.12C438.332 255.456 437.132 258.736 437.132 262.96C437.132 267.184 438.332 270.48 440.732 272.848C443.132 275.216 446.028 276.4 449.42 276.4C452.812 276.4 455.708 275.216 458.108 272.848C460.508 270.48 461.708 267.184 461.708 262.96C461.708 258.736 460.508 255.456 458.108 253.12C455.708 250.752 452.812 249.568 449.42 249.568C446.028 249.568 443.132 250.752 440.732 253.12ZM432.332 262.96C432.332 260.208 432.812 257.696 433.772 255.424C434.764 253.152 436.06 251.296 437.66 249.856C439.292 248.384 441.116 247.248 443.132 246.448C445.148 245.648 447.244 245.248 449.42 245.248C451.596 245.248 453.692 245.648 455.708 246.448C457.724 247.248 459.532 248.384 461.132 249.856C462.764 251.296 464.06 253.152 465.02 255.424C466.012 257.696 466.508 260.208 466.508 262.96C466.508 266.608 465.66 269.808 463.964 272.56C462.3 275.312 460.188 277.36 457.628 278.704C455.068 280.048 452.332 280.72 449.42 280.72C446.508 280.72 443.772 280.048 441.212 278.704C438.652 277.36 436.524 275.312 434.828 272.56C433.164 269.808 432.332 266.608 432.332 262.96ZM495.374 250.336H483.998V280H479.294V250.336H467.918V245.968H495.374V250.336ZM526.948 280H522.244V264.88H504.868V280H500.164V245.968H504.868V260.512H522.244V245.968H526.948V280ZM556.289 280H535.601V245.968H556.289V250.336H540.305V260.8H554.801V265.216H540.305V275.632H556.289V280ZM581.108 280L573.332 266.08H568.244V280H563.492V245.968H576.308C579.444 245.968 581.956 246.944 583.844 248.896C585.764 250.816 586.724 253.216 586.724 256.096C586.724 258.56 585.988 260.672 584.516 262.432C583.044 264.16 581.028 265.264 578.468 265.744L586.58 280H581.108ZM568.244 261.856H575.444C577.364 261.856 578.916 261.344 580.1 260.32C581.284 259.264 581.876 257.856 581.876 256.096C581.876 254.304 581.284 252.88 580.1 251.824C578.916 250.736 577.364 250.192 575.444 250.192H568.244V261.856ZM609.915 261.856H616.731C618.747 261.856 620.347 261.344 621.531 260.32C622.715 259.264 623.307 257.856 623.307 256.096C623.307 254.304 622.715 252.88 621.531 251.824C620.347 250.736 618.747 250.192 616.731 250.192H609.915V261.856ZM617.595 266.08H609.915V280H605.211V245.968H617.595C620.699 245.968 623.227 246.928 625.179 248.848C627.131 250.768 628.107 253.168 628.107 256.048C628.107 258.96 627.131 261.36 625.179 263.248C623.227 265.136 620.699 266.08 617.595 266.08ZM654.539 280H633.851V245.968H654.539V250.336H638.555V260.8H653.051V265.216H638.555V275.632H654.539V280ZM679.358 280L671.582 266.08H666.494V280H661.742V245.968H674.558C677.694 245.968 680.206 246.944 682.094 248.896C684.014 250.816 684.974 253.216 684.974 256.096C684.974 258.56 684.238 260.672 682.766 262.432C681.294 264.16 679.278 265.264 676.718 265.744L684.83 280H679.358ZM666.494 261.856H673.694C675.614 261.856 677.166 261.344 678.35 260.32C679.534 259.264 680.126 257.856 680.126 256.096C680.126 254.304 679.534 252.88 678.35 251.824C677.166 250.736 675.614 250.192 673.694 250.192H666.494V261.856ZM712.533 280L701.013 264.544L696.165 269.728V280H691.461V245.968H696.165V263.488L712.101 245.968H718.293L704.133 261.136L718.485 280H712.533ZM744.75 253.696L740.526 255.184C740.302 253.712 739.582 252.384 738.366 251.2C737.15 249.984 735.47 249.376 733.326 249.376C731.438 249.376 729.87 249.92 728.622 251.008C727.374 252.096 726.75 253.44 726.75 255.04C726.75 256.288 727.118 257.344 727.854 258.208C728.622 259.072 729.71 259.664 731.118 259.984L736.206 261.088C739.022 261.696 741.198 262.848 742.734 264.544C744.27 266.208 745.038 268.24 745.038 270.64C745.038 273.392 743.95 275.76 741.774 277.744C739.598 279.728 736.766 280.72 733.278 280.72C729.47 280.72 726.478 279.728 724.302 277.744C722.158 275.728 720.91 273.344 720.558 270.592L725.07 269.152C725.262 271.2 726.062 272.928 727.47 274.336C728.878 275.744 730.798 276.448 733.23 276.448C735.47 276.448 737.198 275.936 738.414 274.912C739.63 273.888 740.238 272.592 740.238 271.024C740.238 269.744 739.806 268.64 738.942 267.712C738.078 266.752 736.814 266.096 735.15 265.744L730.302 264.688C727.774 264.144 725.758 263.072 724.254 261.472C722.75 259.872 721.998 257.84 721.998 255.376C721.998 252.688 723.086 250.336 725.262 248.32C727.47 246.272 730.126 245.248 733.23 245.248C736.718 245.248 739.39 246.096 741.246 247.792C743.102 249.488 744.27 251.456 744.75 253.696Z" fill="white"/>
<rect x="210.682" y="17.937" width="917" height="112" rx="56" transform="rotate(-1.12082 210.682 17.937)" fill="#1872E7"/>
<rect x="210.682" y="17.937" width="917" height="112" rx="56" transform="rotate(-1.12082 210.682 17.937)" fill="url(#paint0_linear_6_28869)"/>
<path d="M279.229 118.848L269.439 119.039L269.238 108.769C263.015 108.059 258.106 105.818 254.511 102.048C250.981 98.2761 248.915 94.0917 248.313 89.4946L260.158 86.3823C260.543 89.7034 261.877 92.4619 264.161 94.6576C266.443 96.7894 269.663 97.8146 273.823 97.7332C276.894 97.6731 279.281 96.9863 280.984 95.6728C282.749 94.294 283.61 92.5168 283.568 90.3412C283.499 86.8219 281.055 84.5972 276.236 83.6673L267.368 81.9205C262.099 80.8713 257.929 78.8085 254.861 75.7319C251.855 72.5901 250.307 68.7477 250.218 64.2045C250.121 59.2135 251.733 54.9251 255.056 51.3394C258.442 47.7525 262.751 45.4918 267.981 44.5573L267.78 34.2873L277.571 34.0957L277.777 44.6537C282.85 45.4506 286.824 47.3573 289.699 50.3736C292.574 53.3259 294.432 56.6822 295.273 60.4425L283.533 64.0328C283.106 61.8008 282.01 59.7738 280.246 57.952C278.546 56.1289 275.936 55.2518 272.417 55.3206C269.473 55.3782 267.152 56.1598 265.453 57.6653C263.818 59.1695 263.021 60.9455 263.061 62.9931C263.126 66.3204 265.376 68.4208 269.81 69.2943L278.583 71.139C284.431 72.3048 288.859 74.5227 291.868 77.7924C294.875 80.9982 296.423 84.8407 296.51 89.3198C296.601 93.9269 295.08 98.0215 291.95 101.603C288.883 105.184 284.575 107.477 279.026 108.482L279.229 118.848ZM332.168 106.578L319.018 106.835L318.203 65.1789L303.23 65.4718L303.056 56.5455C307.533 56.3939 311.255 55.2009 314.22 52.9665C317.183 50.6681 318.952 47.8489 319.527 44.509L330.949 44.2856L332.168 106.578ZM359.778 59.0845C357.607 62.6476 356.591 67.9485 356.728 74.9872C356.866 82.0258 358.089 87.2829 360.398 90.7584C362.575 94.1085 365.744 95.7428 369.903 95.6614C373.998 95.5813 377.069 93.8249 379.114 90.3922C381.35 86.8918 382.398 81.5903 382.259 74.4877C382.12 67.385 380.865 62.1286 378.494 58.7183C376.316 55.3683 373.18 53.7333 369.084 53.8134C364.925 53.8948 361.823 55.6518 359.778 59.0845ZM349.388 97.311C345.631 91.8155 343.663 84.4606 343.483 75.2463C343.303 66.0321 344.982 58.6058 348.52 52.9675C353.055 45.9015 359.833 42.2802 368.855 42.1037C377.878 41.9271 384.761 45.2812 389.504 52.1657C393.326 57.724 395.326 65.0783 395.505 74.2285C395.684 83.3788 393.973 90.8057 390.372 96.5092C385.901 103.574 379.155 107.195 370.132 107.371C361.11 107.548 354.195 104.194 349.388 97.311ZM419.485 57.9163C417.314 61.4795 416.298 66.7804 416.436 73.819C416.573 80.8577 417.796 86.1148 420.105 89.5903C422.283 92.9403 425.451 94.5746 429.611 94.4933C433.706 94.4131 436.776 92.6568 438.821 89.2241C441.057 85.7237 442.106 80.4222 441.967 73.3195C441.828 66.2169 440.573 60.9604 438.202 57.5502C436.024 54.2001 432.887 52.5652 428.792 52.6453C424.633 52.7266 421.53 54.4837 419.485 57.9163ZM409.095 96.1429C405.339 90.6473 403.37 83.2924 403.19 74.0782C403.01 64.8639 404.689 57.4377 408.227 51.7994C412.762 44.7333 419.54 41.112 428.563 40.9355C437.585 40.759 444.468 44.113 449.211 50.9975C453.033 56.5558 455.033 63.9101 455.212 73.0604C455.391 82.2106 453.68 89.6375 450.079 95.3411C445.608 102.406 438.862 106.027 429.84 106.203C420.817 106.38 413.902 103.026 409.095 96.1429ZM463.94 102.079C462.438 100.572 461.665 98.6671 461.62 96.3635C461.575 94.0599 462.369 92.124 464.003 90.5558C465.636 88.9875 467.701 88.179 470.196 88.1302C473.076 88.0738 475.4 89.0846 477.169 91.1623C478.937 93.1762 479.852 95.7828 479.914 98.9821C480.04 105.381 478.377 110.374 474.927 113.963C471.54 117.55 467.708 119.641 463.431 120.237L463.311 114.094C465.604 113.537 467.66 112.248 469.476 110.228C471.295 108.273 472.211 106.046 472.226 103.549C471.722 103.943 470.894 104.152 469.742 104.174C467.375 104.22 465.441 103.522 463.94 102.079ZM503.563 56.2714C501.392 59.8345 500.376 65.1354 500.513 72.1741C500.651 79.2127 501.874 84.4698 504.182 87.9453C506.36 91.2954 509.529 92.9297 513.688 92.8483C517.783 92.7682 520.854 91.0118 522.899 87.5792C525.135 84.0787 526.183 78.7772 526.044 71.6746C525.905 64.5719 524.65 59.3155 522.279 55.9052C520.101 52.5552 516.965 50.9202 512.869 51.0003C508.71 51.0817 505.608 52.8387 503.563 56.2714ZM493.173 94.4979C489.416 89.0024 487.448 81.6475 487.268 72.4332C487.088 63.219 488.767 55.7927 492.305 50.1544C496.84 43.0884 503.618 39.4671 512.64 39.2906C521.663 39.1141 528.546 42.4681 533.289 49.3526C537.111 54.9109 539.111 62.2652 539.29 71.4154C539.469 80.5657 537.758 87.9926 534.157 93.6961C529.686 100.761 522.94 104.382 513.917 104.558C504.895 104.735 497.98 101.381 493.173 94.4979ZM563.27 55.1032C561.099 58.6664 560.083 63.9673 560.221 71.0059C560.358 78.0446 561.581 83.3017 563.89 86.7772C566.068 90.1272 569.236 91.7616 573.396 91.6802C577.491 91.6001 580.561 89.8437 582.606 86.411C584.842 82.9106 585.891 77.6091 585.752 70.5064C585.613 63.4038 584.358 58.1473 581.987 54.7371C579.809 51.387 576.672 49.7521 572.577 49.8322C568.418 49.9136 565.315 51.6706 563.27 55.1032ZM552.88 93.3298C549.124 87.8342 547.155 80.4793 546.975 71.2651C546.795 62.0508 548.474 54.6246 552.012 48.9863C556.547 41.9202 563.325 38.2989 572.348 38.1224C581.37 37.9459 588.253 41.2999 592.996 48.1844C596.818 53.7428 598.818 61.097 598.997 70.2473C599.176 79.3975 597.465 86.8244 593.864 92.528C589.393 99.5928 582.647 103.213 573.625 103.39C564.602 103.566 557.687 100.213 552.88 93.3298ZM622.977 53.9351C620.807 57.4982 619.79 62.7991 619.928 69.8378C620.066 76.8764 621.289 82.1335 623.597 85.609C625.775 88.9591 628.944 90.5934 633.103 90.512C637.198 90.4319 640.268 88.6755 642.314 85.2429C644.55 81.7425 645.598 76.4409 645.459 69.3383C645.32 62.2356 644.065 56.9792 641.694 53.5689C639.516 50.2189 636.379 48.5839 632.284 48.664C628.125 48.7454 625.023 50.5024 622.977 53.9351ZM612.587 92.1617C608.831 86.6661 606.863 79.3112 606.682 70.0969C606.502 60.8827 608.181 53.4564 611.72 47.8181C616.254 40.7521 623.033 37.1308 632.055 36.9543C641.077 36.7778 647.96 40.1318 652.704 47.0163C656.525 52.5746 658.525 59.9289 658.705 69.0791C658.884 78.2294 657.172 85.6563 653.571 91.3598C649.101 98.4246 642.354 102.045 633.332 102.222C624.31 102.398 617.395 99.0449 612.587 92.1617ZM728.333 98.8269L714.479 72.8849L707.568 73.0201L708.081 99.2231L694.739 99.4841L693.408 31.4331L719.995 30.913C726.521 30.7853 731.807 32.6662 735.852 36.5559C739.897 40.4455 741.978 45.3977 742.096 51.4126C742.189 56.1477 740.957 60.2685 738.401 63.7752C735.908 67.2166 732.434 69.621 727.98 70.9884L743.114 98.5377L728.333 98.8269ZM707.344 61.5983L718.094 61.388C721.422 61.3229 723.996 60.4083 725.818 58.6443C727.704 56.8791 728.619 54.5888 728.564 51.7733C728.508 48.8939 727.503 46.6091 725.55 44.919C723.66 43.2276 721.052 42.4145 717.725 42.4796L706.975 42.6899L707.344 61.5983ZM797.344 97.4767L754.728 98.3104L753.396 30.2595L796.012 29.4257L796.256 41.9033L766.886 42.4779L767.19 58.027L793.777 57.5068L794.008 69.3125L767.421 69.8327L767.729 85.5737L797.099 84.9991L797.344 97.4767ZM874.29 74.9432L885.655 27.6719L899.189 27.4071L881.708 95.8261L868.078 96.0928L851.581 47.9263L836.98 96.7012L823.159 96.9716L802.919 29.2906L816.932 29.0164L830.326 75.6113L844.479 28.4775L858.204 28.2089L874.29 74.9432ZM951.616 94.4584L945.649 79.0202L918.006 79.561L912.647 95.2208L898.634 95.495L923.41 26.9332L938.767 26.6328L966.013 94.1767L951.616 94.4584ZM931.088 41.4738L922.185 67.3809L940.997 67.0129L931.088 41.4738ZM1008.31 93.3492L994.456 67.4073L987.546 67.5425L988.058 93.7454L974.717 94.0065L973.385 25.9555L999.972 25.4353C1006.5 25.3076 1011.78 27.1886 1015.83 31.0782C1019.87 34.9678 1021.96 39.9201 1022.07 45.9349C1022.17 50.67 1020.93 54.7909 1018.38 58.2976C1015.89 61.739 1012.41 64.1434 1007.96 65.5108L1023.09 93.06L1008.31 93.3492ZM987.322 56.1206L998.072 55.9103C1001.4 55.8452 1003.97 54.9307 1005.8 53.1667C1007.68 51.4015 1008.6 49.1111 1008.54 46.2957C1008.49 43.4162 1007.48 41.1315 1005.53 39.4413C1003.64 37.75 1001.03 36.9368 997.702 37.0019L986.952 37.2123L987.322 56.1206ZM1047.71 80.288L1058.27 80.0815C1064.22 79.965 1069.08 78.0136 1072.84 74.2272C1076.61 70.4408 1078.43 65.0283 1078.29 57.9896C1078.15 50.951 1076.13 45.6136 1072.21 41.9774C1068.3 38.2772 1063.4 36.4847 1057.51 36.5999L1046.86 36.8083L1047.71 80.288ZM1058.99 92.3577L1034.71 92.8328L1033.37 24.7818L1057.75 24.3049C1067.67 24.1108 1075.79 26.9925 1082.12 32.9499C1088.51 38.9061 1091.81 47.1631 1092.01 57.7211C1092.22 68.2151 1089.25 76.5628 1083.09 82.7644C1076.94 88.9659 1068.91 92.1637 1058.99 92.3577Z" fill="#1A1D22"/>
<rect x="0.28418" y="118.805" width="813" height="112" rx="56" transform="rotate(0.0780183 0.28418 118.805)" fill="#1872E7"/>
<path d="M37.2512 207.839L40.5297 197.187C43.7272 198.984 47.406 199.885 51.566 199.89C57.326 199.898 61.9361 198.369 65.3963 195.301C68.9204 192.234 70.9104 187.885 71.366 182.253C70.0192 184.3 68.065 185.929 65.5034 187.141C63.0057 188.354 60.1569 188.958 56.9569 188.954C50.9409 188.946 45.8555 187.019 41.7008 183.173C37.546 179.327 35.4729 174.269 35.4814 167.997C35.4901 161.597 37.7373 156.352 42.2228 152.262C46.7724 148.172 52.5032 146.132 59.4152 146.141C66.5832 146.151 72.4997 148.719 77.1647 153.845C81.8938 158.908 84.2519 166.175 84.239 175.647C84.2236 186.975 81.4276 195.771 75.8511 202.036C70.2747 208.236 62.2064 211.329 51.6464 211.315C45.7584 211.307 40.96 210.148 37.2512 207.839ZM66.4798 175.047C68.5945 173.13 69.6538 170.667 69.6579 167.659C69.662 164.651 68.6094 162.186 66.5 160.263C64.4546 158.34 61.9279 157.377 58.9199 157.372C55.9759 157.368 53.4466 158.325 51.332 160.242C49.2814 162.159 48.254 164.622 48.2499 167.63C48.2457 170.702 49.2663 173.199 51.3117 175.122C53.3572 176.981 55.8839 177.912 58.8919 177.916C61.8999 177.921 64.4292 176.964 66.4798 175.047ZM93.2199 207.915L96.4984 197.264C99.6959 199.06 103.375 199.961 107.535 199.967C113.295 199.975 117.905 198.445 121.365 195.378C124.889 192.31 126.879 187.961 127.335 182.33C125.988 184.376 124.034 186.005 121.472 187.218C118.974 188.43 116.126 189.034 112.926 189.03C106.91 189.022 101.824 187.095 97.6694 183.249C93.5147 179.404 91.4416 174.345 91.4501 168.073C91.4588 161.673 93.706 156.428 98.1915 152.338C102.741 148.248 108.472 146.208 115.384 146.217C122.552 146.227 128.468 148.795 133.133 153.922C137.863 158.984 140.221 166.251 140.208 175.723C140.192 187.051 137.396 195.847 131.82 202.112C126.243 208.312 118.175 211.405 107.615 211.391C101.727 211.383 96.9287 210.224 93.2199 207.915ZM122.449 175.123C124.563 173.206 125.623 170.743 125.627 167.735C125.631 164.727 124.578 162.262 122.469 160.339C120.423 158.416 117.897 157.453 114.889 157.449C111.945 157.445 109.415 158.401 107.301 160.318C105.25 162.236 104.223 164.698 104.219 167.706C104.214 170.778 105.235 173.276 107.28 175.198C109.326 177.057 111.853 177.989 114.861 177.993C117.869 177.997 120.398 177.04 122.449 175.123ZM156.112 162.401C156.109 164.385 156.715 166.018 157.929 167.299C159.143 168.517 160.646 169.127 162.438 169.129C164.294 169.132 165.799 168.526 166.953 167.312C168.171 166.033 168.781 164.402 168.784 162.418C168.786 160.434 168.181 158.833 166.966 157.616C165.816 156.398 164.313 155.788 162.457 155.785C160.665 155.783 159.16 156.421 157.942 157.699C156.724 158.914 156.114 160.481 156.112 162.401ZM151.104 173.53C148.037 170.454 146.506 166.74 146.512 162.388C146.518 158.036 148.091 154.326 151.231 151.258C154.371 148.19 158.117 146.66 162.469 146.665C166.821 146.671 170.563 148.212 173.695 151.289C176.891 154.365 178.486 158.079 178.48 162.431C178.474 166.847 176.869 170.557 173.664 173.561C170.524 176.564 166.778 178.063 162.426 178.057C158.01 178.051 154.236 176.542 151.104 173.53ZM198.019 195.482C198.016 197.466 198.622 199.099 199.836 200.38C201.05 201.598 202.553 202.208 204.345 202.211C206.201 202.213 207.706 201.607 208.86 200.393C210.078 199.114 210.688 197.483 210.691 195.499C210.693 193.515 210.088 191.914 208.873 190.697C207.723 189.479 206.22 188.869 204.364 188.867C202.572 188.864 201.067 189.502 199.849 190.78C198.631 191.995 198.021 193.562 198.019 195.482ZM193.011 206.611C189.944 203.535 188.413 199.821 188.419 195.469C188.425 191.117 189.998 187.407 193.138 184.339C196.278 181.272 200.024 179.741 204.376 179.747C208.728 179.752 212.47 181.294 215.602 184.37C218.798 187.446 220.393 191.16 220.387 195.512C220.381 199.928 218.776 203.638 215.571 206.642C212.431 209.646 208.685 211.144 204.333 211.139C199.917 211.132 196.143 209.623 193.011 206.611ZM166.991 210.032L155.855 210.016L199.908 147.772L211.044 147.788L166.991 210.032ZM286.469 211.634C276.677 211.621 268.425 208.346 261.714 201.809C255.003 195.271 251.655 186.723 251.669 176.163C251.684 165.667 255.087 157.128 261.88 150.545C268.737 143.962 276.902 140.677 286.374 140.69C295.078 140.702 302.051 142.92 307.293 147.343C312.599 151.766 316.015 157.083 317.543 163.293L305.057 167.212C304.103 163.37 302.091 160.136 299.023 157.507C295.954 154.815 291.732 153.465 286.356 153.458C280.788 153.451 275.889 155.428 271.66 159.39C267.495 163.352 265.407 168.95 265.397 176.182C265.388 183.094 267.428 188.568 271.519 192.606C275.673 196.644 280.663 198.666 286.487 198.674C291.799 198.682 296.024 197.311 299.164 194.564C302.368 191.816 304.516 188.555 305.61 184.78L317.988 188.541C317.281 191.292 316.125 193.979 314.521 196.601C312.982 199.222 310.963 201.684 308.463 203.984C305.964 206.285 302.794 208.137 298.952 209.539C295.174 210.942 291.013 211.641 286.469 211.634ZM372.331 210.311L366.688 194.752L339.04 194.714L333.355 210.258L319.339 210.239L345.544 142.211L360.904 142.232L386.731 210.331L372.331 210.311ZM352.916 156.909L343.473 182.624L362.289 182.65L352.916 156.909ZM440.924 158.565L429.015 162.196C428.57 159.764 427.357 157.554 425.376 155.567C423.394 153.581 420.484 152.585 416.644 152.58C413.508 152.575 410.947 153.436 408.96 155.161C406.974 156.822 405.979 158.837 405.976 161.205C405.97 165.365 408.431 167.928 413.358 168.895L422.859 170.732C428.873 171.892 433.542 174.299 436.865 177.951C440.188 181.604 441.846 185.894 441.84 190.822C441.832 196.454 439.585 201.379 435.1 205.597C430.678 209.751 424.723 211.823 417.235 211.812C412.947 211.807 409.076 211.161 405.622 209.877C402.167 208.592 399.386 206.892 397.277 204.777C395.168 202.598 393.507 200.324 392.294 197.954C391.145 195.521 390.445 193.024 390.192 190.464L402.485 187.216C402.8 190.865 404.203 193.907 406.696 196.342C409.253 198.778 412.803 199.998 417.347 200.005C420.803 200.009 423.492 199.245 425.414 197.712C427.4 196.178 428.395 194.164 428.399 191.668C428.401 189.684 427.668 187.987 426.197 186.577C424.791 185.103 422.777 184.108 420.154 183.592L410.652 181.659C405.15 180.5 400.801 178.222 397.605 174.826C394.41 171.429 392.816 167.203 392.823 162.147C392.831 156.131 395.142 151.078 399.755 146.989C404.433 142.899 410.036 140.859 416.564 140.867C420.468 140.873 423.955 141.421 427.025 142.514C430.096 143.606 432.558 145.081 434.411 146.94C436.265 148.734 437.702 150.592 438.724 152.514C439.745 154.435 440.478 156.452 440.924 158.565ZM509.254 210.498L495.91 210.48L495.949 182.256L466.285 182.215L466.247 210.439L452.999 210.421L453.091 142.357L466.339 142.375L466.302 169.735L495.966 169.776L496.003 142.416L509.347 142.434L509.254 210.498ZM524.904 142.455L549.384 142.488C555.848 142.497 560.901 144.2 564.545 147.597C568.252 150.994 570.102 155.413 570.095 160.853C570.09 164.309 569.158 167.379 567.298 170.065C565.439 172.686 563.068 174.475 560.187 175.431C563.642 176.268 566.487 178.16 568.723 181.107C571.023 183.99 572.17 187.479 572.165 191.575C572.157 197.143 570.231 201.717 566.386 205.296C562.541 208.81 557.451 210.563 551.115 210.555L524.811 210.519L524.904 142.455ZM537.921 170.601L547.329 170.614C550.337 170.618 552.706 169.853 554.436 168.319C556.167 166.786 557.033 164.707 557.037 162.083C557.041 159.459 556.179 157.41 554.453 155.935C552.791 154.397 550.392 153.626 547.256 153.621L537.944 153.609L537.921 170.601ZM537.882 199.497L548.634 199.511C551.834 199.516 554.331 198.751 556.125 197.218C557.983 195.62 558.914 193.445 558.918 190.693C558.922 187.941 558.029 185.732 556.239 184.066C554.513 182.399 552.05 181.564 548.85 181.56L537.906 181.545L537.882 199.497ZM627.987 210.659L622.344 195.1L594.696 195.062L589.011 210.606L574.995 210.587L601.2 142.559L616.56 142.58L642.387 210.679L627.987 210.659ZM608.572 157.257L599.129 182.972L617.945 182.998L608.572 157.257ZM678.625 212.168C668.833 212.155 660.581 208.88 653.87 202.343C647.159 195.805 643.811 187.257 643.825 176.697C643.839 166.201 647.243 157.662 654.036 151.079C660.893 144.496 669.057 141.211 678.529 141.224C687.233 141.236 694.206 143.453 699.448 147.877C704.754 152.3 708.171 157.617 709.699 163.827L697.213 167.746C696.259 163.904 694.247 160.67 691.179 158.041C688.11 155.349 683.888 153.999 678.512 153.992C672.944 153.985 668.045 155.962 663.816 159.924C659.651 163.886 657.563 169.484 657.553 176.716C657.544 183.628 659.584 189.102 663.675 193.14C667.829 197.178 672.818 199.2 678.642 199.208C683.954 199.216 688.18 197.845 691.32 195.098C694.524 192.35 696.672 189.089 697.765 185.314L710.144 189.075C709.437 191.826 708.281 194.513 706.677 197.135C705.138 199.756 703.118 202.218 700.619 204.518C698.12 206.819 694.95 208.671 691.108 210.073C687.33 211.476 683.169 212.175 678.625 212.168ZM762.595 210.843L742.858 182.592L734.397 191.892L734.371 210.804L721.123 210.786L721.216 142.722L734.464 142.74L734.422 173.556L761.728 142.777L779.104 142.801L752.088 172.428L779.203 210.865L762.595 210.843Z" fill="white"/>
<defs>
<linearGradient id="paint0_linear_6_28869" x1="1127.68" y1="73.9367" x2="865.063" y2="488.487" gradientUnits="userSpaceOnUse">
<stop stop-color="#5CEE9C"/>
<stop offset="1" stop-color="#FFFB1F"/>
</linearGradient>
</defs>
</svg>
