<svg width="1439" height="90" viewBox="0 0 1439 90" fill="none" xmlns="http://www.w3.org/2000/svg">
<path d="M72.768 18H71.28V6.416H72.768V11.392C72.9707 11.0187 73.2907 10.7093 73.728 10.464C74.176 10.208 74.704 10.08 75.312 10.08C76.432 10.08 77.3013 10.4587 77.92 11.216C78.5387 11.9733 78.848 12.9387 78.848 14.112C78.848 15.296 78.528 16.2773 77.888 17.056C77.248 17.824 76.3733 18.208 75.264 18.208C74.112 18.208 73.28 17.7653 72.768 16.88V18ZM76.688 16.112C77.104 15.6107 77.312 14.944 77.312 14.112C77.312 13.28 77.104 12.624 76.688 12.144C76.2827 11.6533 75.7333 11.408 75.04 11.408C74.368 11.408 73.8187 11.6533 73.392 12.144C72.9653 12.6347 72.752 13.2907 72.752 14.112C72.752 14.9333 72.9653 15.6 73.392 16.112C73.8187 16.6133 74.368 16.864 75.04 16.864C75.7227 16.864 76.272 16.6133 76.688 16.112ZM82.3719 21.216H80.7239L82.6439 17.152L79.3319 10.304H81.0599L83.4599 15.616L85.7639 10.304H87.3799L82.3719 21.216ZM93.8029 11.36L92.2349 11.168C92.2242 11.072 92.2189 10.9333 92.2189 10.752C92.2189 9.824 92.5442 9.03467 93.1949 8.384C93.8455 7.72267 94.7149 7.392 95.8029 7.392C96.8802 7.392 97.7335 7.70133 98.3629 8.32C98.9922 8.928 99.3069 9.68 99.3069 10.576C99.3069 11.888 98.6562 12.9547 97.3549 13.776L95.3069 15.088C94.5709 15.5573 94.1495 16.0427 94.0429 16.544H99.3709V18H92.1069C92.1282 17.1253 92.3255 16.3573 92.6989 15.696C93.0829 15.0347 93.7069 14.4267 94.5709 13.872L96.2989 12.752C97.2482 12.144 97.7229 11.424 97.7229 10.592C97.7229 10.08 97.5522 9.648 97.2109 9.296C96.8695 8.944 96.3895 8.768 95.7709 8.768C95.1202 8.768 94.6242 8.96533 94.2829 9.36C93.9415 9.75467 93.7709 10.2667 93.7709 10.896C93.7709 10.992 93.7815 11.1467 93.8029 11.36ZM103.28 9.456C102.672 10.096 102.368 11.216 102.368 12.816C102.368 14.416 102.672 15.536 103.28 16.176C103.706 16.624 104.256 16.848 104.928 16.848C105.6 16.848 106.149 16.624 106.576 16.176C107.184 15.536 107.488 14.416 107.488 12.816C107.488 11.216 107.184 10.096 106.576 9.456C106.149 9.008 105.6 8.784 104.928 8.784C104.256 8.784 103.706 9.008 103.28 9.456ZM101.744 16.576C101.125 15.6587 100.816 14.4053 100.816 12.816C100.816 11.2267 101.125 9.97333 101.744 9.056C102.48 7.94667 103.541 7.392 104.928 7.392C106.314 7.392 107.376 7.94667 108.112 9.056C108.73 9.97333 109.04 11.2267 109.04 12.816C109.04 14.4053 108.73 15.6587 108.112 16.576C107.376 17.6853 106.314 18.24 104.928 18.24C103.541 18.24 102.48 17.6853 101.744 16.576ZM110.724 12.768H113.716V9.648H115.028V12.768H118.036V14.032H115.028V17.184H113.716V14.032H110.724V12.768ZM125.69 18H124.202V10.304H125.69V18ZM124.17 8.16C123.967 7.94667 123.866 7.69067 123.866 7.392C123.866 7.09333 123.967 6.83733 124.17 6.624C124.383 6.41067 124.639 6.304 124.938 6.304C125.237 6.304 125.493 6.41067 125.706 6.624C125.919 6.82667 126.026 7.08267 126.026 7.392C126.026 7.69067 125.919 7.94667 125.706 8.16C125.493 8.36267 125.237 8.464 124.938 8.464C124.639 8.464 124.383 8.36267 124.17 8.16ZM129.753 13.552V18H128.249V10.304H129.721V11.408C130.233 10.5227 131.022 10.08 132.089 10.08C132.974 10.08 133.651 10.3627 134.121 10.928C134.601 11.4933 134.841 12.224 134.841 13.12V18H133.337V13.376C133.337 12.0853 132.739 11.44 131.545 11.44C130.979 11.44 130.537 11.6427 130.217 12.048C129.907 12.4427 129.753 12.944 129.753 13.552ZM136.513 16L137.873 15.52C137.926 15.936 138.108 16.2827 138.417 16.56C138.726 16.8267 139.142 16.96 139.665 16.96C140.07 16.96 140.39 16.864 140.625 16.672C140.86 16.4693 140.977 16.224 140.977 15.936C140.977 15.424 140.646 15.0933 139.985 14.944L138.673 14.656C138.076 14.528 137.606 14.272 137.265 13.888C136.924 13.504 136.753 13.04 136.753 12.496C136.753 11.8347 137.02 11.264 137.553 10.784C138.097 10.304 138.742 10.064 139.489 10.064C139.98 10.064 140.417 10.1387 140.801 10.288C141.185 10.4267 141.484 10.6133 141.697 10.848C141.91 11.0827 142.07 11.3013 142.177 11.504C142.284 11.7067 142.364 11.9147 142.417 12.128L141.089 12.624C141.068 12.496 141.03 12.3733 140.977 12.256C140.924 12.128 140.838 11.9893 140.721 11.84C140.614 11.6907 140.454 11.5733 140.241 11.488C140.028 11.392 139.777 11.344 139.489 11.344C139.116 11.344 138.806 11.4453 138.561 11.648C138.326 11.8507 138.209 12.0907 138.209 12.368C138.209 12.8587 138.502 13.168 139.089 13.296L140.337 13.568C141.02 13.7173 141.542 13.9947 141.905 14.4C142.278 14.7947 142.465 15.28 142.465 15.856C142.465 16.464 142.214 17.0133 141.713 17.504C141.222 17.9947 140.534 18.24 139.649 18.24C138.7 18.24 137.958 18.0053 137.425 17.536C136.892 17.056 136.588 16.544 136.513 16ZM146.484 7.872V10.304H148.148V11.664H146.484V15.664C146.484 16.0267 146.564 16.2933 146.724 16.464C146.894 16.6347 147.172 16.72 147.556 16.72C147.78 16.72 147.977 16.6987 148.148 16.656V17.936C147.892 18.032 147.55 18.08 147.124 18.08C146.462 18.08 145.94 17.888 145.556 17.504C145.172 17.12 144.98 16.5813 144.98 15.888V11.664H143.508V10.304H143.924C144.318 10.304 144.612 10.1973 144.804 9.984C145.006 9.76 145.108 9.472 145.108 9.12V7.872H146.484ZM151.643 18H150.155V10.304H151.643V18ZM150.123 8.16C149.92 7.94667 149.819 7.69067 149.819 7.392C149.819 7.09333 149.92 6.83733 150.123 6.624C150.336 6.41067 150.592 6.304 150.891 6.304C151.19 6.304 151.446 6.41067 151.659 6.624C151.872 6.82667 151.979 7.08267 151.979 7.392C151.979 7.69067 151.872 7.94667 151.659 8.16C151.446 8.36267 151.19 8.464 150.891 8.464C150.592 8.464 150.336 8.36267 150.123 8.16ZM156.218 7.872V10.304H157.882V11.664H156.218V15.664C156.218 16.0267 156.298 16.2933 156.458 16.464C156.629 16.6347 156.906 16.72 157.29 16.72C157.514 16.72 157.711 16.6987 157.882 16.656V17.936C157.626 18.032 157.285 18.08 156.858 18.08C156.197 18.08 155.674 17.888 155.29 17.504C154.906 17.12 154.714 16.5813 154.714 15.888V11.664H153.242V10.304H153.658C154.053 10.304 154.346 10.1973 154.538 9.984C154.741 9.76 154.842 9.472 154.842 9.12V7.872H156.218ZM164.961 17.072C164.759 17.456 164.449 17.7493 164.033 17.952C163.617 18.144 163.169 18.24 162.689 18.24C161.815 18.24 161.116 17.952 160.593 17.376C160.071 16.7893 159.809 16.048 159.809 15.152V10.304H161.313V14.928C161.313 15.504 161.452 15.9787 161.729 16.352C162.017 16.7253 162.46 16.912 163.057 16.912C163.655 16.912 164.108 16.736 164.417 16.384C164.727 16.0213 164.881 15.5413 164.881 14.944V10.304H166.385V16.576C166.385 17.0773 166.412 17.552 166.465 18H165.025C164.983 17.7653 164.961 17.456 164.961 17.072ZM170.968 7.872V10.304H172.632V11.664H170.968V15.664C170.968 16.0267 171.048 16.2933 171.208 16.464C171.379 16.6347 171.656 16.72 172.04 16.72C172.264 16.72 172.461 16.6987 172.632 16.656V17.936C172.376 18.032 172.035 18.08 171.608 18.08C170.947 18.08 170.424 17.888 170.04 17.504C169.656 17.12 169.464 16.5813 169.464 15.888V11.664H167.992V10.304H168.408C168.803 10.304 169.096 10.1973 169.288 9.984C169.491 9.76 169.592 9.472 169.592 9.12V7.872H170.968ZM176.127 18H174.639V10.304H176.127V18ZM174.607 8.16C174.405 7.94667 174.303 7.69067 174.303 7.392C174.303 7.09333 174.405 6.83733 174.607 6.624C174.821 6.41067 175.077 6.304 175.375 6.304C175.674 6.304 175.93 6.41067 176.143 6.624C176.357 6.82667 176.463 7.08267 176.463 7.392C176.463 7.69067 176.357 7.94667 176.143 8.16C175.93 8.36267 175.674 8.464 175.375 8.464C175.077 8.464 174.821 8.36267 174.607 8.16ZM180.27 16.176C180.74 16.656 181.31 16.896 181.982 16.896C182.654 16.896 183.22 16.656 183.678 16.176C184.148 15.6853 184.382 15.008 184.382 14.144C184.382 13.2907 184.148 12.624 183.678 12.144C183.22 11.6533 182.654 11.408 181.982 11.408C181.31 11.408 180.74 11.6533 180.27 12.144C179.812 12.624 179.582 13.2907 179.582 14.144C179.582 15.008 179.812 15.6853 180.27 16.176ZM179.15 11.232C179.897 10.4533 180.841 10.064 181.982 10.064C183.124 10.064 184.062 10.4533 184.798 11.232C185.545 12 185.918 12.9707 185.918 14.144C185.918 15.328 185.55 16.3093 184.814 17.088C184.078 17.856 183.134 18.24 181.982 18.24C180.83 18.24 179.886 17.856 179.15 17.088C178.414 16.3093 178.046 15.328 178.046 14.144C178.046 12.9707 178.414 12 179.15 11.232ZM189.347 13.552V18H187.843V10.304H189.315V11.408C189.827 10.5227 190.616 10.08 191.683 10.08C192.568 10.08 193.245 10.3627 193.715 10.928C194.195 11.4933 194.435 12.224 194.435 13.12V18H192.931V13.376C192.931 12.0853 192.333 11.44 191.139 11.44C190.573 11.44 190.131 11.6427 189.811 12.048C189.501 12.4427 189.347 12.944 189.347 13.552ZM196.347 15.936C196.347 15.2747 196.56 14.7467 196.987 14.352C197.414 13.9467 197.979 13.696 198.683 13.6L200.763 13.296C201.158 13.2427 201.355 13.0507 201.355 12.72C201.355 12.3147 201.216 11.984 200.939 11.728C200.662 11.472 200.246 11.344 199.691 11.344C199.179 11.344 198.774 11.488 198.475 11.776C198.176 12.0533 198 12.4267 197.947 12.896L196.507 12.56C196.582 11.824 196.918 11.2267 197.515 10.768C198.112 10.2987 198.827 10.064 199.659 10.064C200.747 10.064 201.552 10.3307 202.075 10.864C202.598 11.3867 202.859 12.0587 202.859 12.88V16.736C202.859 17.1947 202.891 17.616 202.955 18H201.483C201.43 17.68 201.403 17.3333 201.403 16.96C201.19 17.3013 200.875 17.6 200.459 17.856C200.054 18.112 199.542 18.24 198.923 18.24C198.166 18.24 197.547 18.016 197.067 17.568C196.587 17.1093 196.347 16.5653 196.347 15.936ZM199.131 16.976C199.803 16.976 200.342 16.7947 200.747 16.432C201.152 16.0693 201.355 15.4933 201.355 14.704V14.352L199.003 14.704C198.662 14.7573 198.39 14.88 198.187 15.072C197.984 15.264 197.883 15.5253 197.883 15.856C197.883 16.1547 197.995 16.416 198.219 16.64C198.454 16.864 198.758 16.976 199.131 16.976ZM206.706 18H205.202V6.416H206.706V18ZM214.752 18H213.264V10.304H214.752V18ZM213.232 8.16C213.03 7.94667 212.928 7.69067 212.928 7.392C212.928 7.09333 213.03 6.83733 213.232 6.624C213.446 6.41067 213.702 6.304 214 6.304C214.299 6.304 214.555 6.41067 214.768 6.624C214.982 6.82667 215.088 7.08267 215.088 7.392C215.088 7.69067 214.982 7.94667 214.768 8.16C214.555 8.36267 214.299 8.464 214 8.464C213.702 8.464 213.446 8.36267 213.232 8.16ZM218.815 13.552V18H217.311V10.304H218.783V11.408C219.295 10.5227 220.085 10.08 221.151 10.08C222.037 10.08 222.714 10.3627 223.183 10.928C223.663 11.4933 223.903 12.224 223.903 13.12V18H222.399V13.376C222.399 12.0853 221.802 11.44 220.607 11.44C220.042 11.44 219.599 11.6427 219.279 12.048C218.97 12.4427 218.815 12.944 218.815 13.552ZM232.888 10.304L229.816 18H228.296L225.176 10.304H226.872L229.064 16.24L231.272 10.304H232.888ZM235.069 13.36H239.277C239.255 12.784 239.063 12.3147 238.701 11.952C238.338 11.5787 237.826 11.392 237.165 11.392C236.567 11.392 236.077 11.5893 235.693 11.984C235.309 12.368 235.101 12.8267 235.069 13.36ZM239.501 15.36L240.797 15.808C240.573 16.5227 240.157 17.1093 239.549 17.568C238.941 18.016 238.205 18.24 237.341 18.24C236.263 18.24 235.346 17.872 234.589 17.136C233.842 16.3893 233.469 15.3867 233.469 14.128C233.469 12.9547 233.831 11.984 234.557 11.216C235.282 10.448 236.146 10.064 237.149 10.064C238.311 10.064 239.218 10.432 239.869 11.168C240.519 11.8933 240.845 12.8693 240.845 14.096C240.845 14.288 240.834 14.448 240.812 14.576H235.021C235.031 15.2587 235.255 15.8187 235.693 16.256C236.141 16.6933 236.69 16.912 237.341 16.912C238.439 16.912 239.159 16.3947 239.501 15.36ZM242.044 16L243.404 15.52C243.458 15.936 243.639 16.2827 243.948 16.56C244.258 16.8267 244.674 16.96 245.196 16.96C245.602 16.96 245.922 16.864 246.156 16.672C246.391 16.4693 246.508 16.224 246.508 15.936C246.508 15.424 246.178 15.0933 245.516 14.944L244.204 14.656C243.607 14.528 243.138 14.272 242.796 13.888C242.455 13.504 242.284 13.04 242.284 12.496C242.284 11.8347 242.551 11.264 243.084 10.784C243.628 10.304 244.274 10.064 245.02 10.064C245.511 10.064 245.948 10.1387 246.332 10.288C246.716 10.4267 247.015 10.6133 247.228 10.848C247.442 11.0827 247.602 11.3013 247.708 11.504C247.815 11.7067 247.895 11.9147 247.948 12.128L246.62 12.624C246.599 12.496 246.562 12.3733 246.508 12.256C246.455 12.128 246.37 11.9893 246.252 11.84C246.146 11.6907 245.986 11.5733 245.772 11.488C245.559 11.392 245.308 11.344 245.02 11.344C244.647 11.344 244.338 11.4453 244.092 11.648C243.858 11.8507 243.74 12.0907 243.74 12.368C243.74 12.8587 244.034 13.168 244.62 13.296L245.868 13.568C246.551 13.7173 247.074 13.9947 247.436 14.4C247.81 14.7947 247.996 15.28 247.996 15.856C247.996 16.464 247.746 17.0133 247.244 17.504C246.754 17.9947 246.066 18.24 245.18 18.24C244.231 18.24 243.49 18.0053 242.956 17.536C242.423 17.056 242.119 16.544 242.044 16ZM252.015 7.872V10.304H253.679V11.664H252.015V15.664C252.015 16.0267 252.095 16.2933 252.255 16.464C252.425 16.6347 252.703 16.72 253.087 16.72C253.311 16.72 253.508 16.6987 253.679 16.656V17.936C253.423 18.032 253.081 18.08 252.655 18.08C251.993 18.08 251.471 17.888 251.087 17.504C250.703 17.12 250.511 16.5813 250.511 15.888V11.664H249.039V10.304H249.455C249.849 10.304 250.143 10.1973 250.335 9.984C250.537 9.76 250.639 9.472 250.639 9.12V7.872H252.015ZM257.192 16.176C257.661 16.656 258.232 16.896 258.904 16.896C259.576 16.896 260.141 16.656 260.6 16.176C261.069 15.6853 261.304 15.008 261.304 14.144C261.304 13.2907 261.069 12.624 260.6 12.144C260.141 11.6533 259.576 11.408 258.904 11.408C258.232 11.408 257.661 11.6533 257.192 12.144C256.733 12.624 256.504 13.2907 256.504 14.144C256.504 15.008 256.733 15.6853 257.192 16.176ZM256.072 11.232C256.819 10.4533 257.763 10.064 258.904 10.064C260.045 10.064 260.984 10.4533 261.72 11.232C262.467 12 262.84 12.9707 262.84 14.144C262.84 15.328 262.472 16.3093 261.736 17.088C261 17.856 260.056 18.24 258.904 18.24C257.752 18.24 256.808 17.856 256.072 17.088C255.336 16.3093 254.968 15.328 254.968 14.144C254.968 12.9707 255.336 12 256.072 11.232ZM269.036 10.224V11.824C268.812 11.792 268.594 11.776 268.38 11.776C266.972 11.776 266.268 12.5653 266.268 14.144V18H264.764V10.304H266.236V11.648C266.706 10.6667 267.474 10.176 268.54 10.176C268.711 10.176 268.876 10.192 269.036 10.224ZM269.919 16L271.279 15.52C271.333 15.936 271.514 16.2827 271.823 16.56C272.133 16.8267 272.549 16.96 273.071 16.96C273.477 16.96 273.797 16.864 274.031 16.672C274.266 16.4693 274.383 16.224 274.383 15.936C274.383 15.424 274.053 15.0933 273.391 14.944L272.079 14.656C271.482 14.528 271.013 14.272 270.671 13.888C270.33 13.504 270.159 13.04 270.159 12.496C270.159 11.8347 270.426 11.264 270.959 10.784C271.503 10.304 272.149 10.064 272.895 10.064C273.386 10.064 273.823 10.1387 274.207 10.288C274.591 10.4267 274.89 10.6133 275.103 10.848C275.317 11.0827 275.477 11.3013 275.583 11.504C275.69 11.7067 275.77 11.9147 275.823 12.128L274.495 12.624C274.474 12.496 274.437 12.3733 274.383 12.256C274.33 12.128 274.245 11.9893 274.127 11.84C274.021 11.6907 273.861 11.5733 273.647 11.488C273.434 11.392 273.183 11.344 272.895 11.344C272.522 11.344 272.213 11.4453 271.967 11.648C271.733 11.8507 271.615 12.0907 271.615 12.368C271.615 12.8587 271.909 13.168 272.495 13.296L273.743 13.568C274.426 13.7173 274.949 13.9947 275.311 14.4C275.685 14.7947 275.871 15.28 275.871 15.856C275.871 16.464 275.621 17.0133 275.119 17.504C274.629 17.9947 273.941 18.24 273.055 18.24C272.106 18.24 271.365 18.0053 270.831 17.536C270.298 17.056 269.994 16.544 269.919 16Z" fill="#C6C6C6"/>
<g clip-path="url(#clip0_312_66854)">
<path d="M8.68038 56.9355L0 65.9368V89.3668H22.8501L30.7645 81.1596H8.42504L8.68038 56.9355Z" fill="#32353C"/>
<path d="M9.12598 56.4717L17.2957 48H39.5714L31.6567 56.2072L9.12598 56.4717Z" fill="#32353C"/>
<path d="M19.9785 69.9739L27.7972 61.8662H40.9134V71.3637L32.329 80.2657V69.9078L19.9785 69.9739Z" fill="#32353C"/>
<path d="M55.5859 70.5443C55.5823 69.4831 55.7801 68.4316 56.1681 67.4497C56.538 66.4967 57.077 65.6241 57.7573 64.8773C58.4549 64.1262 59.2939 63.5319 60.2224 63.1313C61.2073 62.6972 62.2676 62.4769 63.3378 62.4842C64.4338 62.4572 65.5258 62.6314 66.5634 62.9987C67.4979 63.3682 68.3624 63.9053 69.1175 64.5853L67.4392 66.6649C66.867 66.1447 66.2214 65.7183 65.5249 65.4003C64.7949 65.1059 64.0158 64.9652 63.2329 64.9861C62.3528 64.9795 61.4902 65.2409 60.7521 65.738C60.0008 66.2387 59.3924 66.9386 58.9898 67.7652C58.5645 68.6247 58.3467 69.5783 58.3552 70.5442C58.3387 71.5365 58.5547 72.5181 58.9846 73.4048C59.3899 74.2305 60.014 74.9193 60.7835 75.3902C61.5961 75.8814 62.5233 76.1316 63.4637 76.1133C64.769 76.1506 66.0493 75.7375 67.1036 74.9388V72.0128H63.2539V69.6304H69.6526V76.1787C67.9232 77.7658 65.689 78.6337 63.3797 78.6152C61.9479 78.6433 60.5346 78.2774 59.2836 77.5548C58.1223 76.8807 57.1707 75.8769 56.5405 74.6613C55.8934 73.3941 55.565 71.978 55.5859 70.5443V70.5443Z" fill="#32353C"/>
<path d="M72.2031 78.3431V62.7451H83.3537V65.1706H74.8466V69.2823H82.3886V71.7077H74.8466V75.9173H83.4586V78.3431L72.2031 78.3431Z" fill="#32353C"/>
<path d="M85.7129 78.3431V62.7451H96.8634V65.1706H88.3564V69.2823H95.8984V71.7077H88.3564V75.9173H96.9683V78.3431L85.7129 78.3431Z" fill="#32353C"/>
<path d="M99.2227 78.3431V62.7451H101.866V70.5874L109.02 62.7451H112.261L106.009 69.4562L112.544 78.3431H109.345L104.205 71.327L101.866 73.8182V78.3431H99.2227Z" fill="#32353C"/>
<path d="M113.248 70.549C113.242 69.4752 113.438 68.4105 113.825 67.4143C114.189 66.4605 114.726 65.5884 115.408 64.8454C116.107 64.1006 116.946 63.5133 117.874 63.1203C118.864 62.692 119.927 62.4753 120.999 62.4834C122.136 62.4528 123.266 62.6648 124.319 63.1061C125.269 63.5425 126.138 64.1493 126.884 64.8986L125.195 66.9271C124.603 66.3483 123.931 65.8631 123.202 65.487C122.507 65.1471 121.747 64.9756 120.978 64.9853C120.078 64.9746 119.193 65.232 118.43 65.727C117.671 66.2174 117.056 66.9135 116.652 67.74C116.223 68.609 116.005 69.5731 116.017 70.549C115.983 72.0034 116.49 73.4157 117.433 74.4927C117.874 75.0146 118.42 75.4301 119.033 75.7099C119.645 75.9898 120.309 76.1272 120.978 76.1125C121.766 76.1303 122.547 75.9586 123.26 75.6107C124.008 75.2069 124.695 74.6924 125.3 74.0835L127 75.8725C126.496 76.4207 125.939 76.9127 125.337 77.3408C124.735 77.7475 124.077 78.0586 123.386 78.2637C122.576 78.5058 121.737 78.624 120.895 78.6144C119.523 78.6315 118.173 78.2633 116.987 77.549C115.832 76.8561 114.882 75.8488 114.239 74.6361C113.573 73.3854 113.232 71.9773 113.248 70.549V70.549Z" fill="#32353C"/>
<path d="M127.589 78.3425L134.208 62.6357H136.662L143.271 78.3425H140.481L138.96 74.5788H131.848L130.295 78.3425H127.589ZM132.813 72.1533H137.995L135.393 65.9096L132.813 72.1533Z" fill="#32353C"/>
<path d="M144.962 78.3431V62.7451H151.676C153.421 62.7451 154.79 63.1947 155.785 64.0938C156.779 64.9932 157.277 66.2005 157.277 67.7159C157.319 68.8178 156.974 69.8982 156.306 70.756C155.612 71.5808 154.692 72.1669 153.668 72.4366L157.728 78.3431H154.613L150.878 72.9043H147.605V78.3431H144.962ZM147.605 70.4786H151.476C152.286 70.5229 153.085 70.2687 153.731 69.7607C154.006 69.5274 154.225 69.231 154.371 68.8951C154.516 68.5591 154.585 68.1927 154.57 67.8246C154.59 67.462 154.526 67.0997 154.384 66.7677C154.241 66.4358 154.025 66.1438 153.752 65.9158C153.207 65.4699 152.441 65.2469 151.455 65.2468H147.605V70.4786Z" fill="#32353C"/>
<path d="M158.513 65.2904V62.7451H170.733V65.2904H165.95V78.3431H163.307V65.2904H158.513Z" fill="#32353C"/>
<path d="M172.642 78.3431V62.7451H183.792V65.1706H175.285V69.2823H182.827V71.7077H175.285V75.9173H183.897V78.3431L172.642 78.3431Z" fill="#32353C"/>
<path d="M186.155 78.3431V62.7451H188.799V75.8414H196.708V78.3431H186.155Z" fill="#32353C"/>
</g>
<path d="M257.324 63.8219V62.8559L259.566 62.5607L260.12 58.2674C260.146 58.1332 260.208 58.0214 260.304 57.932C260.401 57.8425 260.524 57.7978 260.674 57.7978H261.887V62.5876H265.843V64.3585H261.887V72.7171C261.887 73.3074 262.028 73.7457 262.309 74.0319C262.59 74.3092 262.951 74.4478 263.39 74.4478C263.645 74.4478 263.861 74.4165 264.036 74.3539C264.221 74.2824 264.379 74.2063 264.511 74.1258C264.652 74.0364 264.77 73.9604 264.867 73.8978C264.964 73.8262 265.047 73.7904 265.118 73.7904C265.241 73.7904 265.351 73.8664 265.447 74.0185L266.159 75.1857C265.746 75.5793 265.245 75.8879 264.656 76.1115C264.076 76.3351 263.474 76.4469 262.85 76.4469C261.768 76.4469 260.937 76.1428 260.357 75.5346C259.777 74.9174 259.487 74.0319 259.487 72.8781V64.3585H257.839C257.698 64.3585 257.575 64.3183 257.469 64.2378C257.373 64.1484 257.324 64.0097 257.324 63.8219Z" fill="#32353C"/>
<path d="M268.322 76.2322V62.3192H269.707C269.971 62.3192 270.151 62.3684 270.247 62.4668C270.344 62.5652 270.41 62.7396 270.445 62.9901L270.59 65.1099C271.021 64.1618 271.553 63.4194 272.186 62.8827C272.828 62.3371 273.601 62.0643 274.507 62.0643C274.797 62.0643 275.074 62.1001 275.338 62.1716C275.61 62.2342 275.847 62.3326 276.05 62.4668L275.878 64.2915C275.826 64.524 275.689 64.6403 275.469 64.6403C275.346 64.6403 275.162 64.6135 274.916 64.5598C274.669 64.4972 274.397 64.4659 274.098 64.4659C273.667 64.4659 273.28 64.533 272.938 64.6671C272.595 64.8013 272.287 64.9936 272.014 65.244C271.751 65.4945 271.513 65.8031 271.302 66.1698C271.1 66.5365 270.916 66.9614 270.749 67.4444V76.2322H268.322Z" fill="#32353C"/>
<path d="M278.028 71.1876V62.3192H280.428V71.1876C280.428 72.243 280.665 73.0614 281.14 73.6428C281.615 74.2153 282.34 74.5015 283.316 74.5015C284.019 74.5015 284.678 74.3316 285.294 73.9917C285.918 73.6518 286.489 73.1822 287.008 72.5829V62.3192H289.408V76.2322H287.984C287.641 76.2322 287.426 76.0623 287.338 75.7224L287.14 74.2198C286.542 74.8906 285.874 75.4317 285.136 75.8432C284.406 76.2457 283.562 76.4469 282.604 76.4469C281.856 76.4469 281.197 76.3217 280.626 76.0712C280.054 75.8208 279.575 75.4675 279.188 75.0113C278.801 74.5552 278.511 74.0006 278.318 73.3477C278.124 72.6947 278.028 71.9747 278.028 71.1876Z" fill="#32353C"/>
<path d="M292.441 68.9873C292.441 68.0123 292.586 67.1045 292.876 66.2637C293.175 65.4229 293.597 64.694 294.142 64.0768C294.687 63.4596 295.355 62.9766 296.147 62.6278C296.938 62.27 297.83 62.0911 298.824 62.0911C299.641 62.0911 300.397 62.2342 301.092 62.5205C301.795 62.7977 302.402 63.2002 302.912 63.728C303.421 64.2557 303.817 64.9086 304.098 65.6868C304.388 66.456 304.534 67.3326 304.534 68.3164C304.534 68.7011 304.494 68.9604 304.415 69.0946C304.336 69.2198 304.182 69.2824 303.953 69.2824H294.815C294.832 70.159 294.947 70.9237 295.158 71.5767C295.377 72.2296 295.676 72.7752 296.054 73.2135C296.432 73.6428 296.881 73.9648 297.399 74.1795C297.927 74.3942 298.516 74.5015 299.166 74.5015C299.773 74.5015 300.292 74.4299 300.722 74.2868C301.162 74.1437 301.54 73.9917 301.857 73.8307C302.173 73.6607 302.437 73.5087 302.648 73.3745C302.859 73.2314 303.039 73.1598 303.188 73.1598C303.391 73.1598 303.545 73.2359 303.65 73.3879L304.323 74.2868C304.024 74.6536 303.668 74.9711 303.254 75.2394C302.841 75.5077 302.397 75.7314 301.923 75.9102C301.457 76.0802 300.969 76.2054 300.459 76.2859C299.958 76.3754 299.461 76.4201 298.969 76.4201C298.019 76.4201 297.144 76.2591 296.344 75.9371C295.553 75.6151 294.867 75.141 294.287 74.5149C293.707 73.8799 293.254 73.1017 292.929 72.1804C292.604 71.2502 292.441 70.1858 292.441 68.9873ZM294.894 67.7529H302.384C302.384 67.1894 302.305 66.6707 302.147 66.1966C301.988 65.7226 301.755 65.3156 301.448 64.9757C301.149 64.6269 300.78 64.3585 300.34 64.1707C299.909 63.9829 299.421 63.889 298.876 63.889C297.716 63.889 296.802 64.2333 296.133 64.922C295.474 65.6018 295.061 66.5455 294.894 67.7529Z" fill="#32353C"/>
<path d="M314.397 76.2322V56H316.824V64.3317C317.395 63.643 318.041 63.0974 318.762 62.6949C319.492 62.2924 320.331 62.0911 321.281 62.0911C322.081 62.0911 322.802 62.2477 323.444 62.5607C324.085 62.8738 324.63 63.3255 325.079 63.9158C325.536 64.5061 325.883 65.2217 326.121 66.0625C326.358 66.9032 326.477 67.8513 326.477 68.9068C326.477 70.0338 326.34 71.0624 326.068 71.9926C325.795 72.9139 325.404 73.701 324.894 74.3539C324.393 75.0069 323.778 75.5167 323.048 75.8834C322.318 76.2412 321.496 76.4201 320.582 76.4201C319.685 76.4201 318.929 76.2501 318.314 75.9102C317.699 75.5704 317.158 75.0829 316.692 74.4478L316.573 75.709C316.503 76.0578 316.296 76.2322 315.953 76.2322H314.397ZM316.824 72.8781C317.263 73.4863 317.747 73.9156 318.274 74.1661C318.802 74.4076 319.378 74.5283 320.002 74.5283C321.285 74.5283 322.27 74.0677 322.956 73.1464C323.641 72.2162 323.984 70.8343 323.984 69.0007C323.984 67.3013 323.681 66.0535 323.074 65.2575C322.468 64.4525 321.602 64.05 320.477 64.05C319.694 64.05 319.008 64.2333 318.419 64.6C317.839 64.9668 317.307 65.4811 316.824 66.143V72.8781Z" fill="#32353C"/>
<path d="M329.602 76.2322V56H332.002V76.2322H329.602Z" fill="#32353C"/>
<path d="M335.127 69.269C335.127 68.1778 335.277 67.1894 335.576 66.304C335.883 65.4185 336.318 64.6671 336.881 64.05C337.453 63.4239 338.138 62.9409 338.938 62.601C339.747 62.2611 340.657 62.0911 341.668 62.0911C342.67 62.0911 343.571 62.2611 344.371 62.601C345.171 62.9409 345.853 63.4239 346.415 64.05C346.987 64.6671 347.422 65.4185 347.721 66.304C348.02 67.1894 348.169 68.1778 348.169 69.269C348.169 70.3692 348.02 71.3575 347.721 72.2341C347.422 73.1106 346.987 73.862 346.415 74.4881C345.853 75.1142 345.167 75.5927 344.358 75.9237C343.558 76.2546 342.661 76.4201 341.668 76.4201C340.657 76.4201 339.747 76.2546 338.938 75.9237C338.138 75.5927 337.453 75.1142 336.881 74.4881C336.318 73.862 335.883 73.1106 335.576 72.2341C335.277 71.3575 335.127 70.3692 335.127 69.269ZM337.593 69.2824C337.593 70.9282 337.927 72.2117 338.595 73.133C339.272 74.0543 340.297 74.5149 341.668 74.5149C343.022 74.5149 344.028 74.0543 344.688 73.133C345.356 72.2117 345.69 70.9282 345.69 69.2824C345.69 67.6277 345.356 66.3397 344.688 65.4185C344.02 64.4882 343.013 64.0231 341.668 64.0231C340.982 64.0231 340.384 64.1439 339.875 64.3854C339.365 64.6179 338.938 64.9578 338.595 65.405C338.261 65.8523 338.011 66.4068 337.844 67.0687C337.677 67.7216 337.593 68.4596 337.593 69.2824Z" fill="#32353C"/>
<path d="M350.451 69.269C350.451 68.2315 350.591 67.2744 350.872 66.3979C351.163 65.5213 351.576 64.7655 352.112 64.1305C352.657 63.4865 353.33 62.9856 354.13 62.6278C354.93 62.27 355.844 62.0911 356.873 62.0911C357.84 62.0911 358.688 62.2521 359.418 62.5741C360.156 62.8872 360.807 63.3299 361.369 63.9024L360.736 64.7879C360.666 64.8863 360.596 64.9668 360.525 65.0294C360.455 65.083 360.354 65.1099 360.222 65.1099C360.09 65.1099 359.941 65.0517 359.774 64.9355C359.615 64.8192 359.418 64.694 359.18 64.5598C358.943 64.4167 358.648 64.2915 358.297 64.1841C357.954 64.0679 357.532 64.0097 357.031 64.0097C356.354 64.0097 355.756 64.1305 355.237 64.372C354.727 64.6135 354.297 64.9623 353.945 65.4185C353.602 65.8746 353.343 66.4292 353.167 67.0821C352.991 67.7351 352.903 68.464 352.903 69.269C352.903 70.1098 352.996 70.8567 353.18 71.5096C353.374 72.1625 353.642 72.7126 353.985 73.1598C354.336 73.6071 354.758 73.9469 355.251 74.1795C355.743 74.4121 356.292 74.5283 356.899 74.5283C357.488 74.5283 357.971 74.4568 358.349 74.3137C358.728 74.1706 359.04 74.014 359.286 73.8441C359.532 73.6652 359.739 73.5087 359.906 73.3745C360.073 73.2314 360.24 73.1598 360.407 73.1598C360.609 73.1598 360.763 73.2359 360.868 73.3879L361.541 74.2868C361.242 74.6625 360.903 74.9845 360.525 75.2528C360.147 75.5122 359.739 75.7314 359.299 75.9102C358.868 76.0891 358.411 76.2188 357.928 76.2993C357.453 76.3798 356.969 76.4201 356.477 76.4201C355.624 76.4201 354.829 76.2635 354.09 75.9505C353.36 75.6285 352.723 75.1634 352.178 74.5552C351.642 73.938 351.22 73.1867 350.912 72.3012C350.604 71.4157 350.451 70.405 350.451 69.269Z" fill="#32353C"/>
<path d="M364.112 76.2322V56H366.539V67.9005H367.158C367.334 67.9005 367.484 67.8782 367.607 67.8334C367.73 67.7798 367.857 67.6769 367.989 67.5249L372.314 62.8156C372.438 62.6636 372.569 62.5428 372.71 62.4534C372.851 62.3639 373.04 62.3192 373.277 62.3192H375.453L370.416 67.7664C370.169 68.0794 369.906 68.3209 369.624 68.4909C369.783 68.5982 369.928 68.7279 370.06 68.8799C370.191 69.0231 370.319 69.1841 370.442 69.3629L375.783 76.2322H373.633C373.422 76.2322 373.242 76.2009 373.093 76.1383C372.952 76.0668 372.829 75.9371 372.723 75.7492L368.227 70.0472C368.095 69.8504 367.963 69.7252 367.831 69.6715C367.699 69.6089 367.497 69.5776 367.224 69.5776H366.539V76.2322H364.112Z" fill="#32353C"/>
<path d="M384.341 74.7162C384.341 74.4747 384.381 74.2511 384.46 74.0453C384.548 73.8396 384.666 73.6607 384.816 73.5087C384.965 73.3477 385.141 73.2224 385.343 73.133C385.554 73.0346 385.778 72.9854 386.016 72.9854C386.253 72.9854 386.473 73.0346 386.675 73.133C386.877 73.2224 387.053 73.3477 387.203 73.5087C387.361 73.6607 387.484 73.8441 387.572 74.0588C387.668 74.2645 387.717 74.4836 387.717 74.7162C387.717 74.9666 387.668 75.1947 387.572 75.4004C387.484 75.6061 387.361 75.7895 387.203 75.9505C387.053 76.1025 386.873 76.2188 386.662 76.2993C386.46 76.3888 386.244 76.4335 386.016 76.4335C385.778 76.4335 385.554 76.3888 385.343 76.2993C385.141 76.2188 384.965 76.1025 384.816 75.9505C384.666 75.7895 384.548 75.6061 384.46 75.4004C384.381 75.1947 384.341 74.9666 384.341 74.7162Z" fill="#32353C"/>
<path d="M390.354 69.269C390.354 68.2315 390.495 67.2744 390.776 66.3979C391.066 65.5213 391.48 64.7655 392.016 64.1305C392.561 63.4865 393.233 62.9856 394.033 62.6278C394.833 62.27 395.748 62.0911 396.776 62.0911C397.743 62.0911 398.592 62.2521 399.321 62.5741C400.06 62.8872 400.71 63.3299 401.273 63.9024L400.64 64.7879C400.57 64.8863 400.499 64.9668 400.429 65.0294C400.359 65.083 400.258 65.1099 400.126 65.1099C399.994 65.1099 399.844 65.0517 399.677 64.9355C399.519 64.8192 399.321 64.694 399.084 64.5598C398.847 64.4167 398.552 64.2915 398.2 64.1841C397.858 64.0679 397.436 64.0097 396.935 64.0097C396.258 64.0097 395.66 64.1305 395.141 64.372C394.631 64.6135 394.2 64.9623 393.849 65.4185C393.506 65.8746 393.247 66.4292 393.071 67.0821C392.895 67.7351 392.807 68.464 392.807 69.269C392.807 70.1098 392.899 70.8567 393.084 71.5096C393.277 72.1625 393.545 72.7126 393.888 73.1598C394.24 73.6071 394.662 73.9469 395.154 74.1795C395.647 74.4121 396.196 74.5283 396.803 74.5283C397.392 74.5283 397.875 74.4568 398.253 74.3137C398.631 74.1706 398.943 74.014 399.19 73.8441C399.436 73.6652 399.642 73.5087 399.809 73.3745C399.976 73.2314 400.143 73.1598 400.31 73.1598C400.513 73.1598 400.666 73.2359 400.772 73.3879L401.444 74.2868C401.146 74.6625 400.807 74.9845 400.429 75.2528C400.051 75.5122 399.642 75.7314 399.203 75.9102C398.772 76.0891 398.315 76.2188 397.831 76.2993C397.357 76.3798 396.873 76.4201 396.381 76.4201C395.528 76.4201 394.732 76.2635 393.994 75.9505C393.264 75.6285 392.627 75.1634 392.082 74.5552C391.545 73.938 391.123 73.1867 390.816 72.3012C390.508 71.4157 390.354 70.405 390.354 69.269Z" fill="#32353C"/>
<path d="M403.001 72.7573C403.001 72.2117 403.146 71.684 403.436 71.1742C403.735 70.6643 404.218 70.2127 404.886 69.8191C405.554 69.4255 406.42 69.1036 407.484 68.8531C408.557 68.5937 409.875 68.4461 411.44 68.4104V67.3236C411.44 66.2413 411.207 65.4274 410.741 64.8818C410.284 64.3272 409.616 64.05 408.737 64.05C408.139 64.05 407.638 64.126 407.234 64.278C406.838 64.4301 406.491 64.6 406.192 64.7879C405.902 64.9668 405.651 65.1322 405.44 65.2843C405.229 65.4363 405.023 65.5124 404.82 65.5124C404.662 65.5124 404.521 65.4721 404.398 65.3916C404.284 65.3022 404.187 65.1904 404.108 65.0562L403.673 64.278C404.429 63.5357 405.242 62.9811 406.113 62.6144C406.983 62.2477 407.95 62.0643 409.014 62.0643C409.779 62.0643 410.456 62.194 411.045 62.4534C411.642 62.7128 412.143 63.0706 412.548 63.5267C412.961 63.9829 413.269 64.5374 413.471 65.1904C413.682 65.8344 413.787 66.5455 413.787 67.3236V76.2322H412.719C412.482 76.2322 412.302 76.1965 412.179 76.1249C412.056 76.0444 411.954 75.8879 411.875 75.6553L411.612 74.3539C411.251 74.6849 410.895 74.98 410.543 75.2394C410.201 75.4988 409.84 75.7179 409.462 75.8968C409.093 76.0757 408.693 76.2099 408.262 76.2993C407.84 76.3977 407.365 76.4469 406.838 76.4469C406.31 76.4469 405.809 76.3754 405.335 76.2322C404.869 76.0802 404.464 75.8521 404.121 75.548C403.779 75.2439 403.506 74.8637 403.304 74.4076C403.102 73.9425 403.001 73.3924 403.001 72.7573ZM405.308 72.65C405.308 73.0167 405.365 73.3343 405.48 73.6026C405.594 73.862 405.752 74.0766 405.954 74.2466C406.157 74.4165 406.394 74.5417 406.667 74.6222C406.948 74.6938 407.247 74.7296 407.563 74.7296C407.985 74.7296 408.372 74.6893 408.724 74.6088C409.075 74.5194 409.405 74.3942 409.713 74.2332C410.02 74.0722 410.315 73.8754 410.596 73.6428C410.886 73.4103 411.168 73.1464 411.44 72.8513V69.9667C410.332 70.0025 409.387 70.0919 408.605 70.235C407.823 70.3781 407.185 70.566 406.693 70.7985C406.209 71.0221 405.858 71.2905 405.638 71.6035C405.418 71.9166 405.308 72.2654 405.308 72.65Z" fill="#32353C"/>
<path d="M417.44 80.9415V62.3192H418.891C419.234 62.3192 419.445 62.4892 419.524 62.8291L419.722 64.4659C420.311 63.7414 420.983 63.16 421.739 62.7217C422.495 62.2834 423.361 62.0643 424.337 62.0643C425.128 62.0643 425.84 62.2208 426.473 62.5339C427.115 62.838 427.66 63.2897 428.108 63.889C428.566 64.4882 428.913 65.2351 429.15 66.1295C429.396 67.015 429.52 68.0347 429.52 69.1885C429.52 70.2171 429.383 71.1742 429.111 72.0597C428.838 72.9362 428.447 73.6965 427.937 74.3405C427.436 74.9845 426.816 75.4943 426.078 75.87C425.348 76.2367 424.522 76.4201 423.599 76.4201C422.763 76.4201 422.047 76.2814 421.449 76.0042C420.851 75.7179 420.324 75.311 419.867 74.7832V80.9415H417.44ZM419.867 72.8781C420.297 73.4863 420.777 73.9156 421.304 74.1661C421.832 74.4076 422.416 74.5283 423.058 74.5283C424.333 74.5283 425.313 74.0677 425.999 73.1464C426.684 72.2162 427.027 70.8969 427.027 69.1885C427.027 68.2851 426.948 67.507 426.79 66.854C426.64 66.2011 426.416 65.6689 426.117 65.2575C425.818 64.8371 425.449 64.533 425.01 64.3451C424.579 64.1484 424.091 64.05 423.546 64.05C422.763 64.05 422.078 64.2333 421.489 64.6C420.9 64.9668 420.359 65.4811 419.867 66.143V72.8781Z" fill="#32353C"/>
<path d="M432.21 57.9454C432.21 57.7039 432.254 57.4758 432.342 57.2612C432.429 57.0465 432.548 56.8587 432.698 56.6977C432.856 56.5367 433.036 56.4114 433.238 56.322C433.44 56.2326 433.66 56.1878 433.898 56.1878C434.135 56.1878 434.355 56.2326 434.557 56.322C434.768 56.4114 434.953 56.5367 435.111 56.6977C435.269 56.8587 435.396 57.0465 435.493 57.2612C435.59 57.4758 435.638 57.7039 435.638 57.9454C435.638 58.1869 435.59 58.4105 435.493 58.6162C435.396 58.822 435.269 59.0053 435.111 59.1663C434.953 59.3273 434.768 59.4525 434.557 59.542C434.346 59.6314 434.126 59.6761 433.898 59.6761C433.66 59.6761 433.44 59.6314 433.238 59.542C433.036 59.4525 432.856 59.3273 432.698 59.1663C432.548 59.0053 432.429 58.822 432.342 58.6162C432.254 58.4105 432.21 58.1869 432.21 57.9454ZM432.724 76.2322V62.3192H435.124V76.2322H432.724Z" fill="#32353C"/>
<path d="M437.748 63.8219V62.8559L439.99 62.5607L440.544 58.2674C440.57 58.1332 440.632 58.0214 440.728 57.932C440.825 57.8425 440.948 57.7978 441.098 57.7978H442.311V62.5876H446.267V64.3585H442.311V72.7171C442.311 73.3074 442.452 73.7457 442.733 74.0319C443.014 74.3092 443.375 74.4478 443.814 74.4478C444.069 74.4478 444.284 74.4165 444.46 74.3539C444.645 74.2824 444.803 74.2063 444.935 74.1258C445.076 74.0364 445.194 73.9604 445.291 73.8978C445.388 73.8262 445.471 73.7904 445.542 73.7904C445.665 73.7904 445.775 73.8664 445.871 74.0185L446.583 75.1857C446.17 75.5793 445.669 75.8879 445.08 76.1115C444.5 76.3351 443.898 76.4469 443.273 76.4469C442.192 76.4469 441.361 76.1428 440.781 75.5346C440.201 74.9174 439.911 74.0319 439.911 72.8781V64.3585H438.262C438.122 64.3585 437.999 64.3183 437.893 64.2378C437.797 64.1484 437.748 64.0097 437.748 63.8219Z" fill="#32353C"/>
<path d="M447.731 72.7573C447.731 72.2117 447.876 71.684 448.166 71.1742C448.465 70.6643 448.948 70.2127 449.616 69.8191C450.285 69.4255 451.151 69.1036 452.214 68.8531C453.287 68.5937 454.605 68.4461 456.17 68.4104V67.3236C456.17 66.2413 455.937 65.4274 455.471 64.8818C455.014 64.3272 454.346 64.05 453.467 64.05C452.869 64.05 452.368 64.126 451.964 64.278C451.568 64.4301 451.221 64.6 450.922 64.7879C450.632 64.9668 450.381 65.1322 450.17 65.2843C449.959 65.4363 449.753 65.5124 449.55 65.5124C449.392 65.5124 449.252 65.4721 449.129 65.3916C449.014 65.3022 448.918 65.1904 448.838 65.0562L448.403 64.278C449.159 63.5357 449.972 62.9811 450.843 62.6144C451.713 62.2477 452.68 62.0643 453.744 62.0643C454.509 62.0643 455.186 62.194 455.775 62.4534C456.373 62.7128 456.874 63.0706 457.278 63.5267C457.691 63.9829 457.999 64.5374 458.201 65.1904C458.412 65.8344 458.518 66.5455 458.518 67.3236V76.2322H457.449C457.212 76.2322 457.032 76.1965 456.909 76.1249C456.786 76.0444 456.685 75.8879 456.606 75.6553L456.342 74.3539C455.981 74.6849 455.625 74.98 455.274 75.2394C454.931 75.4988 454.57 75.7179 454.192 75.8968C453.823 76.0757 453.423 76.2099 452.992 76.2993C452.57 76.3977 452.096 76.4469 451.568 76.4469C451.041 76.4469 450.54 76.3754 450.065 76.2322C449.599 76.0802 449.194 75.8521 448.852 75.548C448.509 75.2439 448.236 74.8637 448.034 74.4076C447.832 73.9425 447.731 73.3924 447.731 72.7573ZM450.038 72.65C450.038 73.0167 450.096 73.3343 450.21 73.6026C450.324 73.862 450.482 74.0766 450.685 74.2466C450.887 74.4165 451.124 74.5417 451.397 74.6222C451.678 74.6938 451.977 74.7296 452.293 74.7296C452.715 74.7296 453.102 74.6893 453.454 74.6088C453.805 74.5194 454.135 74.3942 454.443 74.2332C454.751 74.0722 455.045 73.8754 455.326 73.6428C455.616 73.4103 455.898 73.1464 456.17 72.8513V69.9667C455.063 70.0025 454.118 70.0919 453.335 70.235C452.553 70.3781 451.915 70.566 451.423 70.7985C450.94 71.0221 450.588 71.2905 450.368 71.6035C450.148 71.9166 450.038 72.2654 450.038 72.65Z" fill="#32353C"/>
<path d="M462.263 76.2322V56H464.663V76.2322H462.263Z" fill="#32353C"/>
<path d="M545.814 88.7619C545.375 88.4386 544.979 88.1485 544.584 87.8564C543.401 86.9808 542.221 86.1 541.031 85.2328C540.952 85.1826 540.888 85.1109 540.846 85.0256C540.804 84.9403 540.786 84.8447 540.793 84.7494C540.799 75.2852 540.799 65.821 540.795 56.3568C540.803 56.1099 540.783 55.8631 540.736 55.6208C540.589 54.9679 540.12 54.6911 539.486 54.8567C538.925 55.0236 538.418 55.3428 538.019 55.7807C537.357 56.4158 536.891 57.2363 536.677 58.1411C536.624 58.3817 536.597 58.6277 536.597 58.8744C536.593 66.4662 536.592 74.0579 536.594 81.6497V81.9409C536.528 81.9025 536.48 81.8805 536.439 81.8495C535.043 80.8039 533.646 79.7588 532.25 78.7143C532.177 78.6655 532.119 78.5973 532.081 78.5172C532.044 78.437 532.028 78.3478 532.035 78.259C532.04 72.5324 532.039 66.8059 532.032 61.0793C532.03 60.7168 531.977 60.3565 531.875 60.0094C531.621 59.1339 530.833 58.8549 530.061 59.1862C529.485 59.451 529.029 59.9329 528.788 60.5329C528.552 61.0484 528.432 61.6116 528.436 62.1812C528.439 66.6328 528.439 71.0844 528.439 75.536C528.439 75.6285 528.439 75.721 528.439 75.8464C528.38 75.8185 528.323 75.7872 528.268 75.7524C527.343 75.0673 526.421 74.3786 525.494 73.6974C525.441 73.6639 525.397 73.616 525.368 73.5588C525.34 73.5016 525.327 73.4374 525.331 73.3731C525.337 72.6154 525.331 71.8577 525.335 71.1C525.348 68.3397 525.382 65.5793 525.371 62.8192C525.342 61.7569 525.532 60.7005 525.927 59.7188C526.322 58.7372 526.914 57.8524 527.664 57.1223C528.442 56.3049 529.439 55.7445 530.528 55.5121C531.07 55.3963 531.63 55.4022 532.169 55.5295C532.709 55.6569 533.215 55.9026 533.654 56.2499C533.739 56.314 533.824 56.3781 533.925 56.4542C533.954 56.4127 533.979 56.3683 534 56.3217C534.67 54.2219 535.956 52.5813 537.614 51.227C538.771 50.246 540.125 49.5421 541.578 49.1662C542.332 48.9507 543.127 48.9447 543.883 49.1488C544.947 49.4721 545.51 50.2587 545.722 51.338C545.783 51.6588 545.812 51.9851 545.811 52.3121C545.815 64.3626 545.816 76.4132 545.814 88.4637V88.7619Z" fill="#32353C"/>
<path d="M550.441 53.2031C551.154 53.7583 551.819 54.2769 552.485 54.7929C553.254 55.3885 554.022 55.9852 554.797 56.5735C554.875 56.6253 554.939 56.6978 554.981 56.7834C555.023 56.869 555.042 56.9647 555.036 57.0605C555.03 64.5129 555.03 71.9653 555.038 79.4177C555.044 79.8007 554.954 80.1788 554.776 80.5157C554.599 80.8525 554.341 81.1369 554.027 81.3415C553.404 81.8079 552.659 82.068 551.889 82.0872C551.586 82.0836 551.287 82.0176 551.01 81.8931C550.605 81.7253 550.468 81.3465 550.441 80.9213C550.438 80.8633 550.441 80.8048 550.441 80.7465C550.441 71.6623 550.441 62.5781 550.441 53.4939L550.441 53.2031Z" fill="#32353C"/>
<path d="M558.602 60.0801C558.987 60.4003 559.337 60.6907 559.686 60.9826C560.483 61.6482 561.276 62.3176 562.077 62.9773C562.139 63.0234 562.188 63.0848 562.221 63.1559C562.253 63.227 562.268 63.3054 562.263 63.3838C562.258 66.6616 562.252 69.9395 562.265 73.2173C562.274 73.5528 562.211 73.8861 562.079 74.1932C561.948 74.5003 561.751 74.7734 561.505 74.9927C561.014 75.4882 560.354 75.7666 559.667 75.7684C559.525 75.7775 559.382 75.7554 559.249 75.7035C559.116 75.6516 558.995 75.571 558.894 75.4672C558.794 75.3635 558.715 75.2388 558.665 75.1015C558.615 74.9643 558.594 74.8176 558.603 74.6712C558.599 73.6223 558.602 72.5734 558.602 71.5244C558.602 67.8022 558.602 64.0801 558.602 60.3579V60.0801Z" fill="#32353C"/>
<path d="M588.541 74.8903H586.448V65.7797C586.413 65.8391 586.382 65.9009 586.355 65.9645C585.355 68.8437 584.357 71.7237 583.361 74.6046C583.341 74.7033 583.286 74.7906 583.206 74.8489C583.126 74.9073 583.027 74.9324 582.93 74.9192C581.858 74.9243 581.854 74.9347 581.493 73.8989C580.573 71.2549 579.656 68.6102 578.74 65.9646C578.714 65.9017 578.683 65.8407 578.649 65.782V74.8896H576.57V62.8724H579.568C580.561 65.7526 581.561 68.6548 582.57 71.579C582.723 71.08 582.864 70.5684 583.036 70.0682C583.835 67.7471 584.641 65.4284 585.454 63.1122C585.491 63.0073 585.616 62.8619 585.703 62.8603C586.642 62.8421 587.581 62.8489 588.541 62.8489L588.541 74.8903Z" fill="#32353C"/>
<path d="M604.357 67.8258H608.98V69.6577H604.359V73.0511H610.067V74.8863H602.212V62.8701H609.756V64.7071H604.357V67.8258Z" fill="#32353C"/>
<path d="M642.103 74.9121C643.668 70.8556 645.209 66.8619 646.758 62.8479C647.358 62.8479 647.95 62.8356 648.54 62.8597C648.603 62.8771 648.662 62.909 648.711 62.9531C648.761 62.9973 648.8 63.0524 648.826 63.1144C650.125 66.452 651.417 69.7922 652.704 73.1351C652.926 73.7096 653.144 74.2857 653.382 74.911C652.642 74.911 651.957 74.9246 651.275 74.8962C651.174 74.892 651.038 74.7065 650.99 74.5768C650.183 72.3924 649.388 70.2035 648.59 68.0157C648.326 67.2935 648.062 66.5717 647.764 65.7597C647.667 65.9987 647.599 66.1511 647.542 66.3079C646.541 69.0524 645.543 71.7981 644.549 74.545C644.527 74.6644 644.46 74.7702 644.364 74.8401C644.267 74.91 644.148 74.9384 644.032 74.9195C643.414 74.8954 642.795 74.9121 642.103 74.9121Z" fill="#32353C"/>
<path d="M628.004 74.8974H625.83V64.7115H622.072V62.8701H631.749V64.6941H628.004V74.8974Z" fill="#32353C"/>
<path d="M672.066 63.9931C671.993 64.3204 671.929 64.65 671.846 64.9747C671.025 68.1857 670.197 71.3947 669.386 74.6085C669.318 74.8803 669.19 74.9433 668.965 74.9101C668.73 74.8754 668.441 75.0507 668.321 74.6295C667.23 70.7927 666.13 66.9588 665.021 63.1276C665.001 63.041 664.986 62.9534 664.976 62.8651H665.789C666.787 66.5688 667.786 70.2792 668.788 73.9961L668.916 74.0087C669.842 70.2955 670.77 66.5796 671.698 62.8613H672.552C673.476 66.5849 674.399 70.3058 675.322 74.0239L675.414 74.0264C675.633 73.2797 675.863 72.5364 676.067 71.7854C676.812 69.0406 677.552 66.2944 678.287 63.5468C678.487 62.8032 678.489 62.8037 679.301 62.874C679.191 63.2602 679.084 63.639 678.975 64.0168C677.958 67.5155 676.928 71.0103 675.938 74.517C675.808 74.9781 675.544 74.8791 675.252 74.9194C674.91 74.9666 674.855 74.7524 674.791 74.4977C673.943 71.1508 673.094 67.8044 672.242 64.4585C672.203 64.3053 672.174 64.1494 672.141 63.9947L672.066 63.9931Z" fill="#32353C"/>
<path d="M716.326 68.6297C716.961 68.769 717.562 68.9325 718.045 69.4008C719.172 70.4954 719.083 72.6445 717.864 73.85C717.344 74.361 716.68 74.6889 715.968 74.7862C715.61 74.8478 715.248 74.8839 714.885 74.8944C713.757 74.9082 712.628 74.8995 711.469 74.8995V62.8445C713.059 62.8984 714.653 62.672 716.206 63.1313C717.882 63.627 718.629 64.9648 718.244 66.7136C718.156 67.122 717.968 67.5004 717.698 67.8123C717.427 68.1242 717.083 68.3592 716.699 68.4945C716.637 68.5202 716.573 68.5441 716.51 68.567C716.449 68.5891 716.387 68.6089 716.326 68.6297ZM712.227 74.1735C713.581 74.1355 714.914 74.3116 716.223 73.956C717.122 73.7116 717.717 73.1198 717.88 72.1716C718.231 70.1193 717.298 69.3159 715.748 69.1646C715.56 69.1463 715.372 69.1311 715.184 69.1305C714.206 69.1271 713.227 69.1289 712.227 69.1289V74.1735ZM712.229 63.5854V68.3524C713.095 68.3524 713.94 68.358 714.784 68.349C715.039 68.342 715.293 68.3171 715.545 68.2742C715.718 68.2471 715.888 68.2021 716.052 68.1397C717.015 67.7749 717.484 66.9947 717.454 65.8205C717.43 64.8192 716.936 64.1459 715.973 63.8357C714.752 63.4423 713.496 63.6317 712.229 63.5853V63.5854Z" fill="#32353C"/>
<path d="M691.613 74.8794V62.8691H698.257V63.5709H692.413V68.3348H697.73V69.0845H692.403V74.1565H698.587V74.8794H691.613Z" fill="#32353C"/>
<g clip-path="url(#clip1_312_66854)">
<path d="M778.77 66.0248C779.22 64.637 780.201 64.0914 781.588 64.1573C782.171 64.185 782.757 64.1619 783.483 64.1619C783.483 63.8312 783.483 63.5349 783.483 63.2387C783.484 60.767 783.474 58.2953 783.488 55.8237C783.494 54.6508 784.024 53.816 784.972 53.4883C785.978 53.1406 786.898 53.3031 787.669 54.0907C788.181 54.6133 788.282 55.2767 788.281 55.9754C788.28 58.3619 788.279 60.7483 788.281 63.1348C788.281 63.4417 788.281 63.7487 788.281 64.1085H797.709C797.709 63.8031 797.709 63.5031 797.709 63.2031C797.709 60.7314 797.709 58.2597 797.709 55.7881C797.709 54.753 798.122 53.96 799.071 53.5459C800.02 53.1323 800.933 53.2493 801.731 53.9406C802.327 54.4566 802.509 55.1563 802.508 55.9285C802.503 58.3149 802.502 60.7014 802.506 63.0878C802.506 63.3994 802.506 63.7111 802.506 64.0923H804.294C805.037 63.2393 805.678 62.3782 806.444 61.653C807.554 60.5877 809.026 60.0013 810.552 60.0164C815.489 60.0029 820.425 60.0018 825.362 60.0131C826.608 60.0159 827.53 60.944 827.526 62.1201C827.523 63.2961 826.617 64.2139 825.347 64.2251C822.419 64.2508 819.49 64.2346 816.561 64.2351C814.748 64.2355 812.934 64.1954 811.123 64.2578C810.489 64.2706 809.868 64.4379 809.311 64.7457C808.796 65.0447 808.395 65.5112 808.172 66.0704C807.949 66.6296 807.917 67.2488 808.081 67.8287C808.261 68.4309 808.624 68.9596 809.117 69.3389C809.611 69.7181 810.209 69.9284 810.827 69.9396C814.09 69.9561 817.354 69.9248 820.617 69.952C823.801 69.9785 826.788 72.5396 827.408 75.7206C828.211 79.8344 825.022 84.0316 820.912 84.0983C815.92 84.1793 810.927 84.1282 805.934 84.1158C804.75 84.1129 803.89 83.2574 803.847 82.1266C803.802 80.9365 804.604 80.0172 805.821 79.9383C806.599 79.8879 807.382 79.9171 808.163 79.9169C812.179 79.9155 816.195 79.9167 820.212 79.9203C821.056 79.9223 821.808 79.7192 822.43 79.1132C823.301 78.2658 823.583 77.1471 823.186 76.088C822.976 75.5439 822.614 75.0747 822.145 74.7389C821.675 74.403 821.119 74.2154 820.546 74.1994C817.422 74.1884 814.298 74.1661 811.174 74.2033C808.113 74.2397 806.012 72.7152 804.532 70.1204C804.353 69.8074 804.232 69.4603 804.075 69.1075H802.506C802.506 69.4531 802.506 69.7572 802.506 70.0614C802.506 72.5046 802.524 74.9481 802.5 77.3911C802.481 79.3729 800.62 80.5146 798.917 79.6144C798.022 79.1408 797.703 78.3447 797.706 77.3589C797.714 74.9441 797.709 72.5292 797.709 70.1144C797.709 69.8055 797.709 69.4967 797.709 69.127H788.281C788.281 69.4124 788.281 69.7111 788.281 70.0098C788.281 72.4815 788.28 74.9532 788.279 77.4248C788.277 78.3744 787.937 79.1504 787.078 79.6029C786.673 79.8335 786.212 79.9427 785.749 79.9181C785.286 79.8935 784.839 79.7361 784.459 79.4639C783.699 78.962 783.484 78.1924 783.484 77.327C783.483 74.9121 783.483 72.4973 783.483 70.0824C783.483 69.7761 783.483 69.4697 783.483 69.0647C782.802 69.0647 782.196 69.0341 781.593 69.0708C780.197 69.1558 779.229 68.5971 778.77 67.2181V66.0248Z" fill="#32353C"/>
<path d="M859.274 72.0943C860.688 73.6034 861.357 75.3786 861.263 77.4472C861.102 80.973 858.187 84.0206 854.729 84.0712C849.71 84.1447 844.69 84.1034 839.671 84.0895C839.405 84.0968 839.14 84.0495 838.893 83.9503C838.645 83.8512 838.419 83.7022 838.229 83.5123C838.039 83.3224 837.889 83.0955 837.787 82.8451C837.685 82.5947 837.634 82.3259 837.636 82.0548C837.624 81.784 837.667 81.5136 837.762 81.2602C837.856 81.0069 838.001 80.7758 838.186 80.5811C838.371 80.3865 838.593 80.2324 838.839 80.1282C839.085 80.0241 839.349 79.972 839.615 79.9753C841.538 79.9353 843.463 79.9586 845.387 79.9576C848.287 79.9561 851.187 79.968 854.087 79.9517C855.64 79.943 856.893 78.9292 857.123 77.5507C857.409 75.8434 856.05 74.1928 854.305 74.1801C851.545 74.16 848.784 74.1761 846.024 74.1711C845.718 74.186 845.412 74.1632 845.111 74.1031C844.648 73.9818 844.24 73.702 843.955 73.3106C843.67 72.9193 843.526 72.44 843.546 71.9532C843.586 71.4544 843.795 70.9851 844.137 70.6255C844.479 70.2658 844.933 70.038 845.421 69.9809C845.671 69.9604 845.922 69.9552 846.173 69.9654C848.822 69.9645 851.473 69.9099 854.12 69.9844C855.843 70.0329 857.15 68.4269 857.165 67.2028C857.183 65.6252 855.933 64.3012 854.252 64.2035C853.835 64.1792 853.416 64.1962 852.998 64.1961C848.675 64.1958 844.353 64.1972 840.031 64.2004C839.335 64.2019 838.701 64.0858 838.2 63.5449C837.917 63.2643 837.725 62.902 837.65 62.5067C837.575 62.1115 837.621 61.7024 837.782 61.3346C837.913 60.9709 838.147 60.6547 838.454 60.4256C838.761 60.1965 839.127 60.0647 839.508 60.0468C839.646 60.0355 839.786 60.0388 839.926 60.0388C844.722 60.0385 849.518 60.0238 854.314 60.0432C855.264 60.0465 856.203 60.2472 857.074 60.633C857.945 61.0189 858.729 61.5818 859.379 62.2872C860.029 62.9926 860.53 63.8257 860.853 64.7355C861.175 65.6452 861.312 66.6125 861.255 67.5781C861.189 68.9492 860.702 70.2645 859.863 71.3389C859.675 71.582 859.485 71.8233 859.274 72.0943Z" fill="#32353C"/>
<path d="M830.507 72.2958C830.514 70.9361 831.492 69.9327 832.615 69.9697C833.74 70.0068 834.719 71.0717 834.626 72.2333C834.558 73.2549 834.197 74.2337 833.587 75.0479C832.96 75.8743 832.22 75.8938 831.585 75.0984C830.965 74.2915 830.59 73.3172 830.507 72.2958V72.2958Z" fill="#32353C"/>
</g>
<path d="M988.318 68.6799L981.4 61.5818L978.839 64.2072L985.758 71.3066L988.318 68.6799ZM963.002 61.5266C959.797 61.5266 956.725 62.8321 954.459 65.156C952.193 67.4799 950.92 70.6317 950.92 73.9182C950.92 77.2047 952.193 80.3565 954.459 82.6804C956.725 85.0043 959.797 86.3098 963.002 86.3098C967.733 86.3098 971.8 83.4861 973.781 79.415H969.534C968.322 80.9289 966.645 81.9769 964.777 82.3882C962.909 82.7994 960.961 82.5496 959.249 81.6794C957.538 80.8093 956.164 79.3701 955.352 77.5966C954.54 75.8231 954.338 73.8198 954.779 71.9132C955.219 70.0067 956.276 68.3094 957.777 67.098C959.279 65.8867 961.136 65.2327 963.046 65.2427C964.956 65.2526 966.807 65.926 968.296 67.153C969.785 68.38 970.826 70.0883 971.247 71.9993H962.725V75.7015H974.945C975.033 75.1112 975.08 74.5153 975.086 73.9182C975.085 70.6319 973.811 67.4807 971.546 65.1564C969.281 62.8322 966.209 61.5249 963.005 61.5216L963.002 61.5266ZM946.625 51.0488H943.005V73.932C943.002 75.6474 942.502 77.3233 941.571 78.7477C940.639 80.1722 939.316 81.2814 937.77 81.9352C936.224 82.589 934.523 82.758 932.883 82.4208C931.243 82.0837 929.738 81.2556 928.557 80.0411C927.376 78.8266 926.572 77.2803 926.247 75.5975C925.923 73.9147 926.091 72.171 926.733 70.5866C927.374 69.0023 928.459 67.6484 929.85 66.6961C931.241 65.7438 932.876 65.2358 934.548 65.2363H939.376V61.5178H934.546C932.156 61.5181 929.821 62.245 927.834 63.6068C925.848 64.9685 924.299 66.9039 923.385 69.1682C922.471 71.4325 922.232 73.924 922.698 76.3277C923.164 78.7313 924.315 80.9392 926.005 82.672C927.694 84.4049 929.847 85.585 932.191 86.063C934.534 86.541 936.963 86.2956 939.171 85.3576C941.378 84.4197 943.265 82.8314 944.592 80.7937C945.92 78.7559 946.628 76.3602 946.628 73.9094L946.625 51.0488ZM993.448 79.1966L1000.38 86.3048L1002.94 83.6693L996.005 76.5662L993.448 79.1966ZM1000.38 61.5818L978.837 83.6693L981.4 86.3048L1002.93 64.2085L1000.38 61.5818Z" fill="#32353C"/>
<path d="M1168.63 65.1397C1168.63 69.0536 1168.63 72.9674 1168.63 76.8813C1168.63 78.5134 1168.64 80.1457 1168.62 81.7776C1168.6 82.9716 1168.35 83.2329 1167.23 83.2594C1166.28 83.2818 1165.33 83.2877 1164.38 83.2528C1163.52 83.2213 1163.17 82.8701 1163.05 82.0051C1163.02 81.6803 1163.01 81.3537 1163.02 81.0275C1163.02 72.9077 1163.02 64.7878 1163.02 56.668C1163.01 56.3013 1163.02 55.934 1163.07 55.5704C1163.18 54.9633 1163.5 54.4522 1164.14 54.4356C1165.48 54.401 1166.83 54.3319 1168.15 54.5233C1168.64 54.5951 1169.15 55.2833 1169.47 55.8058C1171.47 59.0403 1173.42 62.308 1175.38 65.5638C1176.64 67.642 1177.89 69.7186 1179.15 71.7939C1179.29 72.027 1179.48 72.2349 1179.79 72.665C1179.83 72.0504 1179.87 71.6669 1179.87 71.2835C1179.87 66.428 1179.87 61.5724 1179.87 56.7169C1179.86 56.3499 1179.87 55.9826 1179.9 55.6168C1179.98 54.9235 1180.37 54.4697 1181.05 54.4429C1182.12 54.4011 1183.19 54.417 1184.26 54.435C1184.91 54.4459 1185.29 54.8545 1185.4 55.4759C1185.47 55.8786 1185.49 56.2863 1185.47 56.6935C1185.48 64.8541 1185.48 73.0148 1185.47 81.1754C1185.49 81.5016 1185.48 81.8282 1185.45 82.1534C1185.38 82.7993 1185.03 83.2275 1184.38 83.2404C1183.11 83.2654 1181.84 83.2588 1180.57 83.244C1179.89 83.236 1179.54 82.7262 1179.22 82.1939C1177.15 78.7659 1175.07 75.3385 1173 71.9119C1171.62 69.6321 1170.23 67.3548 1168.84 65.0799L1168.63 65.1397Z" fill="#32353C"/>
<path d="M1195.5 78.2177C1197.43 78.2177 1199.13 78.2175 1200.83 78.2177C1202.26 78.2179 1203.69 78.2037 1205.11 78.2229C1206.5 78.2415 1206.84 78.6166 1206.87 80.0646C1206.88 80.5948 1206.89 81.1258 1206.87 81.6558C1206.83 82.9256 1206.53 83.2557 1205.31 83.2607C1201.86 83.2749 1198.41 83.2664 1194.97 83.2667C1193.86 83.2668 1192.75 83.2749 1191.64 83.264C1190.18 83.2497 1189.89 82.9609 1189.89 81.4679C1189.88 76.9796 1189.88 72.4913 1189.89 68.003C1189.89 64.1676 1189.89 60.3321 1189.89 56.4967C1189.89 54.7576 1190.16 54.4242 1191.85 54.3027C1192.8 54.2344 1193.75 54.2723 1194.7 54.2715C1197.83 54.269 1200.96 54.269 1204.09 54.2715C1204.45 54.2717 1204.81 54.26 1205.16 54.2939C1206.45 54.4172 1206.82 54.8198 1206.87 56.1451C1206.9 56.7974 1206.89 57.4508 1206.85 58.1023C1206.77 59.0658 1206.46 59.4458 1205.54 59.4982C1203.8 59.5964 1202.06 59.6255 1200.31 59.6388C1199.01 59.6488 1197.7 59.618 1196.4 59.5464C1195.8 59.5122 1195.49 59.6729 1195.5 60.3272C1195.51 62.0408 1195.51 63.7546 1195.49 65.4681C1195.49 66.1576 1195.88 66.2688 1196.41 66.2672C1198.4 66.2613 1200.38 66.2615 1202.36 66.268C1204.57 66.2738 1204.78 66.4955 1204.78 68.7966C1204.78 71.4554 1204.77 71.4728 1202.2 71.473C1200.38 71.4732 1198.56 71.4659 1196.73 71.4761C1195.55 71.4827 1195.51 71.5255 1195.5 72.6939C1195.49 74.4779 1195.5 76.262 1195.5 78.2177Z" fill="#32353C"/>
<path d="M1159.07 68.8948C1159.07 71.0148 1159.09 73.1351 1159.06 75.2548C1159.02 78.9239 1157.16 81.661 1153.76 82.8381C1152.41 83.265 1151.01 83.559 1149.6 83.7162C1148.67 83.8465 1148.4 83.5328 1148.35 82.5522C1148.3 81.6564 1148.3 80.7587 1148.35 79.8629C1148.4 78.9024 1148.61 78.7077 1149.56 78.5092C1150.06 78.4293 1150.56 78.3074 1151.05 78.1447C1152.58 77.5442 1153.42 76.3406 1153.44 74.6853C1153.49 70.8536 1153.49 67.0212 1153.44 63.1883C1153.42 61.0594 1151.97 59.5808 1149.78 59.251C1148.53 59.0634 1148.48 59.0189 1148.47 57.7311C1148.46 56.8342 1148.45 55.9362 1148.48 55.0405C1148.51 54.2353 1148.75 53.9416 1149.48 54.0094C1152.11 54.2535 1154.66 54.7707 1156.68 56.7505C1157.44 57.4702 1158.05 58.3455 1158.46 59.3204C1158.88 60.2954 1159.09 61.3485 1159.08 62.4123C1159.1 64.573 1159.09 66.734 1159.09 68.8948L1159.07 68.8948Z" fill="#32353C"/>
<path d="M1116.27 75.7393C1116.27 76.6765 1116.29 77.6147 1116.26 78.5506C1116.26 79.1681 1116.08 79.7721 1115.75 80.2871C1115.42 80.802 1114.95 81.2052 1114.4 81.446C1113.56 81.8651 1112.63 82.0783 1111.7 82.0691C1110.76 82.0599 1109.84 81.8284 1109.01 81.3928C1108.12 80.9598 1107.4 80.1968 1107.35 79.1549C1107.2 76.9663 1107.17 74.7706 1107.27 72.5789C1107.36 71.0272 1108.41 70.0423 1109.88 69.5931C1111.33 69.1338 1112.89 69.2371 1114.27 69.8835C1115.57 70.4653 1116.24 71.476 1116.27 72.9277C1116.28 73.8646 1116.27 74.802 1116.27 75.7393L1116.27 75.7393ZM1113.74 73.9932L1113.62 73.991C1113.64 73.8705 1113.67 73.7506 1113.68 73.6294C1113.75 72.492 1113.16 71.8117 1112.02 71.7155C1110.74 71.6075 1109.87 72.2139 1109.84 73.3441C1109.79 74.8887 1109.83 76.4357 1109.83 77.9817C1109.81 78.2691 1109.88 78.5548 1110.03 78.7998C1110.17 79.0449 1110.39 79.2374 1110.65 79.3512C1112.3 80.1453 1113.71 79.2564 1113.73 77.4011C1113.75 76.2654 1113.74 75.1292 1113.74 73.9932V73.9932Z" fill="#32353C"/>
<path d="M1085.42 75.7187C1085.42 74.986 1085.45 74.251 1085.41 73.5211C1085.26 71.0568 1086.76 69.7563 1088.92 69.4275C1089.63 69.3309 1090.34 69.3302 1091.05 69.4252C1093.14 69.6808 1094.44 71.0308 1094.51 73.2182C1094.58 75.0825 1094.45 76.9548 1094.38 78.8225C1094.34 80.0459 1093.67 80.8739 1092.64 81.3914C1091.81 81.8307 1090.9 82.0632 1089.96 82.0703C1089.03 82.0773 1088.11 81.8586 1087.27 81.4318C1086.09 80.8647 1085.48 79.862 1085.43 78.527C1085.4 77.592 1085.43 76.6549 1085.43 75.7187L1085.42 75.7187ZM1091.89 75.787H1091.88C1091.88 74.974 1091.92 74.1583 1091.87 73.3486C1091.81 72.3417 1091.1 71.7502 1090.01 71.7195C1088.91 71.6884 1088.05 72.2206 1088 73.1695C1087.91 74.831 1087.93 76.5023 1087.99 78.1661C1088.02 78.9786 1088.51 79.3729 1089.31 79.4548C1089.7 79.4963 1090.1 79.499 1090.49 79.4629C1091.42 79.3734 1091.83 78.9391 1091.88 77.982C1091.92 77.2522 1091.89 76.5188 1091.89 75.787Z" fill="#32353C"/>
<path d="M1064.26 75.6189C1064.26 74.0688 1064.25 72.5186 1064.27 70.9688C1064.28 69.8007 1064.52 69.4917 1065.66 69.4866C1067.13 69.4706 1068.59 69.5403 1070.05 69.6954C1070.67 69.7549 1071.25 70.032 1071.7 70.4805C1072.14 70.929 1072.42 71.5216 1072.5 72.1591C1072.65 73.0796 1072.67 74.0182 1072.56 74.9453C1072.32 76.7306 1071.27 77.6513 1069.52 77.8217C1069.01 77.8714 1068.49 77.8575 1067.97 77.8733C1066.85 77.9077 1066.81 77.9426 1066.8 79.1643C1066.79 79.6945 1066.81 80.2262 1066.78 80.7548C1066.74 81.6182 1066.55 81.7746 1065.67 81.8008C1064.64 81.8314 1064.32 81.6267 1064.28 80.7578C1064.23 79.7812 1064.26 78.8005 1064.26 77.8215C1064.26 77.0873 1064.26 76.3531 1064.26 75.6189ZM1066.8 73.7214C1066.8 75.6093 1067.07 75.8198 1068.88 75.368C1069.86 75.1234 1070.1 74.7236 1070.02 73.456C1069.95 72.3986 1069.66 72.0772 1068.68 71.9747C1066.89 71.789 1066.8 71.8775 1066.8 73.7214V73.7214Z" fill="#32353C"/>
<path d="M1089.78 59.9629C1089.26 61.9197 1088.73 63.8764 1088.2 65.833C1088.1 66.2255 1088.01 66.6265 1087.87 67.0061C1087.8 67.2168 1087.68 67.409 1087.53 67.5698C1087.38 67.7306 1087.2 67.8562 1086.99 67.9383C1086.79 68.0204 1086.58 68.0571 1086.36 68.0459C1086.14 68.0347 1085.93 67.9758 1085.74 67.8732C1085.13 67.5922 1085.24 67.1343 1085.39 66.6384C1085.97 64.691 1086.54 62.7408 1087.12 60.7924C1087.46 59.6234 1087.8 58.4497 1088.17 57.2894C1088.51 56.2129 1088.65 56.1424 1089.82 56.1388C1091.15 56.1346 1091.39 56.2471 1091.71 57.3214C1092.63 60.3971 1093.52 63.4841 1094.42 66.5657C1094.57 67.0889 1094.75 67.6122 1094.09 67.9224C1093.45 68.2261 1092.51 67.976 1092.2 67.3796C1092.05 67.0468 1091.94 66.6993 1091.86 66.3425C1091.3 64.347 1090.74 62.3494 1090.18 60.354C1090.13 60.2084 1090.07 60.0667 1090 59.9301L1089.78 59.9629Z" fill="#32353C"/>
<path d="M1114.09 63.8845C1114.73 64.8897 1115.32 65.7576 1115.86 66.6552C1116.41 67.5616 1116.16 67.9743 1115.1 68.0272C1114.36 68.0643 1113.79 67.8135 1113.4 67.1436C1112.97 66.407 1112.52 65.6895 1112.12 64.9385C1112 64.6576 1111.79 64.4252 1111.53 64.277C1111.27 64.1288 1110.96 64.0729 1110.67 64.1178C1110.23 64.1515 1109.8 64.1509 1109.36 64.1161C1108.53 64.0609 1108.29 63.7937 1108.27 62.9988C1108.26 62.1606 1108.54 61.8493 1109.42 61.8191C1110.33 61.7878 1111.25 61.828 1112.16 61.7922C1113.27 61.7484 1113.56 61.4284 1113.58 60.2994C1113.61 58.9813 1113.3 58.5587 1112.19 58.5049C1111.28 58.461 1110.37 58.5104 1109.45 58.4821C1108.53 58.4534 1108.28 58.1887 1108.27 57.3414C1108.27 56.4886 1108.53 56.1893 1109.42 56.1683C1110.49 56.1171 1111.56 56.1282 1112.63 56.2015C1115.52 56.4726 1116.21 57.8777 1116.17 60.6477C1116.15 62.0577 1115.45 63.1239 1114.09 63.8845Z" fill="#32353C"/>
<path d="M1072.24 62.1444C1072.24 62.8791 1072.25 63.614 1072.24 64.3483C1072.19 66.3638 1071 67.7866 1069.07 67.956C1067.8 68.0422 1066.53 68.0571 1065.26 68.0004C1064.54 67.982 1064.3 67.6548 1064.3 66.8999C1064.29 66.1488 1064.53 65.8042 1065.23 65.7582C1066.1 65.7015 1066.98 65.7447 1067.85 65.7267C1069.26 65.6974 1069.73 65.2514 1069.76 63.8428C1069.79 62.6192 1069.79 61.3938 1069.76 60.1699C1069.74 59.0001 1069.32 58.549 1068.18 58.496C1067.27 58.4536 1066.36 58.5027 1065.45 58.4739C1064.56 58.4457 1064.29 58.1509 1064.3 57.3029C1064.31 56.4605 1064.57 56.1768 1065.47 56.1559C1066.54 56.1313 1067.62 56.1057 1068.68 56.1727C1070.93 56.3138 1072.21 57.739 1072.24 60.0629C1072.25 60.7566 1072.24 61.4506 1072.24 62.1444Z" fill="#32353C"/>
<path d="M1131.6 75.6623C1131.6 74.07 1131.59 72.4775 1131.61 70.8856C1131.62 69.8257 1132 69.4671 1132.97 69.4768C1133.79 69.4849 1134.11 69.7839 1134.12 70.6602C1134.14 72.5788 1134.13 74.4979 1134.13 76.4167C1134.13 77.1516 1134.14 77.8866 1134.13 78.6213C1134.13 79.1842 1134.38 79.4413 1134.93 79.4382C1135.8 79.4333 1136.67 79.4195 1137.54 79.4535C1138.39 79.4867 1138.77 79.8581 1138.8 80.5969C1138.82 81.3901 1138.42 81.8862 1137.56 81.9124C1135.98 81.9603 1134.39 81.9645 1132.8 81.9008C1131.9 81.8646 1131.64 81.5192 1131.62 80.5614C1131.6 78.9288 1131.62 77.2954 1131.62 75.6623H1131.6Z" fill="#32353C"/>
<path d="M1138.33 67.5384C1136.61 68.2926 1136.13 68.1651 1135.24 66.8356C1134.45 65.6649 1133.7 64.4648 1132.88 63.3174C1132.27 62.4675 1132.3 61.7124 1132.89 60.8697C1133.77 59.617 1134.61 58.334 1135.43 57.037C1135.9 56.2875 1136.55 56.0682 1137.36 56.144C1138.27 56.2296 1138.51 56.6319 1138 57.4073C1137.23 58.5867 1136.39 59.7204 1135.57 60.8728C1135.46 61.0412 1135.34 61.2035 1135.21 61.359C1134.76 61.878 1134.84 62.3492 1135.24 62.8784C1136.06 63.9727 1136.86 65.0912 1137.63 66.2205C1137.89 66.6453 1138.12 67.0854 1138.33 67.5384V67.5384Z" fill="#32353C"/>
<path d="M1282.03 74.8223H1285.11V58.3485H1280.85L1276.14 70.245L1271.32 58.3485H1267.2V74.8223H1270.19V63.3673L1274.81 74.8223H1277.41L1282.03 63.2744V74.8223Z" fill="#32353C"/>
<path d="M1287.01 71.7088C1287.01 72.1503 1287.1 72.5917 1287.29 72.9867C1287.44 73.405 1287.69 73.7767 1288.03 74.102C1288.37 74.4041 1288.78 74.6597 1289.26 74.8688C1289.73 75.0547 1290.25 75.1476 1290.84 75.1476C1291.68 75.1476 1292.36 74.985 1292.9 74.6364C1293.42 74.2879 1293.83 73.8929 1294.12 73.4514C1294.12 73.6605 1294.15 73.9161 1294.17 74.195C1294.19 74.4505 1294.21 74.6597 1294.24 74.8223H1297C1296.98 74.6132 1296.93 74.3576 1296.91 74.0091C1296.88 73.6605 1296.86 73.312 1296.86 73.01V67.387C1296.86 66.8062 1296.77 66.2717 1296.61 65.7373C1296.43 65.2029 1296.16 64.7615 1295.78 64.3665C1295.39 63.9715 1294.87 63.6462 1294.26 63.4138C1293.65 63.1582 1292.9 63.042 1292.02 63.042C1291.27 63.042 1290.59 63.1582 1290.03 63.3906C1289.46 63.5997 1288.96 63.9017 1288.58 64.2503C1288.19 64.5988 1287.87 65.017 1287.65 65.4585C1287.42 65.9 1287.29 66.3647 1287.24 66.8062L1289.91 67.387C1289.96 66.8991 1290.16 66.4576 1290.52 66.0859C1290.86 65.7141 1291.38 65.5282 1292.04 65.5282C1292.67 65.5282 1293.15 65.6676 1293.47 65.9697C1293.76 66.2717 1293.92 66.6203 1293.92 67.0153C1293.92 67.2244 1293.85 67.387 1293.74 67.5264C1293.62 67.6891 1293.4 67.782 1293.08 67.8285L1290.34 68.2467C1289.87 68.3164 1289.44 68.4559 1289.05 68.6185C1288.64 68.7811 1288.28 69.0135 1287.99 69.3156C1287.69 69.6176 1287.44 69.9429 1287.29 70.3379C1287.1 70.7329 1287.01 71.1976 1287.01 71.7088ZM1291.47 72.8473C1291 72.8473 1290.64 72.7079 1290.39 72.4291C1290.14 72.1735 1290.03 71.8714 1290.03 71.5229C1290.03 71.0814 1290.16 70.7329 1290.43 70.5006C1290.68 70.2914 1291.02 70.152 1291.41 70.0823L1293.92 69.6873V70.1985C1293.92 70.7097 1293.85 71.1279 1293.72 71.4532C1293.58 71.8017 1293.4 72.0573 1293.17 72.2664C1292.95 72.4756 1292.7 72.6382 1292.4 72.7079C1292.11 72.8008 1291.79 72.8473 1291.47 72.8473Z" fill="#32353C"/>
<path d="M1301.23 74.7061L1298.52 75.4497C1298.58 75.9841 1298.77 76.5185 1299.06 77.0297C1299.35 77.5176 1299.72 77.9591 1300.19 78.3541C1300.67 78.7258 1301.21 79.0279 1301.84 79.2602C1302.46 79.4694 1303.16 79.5855 1303.93 79.5855C1304.97 79.5855 1305.85 79.4229 1306.6 79.0976C1307.35 78.7491 1307.93 78.3076 1308.41 77.7732C1308.89 77.2155 1309.22 76.5882 1309.45 75.8679C1309.65 75.1476 1309.77 74.3808 1309.77 73.5908V63.3906H1306.87V64.7382C1306.67 64.3432 1306.33 63.9947 1305.81 63.6694C1305.29 63.3441 1304.58 63.1815 1303.7 63.1815C1302.93 63.1815 1302.23 63.3209 1301.6 63.6229C1300.96 63.925 1300.42 64.32 1299.97 64.8312C1299.51 65.3423 1299.15 65.9232 1298.9 66.597C1298.65 67.2709 1298.52 67.9912 1298.52 68.7579C1298.52 69.5711 1298.65 70.2914 1298.92 70.9653C1299.17 71.6391 1299.54 72.2432 1300.01 72.7311C1300.46 73.2191 1301.01 73.6141 1301.64 73.8929C1302.27 74.1717 1302.95 74.3111 1303.7 74.3111C1304.52 74.3111 1305.17 74.1485 1305.69 73.8464C1306.21 73.5444 1306.58 73.2191 1306.8 72.8473V73.6838C1306.8 74.7991 1306.55 75.6123 1306.03 76.1235C1305.51 76.6114 1304.79 76.867 1303.84 76.867C1303.11 76.867 1302.52 76.6579 1302.07 76.2629C1301.62 75.8679 1301.35 75.3335 1301.23 74.7061ZM1304.22 71.6623C1303.43 71.6623 1302.8 71.4067 1302.3 70.8956C1301.8 70.3611 1301.55 69.6641 1301.55 68.7579C1301.55 68.3164 1301.62 67.9214 1301.75 67.5729C1301.89 67.2244 1302.07 66.9223 1302.32 66.6667C1302.57 66.4112 1302.84 66.202 1303.18 66.0859C1303.5 65.9464 1303.84 65.8767 1304.22 65.8767C1304.95 65.8767 1305.56 66.1323 1306.08 66.6667C1306.6 67.1779 1306.85 67.875 1306.85 68.7579C1306.85 69.6409 1306.6 70.3379 1306.12 70.8723C1305.63 71.4067 1304.99 71.6623 1304.22 71.6623Z" fill="#32353C"/>
<path d="M1319.49 67.8053H1314.51C1314.53 67.5497 1314.6 67.2709 1314.72 67.0153C1314.83 66.7597 1314.99 66.5041 1315.19 66.295C1315.39 66.0859 1315.67 65.9 1315.96 65.7606C1316.25 65.6212 1316.62 65.5515 1317 65.5515C1317.43 65.5515 1317.79 65.6212 1318.09 65.7606C1318.41 65.8767 1318.65 66.0626 1318.86 66.2717C1319.06 66.4809 1319.22 66.7132 1319.31 66.992C1319.42 67.2476 1319.47 67.5264 1319.49 67.8053ZM1322.3 71.5461L1319.79 70.7794C1319.6 71.2906 1319.31 71.7088 1318.9 72.0341C1318.52 72.3594 1317.95 72.522 1317.25 72.522C1316.87 72.522 1316.53 72.4523 1316.19 72.3361C1315.85 72.1967 1315.55 72.0108 1315.3 71.7785C1315.05 71.5461 1314.85 71.2673 1314.69 70.9653C1314.53 70.64 1314.47 70.2914 1314.44 69.9197H1322.41C1322.41 69.8964 1322.41 69.7803 1322.43 69.5944C1322.46 69.3853 1322.46 69.1761 1322.46 68.967C1322.46 67.1314 1321.98 65.6676 1321.01 64.622C1320.04 63.5765 1318.7 63.042 1316.96 63.042C1316.25 63.042 1315.55 63.1815 1314.9 63.4835C1314.24 63.7623 1313.65 64.1573 1313.13 64.6917C1312.63 65.2029 1312.22 65.8303 1311.93 66.5738C1311.64 67.3173 1311.48 68.1538 1311.48 69.06C1311.48 70.0126 1311.64 70.8723 1311.95 71.6391C1312.25 72.4058 1312.68 73.0332 1313.2 73.5676C1313.72 74.102 1314.33 74.497 1315.03 74.7758C1315.73 75.0314 1316.46 75.1708 1317.23 75.1708C1317.91 75.1708 1318.54 75.0779 1319.11 74.892C1319.67 74.6829 1320.15 74.4273 1320.58 74.102C1321.01 73.7767 1321.37 73.405 1321.67 72.9635C1321.96 72.522 1322.16 72.0341 1322.3 71.5461Z" fill="#32353C"/>
<path d="M1324.19 74.8223H1327.2V58H1324.19V74.8223Z" fill="#32353C"/>
<path d="M1329.59 74.8223H1332.6V58H1329.59V74.8223Z" fill="#32353C"/>
<path d="M1334.33 71.7088C1334.33 72.1503 1334.43 72.5917 1334.61 72.9867C1334.76 73.405 1335.01 73.7767 1335.35 74.102C1335.69 74.4041 1336.1 74.6597 1336.58 74.8688C1337.05 75.0547 1337.57 75.1476 1338.16 75.1476C1339 75.1476 1339.68 74.985 1340.22 74.6364C1340.74 74.2879 1341.15 73.8929 1341.44 73.4514C1341.44 73.6605 1341.47 73.9161 1341.49 74.195C1341.51 74.4505 1341.53 74.6597 1341.56 74.8223H1344.32C1344.3 74.6132 1344.25 74.3576 1344.23 74.0091C1344.21 73.6605 1344.18 73.312 1344.18 73.01V67.387C1344.18 66.8062 1344.09 66.2717 1343.93 65.7373C1343.75 65.2029 1343.48 64.7615 1343.1 64.3665C1342.71 63.9715 1342.19 63.6462 1341.58 63.4138C1340.97 63.1582 1340.22 63.042 1339.34 63.042C1338.59 63.042 1337.91 63.1582 1337.35 63.3906C1336.78 63.5997 1336.28 63.9017 1335.9 64.2503C1335.51 64.5988 1335.19 65.017 1334.97 65.4585C1334.74 65.9 1334.61 66.3647 1334.56 66.8062L1337.23 67.387C1337.28 66.8991 1337.48 66.4576 1337.84 66.0859C1338.18 65.7141 1338.7 65.5282 1339.36 65.5282C1339.99 65.5282 1340.47 65.6676 1340.79 65.9697C1341.08 66.2717 1341.24 66.6203 1341.24 67.0153C1341.24 67.2244 1341.17 67.387 1341.06 67.5264C1340.95 67.6891 1340.72 67.782 1340.4 67.8285L1337.66 68.2467C1337.19 68.3164 1336.76 68.4559 1336.37 68.6185C1335.96 68.7811 1335.6 69.0135 1335.31 69.3156C1335.01 69.6176 1334.76 69.9429 1334.61 70.3379C1334.43 70.7329 1334.33 71.1976 1334.33 71.7088ZM1338.79 72.8473C1338.32 72.8473 1337.96 72.7079 1337.71 72.4291C1337.46 72.1735 1337.35 71.8714 1337.35 71.5229C1337.35 71.0814 1337.48 70.7329 1337.75 70.5006C1338 70.2914 1338.34 70.152 1338.73 70.0823L1341.24 69.6873V70.1985C1341.24 70.7097 1341.17 71.1279 1341.04 71.4532C1340.9 71.8017 1340.72 72.0573 1340.49 72.2664C1340.27 72.4756 1340.02 72.6382 1339.72 72.7079C1339.43 72.8008 1339.11 72.8473 1338.79 72.8473Z" fill="#32353C"/>
<path d="M1349.5 74.8223V68.2467C1349.5 67.5729 1349.69 67.0153 1350.05 66.5506C1350.41 66.1091 1350.93 65.8767 1351.59 65.8767C1352.31 65.8767 1352.83 66.0859 1353.17 66.5273C1353.49 66.9688 1353.65 67.5032 1353.65 68.1538V74.8223H1356.66V67.6194C1356.66 66.992 1356.59 66.4112 1356.43 65.8535C1356.27 65.2959 1356.02 64.8079 1355.68 64.4129C1355.35 64.0179 1354.94 63.6926 1354.44 63.437C1353.92 63.2047 1353.33 63.0885 1352.63 63.0885C1352.02 63.0885 1351.43 63.2279 1350.84 63.5068C1350.23 63.7856 1349.75 64.227 1349.41 64.8079V63.3906H1346.49V74.8223H1349.5Z" fill="#32353C"/>
<path d="M1369.79 66.5273H1366.17V59.6729H1369.79C1370.94 59.6729 1371.85 59.9982 1372.51 60.6256C1373.16 61.2529 1373.48 62.0894 1373.48 63.1118C1373.48 64.1341 1373.16 64.9473 1372.51 65.5747C1371.85 66.202 1370.94 66.5273 1369.79 66.5273ZM1366.17 67.8517H1370.02C1370.76 67.8517 1371.42 67.7356 1372.03 67.48C1372.64 67.2476 1373.16 66.9223 1373.59 66.5041C1374.02 66.0859 1374.34 65.5747 1374.59 64.9938C1374.82 64.4129 1374.93 63.7856 1374.93 63.1118C1374.93 62.4379 1374.82 61.7873 1374.59 61.2065C1374.34 60.6256 1374.02 60.1376 1373.59 59.6962C1373.16 59.2779 1372.64 58.9526 1372.03 58.7203C1371.42 58.4647 1370.76 58.3485 1370.02 58.3485H1364.72V74.8223H1366.17V67.8517Z" fill="#32353C"/>
<path d="M1382.06 65.1797V63.7159C1381.86 63.6462 1381.59 63.5997 1381.23 63.5997C1380.5 63.5997 1379.85 63.7623 1379.28 64.1109C1378.69 64.4594 1378.24 65.0403 1377.9 65.807V63.7391H1376.56V74.8223H1377.92V68.8044C1377.92 67.5264 1378.22 66.597 1378.83 65.9697C1379.44 65.3656 1380.19 65.0635 1381.11 65.0635C1381.48 65.0635 1381.79 65.11 1382.06 65.1797Z" fill="#32353C"/>
<path d="M1387.84 75.1244C1388.59 75.1244 1389.29 74.985 1389.95 74.6829C1390.6 74.4041 1391.17 74.0091 1391.65 73.4979C1392.12 72.9867 1392.51 72.3826 1392.78 71.6623C1393.07 70.942 1393.21 70.152 1393.21 69.2923C1393.21 68.4326 1393.07 67.6194 1392.78 66.8991C1392.51 66.1788 1392.12 65.5747 1391.65 65.0635C1391.17 64.5523 1390.6 64.1573 1389.95 63.8785C1389.29 63.5997 1388.59 63.4603 1387.84 63.4603C1387.1 63.4603 1386.39 63.5997 1385.74 63.8785C1385.08 64.1573 1384.49 64.5523 1384.02 65.0635C1383.54 65.5747 1383.16 66.1788 1382.88 66.8991C1382.61 67.6194 1382.48 68.4326 1382.48 69.2923C1382.48 70.152 1382.61 70.942 1382.91 71.6623C1383.18 72.3826 1383.56 72.9867 1384.04 73.4979C1384.51 74.0091 1385.08 74.4041 1385.74 74.6829C1386.39 74.985 1387.1 75.1244 1387.84 75.1244ZM1383.86 69.2923C1383.86 68.572 1383.97 67.9214 1384.18 67.3638C1384.4 66.7829 1384.7 66.3182 1385.06 65.9232C1385.42 65.5282 1385.85 65.2262 1386.33 65.017C1386.8 64.8079 1387.32 64.715 1387.84 64.715C1388.36 64.715 1388.88 64.8079 1389.36 65.017C1389.83 65.2262 1390.26 65.5282 1390.63 65.9232C1390.99 66.3182 1391.28 66.7829 1391.49 67.3638C1391.71 67.9214 1391.83 68.572 1391.83 69.2923C1391.83 70.0126 1391.71 70.6632 1391.49 71.2208C1391.28 71.8017 1390.99 72.2664 1390.63 72.6614C1390.26 73.0564 1389.83 73.3353 1389.36 73.5444C1388.88 73.7535 1388.36 73.8697 1387.84 73.8697C1387.32 73.8697 1386.8 73.7535 1386.33 73.5444C1385.85 73.3353 1385.42 73.0564 1385.06 72.6614C1384.7 72.2664 1384.4 71.8017 1384.18 71.2208C1383.97 70.6632 1383.86 70.0126 1383.86 69.2923Z" fill="#32353C"/>
<path d="M1397.41 63.7391V60.2306H1396.1V62.1126C1396.1 62.6935 1395.98 63.0885 1395.73 63.3441C1395.48 63.5997 1395.1 63.7391 1394.58 63.7391H1393.76V64.9938H1396.05V71.825C1396.05 72.8473 1396.3 73.6141 1396.82 74.1485C1397.32 74.6829 1398 74.9385 1398.88 74.9385C1399.22 74.9385 1399.49 74.9152 1399.74 74.8688C1399.97 74.8223 1400.13 74.7758 1400.22 74.7294V73.4979C1400.1 73.5444 1399.97 73.5908 1399.79 73.6141C1399.63 73.6605 1399.45 73.6838 1399.24 73.6838C1398.02 73.6838 1397.41 73.01 1397.41 71.6856V64.9938H1400.22V63.7391H1397.41Z" fill="#32353C"/>
<path d="M1406.58 75.1244C1407.33 75.1244 1408.03 74.985 1408.69 74.6829C1409.34 74.4041 1409.91 74.0091 1410.38 73.4979C1410.86 72.9867 1411.24 72.3826 1411.52 71.6623C1411.81 70.942 1411.95 70.152 1411.95 69.2923C1411.95 68.4326 1411.81 67.6194 1411.52 66.8991C1411.24 66.1788 1410.86 65.5747 1410.38 65.0635C1409.91 64.5523 1409.34 64.1573 1408.69 63.8785C1408.03 63.5997 1407.33 63.4603 1406.58 63.4603C1405.83 63.4603 1405.13 63.5997 1404.48 63.8785C1403.82 64.1573 1403.23 64.5523 1402.75 65.0635C1402.28 65.5747 1401.89 66.1788 1401.62 66.8991C1401.35 67.6194 1401.22 68.4326 1401.22 69.2923C1401.22 70.152 1401.35 70.942 1401.65 71.6623C1401.92 72.3826 1402.3 72.9867 1402.78 73.4979C1403.25 74.0091 1403.82 74.4041 1404.48 74.6829C1405.13 74.985 1405.83 75.1244 1406.58 75.1244ZM1402.6 69.2923C1402.6 68.572 1402.71 67.9214 1402.91 67.3638C1403.14 66.7829 1403.43 66.3182 1403.8 65.9232C1404.16 65.5282 1404.59 65.2262 1405.06 65.017C1405.54 64.8079 1406.06 64.715 1406.58 64.715C1407.1 64.715 1407.62 64.8079 1408.1 65.017C1408.57 65.2262 1409 65.5282 1409.37 65.9232C1409.73 66.3182 1410.02 66.7829 1410.23 67.3638C1410.45 67.9214 1410.57 68.572 1410.57 69.2923C1410.57 70.0126 1410.45 70.6632 1410.23 71.2208C1410.02 71.8017 1409.73 72.2664 1409.37 72.6614C1409 73.0564 1408.57 73.3353 1408.1 73.5444C1407.62 73.7535 1407.1 73.8697 1406.58 73.8697C1406.06 73.8697 1405.54 73.7535 1405.06 73.5444C1404.59 73.3353 1404.16 73.0564 1403.8 72.6614C1403.43 72.2664 1403.14 71.8017 1402.91 71.2208C1402.71 70.6632 1402.6 70.0126 1402.6 69.2923Z" fill="#32353C"/>
<path d="M1418.7 64.6917C1419.22 64.6917 1419.67 64.7615 1420.06 64.9241C1420.44 65.0867 1420.78 65.3191 1421.06 65.5747C1421.33 65.8303 1421.55 66.1323 1421.73 66.4576C1421.89 66.7829 1422.03 67.1082 1422.12 67.4335L1423.32 66.9223C1423.21 66.4576 1423 66.0162 1422.75 65.5979C1422.5 65.1797 1422.19 64.8079 1421.8 64.4826C1421.42 64.1573 1420.96 63.9017 1420.44 63.7159C1419.92 63.53 1419.36 63.437 1418.7 63.437C1417.95 63.437 1417.25 63.5765 1416.6 63.8553C1415.94 64.1573 1415.4 64.5523 1414.92 65.0635C1414.44 65.5979 1414.06 66.202 1413.81 66.9223C1413.54 67.6426 1413.4 68.4326 1413.4 69.2923C1413.4 70.152 1413.54 70.9188 1413.81 71.6391C1414.06 72.3594 1414.44 72.9635 1414.92 73.4747C1415.4 74.0091 1415.94 74.4041 1416.6 74.6829C1417.23 74.985 1417.93 75.1244 1418.7 75.1244C1419.36 75.1244 1419.95 75.0314 1420.47 74.8223C1420.99 74.6132 1421.44 74.3576 1421.85 74.0323C1422.23 73.707 1422.57 73.3353 1422.82 72.917C1423.07 72.522 1423.27 72.1038 1423.41 71.6623L1422.21 71.1511C1422.12 71.4532 1421.98 71.7785 1421.8 72.0806C1421.62 72.4058 1421.39 72.7079 1421.1 72.9635C1420.81 73.2191 1420.47 73.4514 1420.06 73.6141C1419.67 73.7767 1419.22 73.8697 1418.7 73.8697C1418.16 73.8697 1417.64 73.7535 1417.16 73.5444C1416.69 73.3353 1416.28 73.01 1415.92 72.615C1415.55 72.22 1415.26 71.7553 1415.06 71.1744C1414.85 70.6167 1414.76 69.9894 1414.76 69.2923C1414.76 68.572 1414.87 67.9447 1415.08 67.3638C1415.28 66.7829 1415.58 66.295 1415.92 65.9C1416.28 65.505 1416.69 65.2029 1417.16 64.9938C1417.64 64.7847 1418.16 64.6917 1418.7 64.6917Z" fill="#32353C"/>
<path d="M1430.07 75.1244C1430.82 75.1244 1431.52 74.985 1432.18 74.6829C1432.83 74.4041 1433.4 74.0091 1433.88 73.4979C1434.35 72.9867 1434.74 72.3826 1435.01 71.6623C1435.3 70.942 1435.44 70.152 1435.44 69.2923C1435.44 68.4326 1435.3 67.6194 1435.01 66.8991C1434.74 66.1788 1434.35 65.5747 1433.88 65.0635C1433.4 64.5523 1432.83 64.1573 1432.18 63.8785C1431.52 63.5997 1430.82 63.4603 1430.07 63.4603C1429.32 63.4603 1428.62 63.5997 1427.97 63.8785C1427.31 64.1573 1426.72 64.5523 1426.25 65.0635C1425.77 65.5747 1425.39 66.1788 1425.11 66.8991C1424.84 67.6194 1424.71 68.4326 1424.71 69.2923C1424.71 70.152 1424.84 70.942 1425.14 71.6623C1425.41 72.3826 1425.79 72.9867 1426.27 73.4979C1426.74 74.0091 1427.31 74.4041 1427.97 74.6829C1428.62 74.985 1429.32 75.1244 1430.07 75.1244ZM1426.09 69.2923C1426.09 68.572 1426.2 67.9214 1426.4 67.3638C1426.63 66.7829 1426.93 66.3182 1427.29 65.9232C1427.65 65.5282 1428.08 65.2262 1428.56 65.017C1429.03 64.8079 1429.55 64.715 1430.07 64.715C1430.59 64.715 1431.11 64.8079 1431.59 65.017C1432.06 65.2262 1432.49 65.5282 1432.86 65.9232C1433.22 66.3182 1433.51 66.7829 1433.72 67.3638C1433.94 67.9214 1434.06 68.572 1434.06 69.2923C1434.06 70.0126 1433.94 70.6632 1433.72 71.2208C1433.51 71.8017 1433.22 72.2664 1432.86 72.6614C1432.49 73.0564 1432.06 73.3353 1431.59 73.5444C1431.11 73.7535 1430.59 73.8697 1430.07 73.8697C1429.55 73.8697 1429.03 73.7535 1428.56 73.5444C1428.08 73.3353 1427.65 73.0564 1427.29 72.6614C1426.93 72.2664 1426.63 71.8017 1426.4 71.2208C1426.2 70.6632 1426.09 70.0126 1426.09 69.2923Z" fill="#32353C"/>
<path d="M1437.64 74.8223H1439V58.0465H1437.64V74.8223Z" fill="#32353C"/>
<defs>
<clipPath id="clip0_312_66854">
<rect width="196.706" height="41.3663" fill="white" transform="translate(0 48)"/>
</clipPath>
<clipPath id="clip1_312_66854">
<rect width="82.344" height="30.8365" fill="white" transform="translate(778.77 53)"/>
</clipPath>
</defs>
</svg>
