<svg width="410" height="529" viewBox="0 0 410 529" fill="none" xmlns="http://www.w3.org/2000/svg">
<path d="M49.868 7.364L44.268 13.132L49.98 21H46.004L42 15.428L40.32 17.192V21H37.1V0.727999H40.32V12.88L45.556 7.364H49.868ZM53.9422 12.684H60.6342C60.5969 11.8253 60.2889 11.1067 59.7102 10.528C59.1502 9.94933 58.3382 9.66 57.2742 9.66C56.3036 9.66 55.5196 9.968 54.9222 10.584C54.3249 11.1813 53.9982 11.8813 53.9422 12.684ZM60.9982 16.24L63.7422 17.108C63.3502 18.3587 62.6129 19.3947 61.5302 20.216C60.4662 21.0187 59.1502 21.42 57.5822 21.42C55.6409 21.42 53.9889 20.7573 52.6262 19.432C51.2822 18.1067 50.6102 16.3333 50.6102 14.112C50.6102 12.0213 51.2636 10.304 52.5702 8.96C53.8956 7.616 55.4542 6.944 57.2462 6.944C59.3369 6.944 60.9702 7.588 62.1462 8.876C63.3222 10.1453 63.9102 11.8627 63.9102 14.028C63.9102 14.6067 63.8822 14.952 63.8262 15.064H53.8582C53.8956 16.0907 54.2689 16.94 54.9782 17.612C55.7062 18.284 56.5742 18.62 57.5822 18.62C59.3369 18.62 60.4756 17.8267 60.9982 16.24ZM70.9393 26.516H67.4673L70.7433 19.376L64.9193 7.364H68.5873L72.5073 15.988L76.1753 7.364H79.6193L70.9393 26.516ZM94.8798 9.94C93.8344 9.94 92.9478 10.3227 92.2198 11.088C91.4918 11.8347 91.1278 12.8613 91.1278 14.168C91.1278 15.4933 91.4918 16.5387 92.2198 17.304C92.9664 18.0693 93.8718 18.452 94.9358 18.452C95.8878 18.452 96.6438 18.2 97.2038 17.696C97.7824 17.1733 98.1651 16.5853 98.3518 15.932L101.208 16.968C100.834 18.1813 100.106 19.2267 99.0238 20.104C97.9598 20.9813 96.5971 21.42 94.9358 21.42C92.9384 21.42 91.2584 20.7293 89.8958 19.348C88.5518 17.9667 87.8798 16.24 87.8798 14.168C87.8798 12.0773 88.5424 10.3507 89.8678 8.988C91.2118 7.62533 92.8731 6.944 94.8518 6.944C96.5504 6.944 97.9318 7.38267 98.9958 8.26C100.078 9.13733 100.778 10.192 101.096 11.424L98.1838 12.488C97.9971 11.7787 97.6331 11.1813 97.0918 10.696C96.5691 10.192 95.8318 9.94 94.8798 9.94ZM107.34 12.992V21H104.092V0.727999H107.34V8.68C108.218 7.54133 109.515 6.972 111.232 6.972C112.838 6.972 114.07 7.476 114.928 8.484C115.787 9.492 116.216 10.7893 116.216 12.376V21H112.968V12.936C112.968 12.0213 112.744 11.2933 112.296 10.752C111.848 10.192 111.139 9.912 110.168 9.912C109.31 9.912 108.628 10.2013 108.124 10.78C107.639 11.3587 107.378 12.096 107.34 12.992ZM123.446 17.36C124.193 18.1253 125.098 18.508 126.162 18.508C127.226 18.508 128.122 18.1253 128.85 17.36C129.597 16.5947 129.97 15.5307 129.97 14.168C129.97 12.824 129.597 11.7787 128.85 11.032C128.122 10.2667 127.226 9.884 126.162 9.884C125.098 9.884 124.193 10.2667 123.446 11.032C122.718 11.7787 122.354 12.824 122.354 14.168C122.354 15.512 122.718 16.576 123.446 17.36ZM126.162 6.944C128.216 6.944 129.905 7.62533 131.23 8.988C132.574 10.3507 133.246 12.0773 133.246 14.168C133.246 16.2587 132.574 17.9947 131.23 19.376C129.905 20.7387 128.216 21.42 126.162 21.42C124.128 21.42 122.438 20.7387 121.094 19.376C119.769 17.9947 119.106 16.2587 119.106 14.168C119.106 12.0773 119.769 10.3507 121.094 8.988C122.438 7.62533 124.128 6.944 126.162 6.944ZM139.605 21H136.385V7.364H139.605V21ZM136.497 4.06C136.086 3.64933 135.881 3.15467 135.881 2.576C135.881 1.99733 136.086 1.50267 136.497 1.092C136.908 0.662666 137.402 0.447999 137.981 0.447999C138.578 0.447999 139.082 0.653333 139.493 1.064C139.904 1.47467 140.109 1.97867 140.109 2.576C140.109 3.15467 139.904 3.64933 139.493 4.06C139.082 4.47067 138.578 4.676 137.981 4.676C137.402 4.676 136.908 4.47067 136.497 4.06ZM142.591 17.304L145.419 16.52C145.475 17.1733 145.746 17.724 146.231 18.172C146.717 18.62 147.37 18.844 148.191 18.844C148.826 18.844 149.321 18.6947 149.675 18.396C150.049 18.0973 150.235 17.724 150.235 17.276C150.235 16.492 149.703 15.988 148.639 15.764L146.623 15.316C145.447 15.0547 144.542 14.5693 143.907 13.86C143.273 13.1507 142.955 12.3107 142.955 11.34C142.955 10.1453 143.441 9.11867 144.411 8.26C145.382 7.38267 146.567 6.944 147.967 6.944C148.863 6.944 149.657 7.07467 150.347 7.336C151.038 7.59733 151.57 7.94267 151.943 8.372C152.335 8.78267 152.634 9.184 152.839 9.576C153.045 9.968 153.175 10.36 153.231 10.752L150.487 11.536C150.413 11.0133 150.17 10.5467 149.759 10.136C149.367 9.70667 148.77 9.492 147.967 9.492C147.407 9.492 146.941 9.65067 146.567 9.968C146.194 10.2667 146.007 10.6307 146.007 11.06C146.007 11.8253 146.465 12.3013 147.379 12.488L149.451 12.908C150.721 13.188 151.691 13.692 152.363 14.42C153.035 15.148 153.371 16.0253 153.371 17.052C153.371 18.1907 152.914 19.208 151.999 20.104C151.103 20.9813 149.843 21.42 148.219 21.42C147.286 21.42 146.446 21.28 145.699 21C144.971 20.72 144.393 20.3653 143.963 19.936C143.553 19.488 143.226 19.0493 142.983 18.62C142.759 18.172 142.629 17.7333 142.591 17.304ZM158.778 12.684H165.47C165.433 11.8253 165.125 11.1067 164.546 10.528C163.986 9.94933 163.174 9.66 162.11 9.66C161.139 9.66 160.355 9.968 159.758 10.584C159.161 11.1813 158.834 11.8813 158.778 12.684ZM165.834 16.24L168.578 17.108C168.186 18.3587 167.449 19.3947 166.366 20.216C165.302 21.0187 163.986 21.42 162.418 21.42C160.477 21.42 158.825 20.7573 157.462 19.432C156.118 18.1067 155.446 16.3333 155.446 14.112C155.446 12.0213 156.099 10.304 157.406 8.96C158.731 7.616 160.29 6.944 162.082 6.944C164.173 6.944 165.806 7.588 166.982 8.876C168.158 10.1453 168.746 11.8627 168.746 14.028C168.746 14.6067 168.718 14.952 168.662 15.064H158.694C158.731 16.0907 159.105 16.94 159.814 17.612C160.542 18.284 161.41 18.62 162.418 18.62C164.173 18.62 165.311 17.8267 165.834 16.24ZM171.915 20.524C171.485 20.076 171.271 19.5347 171.271 18.9C171.271 18.2653 171.485 17.724 171.915 17.276C172.363 16.828 172.904 16.604 173.539 16.604C174.173 16.604 174.715 16.828 175.163 17.276C175.611 17.724 175.835 18.2653 175.835 18.9C175.835 19.5347 175.611 20.076 175.163 20.524C174.715 20.9533 174.173 21.168 173.539 21.168C172.904 21.168 172.363 20.9533 171.915 20.524ZM185.251 9.94C184.206 9.94 183.319 10.3227 182.591 11.088C181.863 11.8347 181.499 12.8613 181.499 14.168C181.499 15.4933 181.863 16.5387 182.591 17.304C183.338 18.0693 184.243 18.452 185.307 18.452C186.259 18.452 187.015 18.2 187.575 17.696C188.154 17.1733 188.536 16.5853 188.723 15.932L191.579 16.968C191.206 18.1813 190.478 19.2267 189.395 20.104C188.331 20.9813 186.968 21.42 185.307 21.42C183.31 21.42 181.63 20.7293 180.267 19.348C178.923 17.9667 178.251 16.24 178.251 14.168C178.251 12.0773 178.914 10.3507 180.239 8.988C181.583 7.62533 183.244 6.944 185.223 6.944C186.922 6.944 188.303 7.38267 189.367 8.26C190.45 9.13733 191.15 10.192 191.467 11.424L188.555 12.488C188.368 11.7787 188.004 11.1813 187.463 10.696C186.94 10.192 186.203 9.94 185.251 9.94ZM197.603 17.36C198.349 18.1253 199.255 18.508 200.319 18.508C201.383 18.508 202.279 18.1253 203.007 17.36C203.753 16.5947 204.127 15.5307 204.127 14.168C204.127 12.824 203.753 11.7787 203.007 11.032C202.279 10.2667 201.383 9.884 200.319 9.884C199.255 9.884 198.349 10.2667 197.603 11.032C196.875 11.7787 196.511 12.824 196.511 14.168C196.511 15.512 196.875 16.576 197.603 17.36ZM200.319 6.944C202.372 6.944 204.061 7.62533 205.387 8.988C206.731 10.3507 207.403 12.0773 207.403 14.168C207.403 16.2587 206.731 17.9947 205.387 19.376C204.061 20.7387 202.372 21.42 200.319 21.42C198.284 21.42 196.595 20.7387 195.251 19.376C193.925 17.9947 193.263 16.2587 193.263 14.168C193.263 12.0773 193.925 10.3507 195.251 8.988C196.595 7.62533 198.284 6.944 200.319 6.944ZM213.761 21H210.541V7.364H213.649V9.1C214.023 8.428 214.583 7.90533 215.329 7.532C216.095 7.15867 216.879 6.972 217.681 6.972C218.596 6.972 219.417 7.17733 220.145 7.588C220.873 7.99867 221.415 8.596 221.769 9.38C222.721 7.77467 224.196 6.972 226.193 6.972C227.537 6.972 228.676 7.41067 229.609 8.288C230.543 9.16533 231.009 10.4533 231.009 12.152V21H227.873V12.684C227.873 11.844 227.649 11.172 227.201 10.668C226.772 10.1453 226.119 9.884 225.241 9.884C224.401 9.884 223.72 10.1733 223.197 10.752C222.675 11.3307 222.413 12.0493 222.413 12.908V21H219.221V12.684C219.221 11.844 218.997 11.172 218.549 10.668C218.12 10.1453 217.467 9.884 216.589 9.884C215.731 9.884 215.04 10.1733 214.517 10.752C214.013 11.312 213.761 12.0307 213.761 12.908V21ZM245.152 21H241.932V7.364H245.04V9.1C245.413 8.428 245.973 7.90533 246.72 7.532C247.485 7.15867 248.269 6.972 249.072 6.972C249.987 6.972 250.808 7.17733 251.536 7.588C252.264 7.99867 252.805 8.596 253.16 9.38C254.112 7.77467 255.587 6.972 257.584 6.972C258.928 6.972 260.067 7.41067 261 8.288C261.933 9.16533 262.4 10.4533 262.4 12.152V21H259.264V12.684C259.264 11.844 259.04 11.172 258.592 10.668C258.163 10.1453 257.509 9.884 256.632 9.884C255.792 9.884 255.111 10.1733 254.588 10.752C254.065 11.3307 253.804 12.0493 253.804 12.908V21H250.612V12.684C250.612 11.844 250.388 11.172 249.94 10.668C249.511 10.1453 248.857 9.884 247.98 9.884C247.121 9.884 246.431 10.1733 245.908 10.752C245.404 11.312 245.152 12.0307 245.152 12.908V21ZM268.645 12.684H275.337C275.3 11.8253 274.992 11.1067 274.413 10.528C273.853 9.94933 273.041 9.66 271.977 9.66C271.007 9.66 270.223 9.968 269.625 10.584C269.028 11.1813 268.701 11.8813 268.645 12.684ZM275.701 16.24L278.445 17.108C278.053 18.3587 277.316 19.3947 276.233 20.216C275.169 21.0187 273.853 21.42 272.285 21.42C270.344 21.42 268.692 20.7573 267.329 19.432C265.985 18.1067 265.313 16.3333 265.313 14.112C265.313 12.0213 265.967 10.304 267.273 8.96C268.599 7.616 270.157 6.944 271.949 6.944C274.04 6.944 275.673 7.588 276.849 8.876C278.025 10.1453 278.613 11.8627 278.613 14.028C278.613 14.6067 278.585 14.952 278.529 15.064H268.561C268.599 16.0907 268.972 16.94 269.681 17.612C270.409 18.284 271.277 18.62 272.285 18.62C274.04 18.62 275.179 17.8267 275.701 16.24ZM285.833 3.192V7.364H288.661V10.248H285.833V16.576C285.833 17.1733 285.973 17.612 286.253 17.892C286.533 18.1533 286.972 18.284 287.569 18.284C287.943 18.284 288.316 18.2467 288.689 18.172V20.86C288.204 21.0653 287.541 21.168 286.701 21.168C285.432 21.168 284.433 20.8133 283.705 20.104C282.977 19.376 282.613 18.3773 282.613 17.108V10.248H280.093V7.364H280.793C281.484 7.364 282.007 7.168 282.361 6.776C282.716 6.384 282.893 5.87067 282.893 5.236V3.192H285.833ZM299.732 7.28V10.584C299.359 10.528 299.004 10.5 298.668 10.5C296.223 10.5 295 11.8347 295 14.504V21H291.752V7.364H294.916V9.548C295.234 8.82 295.747 8.25067 296.456 7.84C297.166 7.41067 297.968 7.196 298.864 7.196C299.163 7.196 299.452 7.224 299.732 7.28ZM305.664 21H302.444V7.364H305.664V21ZM302.556 4.06C302.145 3.64933 301.94 3.15467 301.94 2.576C301.94 1.99733 302.145 1.50267 302.556 1.092C302.966 0.662666 303.461 0.447999 304.04 0.447999C304.637 0.447999 305.141 0.653333 305.552 1.064C305.962 1.47467 306.168 1.97867 306.168 2.576C306.168 3.15467 305.962 3.64933 305.552 4.06C305.141 4.47067 304.637 4.676 304.04 4.676C303.461 4.676 302.966 4.47067 302.556 4.06ZM315.79 9.94C314.745 9.94 313.858 10.3227 313.13 11.088C312.402 11.8347 312.038 12.8613 312.038 14.168C312.038 15.4933 312.402 16.5387 313.13 17.304C313.877 18.0693 314.782 18.452 315.846 18.452C316.798 18.452 317.554 18.2 318.114 17.696C318.693 17.1733 319.075 16.5853 319.262 15.932L322.118 16.968C321.745 18.1813 321.017 19.2267 319.934 20.104C318.87 20.9813 317.507 21.42 315.846 21.42C313.849 21.42 312.169 20.7293 310.806 19.348C309.462 17.9667 308.79 16.24 308.79 14.168C308.79 12.0773 309.453 10.3507 310.778 8.988C312.122 7.62533 313.783 6.944 315.762 6.944C317.461 6.944 318.842 7.38267 319.906 8.26C320.989 9.13733 321.689 10.192 322.006 11.424L319.094 12.488C318.907 11.7787 318.543 11.1813 318.002 10.696C317.479 10.192 316.742 9.94 315.79 9.94ZM323.798 17.304L326.626 16.52C326.682 17.1733 326.953 17.724 327.438 18.172C327.924 18.62 328.577 18.844 329.398 18.844C330.033 18.844 330.528 18.6947 330.882 18.396C331.256 18.0973 331.442 17.724 331.442 17.276C331.442 16.492 330.91 15.988 329.846 15.764L327.83 15.316C326.654 15.0547 325.749 14.5693 325.114 13.86C324.48 13.1507 324.162 12.3107 324.162 11.34C324.162 10.1453 324.648 9.11867 325.618 8.26C326.589 7.38267 327.774 6.944 329.174 6.944C330.07 6.944 330.864 7.07467 331.554 7.336C332.245 7.59733 332.777 7.94267 333.15 8.372C333.542 8.78267 333.841 9.184 334.046 9.576C334.252 9.968 334.382 10.36 334.438 10.752L331.694 11.536C331.62 11.0133 331.377 10.5467 330.966 10.136C330.574 9.70667 329.977 9.492 329.174 9.492C328.614 9.492 328.148 9.65067 327.774 9.968C327.401 10.2667 327.214 10.6307 327.214 11.06C327.214 11.8253 327.672 12.3013 328.586 12.488L330.658 12.908C331.928 13.188 332.898 13.692 333.57 14.42C334.242 15.148 334.578 16.0253 334.578 17.052C334.578 18.1907 334.121 19.208 333.206 20.104C332.31 20.9813 331.05 21.42 329.426 21.42C328.493 21.42 327.653 21.28 326.906 21C326.178 20.72 325.6 20.3653 325.17 19.936C324.76 19.488 324.433 19.0493 324.19 18.62C323.966 18.172 323.836 17.7333 323.798 17.304Z" fill="#C6C6C6"/>
<rect x="132.82" y="160" width="277" height="103" rx="51.5" transform="rotate(1.56878 132.82 160)" fill="#3287F5"/>
<path d="M180.974 233.346L173.305 233.136L173.97 208.841L165.238 208.602L165.38 203.396C167.994 203.43 170.195 202.837 171.984 201.616C173.773 200.358 174.881 198.763 175.308 196.833L181.969 197.015L180.974 233.346ZM190.653 193.892L204.928 194.283C208.697 194.386 211.618 195.456 213.691 197.492C215.802 199.529 216.813 202.134 216.726 205.306C216.671 207.321 216.081 209.098 214.956 210.636C213.832 212.136 212.422 213.143 210.728 213.657C212.729 214.197 214.36 215.344 215.619 217.096C216.917 218.812 217.533 220.865 217.467 223.253C217.378 226.5 216.186 229.138 213.889 231.166C211.594 233.157 208.599 234.102 204.904 234.001L189.566 233.581L190.653 193.892ZM197.817 210.502L203.303 210.653C205.057 210.701 206.45 210.291 207.482 209.423C208.514 208.555 209.051 207.355 209.093 205.825C209.135 204.295 208.664 203.087 207.68 202.201C206.734 201.279 205.347 200.793 203.518 200.743L198.088 200.594L197.817 210.502ZM197.356 227.352L203.625 227.524C205.491 227.575 206.959 227.167 208.028 226.3C209.136 225.397 209.712 224.142 209.756 222.538C209.8 220.933 209.313 219.631 208.294 218.632C207.313 217.634 205.89 217.11 204.024 217.059L197.642 216.884L197.356 227.352ZM222.367 214.928L232.947 215.218L233.246 204.302L239.516 204.474L239.217 215.39L249.853 215.681L249.686 221.783L239.05 221.491L238.749 232.463L232.48 232.292L232.78 221.32L222.2 221.03L222.367 214.928Z" fill="white"/>
<path d="M277.424 210.778C275.492 210.725 273.851 210.013 272.501 208.642C271.165 207.272 270.527 205.454 270.589 203.188C270.631 201.668 271.014 200.345 271.739 199.218C272.463 198.091 273.359 197.268 274.427 196.751C275.495 196.22 276.629 195.971 277.829 196.003C279.428 196.047 280.763 196.491 281.834 197.334C282.918 198.164 283.621 199.277 283.943 200.673L282.106 201.262C281.869 200.189 281.378 199.355 280.634 198.761C279.891 198.154 278.939 197.834 277.78 197.803C276.393 197.765 275.194 198.225 274.18 199.185C273.167 200.131 272.637 201.483 272.589 203.243C272.541 205.002 272.996 206.388 273.955 207.402C274.915 208.415 276.087 208.941 277.474 208.979C278.633 209.01 279.608 208.73 280.398 208.138C281.188 207.533 281.75 206.721 282.085 205.704L283.807 206.391C283.383 207.753 282.606 208.839 281.477 209.648C280.361 210.445 279.01 210.821 277.424 210.778ZM297.445 211.026L295.486 210.972L295.658 204.675L288.421 204.477L288.248 210.774L286.289 210.721L286.677 196.546L288.637 196.599L288.471 202.657L295.708 202.855L295.874 196.798L297.833 196.851L297.445 211.026ZM303.955 200C302.929 200.946 302.391 202.298 302.343 204.058C302.295 205.817 302.757 207.203 303.73 208.217C304.702 209.231 305.895 209.757 307.308 209.796C308.721 209.834 309.94 209.374 310.967 208.415C311.994 207.456 312.531 206.097 312.579 204.338C312.628 202.579 312.165 201.199 311.192 200.198C310.22 199.185 309.027 198.658 307.614 198.62C306.201 198.581 304.982 199.041 303.955 200ZM300.344 204.003C300.375 202.857 300.604 201.816 301.03 200.88C301.469 199.945 302.03 199.187 302.713 198.606C303.409 198.011 304.182 197.559 305.031 197.249C305.879 196.938 306.757 196.796 307.663 196.82C308.57 196.845 309.438 197.036 310.269 197.392C311.099 197.748 311.839 198.242 312.489 198.873C313.152 199.492 313.671 200.28 314.045 201.237C314.432 202.194 314.61 203.246 314.579 204.393C314.537 205.912 314.147 207.235 313.409 208.362C312.685 209.489 311.782 210.318 310.7 210.849C309.619 211.379 308.472 211.628 307.259 211.595C306.046 211.562 304.914 211.251 303.863 210.662C302.812 210.073 301.949 209.195 301.274 208.03C300.612 206.865 300.302 205.522 300.344 204.003ZM272.27 235.346L270.41 235.295L270.674 225.679L272.473 225.728L272.438 227.007C272.745 226.509 273.169 226.134 273.709 225.882C274.25 225.63 274.813 225.512 275.4 225.528C276.026 225.545 276.595 225.714 277.106 226.035C277.618 226.356 277.992 226.819 278.229 227.426C278.928 226.231 280.018 225.654 281.497 225.695C282.417 225.72 283.188 226.055 283.811 226.699C284.447 227.343 284.748 228.258 284.716 229.444L284.545 235.682L282.686 235.631L282.851 229.593C282.869 228.927 282.711 228.389 282.375 227.98C282.053 227.571 281.552 227.357 280.872 227.338C280.219 227.321 279.68 227.539 279.254 227.994C278.828 228.436 278.606 229.004 278.587 229.697L278.427 235.515L276.548 235.463L276.713 229.425C276.732 228.759 276.573 228.221 276.237 227.812C275.915 227.403 275.414 227.189 274.734 227.17C274.068 227.152 273.522 227.364 273.096 227.806C272.671 228.248 272.448 228.828 272.428 229.548L272.27 235.346ZM287.023 233.169C287.046 232.343 287.331 231.69 287.877 231.212C288.424 230.72 289.139 230.426 290.022 230.33L292.632 230.021C293.127 229.968 293.38 229.735 293.391 229.322C293.405 228.815 293.243 228.398 292.905 228.068C292.567 227.739 292.052 227.565 291.359 227.546C290.719 227.528 290.208 227.694 289.825 228.044C289.442 228.38 289.209 228.841 289.127 229.425L287.339 228.956C287.457 228.039 287.898 227.304 288.66 226.751C289.422 226.185 290.323 225.917 291.363 225.945C292.722 225.982 293.719 226.343 294.354 227.027C294.989 227.698 295.293 228.547 295.265 229.573L295.133 234.391C295.117 234.965 295.143 235.492 295.21 235.974L293.37 235.924C293.315 235.522 293.293 235.088 293.306 234.622C293.028 235.041 292.624 235.403 292.096 235.709C291.58 236.015 290.936 236.157 290.163 236.136C289.217 236.11 288.452 235.809 287.867 235.233C287.283 234.643 287.002 233.955 287.023 233.169ZM290.466 234.564C291.306 234.587 291.985 234.379 292.504 233.939C293.023 233.5 293.296 232.787 293.323 231.801L293.335 231.361L290.384 231.72C289.956 231.775 289.612 231.919 289.352 232.152C289.092 232.385 288.957 232.708 288.945 233.122C288.935 233.495 289.066 233.825 289.338 234.113C289.624 234.401 290 234.551 290.466 234.564ZM303.621 226.481L303.567 228.48C303.288 228.433 303.015 228.405 302.749 228.398C300.989 228.35 300.083 229.312 300.028 231.284L299.897 236.103L298.017 236.051L298.281 226.435L300.12 226.485L300.074 228.164C300.694 226.954 301.67 226.367 303.003 226.404C303.216 226.41 303.423 226.435 303.621 226.481ZM314.238 226.872L310.029 230.818L314.055 236.49L311.696 236.426L308.673 232.101L307.297 233.404L307.218 236.303L305.358 236.252L305.755 221.778L307.614 221.828L307.364 230.945L311.639 226.801L314.238 226.872ZM316.733 230.761L321.991 230.905C321.984 230.185 321.76 229.592 321.319 229.126C320.879 228.648 320.246 228.397 319.419 228.374C318.673 228.354 318.053 228.583 317.56 229.063C317.067 229.53 316.791 230.096 316.733 230.761ZM322.202 233.412L323.806 234.016C323.502 234.902 322.962 235.62 322.187 236.173C321.412 236.712 320.484 236.966 319.405 236.937C318.059 236.9 316.925 236.409 316.004 235.463C315.096 234.505 314.664 233.239 314.707 231.666C314.747 230.2 315.234 229 316.166 228.065C317.099 227.13 318.192 226.68 319.445 226.714C320.897 226.754 322.018 227.245 322.806 228.187C323.594 229.115 323.967 230.346 323.925 231.879C323.918 232.119 323.9 232.318 323.869 232.477L316.631 232.279C316.621 233.133 316.882 233.84 317.413 234.401C317.958 234.963 318.637 235.255 319.45 235.278C320.823 235.315 321.74 234.693 322.202 233.412ZM329.056 224.236L328.973 227.275L331.052 227.332L331.005 229.032L328.926 228.975L328.789 233.973C328.777 234.426 328.868 234.762 329.062 234.981C329.269 235.2 329.613 235.316 330.093 235.329C330.373 235.337 330.62 235.317 330.835 235.269L330.791 236.869C330.468 236.98 330.039 237.028 329.506 237.014C328.68 236.991 328.033 236.733 327.567 236.24C327.1 235.747 326.879 235.068 326.902 234.201L327.047 228.923L325.208 228.873L325.254 227.173L325.774 227.188C326.267 227.201 326.637 227.078 326.884 226.818C327.145 226.545 327.282 226.189 327.294 225.749L327.337 224.189L329.056 224.236ZM342.558 229.088C341.745 229.066 341.043 229.34 340.454 229.911C339.878 230.482 339.576 231.3 339.547 232.367C339.518 233.42 339.775 234.254 340.318 234.869C340.875 235.484 341.567 235.803 342.393 235.826C343.193 235.848 343.805 235.664 344.229 235.276C344.666 234.888 344.965 234.436 345.126 233.92L346.766 234.685C346.477 235.478 345.952 236.163 345.189 236.743C344.439 237.322 343.492 237.597 342.345 237.565C340.946 237.527 339.8 237.009 338.907 236.01C338.014 235.012 337.587 233.78 337.627 232.314C337.668 230.821 338.161 229.614 339.107 228.693C340.053 227.759 341.219 227.311 342.605 227.348C343.778 227.381 344.716 227.706 345.419 228.326C346.136 228.946 346.596 229.679 346.8 230.525L345.081 231.198C344.949 230.634 344.683 230.146 344.28 229.735C343.878 229.324 343.304 229.108 342.558 229.088ZM348.27 234.846C348.292 234.02 348.577 233.368 349.124 232.889C349.671 232.397 350.386 232.103 351.269 232.007L353.878 231.699C354.373 231.646 354.626 231.412 354.638 230.999C354.651 230.493 354.489 230.075 354.152 229.745C353.814 229.416 353.298 229.242 352.605 229.223C351.966 229.205 351.454 229.372 351.071 229.721C350.689 230.057 350.456 230.518 350.373 231.103L348.585 230.633C348.704 229.716 349.144 228.981 349.906 228.429C350.669 227.863 351.57 227.594 352.609 227.622C353.969 227.66 354.966 228.02 355.601 228.705C356.236 229.376 356.539 230.224 356.511 231.251L356.379 236.069C356.364 236.642 356.389 237.17 356.456 237.652L354.617 237.601C354.561 237.2 354.54 236.765 354.552 236.299C354.274 236.718 353.871 237.081 353.342 237.386C352.827 237.692 352.183 237.835 351.41 237.813C350.463 237.788 349.698 237.486 349.114 236.91C348.53 236.321 348.248 235.633 348.27 234.846ZM351.713 236.241C352.553 236.264 353.232 236.056 353.751 235.617C354.27 235.177 354.543 234.465 354.57 233.478L354.582 233.039L351.631 233.398C351.202 233.453 350.858 233.597 350.599 233.83C350.339 234.063 350.203 234.386 350.192 234.799C350.182 235.172 350.313 235.503 350.585 235.79C350.87 236.078 351.246 236.228 351.713 236.241ZM361.019 241.578L359.16 241.527L359.527 228.112L361.346 228.162L361.305 229.661C361.599 229.163 362.03 228.761 362.599 228.456C363.167 228.152 363.825 228.01 364.571 228.03C365.957 228.068 367.024 228.571 367.771 229.538C368.532 230.506 368.892 231.716 368.852 233.169C368.812 234.635 368.372 235.837 367.533 236.774C366.707 237.712 365.608 238.162 364.235 238.125C363.528 238.105 362.906 237.942 362.368 237.633C361.829 237.325 361.426 236.941 361.159 236.48L361.019 241.578ZM366.933 233.117C366.96 232.144 366.722 231.337 366.219 230.696C365.73 230.043 365.052 229.704 364.186 229.68C363.333 229.657 362.631 229.958 362.08 230.583C361.544 231.195 361.262 231.988 361.235 232.961C361.208 233.96 361.445 234.787 361.947 235.441C362.463 236.082 363.148 236.414 364.001 236.438C364.854 236.461 365.549 236.167 366.086 235.554C366.623 234.929 366.906 234.116 366.933 233.117Z" fill="white"/>
<rect y="250.309" width="306" height="103" rx="51.5" transform="rotate(-0.806736 0 250.309)" fill="#FFF959"/>
<rect y="250.309" width="306" height="103" rx="51.5" transform="rotate(-0.806736 0 250.309)" fill="url(#paint0_linear_0_1)"/>
<path d="M51.1523 321.595L43.4811 321.703L43.1389 297.402L34.4038 297.525L34.3305 292.317C36.943 292.243 39.1176 291.559 40.8542 290.265C42.5903 288.934 43.6313 287.295 43.9773 285.349L50.6406 285.255L51.1523 321.595ZM83.3501 284.794L83.4408 291.234C82.5922 291.955 81.7815 292.713 81.0086 293.508C80.2357 294.303 79.1347 295.663 77.7057 297.587C76.3135 299.474 75.0905 301.451 74.0369 303.519C72.9832 305.588 71.9934 308.215 71.0676 311.402C70.1417 314.589 69.5536 317.901 69.3033 321.34L61.2961 321.453C61.5432 317.79 62.1471 314.272 63.1077 310.898C64.1051 307.486 65.2229 304.67 66.4611 302.45C67.7361 300.192 68.9777 298.214 70.1859 296.517C71.4309 294.782 72.4585 293.517 73.2687 292.721L74.5409 291.583L55.8387 291.846L55.7449 285.183L83.3501 284.794ZM94.8602 293.593C93.5826 295.665 92.9727 298.754 93.0305 302.86C93.0883 306.966 93.785 310.037 95.1204 312.071C96.3802 314.033 98.2232 314.996 100.65 314.962C103.039 314.928 104.835 313.913 106.039 311.918C107.355 309.883 107.983 306.794 107.925 302.65C107.867 298.507 107.151 295.436 105.779 293.44C104.519 291.478 102.695 290.515 100.306 290.548C97.8795 290.582 96.0642 291.597 94.8602 293.593ZM88.6771 315.859C86.5036 312.641 85.379 308.344 85.3033 302.969C85.2276 297.593 86.2308 293.267 88.3128 289.989C90.9806 285.882 94.9462 283.791 100.21 283.717C105.473 283.643 109.477 285.621 112.222 289.652C114.434 292.907 115.577 297.203 115.652 302.541C115.727 307.88 114.706 312.206 112.587 315.522C109.956 319.629 106.009 321.719 100.746 321.793C95.4824 321.867 91.4595 319.889 88.6771 315.859ZM121.001 301.066L131.584 300.917L131.431 289.998L137.702 289.91L137.856 300.829L148.495 300.679L148.581 306.782L137.942 306.932L138.096 317.907L131.825 317.995L131.67 307.02L121.087 307.169L121.001 301.066Z" fill="#1A1D22"/>
<path d="M173.338 298.693C172.525 298.704 171.836 299.008 171.271 299.602C170.719 300.197 170.451 301.027 170.466 302.094C170.481 303.147 170.772 303.97 171.341 304.562C171.922 305.154 172.626 305.444 173.453 305.432C174.253 305.421 174.857 305.212 175.264 304.807C175.685 304.401 175.966 303.937 176.105 303.415L177.775 304.111C177.519 304.915 177.023 305.622 176.285 306.232C175.56 306.843 174.624 307.156 173.477 307.172C172.078 307.192 170.911 306.721 169.977 305.761C169.044 304.801 168.567 303.587 168.546 302.121C168.525 300.628 168.968 299.401 169.874 298.442C170.781 297.469 171.927 296.973 173.314 296.953C174.487 296.937 175.438 297.223 176.166 297.813C176.908 298.403 177.398 299.116 177.636 299.953L175.947 300.697C175.792 300.139 175.505 299.663 175.086 299.268C174.667 298.874 174.085 298.683 173.338 298.693ZM181.868 304.474C182.463 305.065 183.181 305.355 184.021 305.343C184.861 305.331 185.563 305.022 186.128 304.414C186.706 303.792 186.987 302.941 186.972 301.861C186.957 300.795 186.652 299.966 186.057 299.374C185.475 298.769 184.764 298.472 183.924 298.484C183.084 298.496 182.375 298.812 181.797 299.434C181.232 300.042 180.957 300.879 180.972 301.946C180.988 303.026 181.286 303.868 181.868 304.474ZM180.381 298.314C181.301 297.327 182.474 296.824 183.9 296.804C185.327 296.784 186.507 297.254 187.441 298.214C188.387 299.161 188.871 300.368 188.892 301.834C188.913 303.314 188.47 304.547 187.564 305.533C186.657 306.506 185.484 307.003 184.044 307.023C182.604 307.043 181.418 306.58 180.484 305.633C179.551 304.673 179.073 303.453 179.053 301.973C179.032 300.506 179.475 299.287 180.381 298.314ZM197.59 305.372C197.343 305.856 196.962 306.228 196.446 306.488C195.929 306.736 195.371 306.864 194.771 306.872C193.678 306.887 192.799 306.54 192.136 305.829C191.472 305.105 191.133 304.183 191.117 303.063L191.032 297.004L192.911 296.977L192.993 302.757C193.003 303.477 193.185 304.067 193.538 304.529C193.904 304.991 194.461 305.216 195.207 305.206C195.954 305.195 196.518 304.967 196.898 304.522C197.278 304.063 197.463 303.46 197.453 302.714L197.371 296.914L199.251 296.888L199.361 304.727C199.37 305.354 199.412 305.947 199.486 306.506L197.686 306.531C197.629 306.238 197.597 305.852 197.59 305.372ZM204.395 300.876L204.474 306.435L202.594 306.462L202.459 296.843L204.298 296.817L204.318 298.197C204.942 297.081 205.921 296.514 207.254 296.495C208.361 296.48 209.212 296.821 209.809 297.519C210.419 298.218 210.731 299.127 210.747 300.246L210.833 306.346L208.953 306.372L208.872 300.593C208.849 298.98 208.091 298.184 206.598 298.205C205.892 298.215 205.342 298.476 204.949 298.988C204.569 299.487 204.385 300.116 204.395 300.876ZM216.165 293.61L216.208 296.649L218.287 296.62L218.311 298.32L216.232 298.349L216.302 303.349C216.308 303.802 216.413 304.134 216.616 304.344C216.832 304.555 217.18 304.656 217.66 304.65C217.94 304.646 218.187 304.615 218.399 304.559L218.422 306.159C218.103 306.283 217.678 306.35 217.144 306.357C216.318 306.369 215.661 306.138 215.174 305.665C214.688 305.191 214.438 304.522 214.426 303.655L214.352 298.376L212.512 298.401L212.488 296.702L213.008 296.694C213.501 296.687 213.866 296.549 214.102 296.279C214.352 295.995 214.473 295.634 214.467 295.194L214.445 293.634L216.165 293.61ZM225.939 296.412L225.967 298.412C225.687 298.376 225.413 298.36 225.147 298.364C223.387 298.388 222.521 299.387 222.549 301.36L222.617 306.18L220.737 306.206L220.601 296.587L222.441 296.561L222.465 298.241C223.034 297.006 223.985 296.38 225.319 296.361C225.532 296.358 225.739 296.375 225.939 296.412ZM229.94 306.077L228.08 306.103L227.944 296.484L229.804 296.458L229.94 306.077ZM227.867 293.805C227.609 293.542 227.478 293.224 227.473 292.85C227.468 292.477 227.59 292.155 227.84 291.885C228.102 291.615 228.42 291.477 228.794 291.472C229.167 291.466 229.489 291.595 229.759 291.858C230.03 292.108 230.167 292.426 230.173 292.812C230.178 293.186 230.049 293.507 229.786 293.778C229.523 294.035 229.205 294.166 228.832 294.171C228.459 294.177 228.137 294.054 227.867 293.805ZM234.276 300.215L239.536 300.141C239.499 299.422 239.25 298.838 238.791 298.391C238.331 297.931 237.688 297.707 236.861 297.719C236.115 297.729 235.505 297.984 235.032 298.484C234.559 298.971 234.307 299.548 234.276 300.215ZM239.851 302.637L241.478 303.174C241.211 304.071 240.701 304.812 239.95 305.396C239.197 305.966 238.282 306.259 237.202 306.275C235.855 306.294 234.702 305.85 233.743 304.943C232.796 304.023 232.312 302.776 232.29 301.203C232.269 299.737 232.705 298.517 233.598 297.544C234.491 296.572 235.565 296.077 236.818 296.059C238.271 296.039 239.411 296.483 240.237 297.391C241.063 298.286 241.487 299.5 241.508 301.033C241.512 301.273 241.501 301.474 241.477 301.634L234.237 301.736C234.263 302.589 234.553 303.285 235.107 303.824C235.675 304.363 236.365 304.626 237.178 304.615C238.551 304.595 239.442 303.936 239.851 302.637ZM243.041 303.392L244.733 302.768C244.807 303.287 245.04 303.717 245.431 304.059C245.822 304.386 246.345 304.546 246.998 304.536C247.505 304.529 247.903 304.404 248.193 304.16C248.483 303.902 248.625 303.594 248.62 303.234C248.611 302.594 248.192 302.186 247.362 302.011L245.718 301.674C244.969 301.525 244.378 301.213 243.944 300.739C243.511 300.265 243.289 299.688 243.28 299.008C243.268 298.182 243.591 297.464 244.25 296.854C244.921 296.245 245.723 295.934 246.657 295.92C247.27 295.912 247.818 295.997 248.3 296.177C248.783 296.344 249.159 296.572 249.43 296.861C249.701 297.151 249.905 297.422 250.042 297.673C250.179 297.924 250.282 298.183 250.353 298.449L248.701 299.092C248.673 298.932 248.624 298.78 248.555 298.634C248.486 298.475 248.377 298.303 248.228 298.119C248.092 297.934 247.89 297.79 247.622 297.687C247.353 297.571 247.039 297.515 246.679 297.52C246.213 297.527 245.828 297.659 245.525 297.917C245.235 298.174 245.092 298.476 245.097 298.823C245.106 299.436 245.478 299.817 246.214 299.967L247.778 300.285C248.634 300.46 249.292 300.797 249.753 301.297C250.226 301.784 250.468 302.387 250.478 303.107C250.489 303.867 250.185 304.558 249.567 305.18C248.963 305.802 248.107 306.121 247.001 306.137C245.814 306.153 244.883 305.873 244.208 305.296C243.533 304.705 243.144 304.071 243.041 303.392Z" fill="#1A1D22"/>
<rect x="32" y="425.495" width="292.522" height="103" rx="51.5" transform="rotate(-5 32 425.495)" fill="#FFF959"/>
<path d="M88.2281 492.851L80.5853 493.519L78.4671 469.308L69.7643 470.069L69.3104 464.881C71.9106 464.616 74.0293 463.775 75.6667 462.357C77.3008 460.903 78.2192 459.192 78.4219 457.226L85.0605 456.645L88.2281 492.851ZM119.79 454.45L118.217 460.883C116.134 460.204 114.106 459.95 112.135 460.122C108.974 460.399 106.357 461.546 104.285 463.564C102.247 465.541 101.168 468.202 101.049 471.548C101.695 470.367 102.728 469.321 104.147 468.41C105.604 467.496 107.318 466.952 109.289 466.78C113.045 466.451 116.154 467.285 118.614 469.281C121.112 471.273 122.524 474.129 122.849 477.848C123.171 481.53 122.099 484.697 119.633 487.349C117.2 489.96 113.976 491.441 109.959 491.793C105.794 492.157 102.171 491.012 99.0907 488.359C96.0443 485.665 94.2917 481.696 93.8329 476.452C93.2667 469.98 94.657 464.668 98.0038 460.516C101.347 456.325 106.032 453.967 112.057 453.44C115.218 453.163 117.796 453.5 119.79 454.45ZM102.446 479.802C102.602 481.587 103.344 483.002 104.672 484.048C106.034 485.053 107.589 485.479 109.337 485.326C111.16 485.167 112.636 484.475 113.765 483.252C114.895 482.029 115.38 480.506 115.221 478.684C115.061 476.862 114.321 475.465 112.999 474.494C111.674 473.485 110.101 473.061 108.278 473.22C106.493 473.377 105.036 474.066 103.906 475.289C102.773 476.475 102.286 477.979 102.446 479.802ZM134.893 461.279C133.77 463.439 133.387 466.564 133.745 470.655C134.103 474.746 135.023 477.757 136.503 479.689C137.903 481.553 139.812 482.379 142.229 482.167C144.609 481.959 146.327 480.816 147.382 478.737C148.545 476.612 148.946 473.485 148.585 469.357C148.223 465.229 147.286 462.219 145.771 460.328C144.371 458.464 142.481 457.636 140.101 457.844C137.684 458.056 135.947 459.201 134.893 461.279ZM130.354 483.937C127.951 480.887 126.515 476.684 126.047 471.329C125.578 465.973 126.262 461.585 128.099 458.164C130.459 453.872 134.262 451.497 139.506 451.038C144.749 450.58 148.888 452.26 151.92 456.08C154.364 459.164 155.818 463.365 156.283 468.683C156.749 474.002 156.046 478.392 154.175 481.853C151.852 486.141 148.068 488.515 142.824 488.973C137.58 489.432 133.424 487.753 130.354 483.937Z" fill="#1A1D22"/>
<path d="M178.301 463.188L176.448 463.35L175.279 449.981L177.092 449.822L177.223 451.317C177.457 450.787 177.84 450.339 178.37 449.971C178.9 449.604 179.537 449.387 180.281 449.322C181.662 449.202 182.779 449.579 183.632 450.455C184.498 451.329 184.995 452.49 185.121 453.938C185.249 455.399 184.95 456.643 184.223 457.671C183.51 458.697 182.469 459.27 181.101 459.389C180.397 459.451 179.76 459.359 179.19 459.115C178.62 458.87 178.175 458.534 177.857 458.107L178.301 463.188ZM183.209 454.105C183.124 453.136 182.795 452.361 182.222 451.783C181.662 451.189 180.95 450.93 180.086 451.006C179.236 451.08 178.574 451.459 178.098 452.143C177.635 452.813 177.445 453.633 177.53 454.602C177.617 455.598 177.948 456.393 178.522 456.985C179.108 457.563 179.826 457.814 180.676 457.74C181.526 457.666 182.182 457.294 182.646 456.624C183.108 455.941 183.296 455.102 183.209 454.105ZM192.4 448.383L192.574 450.375C192.292 450.359 192.018 450.363 191.752 450.387C189.999 450.54 189.208 451.6 189.38 453.565L189.8 458.367L187.928 458.531L187.089 448.948L188.922 448.787L189.069 450.461C189.546 449.188 190.449 448.493 191.777 448.377C191.99 448.358 192.197 448.36 192.4 448.383ZM196.92 455.456C197.557 456.002 198.293 456.239 199.13 456.166C199.967 456.092 200.645 455.732 201.164 455.084C201.695 454.422 201.913 453.553 201.819 452.477C201.726 451.415 201.361 450.61 200.724 450.063C200.1 449.502 199.369 449.258 198.532 449.332C197.696 449.405 197.012 449.773 196.481 450.435C195.962 451.082 195.749 451.938 195.842 453C195.936 454.076 196.295 454.894 196.92 455.456ZM194.987 449.421C195.832 448.37 196.965 447.782 198.386 447.658C199.807 447.534 201.018 447.916 202.02 448.806C203.033 449.681 203.604 450.849 203.732 452.31C203.861 453.784 203.509 455.046 202.678 456.096C201.845 457.133 200.711 457.714 199.277 457.839C197.842 457.965 196.625 457.589 195.625 456.713C194.623 455.824 194.058 454.642 193.929 453.167C193.801 451.706 194.154 450.458 194.987 449.421ZM210.679 448.59L208.368 448.792L209.058 456.682L207.126 456.851L206.435 448.961L204.662 449.117L204.514 447.423L206.287 447.268L206.146 445.654C206.057 444.631 206.285 443.802 206.832 443.165C207.378 442.528 208.103 442.17 209.006 442.091C209.578 442.041 209.955 442.075 210.14 442.193L210.286 443.866C210.08 443.804 209.804 443.788 209.459 443.818C209.047 443.854 208.699 444.012 208.416 444.291C208.145 444.556 208.035 444.987 208.087 445.585L208.22 447.099L210.531 446.897L210.679 448.59ZM213.698 450.454L218.938 449.996C218.849 449.281 218.558 448.717 218.067 448.305C217.575 447.88 216.917 447.703 216.094 447.775C215.35 447.84 214.76 448.139 214.325 448.673C213.889 449.193 213.68 449.787 213.698 450.454ZM219.435 452.462L221.097 452.879C220.896 453.793 220.442 454.569 219.735 455.206C219.027 455.83 218.135 456.189 217.059 456.283C215.717 456.401 214.535 456.043 213.512 455.209C212.501 454.36 211.926 453.152 211.789 451.585C211.661 450.124 212.007 448.876 212.827 447.84C213.646 446.805 214.68 446.232 215.929 446.123C217.377 445.997 218.546 446.356 219.436 447.202C220.326 448.034 220.837 449.214 220.971 450.741C220.992 450.981 220.996 451.181 220.983 451.343L213.771 451.974C213.858 452.823 214.198 453.495 214.791 453.992C215.396 454.488 216.104 454.701 216.914 454.63C218.282 454.51 219.123 453.787 219.435 452.462ZM222.672 452.982L224.314 452.236C224.425 452.748 224.689 453.16 225.104 453.472C225.519 453.77 226.051 453.891 226.702 453.834C227.207 453.79 227.595 453.635 227.866 453.37C228.136 453.093 228.255 452.774 228.224 452.416C228.168 451.778 227.721 451.402 226.881 451.288L225.216 451.073C224.458 450.978 223.846 450.711 223.379 450.27C222.912 449.829 222.649 449.27 222.589 448.592C222.517 447.769 222.787 447.029 223.399 446.373C224.024 445.716 224.802 445.347 225.731 445.266C226.342 445.212 226.895 445.258 227.39 445.402C227.883 445.532 228.275 445.732 228.566 446.001C228.858 446.27 229.081 446.525 229.236 446.766C229.39 447.007 229.513 447.257 229.602 447.517L228.003 448.279C227.962 448.122 227.902 447.973 227.823 447.833C227.743 447.68 227.621 447.516 227.459 447.343C227.31 447.169 227.098 447.04 226.823 446.957C226.547 446.861 226.23 446.828 225.871 446.86C225.406 446.9 225.032 447.06 224.748 447.339C224.478 447.617 224.358 447.929 224.389 448.274C224.442 448.885 224.841 449.238 225.585 449.334L227.169 449.537C228.036 449.648 228.717 449.937 229.212 450.402C229.72 450.853 230.006 451.437 230.068 452.154C230.135 452.911 229.882 453.622 229.311 454.288C228.754 454.952 227.924 455.333 226.821 455.429C225.639 455.533 224.691 455.321 223.975 454.795C223.259 454.255 222.825 453.651 222.672 452.982ZM231.681 452.193L233.322 451.448C233.434 451.96 233.697 452.372 234.113 452.683C234.527 452.982 235.06 453.102 235.71 453.046C236.215 453.001 236.603 452.847 236.875 452.582C237.145 452.304 237.264 451.986 237.233 451.627C237.177 450.99 236.729 450.614 235.889 450.5L234.224 450.285C233.466 450.19 232.854 449.923 232.387 449.482C231.92 449.041 231.657 448.481 231.598 447.804C231.526 446.98 231.796 446.241 232.408 445.585C233.033 444.928 233.81 444.559 234.74 444.478C235.351 444.424 235.904 444.469 236.398 444.614C236.891 444.744 237.284 444.944 237.575 445.213C237.866 445.482 238.089 445.737 238.244 445.978C238.399 446.219 238.521 446.469 238.611 446.729L237.011 447.491C236.971 447.334 236.911 447.185 236.832 447.045C236.751 446.891 236.63 446.728 236.468 446.555C236.319 446.381 236.107 446.252 235.832 446.169C235.555 446.073 235.238 446.04 234.879 446.071C234.415 446.112 234.04 446.272 233.757 446.551C233.487 446.829 233.367 447.141 233.397 447.486C233.451 448.097 233.85 448.45 234.594 448.546L236.178 448.748C237.044 448.86 237.725 449.148 238.221 449.614C238.729 450.064 239.014 450.648 239.077 451.366C239.143 452.123 238.891 452.834 238.32 453.5C237.762 454.164 236.932 454.545 235.83 454.641C234.648 454.745 233.699 454.533 232.984 454.007C232.267 453.467 231.833 452.863 231.681 452.193ZM243.657 453.655L241.804 453.817L240.965 444.234L242.818 444.072L243.657 453.655ZM240.692 441.568C240.416 441.324 240.262 441.016 240.23 440.644C240.197 440.273 240.296 439.943 240.525 439.655C240.767 439.366 241.074 439.205 241.446 439.173C241.818 439.14 242.148 439.245 242.437 439.488C242.725 439.717 242.886 440.024 242.92 440.409C242.952 440.781 242.847 441.111 242.605 441.4C242.361 441.676 242.053 441.83 241.681 441.863C241.31 441.895 240.98 441.797 240.692 441.568ZM248.617 450.933C249.254 451.479 249.99 451.716 250.827 451.643C251.664 451.569 252.342 451.209 252.861 450.561C253.392 449.899 253.61 449.03 253.516 447.954C253.423 446.892 253.058 446.087 252.421 445.541C251.797 444.979 251.066 444.736 250.229 444.809C249.393 444.882 248.709 445.25 248.178 445.912C247.659 446.559 247.446 447.415 247.539 448.477C247.633 449.553 247.992 450.372 248.617 450.933ZM246.684 444.898C247.529 443.847 248.662 443.26 250.083 443.135C251.504 443.011 252.715 443.393 253.717 444.283C254.73 445.158 255.301 446.326 255.429 447.787C255.558 449.261 255.206 450.523 254.375 451.573C253.542 452.61 252.408 453.191 250.974 453.316C249.539 453.442 248.322 453.066 247.322 452.19C246.32 451.301 245.755 450.119 245.626 448.645C245.498 447.183 245.851 445.935 246.684 444.898ZM259.633 446.676L260.118 452.215L258.245 452.379L257.407 442.796L259.24 442.635L259.36 444.01C259.901 442.852 260.836 442.215 262.164 442.098C263.266 442.002 264.141 442.28 264.787 442.933C265.446 443.585 265.824 444.468 265.922 445.584L266.454 451.661L264.581 451.825L264.077 446.067C263.936 444.459 263.122 443.721 261.635 443.851C260.931 443.913 260.402 444.213 260.047 444.753C259.705 445.278 259.567 445.919 259.633 446.676ZM268.61 448.882C268.538 448.059 268.746 447.378 269.235 446.84C269.722 446.289 270.398 445.915 271.265 445.719L273.822 445.114C274.307 445.004 274.532 444.744 274.496 444.332C274.452 443.827 274.243 443.431 273.87 443.142C273.497 442.853 272.965 442.739 272.274 442.8C271.636 442.856 271.147 443.079 270.807 443.47C270.465 443.848 270.287 444.332 270.271 444.922L268.442 444.661C268.454 443.736 268.808 442.956 269.502 442.32C270.194 441.67 271.059 441.3 272.095 441.209C273.449 441.091 274.481 441.335 275.19 441.942C275.898 442.536 276.297 443.345 276.386 444.367L276.806 449.169C276.856 449.74 276.942 450.261 277.064 450.733L275.231 450.893C275.129 450.5 275.058 450.071 275.018 449.607C274.789 450.055 274.43 450.461 273.94 450.825C273.463 451.188 272.839 451.403 272.069 451.471C271.126 451.553 270.331 451.342 269.685 450.836C269.037 450.317 268.679 449.666 268.61 448.882ZM272.19 449.874C273.027 449.801 273.678 449.516 274.143 449.021C274.608 448.525 274.798 447.785 274.712 446.803L274.674 446.364L271.783 447.059C271.364 447.162 271.039 447.345 270.807 447.606C270.576 447.867 270.478 448.204 270.514 448.615C270.547 448.987 270.715 449.3 271.018 449.555C271.335 449.808 271.725 449.915 272.19 449.874ZM281.734 450.324L279.862 450.488L278.6 436.063L280.472 435.899L281.734 450.324ZM283.806 447.633L285.447 446.887C285.559 447.399 285.823 447.811 286.238 448.123C286.652 448.421 287.185 448.542 287.836 448.485C288.34 448.441 288.728 448.287 289 448.022C289.27 447.744 289.389 447.426 289.358 447.067C289.302 446.43 288.854 446.054 288.014 445.94L286.349 445.724C285.591 445.63 284.979 445.362 284.512 444.921C284.045 444.48 283.782 443.921 283.723 443.244C283.651 442.42 283.921 441.68 284.533 441.025C285.158 440.368 285.935 439.999 286.865 439.917C287.476 439.864 288.029 439.909 288.523 440.053C289.017 440.184 289.409 440.384 289.7 440.653C289.991 440.922 290.214 441.177 290.369 441.417C290.524 441.658 290.646 441.909 290.736 442.168L289.136 442.931C289.096 442.774 289.036 442.625 288.957 442.485C288.876 442.331 288.755 442.168 288.593 441.994C288.444 441.82 288.232 441.691 287.957 441.608C287.681 441.512 287.363 441.48 287.005 441.511C286.54 441.552 286.166 441.712 285.882 441.991C285.612 442.269 285.492 442.58 285.522 442.926C285.576 443.537 285.975 443.89 286.719 443.985L288.303 444.188C289.169 444.3 289.85 444.588 290.346 445.053C290.854 445.504 291.139 446.088 291.202 446.805C291.268 447.562 291.016 448.274 290.445 448.939C289.888 449.604 289.058 449.984 287.955 450.081C286.773 450.184 285.824 449.973 285.109 449.446C284.393 448.907 283.958 448.302 283.806 447.633ZM180.149 484.307L178.296 484.469L177.458 474.886L179.311 474.724L180.149 484.307ZM177.184 472.219C176.909 471.976 176.755 471.668 176.722 471.296C176.69 470.924 176.788 470.594 177.017 470.307C177.259 470.018 177.567 469.857 177.938 469.825C178.31 469.792 178.641 469.897 178.93 470.139C179.217 470.368 179.378 470.676 179.412 471.061C179.444 471.433 179.339 471.763 179.097 472.052C178.853 472.328 178.546 472.482 178.174 472.514C177.802 472.547 177.472 472.449 177.184 472.219ZM184.724 478.326L185.208 483.864L183.336 484.028L182.497 474.445L184.33 474.284L184.45 475.659C184.991 474.501 185.926 473.864 187.254 473.748C188.357 473.651 189.231 473.929 189.877 474.582C190.536 475.234 190.915 476.118 191.013 477.233L191.544 483.31L189.671 483.474L189.168 477.716C189.027 476.109 188.213 475.37 186.725 475.5C186.021 475.562 185.492 475.863 185.138 476.402C184.796 476.927 184.658 477.568 184.724 478.326ZM200.911 469.782L201.176 472.811L203.248 472.629L203.396 474.323L201.324 474.504L201.76 479.485C201.8 479.937 201.928 480.26 202.146 480.455C202.377 480.649 202.732 480.725 203.21 480.683C203.489 480.659 203.732 480.611 203.94 480.539L204.08 482.133C203.771 482.28 203.352 482.377 202.82 482.424C201.997 482.496 201.325 482.314 200.805 481.877C200.285 481.441 199.987 480.791 199.912 479.928L199.452 474.668L197.619 474.828L197.47 473.135L197.988 473.09C198.48 473.047 198.833 472.882 199.049 472.595C199.277 472.294 199.372 471.924 199.334 471.486L199.198 469.932L200.911 469.782ZM207.199 476.118L212.439 475.66C212.35 474.945 212.06 474.381 211.568 473.969C211.076 473.544 210.418 473.367 209.595 473.439C208.851 473.504 208.261 473.804 207.826 474.337C207.39 474.857 207.181 475.451 207.199 476.118ZM212.936 478.126L214.599 478.543C214.398 479.457 213.943 480.233 213.236 480.87C212.528 481.494 211.636 481.853 210.56 481.948C209.218 482.065 208.036 481.707 207.013 480.873C206.002 480.024 205.428 478.816 205.29 477.249C205.163 475.788 205.508 474.54 206.328 473.504C207.148 472.469 208.182 471.897 209.43 471.787C210.878 471.661 212.047 472.02 212.937 472.866C213.827 473.698 214.338 474.878 214.472 476.405C214.493 476.645 214.497 476.845 214.484 477.007L207.272 477.638C207.359 478.487 207.699 479.16 208.292 479.657C208.897 480.152 209.605 480.365 210.415 480.294C211.783 480.174 212.624 479.452 212.936 478.126ZM216.465 478.54C216.393 477.716 216.601 477.036 217.09 476.498C217.577 475.946 218.253 475.573 219.12 475.376L221.677 474.771C222.162 474.662 222.387 474.401 222.351 473.99C222.307 473.485 222.098 473.088 221.725 472.8C221.352 472.511 220.82 472.397 220.129 472.457C219.492 472.513 219.002 472.737 218.662 473.128C218.32 473.506 218.142 473.99 218.126 474.58L216.297 474.319C216.31 473.394 216.663 472.613 217.357 471.977C218.049 471.328 218.914 470.958 219.95 470.867C221.305 470.748 222.337 470.993 223.045 471.6C223.753 472.194 224.152 473.002 224.241 474.025L224.661 478.827C224.711 479.398 224.797 479.919 224.919 480.39L223.086 480.551C222.984 480.158 222.913 479.729 222.873 479.264C222.644 479.712 222.285 480.119 221.795 480.483C221.318 480.846 220.694 481.061 219.924 481.128C218.981 481.211 218.186 480.999 217.54 480.494C216.892 479.975 216.534 479.324 216.465 478.54ZM220.045 479.532C220.882 479.458 221.533 479.174 221.998 478.678C222.464 478.182 222.653 477.443 222.567 476.46L222.529 476.022L219.638 476.716C219.219 476.82 218.894 477.002 218.662 477.264C218.431 477.525 218.333 477.861 218.369 478.273C218.402 478.645 218.57 478.958 218.873 479.213C219.19 479.466 219.58 479.572 220.045 479.532ZM229.57 479.983L227.717 480.145L226.878 470.562L228.671 470.405L228.783 471.68C229.031 471.15 229.409 470.729 229.917 470.417C230.425 470.104 230.972 469.923 231.556 469.872C232.18 469.817 232.765 469.92 233.31 470.18C233.854 470.44 234.279 470.858 234.584 471.434C235.142 470.167 236.158 469.469 237.633 469.34C238.549 469.26 239.354 469.504 240.046 470.072C240.751 470.64 241.156 471.515 241.259 472.697L241.803 478.913L239.95 479.075L239.424 473.058C239.366 472.394 239.146 471.878 238.766 471.509C238.399 471.14 237.877 470.985 237.2 471.044C236.549 471.101 236.038 471.38 235.667 471.881C235.295 472.369 235.139 472.958 235.199 473.649L235.706 479.446L233.833 479.61L233.307 473.593C233.249 472.929 233.03 472.413 232.65 472.045C232.283 471.675 231.76 471.52 231.083 471.579C230.419 471.637 229.901 471.91 229.528 472.398C229.156 472.886 229.001 473.488 229.064 474.205L229.57 479.983Z" fill="#1A1D22"/>
<rect x="108.261" y="317" width="287" height="103" rx="51.5" transform="rotate(4.04229 108.261 317)" fill="#3287F5"/>
<path d="M137.445 381.024L144.765 379.914C144.718 381.632 145.249 383.129 146.356 384.405C147.504 385.646 149.027 386.334 150.926 386.468C152.714 386.595 154.242 386.16 155.51 385.164C156.778 384.168 157.475 382.777 157.601 380.989C157.741 379.015 157.214 377.462 156.022 376.33C154.866 375.201 153.395 374.573 151.607 374.446C149.336 374.286 147.416 374.974 145.848 376.509C143.275 375.317 140.985 374.351 138.979 373.61L144.595 355.312L165.04 356.757L164.57 363.405L149.376 362.331L147.024 370.193C148.731 368.816 150.962 368.225 153.718 368.42C157.442 368.683 160.363 369.975 162.482 372.296C164.604 374.579 165.53 377.62 165.262 381.418C165.015 384.919 163.538 387.809 160.832 390.088C158.126 392.366 154.669 393.357 150.461 393.06C146.662 392.791 143.537 391.466 141.085 389.085C138.671 386.706 137.457 384.019 137.445 381.024ZM179.758 366.78C178.31 368.736 177.441 371.762 177.151 375.859C176.862 379.955 177.296 383.073 178.455 385.214C179.544 387.274 181.299 388.39 183.72 388.561C186.104 388.73 187.979 387.87 189.348 385.983C190.831 384.067 191.718 381.042 192.01 376.909C192.302 372.775 191.849 369.655 190.651 367.549C189.561 365.489 187.825 364.374 185.441 364.206C183.021 364.035 181.126 364.893 179.758 366.78ZM171.715 388.443C169.821 385.053 169.063 380.676 169.442 375.314C169.821 369.951 171.187 365.725 173.538 362.635C176.544 358.768 180.672 357.02 185.923 357.391C191.174 357.762 194.996 360.072 197.391 364.321C199.319 367.75 200.095 372.128 199.719 377.453C199.343 382.779 197.959 387.004 195.567 390.128C192.599 393.998 188.489 395.747 183.239 395.376C177.988 395.005 174.146 392.694 171.715 388.443ZM205.174 376.435L215.731 377.181L216.501 366.289L222.758 366.731L221.988 377.624L232.601 378.374L232.171 384.462L221.557 383.712L220.784 394.661L214.527 394.219L215.301 383.27L204.743 382.524L205.174 376.435Z" fill="white"/>
<path d="M260.295 364.716L262.23 364.853L264.214 372.251L266.839 365.179L268.814 365.318L265.024 374.694L263.088 374.558L261.051 367.075L258.041 374.201L256.066 374.061L253.592 364.243L255.647 364.388L257.291 371.762L260.295 364.716ZM272.305 369.535L271.906 375.181L270.031 375.048L271.051 360.604L272.927 360.737L272.505 366.702C273.209 365.816 274.213 365.419 275.516 365.511C276.62 365.589 277.44 366.001 277.975 366.748C278.524 367.495 278.759 368.427 278.68 369.544L278.25 375.629L276.375 375.497L276.782 369.731C276.896 368.122 276.208 367.264 274.718 367.159C274.027 367.11 273.471 367.311 273.052 367.763C272.633 368.201 272.384 368.792 272.305 369.535ZM283.088 375.971L281.233 375.84L281.911 366.244L283.767 366.375L283.088 375.971ZM282.06 363.568C281.826 363.284 281.722 362.956 281.749 362.583C281.775 362.211 281.924 361.901 282.196 361.652C282.48 361.405 282.809 361.295 283.181 361.321C283.554 361.347 283.864 361.503 284.111 361.788C284.359 362.059 284.469 362.388 284.442 362.774C284.416 363.146 284.26 363.456 283.975 363.703C283.692 363.937 283.363 364.041 282.991 364.014C282.619 363.988 282.308 363.839 282.06 363.568ZM289.685 363.746L289.471 366.778L291.546 366.925L291.426 368.62L289.351 368.474L288.999 373.461C288.967 373.914 289.043 374.253 289.227 374.48C289.425 374.708 289.763 374.839 290.242 374.873C290.522 374.892 290.769 374.883 290.986 374.845L290.873 376.441C290.546 376.538 290.116 376.568 289.584 376.53C288.759 376.472 288.124 376.187 287.679 375.674C287.234 375.161 287.042 374.473 287.104 373.608L287.476 368.341L285.64 368.212L285.76 366.516L286.279 366.552C286.771 366.587 287.146 366.48 287.404 366.231C287.677 365.97 287.829 365.619 287.86 365.18L287.969 363.624L289.685 363.746ZM294.899 370.991L300.146 371.362C300.17 370.642 299.972 370.04 299.552 369.556C299.133 369.058 298.511 368.78 297.686 368.722C296.941 368.669 296.312 368.872 295.798 369.33C295.286 369.775 294.986 370.329 294.899 370.991ZM300.249 373.875L301.826 374.548C301.483 375.42 300.913 376.114 300.114 376.633C299.317 377.138 298.379 377.352 297.302 377.276C295.959 377.181 294.847 376.642 293.968 375.657C293.103 374.66 292.726 373.377 292.836 371.808C292.94 370.345 293.478 369.166 294.45 368.273C295.422 367.379 296.533 366.976 297.783 367.065C299.233 367.167 300.331 367.706 301.077 368.681C301.825 369.643 302.144 370.888 302.036 372.418C302.019 372.657 301.992 372.856 301.954 373.014L294.732 372.503C294.685 373.355 294.915 374.073 295.422 374.657C295.942 375.242 296.608 375.563 297.419 375.62C298.789 375.717 299.732 375.136 300.249 373.875ZM310.949 377.94L309.074 377.807L310.094 363.363L311.97 363.496L310.949 377.94ZM313.723 375.549C313.781 374.725 314.093 374.085 314.66 373.631C315.228 373.163 315.955 372.9 316.841 372.843L319.462 372.647C319.958 372.615 320.221 372.393 320.25 371.981C320.286 371.475 320.142 371.051 319.819 370.707C319.496 370.363 318.988 370.167 318.297 370.118C317.658 370.073 317.14 370.217 316.743 370.55C316.346 370.869 316.093 371.319 315.986 371.9L314.22 371.354C314.378 370.443 314.849 369.728 315.634 369.208C316.421 368.676 317.332 368.446 318.37 368.52C319.726 368.615 320.707 369.019 321.312 369.73C321.917 370.428 322.184 371.289 322.112 372.313L321.772 377.121C321.731 377.693 321.734 378.221 321.78 378.705L319.945 378.576C319.906 378.172 319.904 377.737 319.937 377.272C319.641 377.679 319.222 378.023 318.681 378.306C318.153 378.589 317.503 378.704 316.732 378.649C315.787 378.583 315.036 378.249 314.477 377.648C313.918 377.034 313.667 376.334 313.723 375.549ZM317.102 377.091C317.94 377.151 318.628 376.972 319.165 376.556C319.703 376.139 320.006 375.439 320.076 374.455L320.107 374.016L317.143 374.247C316.713 374.284 316.363 374.413 316.093 374.634C315.823 374.856 315.674 375.173 315.645 375.585C315.619 375.957 315.735 376.293 315.995 376.592C316.268 376.892 316.637 377.059 317.102 377.091ZM326.437 379.034L324.582 378.903L325.603 364.459L327.458 364.59L327.02 370.795C327.305 370.347 327.731 369.99 328.298 369.722C328.88 369.443 329.549 369.33 330.307 369.383C331.704 369.482 332.754 370.031 333.459 371.029C334.164 372.028 334.464 373.259 334.361 374.722C334.257 376.199 333.771 377.394 332.905 378.308C332.039 379.21 330.914 379.611 329.531 379.514C328.095 379.412 327.096 378.787 326.536 377.638L326.437 379.034ZM331.492 377.026C332.054 376.437 332.372 375.624 332.446 374.587C332.519 373.549 332.318 372.713 331.841 372.078C331.379 371.43 330.716 371.076 329.851 371.015C329.013 370.956 328.307 371.213 327.731 371.788C327.156 372.362 326.832 373.161 326.76 374.185C326.688 375.209 326.895 376.059 327.382 376.735C327.87 377.398 328.532 377.759 329.37 377.818C330.222 377.878 330.929 377.614 331.492 377.026ZM338.034 374.039L343.281 374.41C343.305 373.69 343.107 373.088 342.687 372.604C342.267 372.106 341.645 371.828 340.821 371.77C340.076 371.718 339.447 371.92 338.933 372.379C338.42 372.824 338.121 373.377 338.034 374.039ZM343.384 376.924L344.96 377.597C344.618 378.468 344.048 379.163 343.249 379.681C342.451 380.186 341.514 380.401 340.437 380.324C339.093 380.23 337.982 379.69 337.103 378.705C336.237 377.709 335.86 376.425 335.971 374.856C336.074 373.393 336.612 372.215 337.584 371.321C338.556 370.427 339.667 370.025 340.918 370.113C342.367 370.215 343.466 370.754 344.212 371.729C344.959 372.691 345.279 373.937 345.171 375.466C345.154 375.705 345.127 375.904 345.089 376.062L337.867 375.551C337.82 376.404 338.05 377.122 338.557 377.705C339.077 378.29 339.742 378.611 340.554 378.669C341.924 378.765 342.867 378.184 343.384 376.924ZM349.096 380.636L347.221 380.503L348.242 366.059L350.117 366.192L349.096 380.636ZM254.304 398.999L252.448 398.868L253.469 384.424L255.324 384.555L254.886 390.76C255.172 390.312 255.598 389.955 256.165 389.687C256.746 389.407 257.415 389.294 258.174 389.348C259.57 389.447 260.621 389.995 261.325 390.994C262.03 391.993 262.331 393.224 262.227 394.687C262.123 396.163 261.638 397.359 260.771 398.273C259.905 399.174 258.781 399.576 257.398 399.478C255.961 399.377 254.963 398.752 254.402 397.603L254.304 398.999ZM259.358 396.99C259.921 396.402 260.239 395.589 260.312 394.552C260.385 393.514 260.184 392.678 259.707 392.043C259.245 391.395 258.582 391.041 257.717 390.98C256.88 390.921 256.173 391.178 255.598 391.752C255.022 392.327 254.699 393.126 254.626 394.15C254.554 395.174 254.761 396.024 255.248 396.7C255.736 397.363 256.399 397.724 257.237 397.783C258.088 397.843 258.795 397.579 259.358 396.99ZM266.076 391.51L264.138 391.133C264.133 391.012 264.139 390.839 264.155 390.613C264.237 389.456 264.712 388.5 265.58 387.746C266.45 386.979 267.563 386.643 268.92 386.739C270.263 386.834 271.3 387.295 272.03 388.122C272.761 388.935 273.087 389.901 273.008 391.018C272.893 392.654 271.987 393.926 270.292 394.836L267.623 396.291C266.664 396.812 266.096 397.38 265.919 397.995L272.562 398.465L272.434 400.28L263.376 399.64C263.48 398.552 263.794 397.611 264.318 396.82C264.855 396.029 265.686 395.326 266.813 394.71L269.066 393.466C270.303 392.792 270.958 391.936 271.032 390.898C271.077 390.26 270.902 389.706 270.508 389.237C270.113 388.768 269.53 388.506 268.759 388.452C267.947 388.395 267.311 388.597 266.851 389.059C266.391 389.521 266.133 390.144 266.077 390.929C266.069 391.049 266.068 391.243 266.076 391.51ZM276.689 400.581L274.834 400.45L275.855 386.006L277.71 386.137L277.271 392.342C277.557 391.894 277.983 391.536 278.55 391.269C279.131 390.989 279.801 390.876 280.559 390.93C281.956 391.029 283.006 391.577 283.711 392.576C284.416 393.575 284.716 394.806 284.613 396.269C284.509 397.745 284.023 398.941 283.156 399.855C282.291 400.756 281.166 401.158 279.783 401.06C278.347 400.959 277.348 400.334 276.788 399.185L276.689 400.581ZM281.743 398.572C282.306 397.984 282.624 397.171 282.698 396.134C282.771 395.096 282.569 394.26 282.093 393.625C281.631 392.977 280.968 392.623 280.103 392.562C279.265 392.503 278.559 392.76 277.983 393.334C277.408 393.909 277.084 394.708 277.012 395.732C276.939 396.756 277.147 397.606 277.634 398.282C278.121 398.945 278.784 399.306 279.622 399.365C280.473 399.425 281.181 399.161 281.743 398.572ZM296.254 393.763C295.443 393.706 294.73 393.95 294.117 394.494C293.517 395.04 293.18 395.845 293.104 396.909C293.03 397.96 293.251 398.804 293.767 399.442C294.297 400.081 294.974 400.43 295.799 400.488C296.597 400.544 297.216 400.388 297.657 400.018C298.11 399.649 298.429 399.21 298.612 398.702L300.217 399.537C299.894 400.316 299.34 400.979 298.553 401.525C297.779 402.071 296.82 402.304 295.676 402.224C294.28 402.125 293.157 401.558 292.308 400.522C291.459 399.486 291.086 398.237 291.189 396.774C291.294 395.284 291.839 394.1 292.824 393.22C293.809 392.327 294.993 391.93 296.377 392.028C297.547 392.11 298.47 392.476 299.146 393.126C299.835 393.776 300.263 394.528 300.43 395.382L298.684 395.98C298.577 395.411 298.331 394.913 297.947 394.484C297.563 394.056 296.999 393.816 296.254 393.763ZM304.102 402.518L302.226 402.386L303.247 387.942L305.123 388.074L304.102 402.518ZM309.147 402.875L307.292 402.744L307.97 393.148L309.825 393.279L309.147 402.875ZM308.119 390.472C307.885 390.188 307.781 389.86 307.808 389.487C307.834 389.115 307.983 388.804 308.254 388.556C308.539 388.309 308.868 388.199 309.24 388.225C309.613 388.251 309.922 388.407 310.17 388.692C310.418 388.963 310.528 389.292 310.501 389.677C310.475 390.05 310.319 390.36 310.034 390.607C309.75 390.841 309.422 390.945 309.05 390.918C308.678 390.892 308.367 390.743 308.119 390.472ZM313.964 397.401L319.211 397.772C319.235 397.051 319.037 396.449 318.617 395.965C318.197 395.468 317.575 395.19 316.751 395.132C316.006 395.079 315.377 395.282 314.863 395.74C314.35 396.185 314.051 396.739 313.964 397.401ZM319.314 400.285L320.89 400.958C320.548 401.829 319.978 402.524 319.179 403.042C318.381 403.547 317.444 403.762 316.367 403.686C315.023 403.591 313.912 403.051 313.033 402.067C312.167 401.07 311.79 399.787 311.901 398.217C312.004 396.754 312.542 395.576 313.514 394.682C314.486 393.789 315.598 393.386 316.848 393.474C318.297 393.577 319.396 394.115 320.142 395.091C320.889 396.052 321.209 397.298 321.101 398.827C321.084 399.067 321.057 399.265 321.019 399.423L313.797 398.913C313.75 399.765 313.98 400.483 314.487 401.067C315.007 401.652 315.672 401.973 316.484 402.03C317.854 402.127 318.797 401.545 319.314 400.285ZM325.418 398.451L325.026 403.997L323.151 403.864L323.829 394.268L325.664 394.398L325.567 395.775C326.284 394.716 327.307 394.233 328.637 394.327C329.741 394.405 330.56 394.818 331.096 395.564C331.644 396.311 331.879 397.243 331.8 398.361L331.37 404.445L329.495 404.313L329.902 398.547C330.016 396.938 329.328 396.081 327.839 395.975C327.134 395.925 326.564 396.139 326.129 396.616C325.709 397.081 325.472 397.693 325.418 398.451ZM337.76 392.205L337.545 395.238L339.62 395.384L339.5 397.08L337.425 396.933L337.073 401.921C337.041 402.373 337.117 402.713 337.302 402.94C337.499 403.168 337.838 403.298 338.317 403.332C338.596 403.352 338.844 403.343 339.06 403.305L338.948 404.901C338.62 404.998 338.19 405.028 337.658 404.99C336.833 404.932 336.199 404.646 335.754 404.134C335.309 403.621 335.117 402.932 335.178 402.068L335.55 396.801L333.715 396.671L333.834 394.975L334.353 395.012C334.845 395.047 335.22 394.94 335.479 394.691C335.751 394.429 335.903 394.079 335.934 393.64L336.044 392.084L337.76 392.205ZM340.821 402.607L342.559 402.128C342.589 402.652 342.784 403.1 343.146 403.473C343.508 403.833 344.015 404.036 344.667 404.082C345.172 404.117 345.579 404.026 345.889 403.807C346.199 403.575 346.367 403.28 346.393 402.921C346.438 402.282 346.055 401.841 345.243 401.596L343.633 401.121C342.899 400.909 342.336 400.549 341.945 400.04C341.553 399.531 341.381 398.937 341.429 398.259C341.487 397.434 341.87 396.746 342.577 396.195C343.298 395.644 344.124 395.402 345.055 395.468C345.667 395.511 346.205 395.643 346.671 395.863C347.138 396.069 347.493 396.328 347.739 396.64C347.984 396.951 348.164 397.238 348.28 397.5C348.395 397.762 348.476 398.029 348.524 398.299L346.824 398.801C346.809 398.639 346.773 398.483 346.717 398.332C346.662 398.168 346.568 397.987 346.434 397.791C346.315 397.595 346.125 397.435 345.867 397.309C345.609 397.171 345.301 397.089 344.942 397.064C344.476 397.031 344.082 397.13 343.758 397.361C343.448 397.593 343.28 397.882 343.256 398.228C343.212 398.84 343.551 399.251 344.271 399.462L345.803 399.911C346.641 400.158 347.269 400.55 347.685 401.087C348.116 401.612 348.306 402.234 348.255 402.952C348.202 403.71 347.841 404.373 347.172 404.94C346.517 405.509 345.638 405.754 344.534 405.676C343.35 405.593 342.446 405.235 341.823 404.603C341.2 403.957 340.866 403.292 340.821 402.607Z" fill="white"/>
<rect x="47.2861" y="82.959" width="320" height="103" rx="51.5" transform="rotate(-3.18152 47.2861 82.959)" fill="#FFF959"/>
<path d="M109.061 115.236L109.418 121.666C108.6 122.422 107.822 123.213 107.082 124.04C106.343 124.866 105.299 126.27 103.951 128.252C102.639 130.194 101.499 132.221 100.532 134.331C99.5645 136.441 98.6844 139.107 97.8914 142.33C97.0983 145.552 96.648 148.886 96.5404 152.332L88.5448 152.777C88.6399 149.107 89.0975 145.567 89.9175 142.156C90.7726 138.706 91.7728 135.846 92.9179 133.576C94.0982 131.267 95.2568 129.24 96.3937 127.494C97.5658 125.709 98.5401 124.402 99.3166 123.574L100.54 122.384L81.8653 123.422L81.4955 116.768L109.061 115.236ZM111.918 141.27L119.041 139.247C119.211 140.958 119.925 142.376 121.184 143.503C122.479 144.59 124.076 145.081 125.977 144.975C127.767 144.876 129.228 144.252 130.36 143.105C131.493 141.958 132.01 140.489 131.91 138.7C131.8 136.725 131.083 135.25 129.757 134.277C128.469 133.301 126.931 132.864 125.141 132.963C122.868 133.089 121.049 134.013 119.687 135.734C116.984 134.875 114.591 134.204 112.508 133.721L115.778 114.863L136.243 113.725L136.613 120.379L121.404 121.224L120.059 129.319C121.579 127.739 123.719 126.873 126.477 126.719C130.205 126.512 133.265 127.426 135.659 129.462C138.051 131.46 139.353 134.36 139.564 138.163C139.759 141.666 138.657 144.719 136.259 147.32C133.861 149.921 130.556 151.339 126.344 151.573C122.542 151.784 119.275 150.863 116.544 148.809C113.849 146.752 112.307 144.239 111.918 141.27ZM152.104 121.817C150.913 123.94 150.432 127.052 150.66 131.152C150.888 135.252 151.711 138.291 153.13 140.269C154.47 142.176 156.351 143.062 158.774 142.928C161.16 142.795 162.913 141.707 164.033 139.663C165.263 137.575 165.763 134.463 165.533 130.325C165.303 126.188 164.461 123.15 163.007 121.211C161.667 119.304 159.805 118.417 157.419 118.549C154.996 118.684 153.224 119.773 152.104 121.817ZM146.849 144.32C144.544 141.195 143.242 136.949 142.944 131.581C142.646 126.213 143.469 121.849 145.413 118.488C147.908 114.273 151.784 112.02 157.04 111.728C162.296 111.436 166.378 113.247 169.288 117.161C171.632 120.321 172.953 124.566 173.249 129.896C173.545 135.227 172.704 139.592 170.724 142.993C168.266 147.205 164.409 149.457 159.153 149.749C153.897 150.041 149.796 148.232 146.849 144.32ZM205.234 146.29L192.802 130.492L188.183 136.189L188.795 147.204L181.079 147.633L178.875 107.99L186.591 107.561L187.589 125.51L202.471 106.679L212.591 106.116L197.84 124.267L214.907 145.753L205.234 146.29Z" fill="#1A1D22"/>
<path d="M236.977 109.252L237.088 111.248C236.807 111.224 236.533 111.219 236.266 111.234C234.509 111.332 233.685 112.366 233.795 114.336L234.062 119.149L232.185 119.253L231.651 109.648L233.488 109.546L233.582 111.223C234.099 109.966 235.024 109.3 236.355 109.226C236.568 109.214 236.775 109.223 236.977 109.252ZM240.316 112.992L245.568 112.7C245.502 111.983 245.229 111.41 244.752 110.983C244.273 110.542 243.621 110.345 242.796 110.39C242.05 110.432 241.451 110.712 241 111.231C240.547 111.737 240.319 112.324 240.316 112.992ZM245.986 115.181L247.635 115.65C247.405 116.557 246.927 117.318 246.2 117.933C245.472 118.534 244.569 118.865 243.49 118.925C242.146 119 240.975 118.604 239.979 117.738C238.995 116.858 238.46 115.632 238.373 114.062C238.291 112.597 238.676 111.36 239.528 110.352C240.38 109.343 241.432 108.804 242.684 108.734C244.135 108.653 245.292 109.05 246.155 109.923C247.017 110.783 247.491 111.979 247.576 113.51C247.589 113.75 247.587 113.95 247.57 114.111L240.341 114.513C240.401 115.364 240.72 116.048 241.296 116.563C241.885 117.078 242.586 117.313 243.398 117.268C244.769 117.191 245.632 116.496 245.986 115.181ZM249.573 118.807L251.367 118.287C251.471 118.962 251.775 119.506 252.279 119.919C252.783 120.345 253.395 120.538 254.114 120.498C256.071 120.389 256.992 119.296 256.876 117.219L256.8 115.842C256.586 116.321 256.228 116.721 255.725 117.043C255.235 117.364 254.644 117.544 253.952 117.582C252.674 117.653 251.591 117.28 250.705 116.461C249.83 115.628 249.355 114.533 249.28 113.175C249.207 111.857 249.558 110.729 250.334 109.791C251.109 108.84 252.142 108.328 253.433 108.257C254.898 108.175 255.911 108.626 256.473 109.61L256.399 108.272L258.256 108.169L258.75 117.055C258.785 117.694 258.732 118.291 258.589 118.847C258.46 119.415 258.229 119.942 257.896 120.428C257.562 120.914 257.077 121.308 256.439 121.61C255.815 121.912 255.07 122.087 254.205 122.135C253.02 122.201 251.996 121.918 251.133 121.284C250.271 120.665 249.751 119.839 249.573 118.807ZM254.144 115.989C254.956 115.944 255.599 115.628 256.074 115.041C256.548 114.44 256.76 113.68 256.709 112.762C256.657 111.843 256.363 111.119 255.827 110.587C255.289 110.043 254.614 109.794 253.802 109.839C252.976 109.885 252.32 110.202 251.832 110.79C251.357 111.377 251.145 112.136 251.197 113.068C251.25 114.013 251.538 114.752 252.061 115.284C252.598 115.801 253.292 116.037 254.144 115.989ZM263.645 117.504L261.788 117.607L261.254 108.002L263.111 107.899L263.645 117.504ZM261.065 105.329C260.797 105.076 260.653 104.764 260.633 104.391C260.612 104.018 260.721 103.692 260.959 103.412C261.21 103.131 261.522 102.98 261.895 102.959C262.268 102.938 262.595 103.054 262.876 103.305C263.156 103.543 263.307 103.855 263.328 104.241C263.349 104.614 263.234 104.941 262.982 105.222C262.73 105.49 262.418 105.634 262.045 105.655C261.672 105.675 261.346 105.567 261.065 105.329ZM265.801 114.881L267.465 114.187C267.561 114.703 267.811 115.123 268.216 115.447C268.621 115.759 269.149 115.896 269.802 115.86C270.308 115.832 270.7 115.69 270.98 115.434C271.259 115.165 271.388 114.85 271.368 114.491C271.333 113.852 270.897 113.462 270.061 113.322L268.404 113.053C267.649 112.935 267.046 112.648 266.593 112.192C266.141 111.737 265.895 111.17 265.858 110.491C265.812 109.665 266.105 108.934 266.737 108.298C267.383 107.662 268.172 107.317 269.104 107.265C269.716 107.231 270.267 107.294 270.757 107.454C271.246 107.6 271.631 107.813 271.914 108.091C272.196 108.369 272.411 108.631 272.558 108.876C272.706 109.122 272.82 109.376 272.901 109.638L271.278 110.35C271.243 110.191 271.188 110.041 271.113 109.898C271.037 109.742 270.921 109.575 270.765 109.397C270.621 109.218 270.413 109.082 270.141 108.991C269.868 108.886 269.552 108.843 269.192 108.863C268.727 108.889 268.348 109.037 268.055 109.307C267.777 109.576 267.647 109.884 267.666 110.23C267.7 110.842 268.088 111.208 268.829 111.327L270.405 111.58C271.268 111.719 271.939 112.029 272.42 112.51C272.913 112.976 273.18 113.569 273.22 114.288C273.262 115.047 272.987 115.75 272.396 116.397C271.817 117.043 270.976 117.397 269.871 117.459C268.686 117.524 267.744 117.283 267.046 116.734C266.347 116.172 265.932 115.554 265.801 114.881ZM277.681 104.044L277.85 107.08L279.927 106.964L280.021 108.662L277.944 108.777L278.222 113.769C278.247 114.222 278.365 114.549 278.577 114.751C278.802 114.952 279.154 115.04 279.633 115.013C279.912 114.998 280.157 114.957 280.367 114.892L280.456 116.49C280.143 116.627 279.721 116.711 279.188 116.74C278.363 116.786 277.697 116.583 277.191 116.13C276.685 115.678 276.408 115.019 276.36 114.153L276.067 108.882L274.23 108.984L274.136 107.286L274.655 107.257C275.147 107.23 275.506 107.077 275.731 106.797C275.968 106.503 276.075 106.137 276.05 105.698L275.964 104.14L277.681 104.044ZM283.765 110.577L289.017 110.285C288.95 109.568 288.678 108.995 288.2 108.568C287.722 108.127 287.07 107.929 286.244 107.975C285.499 108.017 284.9 108.297 284.448 108.816C283.995 109.322 283.768 109.909 283.765 110.577ZM289.435 112.766L291.084 113.235C290.854 114.142 290.375 114.903 289.648 115.518C288.92 116.119 288.017 116.45 286.939 116.51C285.594 116.585 284.424 116.189 283.428 115.323C282.444 114.443 281.908 113.217 281.821 111.646C281.74 110.182 282.125 108.945 282.977 107.937C283.829 106.928 284.881 106.389 286.132 106.319C287.583 106.238 288.74 106.635 289.603 107.508C290.466 108.368 290.94 109.564 291.025 111.095C291.038 111.334 291.036 111.535 291.018 111.696L283.789 112.098C283.85 112.949 284.168 113.633 284.744 114.148C285.334 114.663 286.035 114.898 286.847 114.852C288.218 114.776 289.081 114.081 289.435 112.766ZM298.484 105.833L298.595 107.83C298.313 107.805 298.039 107.8 297.773 107.815C296.016 107.913 295.192 108.947 295.301 110.917L295.569 115.73L293.692 115.834L293.158 106.229L294.995 106.127L295.088 107.804C295.606 106.547 296.53 105.881 297.862 105.807C298.075 105.795 298.282 105.804 298.484 105.833ZM301.823 109.573L307.075 109.281C307.008 108.564 306.736 107.991 306.258 107.564C305.78 107.123 305.128 106.926 304.302 106.972C303.557 107.013 302.958 107.293 302.506 107.813C302.054 108.318 301.826 108.905 301.823 109.573ZM307.493 111.762L309.142 112.231C308.912 113.139 308.433 113.9 307.706 114.514C306.978 115.116 306.075 115.446 304.997 115.506C303.652 115.581 302.482 115.185 301.486 114.319C300.502 113.439 299.967 112.214 299.879 110.643C299.798 109.178 300.183 107.942 301.035 106.933C301.887 105.924 302.939 105.385 304.19 105.315C305.641 105.235 306.798 105.631 307.662 106.504C308.524 107.365 308.998 108.56 309.083 110.091C309.096 110.331 309.094 110.531 309.076 110.692L301.847 111.094C301.908 111.945 302.226 112.629 302.803 113.144C303.392 113.659 304.093 113.894 304.905 113.849C306.276 113.772 307.139 113.077 307.493 111.762ZM312.599 109.936C312.656 110.947 312.948 111.759 313.476 112.371C314.017 112.982 314.727 113.263 315.606 113.214C316.445 113.167 317.099 112.804 317.568 112.123C318.038 111.443 318.245 110.597 318.189 109.585C318.133 108.586 317.842 107.795 317.315 107.21C316.789 106.625 316.099 106.356 315.247 106.403C314.395 106.451 313.727 106.802 313.243 107.456C312.758 108.111 312.544 108.937 312.599 109.936ZM318.407 113.158L318.398 112.998C318.173 113.505 317.81 113.939 317.309 114.301C316.821 114.649 316.224 114.842 315.518 114.881C314.147 114.957 313.016 114.54 312.124 113.628C311.244 112.702 310.764 111.507 310.682 110.042C310.605 108.644 310.965 107.436 311.763 106.417C312.56 105.384 313.624 104.831 314.956 104.757C315.741 104.713 316.389 104.837 316.899 105.13C317.409 105.408 317.769 105.769 317.981 106.211L317.636 100.001L319.493 99.8976L320.198 112.578C320.234 113.23 320.3 113.821 320.396 114.35L318.579 114.451C318.492 114.082 318.435 113.651 318.407 113.158ZM239.838 142.704C239.612 143.198 239.246 143.585 238.741 143.867C238.235 144.135 237.683 144.286 237.084 144.32C235.992 144.38 235.1 144.069 234.408 143.387C233.715 142.691 233.337 141.784 233.275 140.665L232.939 134.615L234.816 134.51L235.137 140.282C235.177 141 235.383 141.583 235.755 142.03C236.14 142.476 236.705 142.678 237.451 142.637C238.196 142.595 238.75 142.344 239.112 141.883C239.473 141.409 239.632 140.799 239.591 140.054L239.269 134.263L241.146 134.159L241.581 141.986C241.616 142.612 241.682 143.203 241.78 143.758L239.983 143.858C239.913 143.568 239.865 143.184 239.838 142.704ZM243.846 141.139L245.51 140.446C245.605 140.962 245.856 141.382 246.261 141.706C246.666 142.018 247.194 142.155 247.846 142.119C248.352 142.091 248.745 141.949 249.025 141.693C249.303 141.424 249.433 141.109 249.413 140.75C249.377 140.111 248.942 139.721 248.106 139.581L246.448 139.312C245.694 139.194 245.091 138.907 244.638 138.451C244.185 137.996 243.94 137.429 243.902 136.75C243.856 135.924 244.15 135.193 244.782 134.557C245.428 133.921 246.216 133.576 247.148 133.524C247.761 133.49 248.312 133.553 248.801 133.713C249.29 133.859 249.676 134.072 249.958 134.35C250.241 134.628 250.456 134.89 250.603 135.135C250.75 135.381 250.864 135.635 250.946 135.897L249.323 136.609C249.287 136.45 249.232 136.3 249.158 136.157C249.082 136.001 248.966 135.834 248.809 135.656C248.666 135.477 248.458 135.341 248.186 135.25C247.913 135.145 247.597 135.102 247.237 135.122C246.771 135.148 246.392 135.296 246.1 135.566C245.821 135.835 245.691 136.143 245.711 136.489C245.745 137.101 246.132 137.467 246.873 137.586L248.45 137.839C249.312 137.978 249.984 138.288 250.464 138.769C250.958 139.235 251.224 139.828 251.264 140.547C251.307 141.306 251.032 142.009 250.44 142.656C249.862 143.302 249.02 143.656 247.915 143.718C246.73 143.783 245.789 143.542 245.091 142.993C244.392 142.431 243.977 141.813 243.846 141.139ZM254.711 137.23L259.963 136.939C259.896 136.221 259.624 135.649 259.146 135.221C258.668 134.78 258.016 134.583 257.19 134.629C256.445 134.67 255.846 134.951 255.394 135.47C254.942 135.976 254.714 136.563 254.711 137.23ZM260.381 139.419L262.03 139.888C261.8 140.796 261.321 141.557 260.594 142.172C259.867 142.773 258.963 143.104 257.885 143.163C256.541 143.238 255.37 142.843 254.374 141.976C253.39 141.096 252.855 139.871 252.767 138.3C252.686 136.836 253.071 135.599 253.923 134.59C254.775 133.581 255.827 133.042 257.078 132.973C258.529 132.892 259.687 133.288 260.55 134.162C261.412 135.022 261.886 136.217 261.971 137.748C261.984 137.988 261.982 138.188 261.964 138.35L254.735 138.751C254.796 139.603 255.115 140.286 255.691 140.802C256.28 141.316 256.981 141.551 257.793 141.506C259.164 141.43 260.027 140.734 260.381 139.419ZM269.43 132.486L269.541 134.483C269.259 134.459 268.985 134.454 268.719 134.469C266.962 134.566 266.138 135.6 266.247 137.571L266.515 142.383L264.638 142.488L264.104 132.882L265.941 132.78L266.034 134.458C266.552 133.2 267.477 132.535 268.808 132.461C269.021 132.449 269.228 132.457 269.43 132.486ZM270.933 139.634L272.597 138.94C272.692 139.456 272.943 139.876 273.348 140.201C273.753 140.512 274.281 140.65 274.933 140.613C275.439 140.585 275.832 140.443 276.112 140.187C276.39 139.918 276.52 139.604 276.5 139.244C276.464 138.605 276.029 138.216 275.193 138.075L273.536 137.807C272.781 137.688 272.178 137.401 271.725 136.946C271.272 136.49 271.027 135.923 270.989 135.244C270.944 134.419 271.237 133.688 271.869 133.052C272.515 132.415 273.304 132.071 274.235 132.019C274.848 131.985 275.399 132.048 275.888 132.207C276.377 132.354 276.763 132.566 277.046 132.844C277.328 133.122 277.543 133.384 277.69 133.63C277.837 133.875 277.952 134.129 278.033 134.392L276.41 135.103C276.374 134.945 276.319 134.794 276.245 134.651C276.169 134.495 276.053 134.328 275.896 134.15C275.753 133.971 275.545 133.836 275.273 133.744C275 133.639 274.684 133.596 274.324 133.616C273.858 133.642 273.479 133.79 273.187 134.06C272.908 134.329 272.778 134.637 272.798 134.983C272.832 135.596 273.219 135.961 273.96 136.08L275.537 136.333C276.399 136.472 277.071 136.782 277.552 137.263C278.045 137.73 278.312 138.322 278.351 139.041C278.394 139.8 278.119 140.503 277.527 141.15C276.949 141.797 276.107 142.151 275.002 142.212C273.817 142.278 272.876 142.036 272.178 141.488C271.479 140.926 271.064 140.308 270.933 139.634Z" fill="#1A1D22"/>
<defs>
<linearGradient id="paint0_linear_0_1" x1="306" y1="301.808" x2="75.5914" y2="433.781" gradientUnits="userSpaceOnUse">
<stop stop-color="#5CEE9C"/>
<stop offset="1" stop-color="#FFFB1F"/>
</linearGradient>
</defs>
</svg>
