<svg width="29" height="17" viewBox="0 0 29 17" fill="none" xmlns="http://www.w3.org/2000/svg">
<g clip-path="url(#clip0_1_312)">
<path d="M13.1832 12.1951H11.2604L12.4621 4.8097H14.3851L13.1832 12.1951ZM9.64279 4.8097L7.80967 9.88946L7.59276 8.79559L7.59295 8.79598L6.94596 5.47468C6.94596 5.47468 6.86773 4.8097 6.03384 4.8097H3.00333L2.96777 4.93475C2.96777 4.93475 3.89451 5.12757 4.97909 5.77891L6.64962 12.1953H8.65304L11.7122 4.8097H9.64279V4.8097ZM24.7667 12.1951H26.5322L24.9929 4.8095H23.4472C22.7334 4.8095 22.5596 5.35989 22.5596 5.35989L19.6919 12.1951H21.6963L22.0971 11.0981H24.5415L24.7667 12.1951ZM22.6509 9.58265L23.6612 6.81885L24.2295 9.58265H22.6509ZM19.8422 6.58573L20.1166 4.99975C20.1166 4.99975 19.2699 4.67773 18.3872 4.67773C17.433 4.67773 15.1671 5.09477 15.1671 7.12269C15.1671 9.03068 17.8265 9.05439 17.8265 10.0566C17.8265 11.0588 15.4411 10.8792 14.6538 10.2472L14.3679 11.9055C14.3679 11.9055 15.2265 12.3226 16.5383 12.3226C17.8505 12.3226 19.83 11.6432 19.83 9.79404C19.83 7.87379 17.1466 7.69501 17.1466 6.86014C17.1468 6.02507 19.0194 6.13234 19.8422 6.58573V6.58573Z" fill="#272A31"/>
<path d="M7.59295 8.79585L6.94596 5.47454C6.94596 5.47454 6.86773 4.80957 6.03384 4.80957H3.00333L2.96777 4.93462C2.96777 4.93462 4.42435 5.23649 5.82147 6.3675C7.15734 7.44852 7.59295 8.79585 7.59295 8.79585Z" fill="#3287F5"/>
</g>
<defs>
<clipPath id="clip0_1_312">
<rect width="28" height="16" fill="white" transform="translate(0.75 0.5)"/>
</clipPath>
</defs>
</svg>
