<svg width="25" height="24" viewBox="0 0 25 24" fill="none" xmlns="http://www.w3.org/2000/svg">
<path d="M23.5 9.71047C23.5495 8.27913 23.2365 6.85849 22.59 5.58047C22.1514 5.05607 21.5427 4.70218 20.87 4.58047C18.0875 4.328 15.2936 4.22452 12.5 4.27047C9.71667 4.22243 6.93274 4.32257 4.16003 4.57047C3.61185 4.67019 3.10454 4.92731 2.70003 5.31047C1.80003 6.14047 1.70003 7.56047 1.60003 8.76047C1.45494 10.918 1.45494 13.0829 1.60003 15.2405C1.62896 15.9159 1.72952 16.5863 1.90003 17.2405C2.0206 17.7455 2.26455 18.2128 2.61003 18.6005C3.01729 19.0039 3.53641 19.2757 4.10003 19.3805C6.25594 19.6466 8.42824 19.7569 10.6 19.7105C14.1 19.7605 17.17 19.7105 20.8 19.4305C21.3775 19.3321 21.9112 19.06 22.33 18.6505C22.61 18.3704 22.8191 18.0276 22.94 17.6505C23.2977 16.5531 23.4733 15.4046 23.46 14.2505C23.5 13.6905 23.5 10.3105 23.5 9.71047ZM10.24 14.8505V8.66047L16.16 11.7705C14.5 12.6905 12.31 13.7305 10.24 14.8505Z" fill="white"/>
</svg>
