<svg width="286" height="35" viewBox="0 0 286 35" fill="none" xmlns="http://www.w3.org/2000/svg">
<path d="M146.64 24.168C146.192 24.168 145.832 24.048 145.56 23.808C145.288 23.552 145.144 23.232 145.128 22.848C145.128 22.464 145.288 22.072 145.608 21.672L149.328 17.112V18.744L145.872 14.52C145.536 14.104 145.376 13.704 145.392 13.32C145.408 12.936 145.552 12.624 145.824 12.384C146.096 12.144 146.456 12.024 146.904 12.024C147.336 12.024 147.696 12.096 147.984 12.24C148.272 12.384 148.544 12.624 148.8 12.96L151.368 16.248H150.096L152.664 12.96C152.936 12.624 153.216 12.384 153.504 12.24C153.792 12.096 154.144 12.024 154.56 12.024C155.008 12.024 155.368 12.152 155.64 12.408C155.912 12.648 156.048 12.96 156.048 13.344C156.064 13.728 155.904 14.12 155.568 14.52L152.112 18.744V17.112L155.856 21.672C156.192 22.056 156.352 22.44 156.336 22.824C156.32 23.208 156.168 23.528 155.88 23.784C155.608 24.04 155.248 24.168 154.8 24.168C154.368 24.168 154.008 24.096 153.72 23.952C153.448 23.792 153.176 23.552 152.904 23.232L150.096 19.656H151.32L148.512 23.232C148.256 23.536 147.984 23.768 147.696 23.928C147.424 24.088 147.072 24.168 146.64 24.168Z" fill="white"/>
<path d="M176.08 26.264C174.208 26.264 172.6 25.904 171.256 25.184C169.912 24.464 168.88 23.448 168.16 22.136C167.456 20.824 167.104 19.288 167.104 17.528C167.104 16.216 167.304 15.024 167.704 13.952C168.12 12.88 168.712 11.96 169.48 11.192C170.264 10.424 171.208 9.84 172.312 9.44C173.432 9.024 174.688 8.816 176.08 8.816C176.816 8.816 177.576 8.904 178.36 9.08C179.16 9.24 179.864 9.488 180.472 9.824C180.92 10.064 181.232 10.368 181.408 10.736C181.584 11.104 181.64 11.48 181.576 11.864C181.528 12.248 181.392 12.592 181.168 12.896C180.944 13.2 180.656 13.408 180.304 13.52C179.952 13.616 179.568 13.56 179.152 13.352C178.672 13.128 178.192 12.96 177.712 12.848C177.248 12.72 176.76 12.656 176.248 12.656C175.256 12.656 174.424 12.848 173.752 13.232C173.096 13.6 172.6 14.144 172.264 14.864C171.928 15.584 171.76 16.472 171.76 17.528C171.76 18.584 171.928 19.48 172.264 20.216C172.6 20.936 173.096 21.488 173.752 21.872C174.424 22.24 175.256 22.424 176.248 22.424C176.664 22.424 177.112 22.376 177.592 22.28C178.072 22.168 178.544 22 179.008 21.776C179.488 21.568 179.912 21.512 180.28 21.608C180.664 21.704 180.968 21.896 181.192 22.184C181.432 22.472 181.584 22.808 181.648 23.192C181.712 23.56 181.656 23.928 181.48 24.296C181.32 24.664 181.032 24.96 180.616 25.184C180.056 25.52 179.36 25.784 178.528 25.976C177.712 26.168 176.896 26.264 176.08 26.264ZM185.307 26.216C184.603 26.216 184.059 26.024 183.675 25.64C183.291 25.24 183.099 24.68 183.099 23.96V11.12C183.099 10.384 183.291 9.824 183.675 9.44C184.059 9.056 184.603 8.864 185.307 8.864C186.027 8.864 186.571 9.056 186.939 9.44C187.323 9.824 187.515 10.384 187.515 11.12V15.608H194.499V11.12C194.499 10.384 194.683 9.824 195.051 9.44C195.435 9.056 195.987 8.864 196.707 8.864C197.411 8.864 197.947 9.056 198.315 9.44C198.699 9.824 198.891 10.384 198.891 11.12V23.96C198.891 24.68 198.699 25.24 198.315 25.64C197.947 26.024 197.411 26.216 196.707 26.216C195.987 26.216 195.435 26.024 195.051 25.64C194.683 25.24 194.499 24.68 194.499 23.96V19.232H187.515V23.96C187.515 24.68 187.331 25.24 186.963 25.64C186.595 26.024 186.043 26.216 185.307 26.216ZM209.167 26.264C207.455 26.264 205.951 25.904 204.655 25.184C203.359 24.448 202.351 23.424 201.631 22.112C200.927 20.8 200.575 19.272 200.575 17.528C200.575 16.216 200.775 15.024 201.175 13.952C201.591 12.88 202.175 11.96 202.927 11.192C203.695 10.424 204.607 9.84 205.663 9.44C206.719 9.024 207.887 8.816 209.167 8.816C210.879 8.816 212.375 9.176 213.655 9.896C214.951 10.616 215.959 11.632 216.679 12.944C217.399 14.24 217.759 15.768 217.759 17.528C217.759 18.84 217.551 20.032 217.135 21.104C216.735 22.176 216.151 23.104 215.383 23.888C214.631 24.656 213.727 25.248 212.671 25.664C211.615 26.064 210.447 26.264 209.167 26.264ZM209.167 22.568C210.015 22.568 210.735 22.368 211.327 21.968C211.919 21.568 212.375 20.992 212.695 20.24C213.015 19.488 213.175 18.584 213.175 17.528C213.175 15.944 212.823 14.712 212.119 13.832C211.415 12.952 210.431 12.512 209.167 12.512C208.335 12.512 207.615 12.712 207.007 13.112C206.415 13.496 205.959 14.064 205.639 14.816C205.319 15.552 205.159 16.456 205.159 17.528C205.159 19.112 205.511 20.352 206.215 21.248C206.919 22.128 207.903 22.568 209.167 22.568ZM221.71 26C220.958 26 220.382 25.808 219.982 25.424C219.598 25.024 219.406 24.456 219.406 23.72V11.36C219.406 10.624 219.598 10.064 219.982 9.68C220.382 9.28 220.958 9.08 221.71 9.08H227.566C228.782 9.08 229.814 9.264 230.662 9.632C231.526 9.984 232.182 10.488 232.63 11.144C233.078 11.8 233.302 12.568 233.302 13.448C233.302 14.44 233.014 15.288 232.438 15.992C231.878 16.696 231.11 17.176 230.134 17.432V17.048C231.286 17.256 232.174 17.72 232.798 18.44C233.438 19.16 233.758 20.08 233.758 21.2C233.758 22.688 233.222 23.864 232.15 24.728C231.094 25.576 229.646 26 227.806 26H221.71ZM223.63 22.76H227.206C228.022 22.76 228.614 22.608 228.982 22.304C229.366 21.984 229.558 21.512 229.558 20.888C229.558 20.264 229.366 19.8 228.982 19.496C228.614 19.192 228.022 19.04 227.206 19.04H223.63V22.76ZM223.63 15.8H226.774C227.574 15.8 228.158 15.656 228.526 15.368C228.91 15.08 229.102 14.64 229.102 14.048C229.102 13.456 228.91 13.024 228.526 12.752C228.158 12.464 227.574 12.32 226.774 12.32H223.63V15.8ZM237.602 26C236.85 26 236.274 25.808 235.874 25.424C235.49 25.024 235.298 24.456 235.298 23.72V11.36C235.298 10.624 235.49 10.064 235.874 9.68C236.274 9.28 236.85 9.08 237.602 9.08H243.458C244.674 9.08 245.706 9.264 246.554 9.632C247.418 9.984 248.074 10.488 248.522 11.144C248.97 11.8 249.194 12.568 249.194 13.448C249.194 14.44 248.906 15.288 248.33 15.992C247.77 16.696 247.002 17.176 246.026 17.432V17.048C247.178 17.256 248.066 17.72 248.69 18.44C249.33 19.16 249.65 20.08 249.65 21.2C249.65 22.688 249.114 23.864 248.042 24.728C246.986 25.576 245.538 26 243.698 26H237.602ZM239.522 22.76H243.098C243.914 22.76 244.506 22.608 244.874 22.304C245.258 21.984 245.45 21.512 245.45 20.888C245.45 20.264 245.258 19.8 244.874 19.496C244.506 19.192 243.914 19.04 243.098 19.04H239.522V22.76ZM239.522 15.8H242.666C243.466 15.8 244.05 15.656 244.418 15.368C244.802 15.08 244.994 14.64 244.994 14.048C244.994 13.456 244.802 13.024 244.418 12.752C244.05 12.464 243.466 12.32 242.666 12.32H239.522V15.8ZM253.397 26.216C252.693 26.216 252.149 26.024 251.765 25.64C251.381 25.24 251.189 24.68 251.189 23.96V11.12C251.189 10.384 251.381 9.824 251.765 9.44C252.149 9.056 252.693 8.864 253.397 8.864C254.117 8.864 254.661 9.056 255.029 9.44C255.413 9.824 255.605 10.384 255.605 11.12V23.96C255.605 24.68 255.421 25.24 255.053 25.64C254.685 26.024 254.133 26.216 253.397 26.216ZM260.01 26C259.258 26 258.682 25.808 258.282 25.424C257.898 25.024 257.706 24.456 257.706 23.72V11.36C257.706 10.624 257.898 10.064 258.282 9.68C258.682 9.28 259.258 9.08 260.01 9.08H268.146C268.722 9.08 269.154 9.224 269.442 9.512C269.73 9.8 269.874 10.216 269.874 10.76C269.874 11.32 269.73 11.752 269.442 12.056C269.154 12.344 268.722 12.488 268.146 12.488H261.93V15.704H267.618C268.178 15.704 268.602 15.848 268.89 16.136C269.194 16.424 269.346 16.848 269.346 17.408C269.346 17.968 269.194 18.392 268.89 18.68C268.602 18.968 268.178 19.112 267.618 19.112H261.93V22.592H268.146C268.722 22.592 269.154 22.744 269.442 23.048C269.73 23.336 269.874 23.752 269.874 24.296C269.874 24.856 269.73 25.28 269.442 25.568C269.154 25.856 268.722 26 268.146 26H260.01ZM277.541 26.264C276.901 26.264 276.229 26.216 275.525 26.12C274.837 26.04 274.181 25.912 273.557 25.736C272.933 25.56 272.373 25.352 271.877 25.112C271.445 24.904 271.141 24.632 270.965 24.296C270.789 23.944 270.725 23.576 270.773 23.192C270.821 22.808 270.957 22.472 271.181 22.184C271.405 21.88 271.701 21.68 272.069 21.584C272.437 21.472 272.853 21.52 273.317 21.728C273.925 22.016 274.613 22.24 275.381 22.4C276.149 22.56 276.869 22.64 277.541 22.64C278.597 22.64 279.333 22.504 279.749 22.232C280.181 21.944 280.397 21.592 280.397 21.176C280.397 20.808 280.245 20.512 279.941 20.288C279.653 20.064 279.133 19.872 278.381 19.712L275.573 19.112C274.037 18.792 272.893 18.232 272.141 17.432C271.389 16.632 271.013 15.6 271.013 14.336C271.013 13.504 271.181 12.752 271.517 12.08C271.869 11.392 272.357 10.808 272.981 10.328C273.621 9.848 274.373 9.48 275.237 9.224C276.117 8.952 277.093 8.816 278.165 8.816C278.997 8.816 279.837 8.912 280.685 9.104C281.549 9.28 282.293 9.552 282.917 9.92C283.285 10.112 283.549 10.376 283.709 10.712C283.869 11.048 283.933 11.4 283.901 11.768C283.869 12.12 283.741 12.432 283.517 12.704C283.309 12.976 283.021 13.16 282.653 13.256C282.301 13.336 281.877 13.272 281.381 13.064C280.917 12.856 280.389 12.704 279.797 12.608C279.221 12.496 278.661 12.44 278.117 12.44C277.525 12.44 277.021 12.512 276.605 12.656C276.189 12.784 275.869 12.976 275.645 13.232C275.437 13.488 275.333 13.784 275.333 14.12C275.333 14.456 275.469 14.744 275.741 14.984C276.029 15.208 276.549 15.4 277.301 15.56L280.085 16.16C281.637 16.496 282.797 17.048 283.565 17.816C284.333 18.584 284.717 19.584 284.717 20.816C284.717 21.648 284.549 22.4 284.213 23.072C283.877 23.744 283.397 24.32 282.773 24.8C282.149 25.264 281.397 25.624 280.517 25.88C279.637 26.136 278.645 26.264 277.541 26.264Z" fill="white"/>
<g clip-path="url(#clip0_119_54518)">
<path d="M0 19.2187C0 14.6845 3.77641 11.0088 8.43486 11.0088L22.6054 11.0088C27.2638 11.0088 31.0403 14.6845 31.0403 19.2187C31.0403 23.7529 27.2638 27.4286 22.6054 27.4286L8.43486 27.4286C3.77641 27.4286 0 23.7529 0 19.2187Z" fill="white"/>
<path d="M0 19.2187C0 14.6845 3.77641 11.0088 8.43486 11.0088L22.6054 11.0088C27.2638 11.0088 31.0403 14.6845 31.0403 19.2187C31.0403 23.7529 27.2638 27.4286 22.6054 27.4286L8.43486 27.4286C3.77641 27.4286 0 23.7529 0 19.2187Z" fill="url(#paint0_linear_119_54518)"/>
<path d="M11.4717 19.2194C11.4717 15.7411 14.3418 12.9214 17.8822 12.9214H21.9309C25.4714 12.9214 28.3414 15.7411 28.3414 19.2194C28.3414 22.6977 25.4714 25.5175 21.9309 25.5175H17.8822C14.3418 25.5175 11.4717 22.6977 11.4717 19.2194Z" fill="#1A1D22"/>
<path d="M42.5575 14.7961C42.1173 14.9733 41.7178 15.2414 41.384 15.5833C41.0386 15.9778 40.763 16.4303 40.5695 16.9207C40.353 17.4943 40.2487 18.1055 40.2625 18.7199C40.2423 19.3339 40.3407 19.9461 40.5521 20.5216C40.7391 21.0156 41.0107 21.4718 41.3543 21.869C41.6917 22.2265 42.0979 22.5091 42.5476 22.6992C43.0144 22.886 43.5116 22.9819 44.0131 22.9819C44.4629 22.9874 44.9097 22.907 45.3302 22.7446C45.7013 22.6148 46.0473 22.4202 46.3526 22.1693C46.6218 21.9403 46.8467 21.6621 47.0162 21.3493C47.1084 21.1949 47.1912 21.0348 47.2638 20.8698C47.3112 20.7621 47.3964 20.6765 47.5028 20.6299C47.6091 20.5831 47.7287 20.5787 47.838 20.6175L50.4896 21.5334C50.6062 21.5731 50.7027 21.6584 50.758 21.7705C50.8132 21.8826 50.8226 22.0123 50.7842 22.1315C50.6193 22.615 50.3982 23.0767 50.1256 23.5067C49.733 24.1201 49.2446 24.6639 48.6799 25.1166C48.0678 25.6219 47.3775 26.0202 46.6374 26.295C45.7856 26.5856 44.8915 26.7263 43.9933 26.7114C42.957 26.7211 41.9307 26.5052 40.9829 26.0779C40.0562 25.7006 39.2141 25.1357 38.5072 24.4176C37.7982 23.6906 37.2385 22.8267 36.8609 21.8766C36.4623 20.8674 36.2646 19.7875 36.2791 18.6997C36.2772 17.6017 36.4858 16.514 36.8931 15.4976C37.2587 14.5598 37.8077 13.7075 38.5065 12.9927C39.2052 12.2778 40.0394 11.7152 40.9581 11.3391C41.909 10.9463 42.928 10.754 43.9537 10.7739C44.8691 10.7714 45.7788 10.9205 46.6473 11.2154C47.378 11.4991 48.0625 11.8938 48.6774 12.3863C49.2367 12.8368 49.7106 13.3875 50.0761 14.0113C50.3412 14.4567 50.5571 14.9305 50.7198 15.4244C50.7572 15.5432 50.747 15.6723 50.6914 15.7834C50.6357 15.8946 50.5391 15.9787 50.4227 16.0173L47.6994 16.9309C47.586 16.9681 47.463 16.9599 47.3554 16.9078C47.2476 16.8558 47.1635 16.7638 47.1201 16.6507C46.9196 16.1576 46.6251 15.7099 46.2537 15.3335C45.7585 14.8112 45.0009 14.5337 44.0131 14.5286C43.5157 14.5238 43.0219 14.6146 42.5575 14.7961Z" fill="white"/>
<path d="M51.9326 25.8124L52.0391 4.6667C52.0394 4.6044 52.0518 4.54278 52.0755 4.48535C52.0992 4.42792 52.1337 4.37581 52.1771 4.33199C52.2206 4.28817 52.2721 4.25351 52.3287 4.22997C52.3853 4.20644 52.4458 4.1945 52.507 4.19483L55.5595 4.20997C55.6826 4.21195 55.7999 4.26299 55.8865 4.35214C55.973 4.4413 56.0218 4.56147 56.0225 4.68688L55.9878 11.4621C55.9868 11.5483 56.009 11.6332 56.0519 11.7074C56.0949 11.7817 56.157 11.8426 56.2315 11.8834C56.306 11.9243 56.3901 11.9435 56.4746 11.9391C56.5591 11.9346 56.6408 11.9067 56.7107 11.8582C57.0483 11.6145 57.4219 11.4271 57.8173 11.3031C58.5097 11.0482 59.24 10.9176 59.9762 10.917C60.8197 10.8981 61.6568 11.0705 62.4271 11.4217C63.0815 11.7028 63.6635 12.1338 64.1281 12.6812C64.5926 13.2287 64.9272 13.8778 65.1057 14.5784C65.321 15.3326 65.4286 16.1144 65.4251 16.8999L65.3781 25.8856C65.3781 25.9477 65.366 26.0094 65.3426 26.0668C65.3191 26.1242 65.2849 26.1763 65.2416 26.2202C65.1984 26.264 65.147 26.2987 65.0906 26.3222C65.0341 26.3458 64.9736 26.3577 64.9127 26.3575L61.8602 26.3423C61.799 26.342 61.7385 26.3293 61.6822 26.3052C61.6258 26.281 61.5748 26.2459 61.5318 26.2016C61.4888 26.1573 61.4548 26.1048 61.4316 26.0471C61.4086 25.9894 61.3969 25.9277 61.3972 25.8654L61.4393 17.5812C61.4676 16.8182 61.2503 16.0667 60.8203 15.4414C60.3748 14.8585 59.6864 14.5809 58.7284 14.576C58.3568 14.5532 57.9851 14.6176 57.6418 14.7642C57.2984 14.9107 56.9927 15.1354 56.7479 15.4212C56.2527 15.9939 55.9737 16.7273 55.9606 17.4904L55.9184 25.8376C55.9172 25.9633 55.8673 26.0833 55.7797 26.1716C55.6921 26.2599 55.5738 26.3096 55.4505 26.3095L52.3956 26.2893C52.3345 26.289 52.274 26.2763 52.2176 26.2522C52.1613 26.228 52.1102 26.1929 52.0672 26.1486C52.0242 26.1043 51.9902 26.0518 51.9671 25.9941C51.944 25.9364 51.9323 25.8747 51.9326 25.8124Z" fill="white"/>
<path d="M77.4248 11.5287C78.3391 11.9147 79.1708 12.4787 79.8732 13.1891C80.5686 13.9188 81.1139 14.7827 81.4775 15.7302C81.8634 16.7527 82.0509 17.8419 82.0296 18.9373C82.044 20.0237 81.8454 21.102 81.4453 22.1092C81.0734 23.0535 80.5186 23.9117 79.8138 24.6325C78.6788 25.7163 77.2616 26.4439 75.7315 26.7285C74.2016 27.013 72.6235 26.8425 71.1861 26.2374C70.2726 25.8502 69.4417 25.2854 68.7401 24.5745C68.0426 23.8465 67.4969 22.9821 67.1359 22.0334C66.745 21.0228 66.5564 19.9426 66.5813 18.8566C66.5708 17.7612 66.7701 16.6744 67.168 15.6569C67.5387 14.7126 68.0928 13.8542 68.7971 13.1336C69.5054 12.4297 70.3423 11.8742 71.2603 11.4985C73.2501 10.7368 75.4454 10.7484 77.4273 11.5313L77.4248 11.5287ZM75.6918 22.9015C76.1479 22.7257 76.5586 22.446 76.8925 22.0839C77.2456 21.7065 77.5231 21.2625 77.7095 20.7768C77.9378 20.1847 78.052 19.5533 78.0462 18.9171C78.0595 18.2811 77.951 17.6485 77.7269 17.0549C77.5458 16.5669 77.2734 16.1195 76.9247 15.7376C76.5934 15.3729 76.1855 15.0891 75.7314 14.9075C74.8303 14.5366 73.824 14.5311 72.919 14.8924C72.4645 15.0713 72.0545 15.3506 71.7183 15.7099C71.3647 16.0874 71.0878 16.5324 70.9039 17.0195C70.4583 18.2174 70.4513 19.5388 70.884 20.7415C71.0645 21.2286 71.3351 21.6758 71.6812 22.0587C72.0139 22.4219 72.4214 22.7054 72.8745 22.8889C73.7771 23.2579 74.7836 23.2624 75.6894 22.9015H75.6918Z" fill="white"/>
<path d="M83.6589 4.72477C83.8835 4.48914 84.1532 4.30322 84.4514 4.17862C84.7496 4.05402 85.0698 3.9934 85.3919 4.00057C85.7199 3.99557 86.0452 4.05879 86.3483 4.18634C86.6514 4.3139 86.9257 4.50312 87.1547 4.74243C87.6034 5.23036 87.8469 5.87798 87.833 6.54663C87.8348 6.87548 87.7716 7.20133 87.647 7.50467C87.5224 7.80802 87.339 8.08264 87.1079 8.31209C86.8768 8.54154 86.6026 8.72112 86.3018 8.84007C86.001 8.95901 85.6797 9.01491 85.3573 9.00437C85.034 9.00959 84.7132 8.9466 84.4149 8.81936C84.1168 8.69213 83.8476 8.5034 83.6243 8.26503C83.3989 8.03798 83.2212 7.76651 83.1019 7.46717C82.9828 7.16784 82.9246 6.8469 82.9312 6.52392C82.9256 6.18928 82.9873 5.85703 83.1125 5.54762C83.2377 5.23821 83.4236 4.95818 83.6589 4.72477ZM83.8496 11.4394L86.9021 11.4546C86.9633 11.4549 87.0237 11.4675 87.0801 11.4916C87.1364 11.5158 87.1875 11.551 87.2305 11.5953C87.2735 11.6396 87.3075 11.692 87.3306 11.7497C87.3537 11.8074 87.3654 11.8692 87.3651 11.9315L87.2933 25.9967C87.2907 26.1209 87.2401 26.2391 87.1525 26.3256C87.0648 26.4121 86.9473 26.4598 86.8254 26.4584H83.7754C83.7141 26.4578 83.6537 26.4447 83.5974 26.4201C83.5411 26.3955 83.4903 26.3596 83.4476 26.3148C83.405 26.2701 83.3716 26.2171 83.3492 26.1589C83.3269 26.1008 83.316 26.0388 83.3174 25.9764L83.3867 11.9113C83.3874 11.7863 83.4363 11.6667 83.523 11.5784C83.6097 11.49 83.727 11.4401 83.8496 11.4394Z" fill="white"/>
<path d="M92.668 23.1418C93.1161 23.6011 93.7722 23.8484 94.6486 23.8535C95.169 23.8896 95.6855 23.7396 96.1091 23.4295C96.2627 23.2993 96.3866 23.1366 96.472 22.9527C96.5574 22.7689 96.6026 22.5681 96.6045 22.3647C96.6074 22.2 96.5767 22.0364 96.5162 21.8837C96.4557 21.7311 96.3655 21.5926 96.2503 21.4764C96.0026 21.2014 95.5943 21.0146 95.0249 20.891L93.0716 20.4267C91.6356 20.0835 90.5959 19.531 89.9349 18.7336C89.2907 17.9446 88.9455 16.9463 88.9619 15.92C88.9647 15.2654 89.111 14.6196 89.3902 14.03C89.658 13.427 90.0608 12.8963 90.5662 12.4807C91.0712 12.0166 91.6597 11.6567 92.2992 11.4209C92.9961 11.1482 93.7388 11.0171 94.4852 11.0348C95.385 11.0153 96.28 11.1756 97.1191 11.5067C97.7757 11.7455 98.3757 12.123 98.8797 12.6144C99.3002 13.0228 99.6371 13.5126 99.8695 14.0552C99.9923 14.3354 100.093 14.6248 100.172 14.9208C100.186 14.9823 100.189 15.0461 100.179 15.1086C100.169 15.171 100.147 15.2308 100.114 15.2845C100.081 15.3381 100.037 15.3844 99.9866 15.4207C99.9357 15.4571 99.8781 15.4827 99.8176 15.4961L97.3792 16.0437C97.265 16.0696 97.145 16.0502 97.0432 15.9892C96.9424 15.9284 96.8675 15.8305 96.8349 15.7156C96.8109 15.6298 96.7821 15.5456 96.7475 15.4632C96.6506 15.2075 96.4989 14.9772 96.3021 14.7895C96.0909 14.5743 95.8383 14.4067 95.5596 14.2975C95.2267 14.1627 94.8704 14.0984 94.5125 14.1082C94.039 14.0967 93.5751 14.2448 93.1928 14.5296C93.0135 14.643 92.8661 14.802 92.765 14.9908C92.6639 15.1797 92.6125 15.392 92.6161 15.6072C92.606 15.7754 92.6359 15.9438 92.7031 16.098C92.7703 16.2521 92.873 16.3875 93.0023 16.4928C93.2813 16.7233 93.6108 16.8818 93.9628 16.9546L96.0544 17.4214C97.5203 17.7343 98.5946 18.3197 99.3107 19.1473C100.031 19.9347 100.421 20.9777 100.399 22.0542C100.395 22.6722 100.27 23.2828 100.031 23.8509C99.8042 24.4551 99.4423 24.9969 98.9738 25.433C98.4544 25.9234 97.8458 26.3041 97.1815 26.5534C95.442 27.1339 93.5617 27.1001 91.8437 26.4576C91.1687 26.167 90.5462 25.7636 90.0017 25.264C89.548 24.8383 89.1928 24.3151 88.9619 23.7323C88.8188 23.4257 88.7061 23.1053 88.6253 22.776C88.6107 22.7144 88.6084 22.6506 88.6185 22.5881C88.6287 22.5257 88.6511 22.466 88.6843 22.4125C88.7176 22.3591 88.7611 22.313 88.8122 22.277C88.8632 22.241 88.9209 22.2159 88.9817 22.2031L91.4871 21.6631C91.6041 21.6372 91.7265 21.6589 91.8282 21.7234C91.93 21.7879 92.0029 21.8904 92.0317 22.0088C92.1412 22.4375 92.3608 22.8287 92.668 23.1418Z" fill="white"/>
<path d="M114.339 24.1717C113.946 24.7476 113.457 25.2503 112.897 25.658C112.299 26.0963 111.642 26.4424 110.946 26.685C110.139 26.9338 109.3 27.053 108.457 27.0382C107.468 27.0328 106.486 26.8527 105.556 26.5058C104.648 26.153 103.825 25.6078 103.14 24.906C102.428 24.1844 101.871 23.3188 101.506 22.365C101.078 21.2886 100.87 20.1347 100.895 18.9736C100.89 17.8558 101.098 16.7477 101.508 15.7109C101.874 14.789 102.418 13.9514 103.107 13.2481C103.778 12.5689 104.575 12.0335 105.452 11.6736C106.31 11.2903 107.238 11.0976 108.175 11.1083C110.48 11.1083 112.246 11.83 113.525 13.2103C114.805 14.5906 115.424 16.5159 115.412 18.9282C115.416 19.2028 115.405 19.4774 115.38 19.7508C115.367 19.8661 115.312 19.9724 115.226 20.0492C115.141 20.126 115.031 20.168 114.916 20.1671L105.336 20.1192C105.267 20.1182 105.2 20.1325 105.138 20.1611C105.076 20.1897 105.021 20.2318 104.977 20.2846C104.932 20.3374 104.901 20.3995 104.882 20.4664C104.864 20.5333 104.861 20.6035 104.873 20.6718C104.922 20.9561 105.01 21.232 105.133 21.4919C105.339 21.892 105.61 22.2537 105.935 22.5619C106.272 22.8757 106.66 23.1253 107.084 23.2987L107.131 23.3163C107.574 23.4773 108.041 23.5626 108.512 23.5686C109.441 23.5686 110.19 23.3642 110.701 22.9378C111.133 22.6039 111.483 22.1719 111.723 21.6762C111.769 21.5737 111.851 21.4919 111.952 21.4456C112.053 21.3992 112.167 21.3915 112.273 21.4238L114.748 22.1808C114.809 22.199 114.865 22.2296 114.913 22.2708C114.962 22.312 115.002 22.3629 115.031 22.4204C115.059 22.4778 115.076 22.5406 115.08 22.6048C115.083 22.6691 115.075 22.7334 115.053 22.794C114.874 23.2826 114.635 23.7456 114.339 24.1717ZM111.267 16.3115C111.146 15.9494 110.943 15.6216 110.673 15.3551C110.389 15.0553 110.041 14.8243 109.658 14.6789C109.205 14.4793 108.716 14.3829 108.222 14.3963C107.746 14.3853 107.274 14.4791 106.836 14.6713C106.459 14.8423 106.113 15.0779 105.814 15.3677C105.55 15.6421 105.336 15.9615 105.18 16.3115C105.116 16.4543 105.061 16.6019 105.019 16.7531C105.001 16.8232 104.998 16.8967 105.011 16.9679C105.025 17.0392 105.055 17.1063 105.098 17.1639C105.142 17.2215 105.197 17.2681 105.262 17.3002C105.325 17.3323 105.396 17.3488 105.467 17.3486L110.955 17.3788C111.026 17.3788 111.096 17.3626 111.159 17.3313C111.222 17.3001 111.278 17.2546 111.322 17.1983C111.366 17.142 111.397 17.0763 111.412 17.0062C111.428 16.9362 111.427 16.8634 111.411 16.7934C111.379 16.6284 111.331 16.4669 111.267 16.3115Z" fill="white"/>
<path d="M119.881 12.3644C119.748 12.4197 119.626 12.5034 119.525 12.6102C119.42 12.7334 119.336 12.8747 119.278 13.0278C119.211 13.2069 119.18 13.3978 119.184 13.5896C119.178 13.7814 119.207 13.9726 119.272 14.1523C119.328 14.3074 119.411 14.4506 119.516 14.5754C119.618 14.6873 119.741 14.7756 119.879 14.8346C120.021 14.8933 120.171 14.9232 120.324 14.9229C120.46 14.9251 120.597 14.8999 120.724 14.8488C120.837 14.8084 120.942 14.7477 121.034 14.6691C121.116 14.5976 121.185 14.5108 121.236 14.4131C121.264 14.3649 121.29 14.3149 121.311 14.2633C121.326 14.2298 121.352 14.2032 121.384 14.1887C121.416 14.1742 121.453 14.1726 121.486 14.1845L122.291 14.4706C122.326 14.4835 122.354 14.5098 122.371 14.544C122.387 14.5782 122.39 14.6177 122.378 14.6542C122.328 14.8053 122.261 14.9495 122.179 15.0837C122.06 15.2752 121.911 15.445 121.739 15.5863C121.553 15.7441 121.343 15.8687 121.119 15.9551C120.861 16.0446 120.59 16.0881 120.317 16.0836C120.003 16.0875 119.691 16.0206 119.403 15.8874C119.121 15.7695 118.866 15.5931 118.651 15.3689C118.435 15.142 118.265 14.8722 118.151 14.5754C118.03 14.2603 117.969 13.923 117.974 13.5834C117.973 13.2405 118.036 12.9008 118.16 12.5834C118.271 12.2906 118.439 12.0244 118.651 11.8012C118.863 11.578 119.116 11.4023 119.396 11.2849C119.685 11.1622 119.994 11.1021 120.306 11.1083C120.584 11.1076 120.861 11.1541 121.124 11.2462C121.346 11.3351 121.554 11.4584 121.741 11.6119C121.911 11.7525 122.055 11.9245 122.166 12.1193C122.246 12.2585 122.312 12.4065 122.362 12.5606C122.373 12.5978 122.37 12.638 122.352 12.6726C122.336 12.7072 122.306 12.7335 122.271 12.7457L121.443 13.031C121.409 13.0426 121.372 13.04 121.339 13.0238C121.306 13.0075 121.281 12.9788 121.268 12.9435C121.207 12.7895 121.117 12.6497 121.005 12.5322C120.854 12.3691 120.623 12.2824 120.324 12.2808C120.172 12.2793 120.023 12.3077 119.881 12.3644Z" fill="white"/>
<path d="M125.763 11.3178C126.041 11.4386 126.293 11.6147 126.506 11.8363C126.718 12.0639 126.884 12.3337 126.994 12.6297C127.111 12.9482 127.169 13.2876 127.162 13.6289C127.166 13.9681 127.105 14.3049 126.984 14.6194C126.871 14.9142 126.703 15.1822 126.489 15.4073C126.274 15.6268 126.02 15.8003 125.741 15.918C125.444 16.0481 125.125 16.1115 124.803 16.1039C124.482 16.11 124.162 16.0452 123.866 15.914C123.589 15.7932 123.336 15.6171 123.123 15.3955C122.911 15.1668 122.746 14.8955 122.637 14.598C122.518 14.2824 122.462 13.9452 122.469 13.6061C122.466 13.2634 122.525 12.9232 122.645 12.6045C122.758 12.3099 122.926 12.0419 123.14 11.8166C123.357 11.5972 123.613 11.4238 123.892 11.306C124.498 11.0684 125.165 11.072 125.767 11.3162L125.763 11.3178ZM125.237 14.8699C125.375 14.8142 125.5 14.7268 125.602 14.6139C125.709 14.4958 125.793 14.3572 125.85 14.2057C125.919 14.022 125.953 13.8262 125.952 13.6289C125.955 13.4303 125.923 13.2328 125.854 13.0474C125.8 12.895 125.717 12.7553 125.612 12.6361C125.511 12.5223 125.386 12.4337 125.248 12.3768C124.975 12.2595 124.669 12.2564 124.393 12.3681C124.255 12.4238 124.13 12.511 124.028 12.6234C123.921 12.7416 123.836 12.8806 123.781 13.0324C123.711 13.2173 123.676 13.4144 123.677 13.6131C123.674 13.8117 123.707 14.0091 123.774 14.1947C123.83 14.3469 123.912 14.4865 124.018 14.606C124.12 14.7195 124.244 14.808 124.381 14.8652C124.517 14.9225 124.662 14.9525 124.808 14.9534C124.955 14.9537 125.1 14.9254 125.236 14.8699H125.237Z" fill="white"/>
<path d="M127.715 11.292L128.588 11.2967C128.607 11.2966 128.625 11.3004 128.642 11.3079C128.66 11.3153 128.676 11.3263 128.688 11.3401C128.702 11.354 128.712 11.3704 128.719 11.3886C128.727 11.4067 128.731 11.4261 128.73 11.4457V11.4567C128.731 11.4849 128.738 11.5124 128.753 11.536C128.767 11.5597 128.788 11.5785 128.812 11.5902C128.837 11.6019 128.864 11.606 128.891 11.602C128.917 11.598 128.942 11.5862 128.963 11.5678C129.064 11.4796 129.174 11.4049 129.293 11.3456C129.412 11.2861 129.539 11.2419 129.669 11.214C129.792 11.1856 129.918 11.1702 130.045 11.1683C130.327 11.1625 130.605 11.2331 130.853 11.3732C131.018 11.4694 131.159 11.6043 131.266 11.7672C131.277 11.7863 131.294 11.8022 131.313 11.8135C131.332 11.8249 131.354 11.8314 131.375 11.8326C131.397 11.8337 131.42 11.8295 131.44 11.8201C131.46 11.8108 131.477 11.7967 131.492 11.779C131.624 11.6002 131.795 11.4567 131.991 11.3598C132.239 11.2383 132.512 11.1794 132.787 11.188C132.992 11.1894 133.195 11.2259 133.389 11.296C133.58 11.3631 133.755 11.4704 133.905 11.6111C134.065 11.7677 134.189 11.9608 134.266 12.1753C134.363 12.4301 134.408 12.7028 134.399 12.9767L134.385 15.8685C134.385 15.9078 134.37 15.9452 134.343 15.9728C134.316 16.0004 134.28 16.0159 134.243 16.0159L133.352 16.0112C133.334 16.0111 133.316 16.0071 133.298 15.9996C133.281 15.9921 133.266 15.981 133.252 15.9672C133.24 15.9534 133.229 15.937 133.222 15.919C133.215 15.901 133.212 15.8817 133.212 15.8622L133.224 13.2273C133.234 13.0021 133.171 12.7803 133.046 12.5969C132.919 12.4243 132.719 12.3376 132.437 12.3361C132.322 12.3296 132.207 12.3509 132.101 12.3983C131.996 12.4457 131.901 12.518 131.827 12.6095C131.679 12.7892 131.6 13.0196 131.605 13.2564L131.592 15.8567C131.592 15.8762 131.589 15.8954 131.581 15.9133C131.574 15.9313 131.564 15.9475 131.55 15.9613C131.537 15.9749 131.521 15.9857 131.504 15.993C131.487 16.0004 131.469 16.0042 131.45 16.0041L130.53 15.9946C130.493 15.9944 130.457 15.9787 130.431 15.9509C130.404 15.9231 130.389 15.8856 130.389 15.8464L130.403 13.2115C130.412 12.982 130.345 12.7563 130.215 12.5717C130.089 12.4093 129.888 12.3227 129.613 12.3211C129.338 12.3195 129.14 12.4046 128.994 12.5843C128.846 12.7675 128.767 13.0009 128.772 13.2407L128.759 15.841C128.759 15.8604 128.756 15.8797 128.748 15.8976C128.741 15.9155 128.731 15.9318 128.717 15.9454C128.705 15.9591 128.688 15.97 128.671 15.9773C128.654 15.9847 128.636 15.9884 128.617 15.9883L127.69 15.9835C127.671 15.9834 127.653 15.9795 127.635 15.972C127.619 15.9644 127.603 15.9535 127.59 15.9397C127.577 15.9258 127.567 15.9094 127.559 15.8914C127.553 15.8734 127.549 15.8541 127.549 15.8346L127.571 11.4425C127.571 11.4226 127.574 11.4027 127.581 11.3842C127.588 11.3657 127.599 11.3489 127.612 11.3348C127.626 11.3208 127.642 11.3097 127.659 11.3024C127.677 11.295 127.697 11.2915 127.715 11.292Z" fill="white"/>
</g>
<defs>
<linearGradient id="paint0_linear_119_54518" x1="31.0403" y1="19.2187" x2="3.6398" y2="29.2052" gradientUnits="userSpaceOnUse">
<stop stop-color="#5CEE9C"/>
<stop offset="1" stop-color="#FFFB1F"/>
</linearGradient>
<clipPath id="clip0_119_54518">
<rect width="134.4" height="24" fill="white" transform="translate(0 4)"/>
</clipPath>
</defs>
</svg>
