<svg width="264" height="64" viewBox="0 0 264 64" fill="none" xmlns="http://www.w3.org/2000/svg">
<path d="M76.6089 24.6195C69.898 24.6195 64.6647 29.4634 64.6647 35.9807C64.6647 42.4979 69.7749 47.3124 76.6089 47.3124C83.4429 47.3124 88.6454 42.4098 88.6454 35.9513C88.6454 29.5221 83.5353 24.6195 76.6089 24.6195ZM76.6705 42.6153C72.8533 42.6153 70.0519 39.7971 70.0519 35.9807C70.0519 32.1349 72.7917 29.3166 76.6397 29.3166C80.5184 29.3166 83.289 32.1936 83.289 35.9807C83.289 39.7677 80.4877 42.6153 76.6705 42.6153ZM90.123 29.5808H93.4477V46.9014H98.7733V25.0599H90.123V29.5808ZM51.2429 29.3166C54.0443 29.3166 56.2607 30.9606 57.1227 33.4266H62.7561C61.7403 28.2011 57.215 24.6489 51.3045 24.6489C44.5936 24.6489 39.3604 29.4928 39.3604 36.01C39.3604 42.5273 44.4705 47.3418 51.3045 47.3418C57.0919 47.3418 61.7095 43.7896 62.7253 38.5054H57.1227C56.3223 40.942 54.1058 42.6447 51.3045 42.6447C47.4257 42.6447 44.7168 39.8264 44.7168 36.01C44.7168 32.1349 47.395 29.3166 51.2429 29.3166ZM191.433 33.867L187.523 33.3092C185.646 33.045 184.322 32.4578 184.322 31.078C184.322 29.5515 186.046 28.7882 188.416 28.7882C191.002 28.7882 192.633 29.8451 193.003 31.5771H198.144C197.559 27.1736 194.019 24.6195 188.539 24.6195C182.906 24.6195 179.15 27.3791 179.15 31.2542C179.15 34.9825 181.582 37.1256 186.538 37.8008L190.448 38.3586C192.356 38.6228 193.434 39.3273 193.434 40.6778C193.434 42.4098 191.556 43.1144 189.001 43.1144C185.83 43.1144 184.076 41.8814 183.798 40.0319H178.565C179.058 44.2887 182.567 47.2831 188.97 47.2831C194.788 47.2831 198.667 44.7584 198.667 40.3842C198.636 36.5384 195.835 34.5128 191.433 33.867ZM96.1259 16.0473C94.1557 16.0473 92.7089 17.3977 92.7089 19.2472C92.7089 21.0967 94.1865 22.4471 96.1259 22.4471C98.0961 22.4471 99.5429 21.0967 99.5429 19.2472C99.5429 17.3977 98.0653 16.0473 96.1259 16.0473ZM174.379 32.5165C174.379 27.7901 171.362 24.6195 164.959 24.6195C158.925 24.6195 155.539 27.5259 154.862 32.0175H160.156C160.433 30.2854 161.85 28.8469 164.866 28.8469C167.575 28.8469 168.899 29.9918 168.899 31.3716C168.899 33.1917 166.467 33.6615 163.42 33.955C159.325 34.366 154.277 35.7164 154.277 40.7952C154.277 44.729 157.355 47.2537 162.219 47.2537C166.036 47.2537 168.437 45.7272 169.638 43.3199C169.823 45.4629 171.516 46.8721 173.855 46.8721H176.964V42.3511H174.348L174.379 32.5165ZM169.115 38.0063C169.115 40.9126 166.436 43.085 163.204 43.085C161.203 43.085 159.51 42.2924 159.51 40.5897C159.51 38.4466 162.219 37.8301 164.712 37.5953C167.114 37.3898 168.437 36.8907 169.115 35.8926V38.0063ZM140.824 24.6195C137.838 24.6195 135.345 25.7938 133.59 27.7901V15.8418H128.264V46.8721H133.498V43.9951C135.283 46.0501 137.807 47.2831 140.824 47.2831C147.227 47.2831 152.06 42.4685 152.06 35.9513C152.06 29.4341 147.135 24.6195 140.824 24.6195ZM140.024 42.6153C136.207 42.6153 133.405 39.7971 133.405 35.9807C133.405 32.1643 136.237 29.3166 140.055 29.3166C143.933 29.3166 146.642 32.1349 146.642 35.9807C146.642 39.7971 143.841 42.6153 140.024 42.6153ZM115.489 24.6195C112.01 24.6195 109.763 25.9699 108.439 27.8781V25.0599H103.145V46.9014H108.47V35.0412C108.47 31.6945 110.687 29.346 113.981 29.346C117.059 29.346 118.968 31.401 118.968 34.4247V46.9308H124.293V34.0431C124.293 28.524 121.307 24.6195 115.489 24.6195ZM224.033 35.2761C224.033 29.0231 219.231 24.6195 212.797 24.6195C205.963 24.6195 200.945 29.5221 200.945 35.9807C200.945 42.7915 206.332 47.3124 212.889 47.3124C218.43 47.3124 222.802 44.2006 223.91 39.7383H218.369C217.568 41.6759 215.629 42.7915 212.982 42.7915C209.565 42.7915 206.979 40.7658 206.394 37.2137H224.033V35.2761ZM206.702 33.5734C207.533 30.5203 209.934 29.0524 212.705 29.0524C215.721 29.0524 218.03 30.6964 218.584 33.5734H206.702Z" fill="white"/>
</svg>
