<svg width="216" height="53" viewBox="0 0 216 53" fill="none" xmlns="http://www.w3.org/2000/svg">
<g clip-path="url(#clip0_3_2056)">
<path d="M129.115 10.665L126.596 20.6075L109.739 22.8747L129.115 10.665Z" fill="white"/>
<path d="M137.889 32.7056L132.435 30.3721L133.683 50.7546L137.889 32.7056Z" fill="white"/>
<path d="M126.596 20.6074L122.16 30.019L109.739 22.8746L126.596 20.6074Z" fill="white"/>
<path d="M132.431 30.3725L122.157 30.0186L133.68 50.755L132.431 30.3725Z" fill="white"/>
<path d="M126.593 20.6074L132.431 30.3729L122.157 30.019L126.593 20.6074Z" fill="white"/>
<path d="M129.118 10.665L143.105 12.4788L126.599 20.6075L129.118 10.665Z" fill="white"/>
<path d="M158.413 6.15234L149.606 16.7252L150.231 6.93756L158.413 6.15234Z" fill="white"/>
<path d="M158.415 6.15238L163.3 0.0917969L162.227 6.62793L158.415 6.15238Z" fill="white"/>
<path d="M153.669 11.6489L162.223 6.6279L158.412 6.15234L153.669 11.6489Z" fill="white"/>
<path d="M137.889 32.7064L138.305 20.5742L132.435 30.3729L137.889 32.7064Z" fill="white"/>
<path d="M138.308 20.5742L132.437 30.3729L126.599 20.6074L138.308 20.5742Z" fill="white"/>
<path d="M143.105 12.4785L138.308 20.574L126.599 20.6072L143.105 12.4785Z" fill="white"/>
<path d="M138.308 20.5742L137.892 32.7064L148.626 44.0645L138.308 20.5742Z" fill="white"/>
<path d="M154.241 37.7163L148.567 23.1621L148.622 44.0645L154.241 37.7163Z" fill="white"/>
<path d="M149.609 16.7246L148.569 23.1612L138.306 20.5733L149.609 16.7246Z" fill="white"/>
<path d="M154.811 25.4726L148.567 23.1612L149.608 16.7246L154.811 25.4726Z" fill="white"/>
<path d="M157.045 37.3074L150.243 26.0488H154.121L157.045 37.3074Z" fill="white"/>
<path d="M144.384 10.0894L149.608 16.7251L150.233 6.9375L144.384 10.0894Z" fill="white"/>
<path d="M148.569 23.1621L138.306 20.5742L148.623 44.0645L148.569 23.1621Z" fill="white"/>
<path d="M55.6634 50.7558V44.9938H51.0741V50.7558H47.4814V35.8145H51.0741V41.5543H55.6634V35.8145H59.256V50.7558H55.6634Z" fill="white"/>
<path d="M63.1455 37.6276C63.1765 37.1553 63.3881 36.7137 63.7355 36.3959C64.0829 36.0781 64.539 35.9091 65.0075 35.9245C65.2412 35.9055 65.4763 35.9356 65.6978 36.0128C65.9194 36.0901 66.1228 36.2128 66.2951 36.3733C66.4674 36.5338 66.6049 36.7287 66.6989 36.9455C66.793 37.1623 66.8415 37.3965 66.8415 37.6332C66.8415 37.8699 66.793 38.104 66.6989 38.3208C66.6049 38.5377 66.4674 38.7325 66.2951 38.893C66.1228 39.0535 65.9194 39.1763 65.6978 39.2535C65.4763 39.3308 65.2412 39.3608 65.0075 39.3418C64.5365 39.36 64.0773 39.1904 63.7289 38.8697C63.3806 38.549 63.171 38.1029 63.1455 37.6276ZM63.3974 40.9455L65.0075 41.8192L66.6615 40.9565V50.7663H63.3755V40.9565L63.3974 40.9455Z" fill="white"/>
<path d="M74.2888 50.7556H71.0028V43.3126H69.6885V40.0833H70.9809V36.5H74.2669V40.0833H75.5593V43.3016H74.2888V50.7556Z" fill="white"/>
<path d="M84.8203 35.8145C89.2015 35.8145 89.9135 38.5019 89.9135 39.8733C89.9463 40.5187 89.7918 41.1598 89.4688 41.7178C89.1458 42.2758 88.6684 42.7263 88.0953 43.0142C88.7795 43.2411 89.3709 43.6887 89.7786 44.2882C90.1863 44.8876 90.3876 45.6057 90.3516 46.332C90.3516 48.6766 89.0372 50.7558 84.7108 50.7558H78.9385V35.8145H84.8203ZM82.5311 41.5432H85.2146C85.374 41.5727 85.5379 41.5661 85.6945 41.5239C85.8511 41.4817 85.9964 41.4049 86.1201 41.2991C86.2437 41.1933 86.3425 41.0611 86.4095 40.9121C86.4764 40.7631 86.5097 40.6009 86.5071 40.4373C86.5097 40.2737 86.4764 40.1115 86.4095 39.9625C86.3425 39.8135 86.2437 39.6813 86.1201 39.5755C85.9964 39.4697 85.8511 39.3929 85.6945 39.3507C85.5379 39.3085 85.374 39.3019 85.2146 39.3314H82.5311V41.6317V41.5432ZM82.5311 47.3273H85.4665C85.6573 47.3578 85.8524 47.3462 86.0383 47.2932C86.2241 47.2403 86.3965 47.1473 86.5433 47.0206C86.6902 46.8939 86.8081 46.7366 86.889 46.5595C86.9698 46.3824 87.0117 46.1897 87.0117 45.9947C87.0117 45.7997 86.9698 45.6069 86.889 45.4298C86.8081 45.2527 86.6902 45.0954 86.5433 44.9687C86.3965 44.8421 86.2241 44.7491 86.0383 44.6961C85.8524 44.6432 85.6573 44.6315 85.4665 44.662H82.5311V47.3273Z" fill="white"/>
<path d="M99.5982 50.7558H96.0056V39.2318H92.2158V35.8145H103.344V39.2318H99.5982V50.7558Z" fill="white"/>
<path d="M118.345 38.1473L116.023 40.3592C115.125 39.5384 113.949 39.0954 112.737 39.1205C112.204 39.1165 111.675 39.2233 111.183 39.4342C110.692 39.645 110.249 39.9555 109.881 40.3464C109.514 40.7373 109.229 41.2003 109.046 41.7066C108.863 42.2129 108.785 42.7518 108.816 43.2899C108.78 43.8306 108.855 44.3731 109.037 44.8829C109.219 45.3928 109.504 45.859 109.873 46.252C110.243 46.6449 110.689 46.9561 111.184 47.1659C111.679 47.3756 112.212 47.4793 112.748 47.4704C113.957 47.5038 115.133 47.0685 116.034 46.2538L118.356 48.4657C117.643 49.2427 116.779 49.8635 115.818 50.2896C114.857 50.7157 113.82 50.9381 112.77 50.943C110.769 50.943 108.849 50.1402 107.434 48.7112C106.019 47.2822 105.224 45.344 105.224 43.3231C105.224 41.3021 106.019 39.364 107.434 37.935C108.849 36.5059 110.769 35.7031 112.77 35.7031C113.816 35.7053 114.849 35.9233 115.808 36.3436C116.767 36.7639 117.63 37.3777 118.345 38.1473Z" fill="white"/>
<path d="M154.243 37.7158L156.511 39.0208L148.657 44.0639L154.243 37.7158Z" fill="white"/>
<path d="M157.045 37.1855L148.567 23.1621L154.241 37.7163L157.045 37.1855Z" fill="white"/>
<path d="M144.385 10.0898L138.306 20.5742L149.609 16.7255L144.385 10.0898Z" fill="white"/>
<g opacity="0.7">
<path opacity="0.7" d="M51.5486 28.569V29.3763H47.7041V24.1895H51.4501V24.9968H48.657V26.346H51.1324V27.1423H48.657V28.569H51.5486Z" fill="white"/>
<path opacity="0.7" d="M53.5296 29.2883C53.2105 29.2033 52.9122 29.0527 52.6533 28.8459L52.96 28.0828C53.1943 28.2629 53.4573 28.4013 53.7377 28.492C54.0338 28.5947 54.3447 28.647 54.6577 28.6468C54.9543 28.6655 55.2501 28.6004 55.5121 28.4588C55.5978 28.4102 55.6692 28.3396 55.7192 28.2541C55.7692 28.1687 55.796 28.0715 55.7969 27.9722C55.7988 27.9038 55.7861 27.8358 55.7597 27.7728C55.7332 27.7099 55.6936 27.6534 55.6435 27.6073C55.5255 27.5054 55.3873 27.43 55.2383 27.3861L54.5811 27.1981C54.2579 27.1266 53.9396 27.0342 53.6281 26.9216C53.3871 26.8283 53.1726 26.6763 53.0038 26.4792C52.8202 26.2522 52.7265 25.9645 52.7409 25.6719C52.7348 25.3939 52.811 25.1204 52.96 24.8866C53.1347 24.6341 53.3782 24.4382 53.661 24.3226C54.0087 24.1798 54.381 24.1084 54.7563 24.1125C55.0669 24.1137 55.376 24.1545 55.6764 24.2341C55.9565 24.3028 56.2231 24.4187 56.465 24.577L56.2459 25.329C56.026 25.1994 55.7904 25.099 55.5449 25.0304C55.3132 24.9646 55.0737 24.9311 54.833 24.9309C54.5396 24.9081 54.2462 24.9735 53.9896 25.1189C53.905 25.1733 53.8354 25.2485 53.7875 25.3375C53.7396 25.4265 53.7149 25.5263 53.7158 25.6276C53.7131 25.6961 53.7254 25.7643 53.7519 25.8274C53.7785 25.8905 53.8185 25.9469 53.8691 25.9926C53.9871 26.0945 54.1253 26.1699 54.2744 26.2138L54.9316 26.4018C55.2516 26.4714 55.5664 26.5638 55.8735 26.6783C56.1139 26.7727 56.3281 26.9245 56.4979 27.1206C56.6807 27.3437 56.7745 27.6277 56.7607 27.9169C56.7635 28.1925 56.6833 28.4625 56.5307 28.6911C56.3549 28.9399 56.1114 29.132 55.8297 29.2441C55.4818 29.386 55.1096 29.4574 54.7344 29.4542C54.3267 29.4625 53.9202 29.4065 53.5296 29.2883Z" fill="white"/>
<path opacity="0.7" d="M59.2839 25.0079H57.5752V24.1895H61.9564V25.0079H60.2368V29.4316H59.2839V25.0079Z" fill="white"/>
<path opacity="0.7" d="M62.4663 29.2551C62.3647 29.1545 62.3009 29.0215 62.2857 28.8786C62.2706 28.7358 62.3051 28.5921 62.3833 28.4721C62.4615 28.3521 62.5786 28.2633 62.7146 28.2209C62.8505 28.1786 62.9968 28.1852 63.1284 28.2397C63.26 28.2942 63.3688 28.3933 63.4361 28.5198C63.5033 28.6464 63.5249 28.7926 63.4972 28.9335C63.4694 29.0744 63.394 29.2012 63.2839 29.2921C63.1738 29.3831 63.0358 29.4325 62.8935 29.432C62.8142 29.4329 62.7355 29.4178 62.6621 29.3874C62.5887 29.357 62.5221 29.312 62.4663 29.2551Z" fill="white"/>
<path opacity="0.7" d="M70.4902 28.5699V29.3883H66.7333V28.7358L68.7706 26.7783C68.9586 26.6106 69.1178 26.4125 69.2416 26.1922C69.3296 26.0442 69.3821 25.8776 69.3949 25.7055C69.4009 25.6007 69.3822 25.4959 69.3403 25.3998C69.2985 25.3036 69.2346 25.2189 69.1539 25.1526C68.9452 25.0089 68.6937 24.9424 68.442 24.9646C68.2056 24.9481 67.9688 24.991 67.7529 25.0894C67.5369 25.1878 67.3484 25.3387 67.2043 25.5286L66.5361 25.0088C66.7467 24.7303 67.0263 24.5129 67.3467 24.3784C67.6935 24.2315 68.0659 24.1563 68.442 24.1572C68.9194 24.1319 69.391 24.2724 69.7783 24.5554C69.9442 24.6851 70.0767 24.8534 70.1644 25.046C70.2521 25.2385 70.2925 25.4496 70.2821 25.6613C70.2843 25.9367 70.2244 26.209 70.1068 26.4576C69.9312 26.7759 69.7013 27.0604 69.4278 27.2981L68.0586 28.6142H70.4902V28.5699Z" fill="white"/>
<path opacity="0.7" d="M72.5965 29.145C72.2588 28.9198 71.9926 28.6011 71.8298 28.227C71.4591 27.3089 71.4591 26.2807 71.8298 25.3626C71.9931 24.9889 72.2592 24.6703 72.5965 24.4447C72.9241 24.2363 73.3047 24.1287 73.6918 24.135C74.0788 24.1299 74.4591 24.2374 74.7872 24.4447C75.1249 24.6698 75.3911 24.9885 75.5539 25.3626C75.9246 26.2807 75.9246 27.3089 75.5539 28.227C75.3916 28.6015 75.1253 28.9203 74.7872 29.145C74.4605 29.3567 74.08 29.4681 73.6918 29.4657C73.3035 29.4694 72.9226 29.3579 72.5965 29.145ZM74.5681 28.1607C74.7998 27.7435 74.9028 27.266 74.8638 26.7893C74.8968 26.3103 74.7861 25.8324 74.5462 25.4179C74.4438 25.2847 74.3126 25.1769 74.1626 25.1028C74.0127 25.0286 73.8479 24.99 73.6809 24.99C73.5139 24.99 73.3491 25.0286 73.1991 25.1028C73.0492 25.1769 72.918 25.2847 72.8156 25.4179C72.5756 25.8324 72.4649 26.3103 72.498 26.7893C72.4656 27.2682 72.5763 27.7459 72.8156 28.1607C72.9176 28.298 73.0499 28.4095 73.202 28.4863C73.3541 28.5631 73.5218 28.6031 73.6918 28.6031C73.8619 28.6031 74.0296 28.5631 74.1817 28.4863C74.3338 28.4095 74.4661 28.298 74.5681 28.1607Z" fill="white"/>
<path opacity="0.7" d="M78.6703 24.1895V29.3763H77.7174V24.9526H76.6221V24.1895H78.6593H78.6703Z" fill="white"/>
<path opacity="0.7" d="M83.4014 26.8216C83.6527 27.094 83.7867 27.456 83.7738 27.828C83.7755 28.1173 83.6958 28.4011 83.5438 28.6464C83.3757 28.9059 83.1357 29.1097 82.8538 29.2326C82.5088 29.3853 82.1351 29.4608 81.7585 29.4538C81.3876 29.4603 81.018 29.408 80.6631 29.2989C80.3506 29.2055 80.0574 29.0556 79.7979 28.8565L80.2141 28.1045C80.4148 28.2721 80.6453 28.3997 80.8932 28.4805C81.158 28.5698 81.4355 28.6147 81.7146 28.6132C82.0038 28.635 82.2921 28.5613 82.5361 28.4031C82.6293 28.34 82.7052 28.2543 82.7569 28.1538C82.8085 28.0533 82.8343 27.9412 82.8319 27.828C82.8335 27.7165 82.8072 27.6063 82.7556 27.5077C82.7039 27.4092 82.6284 27.3253 82.5361 27.264C82.282 27.1115 81.9875 27.042 81.6927 27.0649H81.2327V26.4013L82.4047 24.9968H80.0607V24.1895H83.5657V24.8309L82.3171 26.335C82.724 26.3631 83.1081 26.5354 83.4014 26.8216Z" fill="white"/>
</g>
</g>
<defs>
<clipPath id="clip0_3_2056">
<rect width="115.818" height="50.8182" fill="white" transform="translate(47.4814 0.0917969)"/>
</clipPath>
</defs>
</svg>
