<svg width="216" height="53" viewBox="0 0 216 53" fill="none" xmlns="http://www.w3.org/2000/svg">
<path d="M166.933 30.5757H170.218C171.947 30.5757 173.344 30.0637 174.407 29.0379C175.469 28.013 176.001 26.6901 176.001 25.071C176.001 23.4672 175.469 22.1497 174.407 21.1158C173.344 20.0836 171.946 19.5671 170.218 19.5671H166.933V30.5757ZM164.006 33.1665V25.0714V16.9764H170.218C172.82 16.9764 174.946 17.7439 176.596 19.2772C178.246 20.8124 179.072 22.743 179.072 25.071C179.072 27.3845 178.242 29.3115 176.584 30.8539C174.926 32.3953 172.804 33.1656 170.218 33.1656H164.007L164.006 33.1665ZM182.233 33.1665V16.9764H194.585V19.5201H185.16V23.73H193.514V26.2738H185.16V30.6227H194.704V33.1665H182.233ZM208.45 16.9764H211.807L205.999 24.8868L212.044 33.1665H208.593L204.214 27.0377L199.811 33.1665H196.456L202.524 24.9328L196.694 16.9764H200.145L204.286 22.7818L208.45 16.9764ZM154.194 33.1421L141.517 33.1529V16.9764H154.076V20.1459H145.156V23.4266H153.005V26.5962H145.156V29.9716H154.194V33.1421ZM138.57 30.8033V30.8214C136.855 32.603 134.954 33.7128 131.742 33.7011C126.844 33.7011 123.205 30.0231 123.205 25.3807V25.3346C123.205 20.7464 126.772 16.9764 131.885 16.9764C135.025 16.9764 136.903 17.9941 138.448 19.475L136.12 22.0694C134.827 20.9361 133.525 20.2417 131.861 20.2417C129.056 20.2417 127.033 22.5073 127.033 25.2823V25.3283C127.033 28.1069 129.008 30.4123 131.861 30.4123C133.765 30.4123 134.931 29.6691 136.238 28.516L138.57 30.8033ZM119.661 33.1358L116.552 33.1538L108.48 22.8703V33.1529H104.869V16.9764H108.249L116.046 26.9366V16.9764H119.661V33.1358ZM102.203 33.2514L98.3741 33.2694L96.8531 29.6393H89.8127L88.2917 33.2694H84.5575L91.6903 16.9764H95.067L102.203 33.2514ZM95.5448 26.4815L93.3324 21.2332L91.1201 26.4815H95.5448ZM81.9151 33.1367L78.7987 33.1529L70.738 22.8703V33.1529H67.123V16.9764H70.5006L78.2971 26.9366V16.9764H81.9151V33.1367ZM62.2272 33.1367L58.5645 33.1529V16.9764H62.2263V33.1358L62.2272 33.1367ZM54.5489 28.7182C54.5489 31.6864 52.0753 33.1647 48.3153 33.1529H40.3976V16.9764H48.1255C51.527 16.9764 53.6211 18.6162 53.6211 21.1582V21.2043C53.6211 23.032 52.6188 24.0488 51.4326 24.6944C53.3626 25.4123 54.5489 26.4986 54.5489 28.6713V28.7182ZM50.91 28.2712V28.2423C50.91 27.156 50.0766 26.4869 48.197 26.4869H43.964V30.0294H48.3143C49.9335 30.0294 50.91 29.4732 50.91 28.2712ZM49.9822 21.8012V21.7723C49.9822 20.7085 49.1249 20.1062 47.5791 20.1062H43.965V23.5106H47.3426C48.959 23.5106 49.9822 23.0031 49.9822 21.8012ZM7.17257 25.5261L7.18211 31.281L12.3506 34.1571V37.5154L4.16113 32.9723V23.8474L7.17257 25.5261ZM7.17257 19.7685V23.1268L4.16113 21.4463V18.0889L7.17257 16.4129L10.185 18.0889L7.17257 19.7685ZM14.4952 18.0889L17.5095 16.4129L20.519 18.0889L17.5066 19.7685L14.4952 18.0889ZM9.33818 30.0809V26.7235L12.3506 28.4022V31.7605L9.33818 30.0809ZM14.4952 35.3572L17.5066 37.0368L20.519 35.3572V38.7146L17.5066 40.3942L14.4952 38.7146V35.3572ZM24.835 18.0889L27.8464 16.4129L30.8588 18.0889V21.4481L27.8464 23.1268V19.7676L24.835 18.0889ZM27.8464 31.2819L27.8503 25.5261L30.8617 23.8465V32.9723L22.678 37.5154V34.1571L27.8464 31.2819ZM25.6932 30.0809L22.6818 31.7605V28.4013L25.6932 26.7235V30.0809ZM25.6932 20.9686L25.6989 24.3269L20.5305 27.2021V32.9723L17.519 34.651L14.5066 32.9714V27.2021L9.33913 24.3269V20.9677L12.3515 19.289L17.5105 22.1678L22.6827 19.289L25.6932 20.9686ZM9.33913 15.2137L17.5086 10.6553L25.6923 15.2137L22.6808 16.8924L17.5086 14.0136L12.3496 16.8924L9.33723 15.2128L9.33913 15.2137Z" fill="white"/>
</svg>
