<svg width="215" height="52" viewBox="0 0 215 52" fill="none" xmlns="http://www.w3.org/2000/svg">
<g clip-path="url(#clip0_3_2045)">
<path d="M90.2512 18.2954V26.9655H81.6017V19.4149C81.6017 18.7944 81.0962 18.291 80.4731 18.291H77.5449V39.0464C77.5449 39.6669 78.0504 40.1703 78.6735 40.1703H81.6017V30.4891H90.2556V39.042C90.2469 39.6625 90.7436 40.1746 91.3667 40.1833H91.3842H94.3124V19.4149C94.3124 18.7944 93.8069 18.291 93.1838 18.291H90.2512V18.2954ZM107.428 23.7196V34.1211C107.437 35.0671 106.94 35.948 106.121 36.434C103.829 37.7532 101.454 36.0999 101.454 33.9302V24.8435C101.454 24.223 100.949 23.7196 100.326 23.7196H97.3974V34.3034C97.4061 37.7142 100.177 40.474 103.602 40.4914H105.267C108.696 40.4827 111.476 37.7142 111.485 34.2991V24.8435C111.485 24.223 110.98 23.7196 110.356 23.7196H107.428Z" fill="white"/>
<path d="M151.732 40.1837H154.66V25.4471C154.66 24.8266 154.155 24.3232 153.532 24.3232H150.604V39.0512C150.599 39.6717 151.1 40.1794 151.723 40.1837H151.732Z" fill="white"/>
<path d="M154.718 21.3755C155.196 20.2263 154.648 18.9088 153.494 18.4328C152.34 17.9568 151.017 18.5025 150.539 19.6517C150.061 20.8008 150.609 22.1183 151.763 22.5943C152.917 23.0703 154.24 22.5246 154.718 21.3755Z" fill="white"/>
<path d="M121.954 23.7109C117.706 23.7109 114.229 26.7355 114.229 30.9664V33.2533C114.229 37.4842 117.706 40.4914 121.954 40.4914C126.203 40.4914 129.68 37.4842 129.68 33.2533V30.9664C129.684 26.7355 126.207 23.7109 121.954 23.7109ZM125.606 33.5267C125.606 35.5271 123.963 36.8593 121.95 36.8593C119.937 36.8593 118.298 35.5271 118.298 33.5267V30.6713C118.298 28.6709 119.941 27.3387 121.95 27.3387C123.959 27.3387 125.606 28.6709 125.606 30.6713V33.5267Z" fill="white"/>
<path d="M140.146 23.7117C138.874 23.703 137.619 23.9894 136.473 24.5405V19.4374C136.473 18.8168 135.967 18.3135 135.344 18.3135H132.416V33.254C132.416 37.4849 135.893 40.4921 140.142 40.4921C144.39 40.4921 147.868 37.4849 147.868 33.254V30.9672C147.872 26.7362 144.403 23.7117 140.146 23.7117ZM143.802 33.5274C143.802 35.5279 142.159 36.8601 140.146 36.8601C138.137 36.8601 136.495 35.5279 136.495 33.5274V30.6721C136.495 28.6716 138.137 27.3394 140.146 27.3394C142.155 27.3394 143.802 28.6716 143.802 30.6721V33.5274Z" fill="white"/>
<path d="M65.2835 20.0873C65.2835 15.6784 63.1265 11.8815 61.4838 10.6491C61.4838 10.6491 61.3574 10.5797 61.3705 10.7576C61.2354 19.2758 56.8649 21.5844 54.4639 24.6914C48.9213 31.8687 54.0718 39.7361 59.3268 41.1898C62.255 42.0056 58.6471 39.7491 58.1808 34.9888C57.61 29.2434 65.2835 24.8519 65.2835 20.0873Z" fill="white"/>
<path d="M67.8037 22.9913C67.7688 22.9696 67.7209 22.9523 67.6904 23.0087C67.5989 24.0805 66.5008 26.3717 65.1064 28.4807C60.3786 35.6233 63.0715 39.0688 64.5879 40.9217C65.4681 41.9935 64.5879 40.9217 66.7841 39.8238C69.4987 38.1835 71.2591 35.3456 71.5206 32.1952C71.952 27.1181 68.8931 23.9199 67.8037 22.9913Z" fill="white"/>
</g>
<defs>
<clipPath id="clip0_3_2045">
<rect width="102.818" height="30.7273" fill="white" transform="translate(52.0723 10.6367)"/>
</clipPath>
</defs>
</svg>
