<svg width="224" height="55" viewBox="0 0 224 55" fill="none" xmlns="http://www.w3.org/2000/svg">
<g clip-path="url(#clip0_3_2096)">
<path d="M152.744 25.5009C152.724 26.1166 152.83 26.7299 153.055 27.3044C153.281 27.879 153.622 28.403 154.057 28.8454C154.493 29.2879 155.014 29.6396 155.591 29.8799C156.167 30.1201 156.787 30.2439 157.412 30.2439C158.038 30.2439 158.658 30.1201 159.234 29.8799C159.811 29.6396 160.332 29.2879 160.768 28.8454C161.203 28.403 161.544 27.879 161.769 27.3044C161.995 26.7299 162.101 26.1166 162.081 25.5009C162.095 24.8872 161.983 24.2771 161.751 23.707C161.52 23.137 161.174 22.6187 160.735 22.1833C160.295 21.7478 159.771 21.4041 159.193 21.1727C158.615 20.9413 157.996 20.8269 157.372 20.8365C154.784 20.7586 152.744 22.547 152.744 25.5009ZM166.317 10.7285V33.5098H162.552L162.316 31.2558C161.743 32.098 160.957 32.778 160.035 33.2282C159.112 33.6784 158.086 33.8831 157.059 33.8219C152.273 33.8219 148.665 30.7116 148.665 25.4244C148.665 19.9044 152.196 17.0277 156.903 17.0277C158.628 17.0277 161.296 17.9604 162.237 19.5931V10.7285H166.317ZM142.78 33.5877H146.782V17.4155H142.78V33.5877ZM128.502 17.4155V25.8116C128.502 28.222 129.835 30.0882 132.424 30.0882C134.857 30.0882 136.582 28.067 136.582 25.5787V17.4155H140.584V33.5084H136.974L136.739 31.3323C136.057 32.1031 135.212 32.7182 134.263 33.1345C133.315 33.5508 132.285 33.7584 131.247 33.7427C127.403 33.7427 124.5 30.8666 124.5 25.8116V17.4155H128.502ZM118.144 25.5009C118.148 24.9002 118.032 24.3046 117.801 23.7484C117.57 23.1923 117.23 22.6866 116.799 22.2604C116.369 21.8342 115.858 21.496 115.294 21.2652C114.73 21.0344 114.126 20.9155 113.515 20.9155C112.905 20.9155 112.301 21.0344 111.737 21.2652C111.173 21.496 110.662 21.8342 110.232 22.2604C109.801 22.6866 109.461 23.1923 109.23 23.7484C108.999 24.3046 108.883 24.9002 108.887 25.5009C108.882 26.1017 108.999 26.6974 109.23 27.2537C109.46 27.81 109.801 28.3158 110.231 28.7422C110.661 29.1685 111.173 29.5069 111.736 29.7378C112.3 29.9687 112.905 30.0876 113.515 30.0877C114.126 30.0877 114.73 29.9689 115.294 29.7381C115.858 29.5072 116.369 29.1689 116.8 28.7427C117.23 28.3164 117.57 27.8106 117.801 27.2543C118.032 26.6981 118.149 26.1024 118.144 25.5016V25.5009ZM118.536 40.274V31.643C117.361 33.4313 114.848 33.8984 113.123 33.8984C107.945 33.8984 104.964 30.166 104.964 25.5009C104.964 20.7586 108.259 17.1048 113.28 17.1048C114.3 17.0948 115.307 17.3218 116.221 17.7675C117.135 18.2131 117.928 18.8648 118.538 19.6695L118.772 17.4148H122.539V40.1961L118.536 40.274ZM145.683 14.6159H143.799C143.53 14.6101 143.273 14.5016 143.082 14.3131C142.892 14.1246 142.784 13.8708 142.78 13.6053V11.7391C142.784 11.4734 142.893 11.2197 143.083 11.0313C143.274 10.8428 143.531 10.7343 143.801 10.7285H145.683C145.953 10.7343 146.21 10.8428 146.4 11.0312C146.591 11.2197 146.7 11.4734 146.704 11.7391V13.5274C146.724 13.6677 146.711 13.8106 146.668 13.9457C146.625 14.0808 146.552 14.2048 146.455 14.3089C146.357 14.413 146.237 14.4944 146.104 14.5475C145.97 14.6006 145.827 14.6239 145.683 14.6159H145.683ZM102.219 14.6159H100.336C100.066 14.6103 99.8082 14.5019 99.6177 14.3134C99.4273 14.1249 99.3185 13.8711 99.3144 13.6053V11.7391C99.3188 11.4734 99.4276 11.2197 99.618 11.0312C99.8084 10.8428 100.066 10.7343 100.336 10.7285H102.218C102.488 10.7343 102.745 10.8428 102.935 11.0313C103.125 11.2197 103.234 11.4735 103.238 11.7391V13.5274C103.258 13.6677 103.246 13.8105 103.203 13.9457C103.16 14.0808 103.087 14.2049 102.989 14.3089C102.892 14.413 102.772 14.4945 102.638 14.5476C102.505 14.6007 102.361 14.624 102.218 14.6159H102.219ZM99.3144 17.4155H103.316V33.5877H99.3144V17.4155ZM87.1547 10.7285V27.9891C87.1548 28.3996 87.3199 28.7933 87.6138 29.0845C87.9078 29.3756 88.3069 29.5405 88.7239 29.5432H97.5107V33.5084H87.0756C86.5167 33.5088 85.9633 33.4003 85.4472 33.1892C84.9312 32.9781 84.4627 32.6685 84.0688 32.2783C83.675 31.888 83.3635 31.425 83.1524 30.9157C82.9414 30.4064 82.8348 29.8611 82.839 29.3111V10.7292H87.1547V10.7285Z" fill="white"/>
<path d="M49.2886 30.8666V20.9922C49.2887 20.5814 49.1237 20.1873 48.8296 19.8958C48.5354 19.6044 48.1361 19.4393 47.7187 19.4367H42.0625C41.7925 19.4423 41.5353 19.5508 41.345 19.7393C41.1547 19.9278 41.0461 20.1816 41.042 20.4473V39.1848C41.0458 39.4507 41.1543 39.7047 41.3447 39.8933C41.535 40.082 41.7924 40.1905 42.0625 40.1961H61.3856C61.6557 40.1905 61.9131 40.082 62.1034 39.8933C62.2938 39.7047 62.4023 39.4507 62.4061 39.1848V34.0541C62.407 33.8505 62.3666 33.6487 62.2871 33.4607C62.1685 33.1777 61.9676 32.9353 61.7096 32.7641C61.4516 32.593 61.148 32.5006 60.8369 32.4986H50.9384C50.7197 32.5031 50.5024 32.464 50.2996 32.3835C50.0967 32.303 49.9126 32.1829 49.7584 32.0303C49.6041 31.8777 49.4829 31.6959 49.4022 31.4959C49.3215 31.2958 49.2828 31.0818 49.2886 30.8666ZM50.3105 10.7285C50.0406 10.7342 49.7834 10.8427 49.5931 11.0312C49.4027 11.2196 49.2941 11.4734 49.29 11.7391V16.0935C49.2894 16.5044 49.4543 16.8987 49.7485 17.1902C50.0428 17.4816 50.4425 17.6464 50.86 17.6483H54.0027C54.4201 17.6507 54.8195 17.8156 55.1136 18.107C55.4078 18.3983 55.5728 18.7924 55.5726 19.2031V24.0239C55.5728 24.4348 55.7381 24.8289 56.0325 25.1203C56.3269 25.4116 56.7265 25.5764 57.144 25.5787H61.9351C62.3528 25.5811 62.7525 25.746 63.0471 26.0374C63.3416 26.3289 63.507 26.7232 63.5071 27.1342V30.2438C63.5067 30.6546 63.6717 31.0488 63.9659 31.3402C64.2601 31.6316 64.6597 31.7964 65.0771 31.7986H69.4769C69.7467 31.793 70.0038 31.6846 70.1942 31.4963C70.3845 31.308 70.4932 31.0543 70.4974 30.7888V11.7391C70.4932 11.4735 70.3845 11.2197 70.1942 11.0313C70.0039 10.8428 69.7468 10.7343 69.4769 10.7285H50.3105Z" fill="white"/>
</g>
<defs>
<clipPath id="clip0_3_2096">
<rect width="125.273" height="29.5455" fill="white" transform="translate(41.042 10.7285)"/>
</clipPath>
</defs>
</svg>
