<svg width="229" height="52" viewBox="0 0 229 52" fill="none" xmlns="http://www.w3.org/2000/svg">
<g clip-path="url(#clip0_3_2009)">
<g clip-path="url(#clip1_3_2009)">
<path d="M43.2429 31.1713L33.9264 14.5659C31.884 11.1049 26.9032 11.0681 24.9324 14.7132L15.1501 31.9813C13.3226 35.1477 15.58 39.1241 19.235 39.1241H38.8354C42.5263 39.1241 45.2854 35.0371 43.2429 31.1713Z" fill="white"/>
<path d="M29.8075 32.4596L29.2342 31.4287C28.6967 30.4713 27.5142 28.4095 27.5142 28.4095L19.631 14.3447C17.5886 11.2151 12.7512 10.9574 10.7087 14.897L1.53558 31.2077C-0.363549 34.6319 1.89391 39.0869 6.01467 39.1239H25.5076H33.8208H38.7657C33.7133 39.1607 32.1009 36.4728 29.8075 32.4596Z" fill="white"/>
<path d="M29.8063 32.4588L29.233 31.428C28.6955 30.4707 27.513 28.4088 27.513 28.4088L22.4248 19.2041L15.1149 32.0171C13.2875 35.1835 15.5449 39.1599 19.1999 39.1599H25.4706H33.7837H38.7645C33.6763 39.1231 32.0996 36.4722 29.8063 32.4588Z" fill="white"/>
<path d="M216.016 37.8338C214.69 37.8338 213.651 37.5393 212.863 37.0238C212.038 36.4716 211.608 35.6614 211.608 34.5569V18.5039H213.687C214.44 18.5039 215.085 19.1298 215.085 19.9398V34.0782C215.085 34.1152 215.085 34.7778 215.622 35.3301C215.944 35.6614 216.338 35.8456 216.875 35.8456H217.27C217.414 35.8456 217.557 35.9929 217.557 36.1401V37.8706L216.016 37.8338Z" fill="white"/>
<path d="M171.227 37.8346C169.077 37.8346 167.321 37.2455 165.995 36.0672C165.315 35.4782 164.849 34.8154 164.563 34.079C164.276 33.3427 164.132 32.2748 164.132 30.839C164.132 29.4399 164.276 28.3352 164.563 27.5988C164.813 26.8994 165.279 26.2734 165.96 25.6843C167.285 24.5061 169.041 23.917 171.191 23.917C173.341 23.917 175.097 24.5061 176.423 25.6843C177.104 26.2734 177.57 26.9362 177.82 27.5988C178.107 28.372 178.25 29.4399 178.25 30.839C178.25 32.2748 178.107 33.3427 177.82 34.079C177.534 34.8154 177.068 35.4782 176.387 36.0672C175.133 37.2455 173.377 37.8346 171.227 37.8346ZM171.227 25.942C168.862 25.942 167.68 27.5988 167.68 30.8758C167.68 34.1895 168.862 35.8463 171.227 35.8463C173.591 35.8463 174.775 34.1895 174.775 30.9126C174.775 27.5988 173.556 25.942 171.227 25.942Z" fill="white"/>
<path d="M186.06 37.8358C184.197 37.8358 182.478 37.3203 181.009 36.3262C180.865 36.1789 180.578 35.9949 180.22 35.7739C180.149 35.7371 180.077 35.6266 180.077 35.5162V18.5059H182.191C182.944 18.5059 183.589 19.1686 183.589 19.9418V24.9123L184.233 24.5442C184.986 24.1392 185.989 23.9551 187.279 23.9551C189.537 23.9551 191.256 24.6546 192.403 26.0169C193.406 27.2319 193.908 28.8519 193.908 30.8402C193.908 32.8285 193.335 34.4485 192.188 35.6266C190.862 37.0994 188.784 37.8358 186.06 37.8358ZM186.419 25.9433C185.631 25.9433 184.734 26.2378 183.731 26.8638L183.589 26.9374V34.9271L183.731 35.0375C184.52 35.553 185.452 35.8107 186.419 35.8107C187.708 35.8107 188.713 35.2585 189.393 34.1539C189.966 33.2702 190.289 32.1289 190.289 30.8402C190.289 27.6001 188.963 25.9433 186.419 25.9433Z" fill="white"/>
<path d="M202.183 37.7978C198.241 37.7978 195.769 35.1468 195.769 30.839C195.769 26.568 198.204 23.917 202.11 23.917C203.615 23.917 204.905 24.322 205.944 25.0952L206.16 25.2425V24.1747H208.919C209.098 24.1747 209.205 24.322 209.205 24.4693V37.54H206.124V36.3618L205.908 36.5459C205.049 37.3559 203.687 37.7978 202.183 37.7978ZM202.899 26.2734C200.426 26.2734 198.957 28.2248 198.957 30.839C198.957 33.4531 200.426 35.4782 202.899 35.4782C203.687 35.4782 205.049 35.4046 206.124 34.2999L206.16 34.2631V27.562L206.124 27.5252C205.371 26.6416 204.26 26.2734 202.899 26.2734Z" fill="white"/>
<path d="M74.874 37.6504V18.4678H90.3895V19.6828C90.3895 20.6401 89.637 21.4133 88.7055 21.4133H78.7439V26.5679H88.7055V29.5135H78.7439V34.668H88.7055C89.637 34.668 90.3895 35.4412 90.3895 36.3985V37.6136L74.874 37.6504Z" fill="white"/>
<path d="M112.673 18.4678H109.018C108.337 18.4678 107.728 18.7623 107.298 19.3146L102.891 25.0215L98.4833 19.3514C98.0534 18.7991 97.4441 18.5046 96.7634 18.5046H93.1084L100.526 28.0775L93.1084 37.6504H96.7634C97.4441 37.6504 98.0534 37.3559 98.4833 36.8036L102.891 31.1335L107.334 36.8404C107.764 37.3559 108.373 37.6872 109.054 37.6872H112.709L105.291 28.1143L112.673 18.4678Z" fill="white"/>
<path d="M62.7273 35.627L67.8155 26.4959V37.6153H71.6856V18.4326H69.2847C68.5322 18.4326 67.8155 18.8376 67.4573 19.5372L61.3657 30.951L55.2742 19.5372C54.9158 18.8376 54.1991 18.4326 53.4466 18.4326H51.0459V37.6153H54.9158V26.4959L60.004 35.627H62.7273Z" fill="white"/>
<path d="M122.781 37.8713C117.406 37.9449 113.035 33.6002 112.999 28.0774C112.999 25.0583 113.895 22.5546 115.579 20.8241C117.263 19.1304 119.7 18.21 122.602 18.21C126.006 18.21 128.694 19.425 130.629 21.7814L129.41 22.8491C128.658 23.5119 127.547 23.5487 126.723 22.9228C125.648 22.0759 124.286 21.6709 122.745 21.6709C118.947 21.6709 116.69 24.0273 116.69 28.0038C116.69 32.017 119.019 34.484 122.745 34.484C124.322 34.484 125.648 34.0421 126.723 33.2321C127.511 32.6061 128.622 32.643 129.41 33.3057L130.629 34.3734C128.694 36.693 126.114 37.8713 122.781 37.8713Z" fill="white"/>
<path d="M146.609 37.8708C140.589 37.8708 136.862 34.1154 136.862 28.077C136.862 22.0387 140.589 18.2832 146.537 18.2832C149.404 18.2832 151.804 19.13 153.668 20.8605L152.772 21.8915C152.378 22.3333 151.804 22.591 151.231 22.591C150.909 22.591 150.586 22.5174 150.299 22.3701C149.188 21.781 147.899 21.4864 146.537 21.4864C142.667 21.4864 140.266 24.027 140.266 28.1139C140.266 32.2375 142.774 34.778 146.788 34.778C148.723 34.778 150.228 34.4099 151.339 33.5999L151.41 33.5631V29.6234H147.146V28.3347C147.146 27.3775 147.899 26.6043 148.83 26.6043H154.097C154.241 26.6043 154.384 26.7515 154.384 26.8988V35.404C152.557 37.024 149.941 37.8708 146.609 37.8708Z" fill="white"/>
<path d="M161.298 37.8338C159.971 37.8338 158.932 37.5393 158.144 37.0238C157.32 36.4716 156.89 35.6614 156.89 34.5569V18.5039H158.968C159.721 18.5039 160.366 19.1298 160.366 19.9398V34.0782C160.366 34.1152 160.366 34.7778 160.903 35.3301C161.226 35.6614 161.619 35.8456 162.157 35.8456H162.551C162.695 35.8456 162.838 35.9929 162.838 36.1401V37.8706L161.298 37.8338Z" fill="white"/>
</g>
</g>
<defs>
<clipPath id="clip0_3_2009">
<rect width="227.849" height="52" fill="white" transform="translate(0.858398)"/>
</clipPath>
<clipPath id="clip1_3_2009">
<rect width="218" height="28" fill="white" transform="translate(0.858398 12)"/>
</clipPath>
</defs>
</svg>
