<svg width="152" height="52" viewBox="0 0 152 52" fill="none" xmlns="http://www.w3.org/2000/svg">
<g clip-path="url(#clip0_3_1995)">
<g clip-path="url(#clip1_3_1995)">
<mask id="mask0_3_1995" style="mask-type:alpha" maskUnits="userSpaceOnUse" x="0" y="9" width="145" height="33">
<path d="M0.608398 9H144.608V42H0.608398V9Z" fill="white"/>
</mask>
<g mask="url(#mask0_3_1995)">
<path fill-rule="evenodd" clip-rule="evenodd" d="M119.821 18.8073H123.91V14.7139H119.821V18.8073ZM98.0838 25.6243C98.8653 23.5502 100.866 22.0734 103.213 22.0734C105.559 22.0734 107.56 23.5502 108.342 25.6243H98.0838ZM103.213 18.2675C98.0866 18.2675 93.9297 22.4277 93.9297 27.5598C93.9297 32.6919 98.0866 36.8515 103.213 36.8515C106.73 36.8515 109.791 34.8937 111.366 32.008L107.936 30.3422C106.983 31.9597 105.225 33.0455 103.213 33.0455C100.671 33.0455 98.5339 31.3134 97.9139 28.964H108.511C108.511 28.9657 108.51 28.9681 108.51 28.9702H112.391C112.461 28.5101 112.497 28.0391 112.497 27.5598C112.497 22.4277 108.341 18.2675 103.213 18.2675ZM113.575 36.3561H117.665V32.2626H113.575V36.3561ZM119.821 36.3561H123.91V20.6069H119.821V36.3561ZM135.325 33.0455C132.298 33.0455 129.844 30.5894 129.844 27.5598C129.844 24.5296 132.298 22.0734 135.325 22.0734C138.352 22.0734 140.805 24.5296 140.805 27.5598C140.805 30.5894 138.352 33.0455 135.325 33.0455ZM135.323 18.2675C130.197 18.2675 126.04 22.4277 126.04 27.5598C126.04 32.6919 130.197 36.8515 135.323 36.8515C140.451 36.8515 144.608 32.6919 144.608 27.5598C144.608 22.4277 140.451 18.2675 135.323 18.2675ZM49.82 24.1346V28.367H55.5382C55.2396 29.5764 54.6493 30.6602 53.8029 31.526C52.5262 32.8319 50.7561 33.5515 48.818 33.5515C44.7965 33.5515 41.5243 30.2765 41.5243 26.2508C41.5243 22.2251 44.7965 18.9498 48.818 18.9498C50.9722 18.9498 52.9524 19.8727 54.3251 21.4644L57.599 18.7868C55.4284 16.2406 52.2078 14.7169 48.818 14.7169C42.4648 14.7169 37.2959 19.8911 37.2959 26.2508C37.2959 32.6104 42.4648 37.7843 48.818 37.7843C51.9028 37.7843 54.7465 36.6717 56.8254 34.5452C58.5699 32.7604 59.7262 30.2707 59.9485 27.7765C60.0569 26.5599 60.0668 25.3515 60.0029 24.1346H49.82ZM70.6502 33.0466C67.6232 33.0466 65.169 30.5897 65.169 27.5598C65.169 24.5293 67.6232 22.0731 70.6502 22.0731C73.6775 22.0731 76.1316 24.5293 76.1316 27.5598C76.1316 30.5897 73.6775 33.0466 70.6502 33.0466ZM76.1323 20.0784C74.5957 18.9508 72.7011 18.2833 70.6502 18.2833C65.524 18.2833 61.3685 22.4431 61.3685 27.5742C61.3685 32.7059 65.524 36.8652 70.6502 36.8652C72.7011 36.8652 74.5957 36.198 76.1323 35.0704V36.3561H79.9322V18.7926H76.1323V20.0784ZM88.0894 14.7142H84.2892V18.8073H82.0115V22.3973H84.2892V31.7919C84.2892 32.7621 84.411 33.5782 84.6524 34.2187C84.8904 34.8523 85.2543 35.3483 85.6869 35.7358C86.1254 36.1292 86.6397 36.4355 87.2495 36.6094C87.8692 36.784 88.5528 36.8515 89.2755 36.8515C90.0234 36.8515 90.6903 36.7738 91.2594 36.6201C91.7878 36.478 92.2942 36.277 92.7655 36.0217V33.1291C92.0159 33.4536 91.3151 33.571 90.5155 33.6083C89.6715 33.648 89.1722 33.4067 88.7567 33.0103C88.3213 32.595 88.0894 32.0538 88.0894 31.146V22.3973H92.7655V18.8073H88.0894V14.7142Z" fill="white"/>
<path fill-rule="evenodd" clip-rule="evenodd" d="M17.0928 34.5752C12.0857 34.5752 8.02658 30.5125 8.02658 25.5002C8.02658 20.4883 12.0857 16.425 17.0928 16.425V9C7.98862 9 0.608398 16.3873 0.608398 25.5002C0.608398 34.6128 7.98862 42.0001 17.0928 42.0001C26.1967 42.0001 33.5772 34.6128 33.5772 25.5002H26.1591C26.1591 30.5125 22.0999 34.5752 17.0928 34.5752Z" fill="white"/>
<path fill-rule="evenodd" clip-rule="evenodd" d="M17.0928 25.4997H26.159V16.4248H17.0928V25.4997Z" fill="white"/>
</g>
</g>
</g>
<defs>
<clipPath id="clip0_3_1995">
<rect width="150.506" height="52" fill="white" transform="translate(0.608398)"/>
</clipPath>
<clipPath id="clip1_3_1995">
<rect width="144" height="33" fill="white" transform="translate(0.608398 9)"/>
</clipPath>
</defs>
</svg>
