<svg width="215" height="53" viewBox="0 0 215 53" fill="none" xmlns="http://www.w3.org/2000/svg">
<path fill-rule="evenodd" clip-rule="evenodd" d="M59.6923 7.18262C48.725 7.18262 39.8525 15.6584 39.8525 26.0917C39.8525 36.525 48.7455 45.0008 59.6923 45.0008C70.6391 45.0008 79.5321 36.525 79.5321 26.0917C79.5321 15.6584 70.6596 7.18262 59.6923 7.18262ZM59.7334 34.5675C57.5769 34.5675 55.8722 33.9411 54.7016 32.6884V34.3522H50.8815V14.5427H54.9069V21.5112C56.0981 20.3368 57.7207 19.7691 59.7128 19.7691C64.1696 19.7691 67.6405 22.627 67.6405 27.1683H67.6816C67.6611 31.6705 64.1901 34.5675 59.7334 34.5675ZM70.6186 34.3913C69.3041 34.3913 68.2772 33.4909 68.2772 32.2577C68.2772 31.0049 69.3041 30.1828 70.598 30.1828C71.933 30.1828 72.9394 31.0049 72.9394 32.2577C72.9394 33.5105 71.8919 34.3913 70.6186 34.3913ZM59.8499 23.1758C57.5291 23.1758 55.7834 24.683 55.7834 27.169C55.7834 29.6354 57.5291 31.1427 59.8499 31.1427C62.1707 31.1427 63.8959 29.6354 63.8959 27.169C63.8959 24.683 62.1707 23.1758 59.8499 23.1758ZM172.862 27.0713C173.54 27.3454 174.115 27.776 174.587 28.3437C175.08 28.8918 175.327 29.5965 175.306 30.5556C175.306 31.9258 174.751 33.0025 173.663 33.7659C172.554 34.5293 171.157 34.9012 169.412 34.9012C168.241 34.9012 167.091 34.7446 165.982 34.4118C164.955 34.0986 163.99 33.6093 163.147 32.9829L164.482 30.3012C165.92 31.4169 167.707 32.0237 169.535 32.0433C170.069 32.0433 170.521 31.9454 170.849 31.7693C171.178 31.5735 171.342 31.2995 171.342 30.9471C171.342 30.5361 171.137 30.2229 170.705 30.0075C170.295 29.7922 169.617 29.5377 168.672 29.3029C167.666 29.0092 166.844 28.7548 166.187 28.4611C165.55 28.1675 164.996 27.7565 164.544 27.2279C164.051 26.6016 163.784 25.8381 163.825 25.0552C163.825 23.6849 164.38 22.6279 165.448 21.8645C166.639 21.0815 168.077 20.6704 169.535 20.7292C171.548 20.7292 173.499 21.2577 175.203 22.2756L173.766 24.9573V24.9769C173.026 24.5658 172.246 24.233 171.424 23.9981C170.747 23.7632 170.048 23.6458 169.35 23.6262C168.857 23.6262 168.446 23.7241 168.138 23.8807C167.994 23.959 167.871 24.0764 167.789 24.2134C167.707 24.3505 167.686 24.5071 167.686 24.6637C167.686 25.016 167.912 25.3096 168.323 25.5249C168.713 25.7207 169.391 25.936 170.336 26.2101C171.363 26.4841 172.205 26.7777 172.862 27.0713ZM155.748 20.7471C153.406 20.7862 151.743 21.6279 150.737 23.3113V20.8841H146.608V34.7038H150.737V27.9114C150.737 26.8739 151.045 26.0126 151.62 25.3863C152.215 24.7011 153.016 24.3684 154.043 24.3488C154.926 24.3488 155.625 24.6228 156.118 25.1318C156.652 25.6016 156.919 26.3063 156.919 27.1871V34.7038H161.047V26.0126C161.067 24.4075 160.574 23.1352 159.609 22.1564C158.664 21.2169 157.37 20.7471 155.748 20.7471ZM108.985 15.3656C109.416 14.9545 109.971 14.7588 110.608 14.7588C111.265 14.7588 111.819 14.9545 112.23 15.3852C112.662 15.7767 112.887 16.3052 112.867 16.9511C112.867 17.5971 112.662 18.1256 112.21 18.5367C111.819 18.9478 111.265 19.1631 110.608 19.1631C109.95 19.1631 109.416 18.9478 108.985 18.5367C108.574 18.1256 108.369 17.5971 108.369 16.9707C108.369 16.3052 108.574 15.7767 108.985 15.3656ZM140.586 21.6481C139.56 21.0608 138.368 20.7476 137.033 20.7476H137.013C136.089 20.7476 135.185 20.9434 134.363 21.3349C133.583 21.6872 132.946 22.2157 132.412 22.9009V15.6387H128.284V34.7044H132.412V32.7077C132.926 33.3929 133.604 33.9409 134.405 34.3324C135.185 34.6848 136.089 34.861 137.074 34.861C138.43 34.861 139.621 34.5673 140.607 33.9801C141.634 33.4124 142.476 32.5707 143.01 31.5528C143.565 30.4762 143.831 29.2626 143.831 27.8728C143.852 26.483 143.565 25.2302 142.989 24.1341C142.435 23.0575 141.634 22.2353 140.586 21.6481ZM138.656 30.5154C137.999 31.2201 137.136 31.5724 136.068 31.5724H136.048C135 31.5724 134.117 31.2201 133.46 30.5154C132.803 29.8303 132.474 28.8907 132.474 27.7358C132.474 26.6396 132.803 25.7196 133.46 25.0345C134.138 24.3102 135.021 23.9383 136.068 23.9383C137.136 23.9383 137.978 24.3102 138.656 25.0345C139.313 25.7196 139.642 26.6396 139.642 27.7358C139.642 28.8711 139.313 29.7911 138.656 30.5154ZM121.471 29.9862C121.471 31.0237 121.902 31.5522 122.785 31.5522C123.401 31.5522 124.079 31.3956 124.798 31.0433L125.661 33.9403C124.531 34.5863 123.237 34.919 121.902 34.8799C120.567 34.8799 119.458 34.5275 118.616 33.7837C117.795 33.0594 117.363 32.0024 117.363 30.6322V24.2117H115.351V21.53H117.363V17.6934H121.491V21.53H125.414V24.2704H121.471V29.9862ZM112.697 20.9043H108.569V34.7044H112.697V20.9043ZM103.995 23.7617C103.42 24.4468 102.64 24.9166 101.633 25.171C102.865 25.4059 103.81 25.9149 104.508 26.737C105.207 27.5396 105.556 28.5379 105.556 29.7515C105.556 31.2979 104.919 32.5115 103.646 33.3924C102.373 34.2732 100.627 34.7235 98.4497 34.7235H89.4746V16.754H98.1622V16.7344C100.257 16.7344 101.88 17.1454 103.091 17.948C104.303 18.7506 104.899 19.8272 104.899 21.2365C104.899 22.1957 104.591 23.0374 103.995 23.7617ZM97.9363 20.0425H93.726V23.977H97.9363C98.7373 23.977 99.374 23.8204 99.8258 23.4485C100.298 23.0961 100.524 22.5872 100.524 21.9608C100.524 21.3344 100.278 20.8646 99.8258 20.5319C99.2713 20.1599 98.6141 19.9838 97.9363 20.0425ZM97.9363 31.3762C98.9221 31.3762 99.7231 31.2 100.298 30.8281C100.873 30.4366 101.161 29.8885 101.161 29.1838C101.161 28.5574 100.873 28.0289 100.298 27.657C99.5999 27.2459 98.7578 27.0502 97.9363 27.1089H93.726V31.3762H97.9363Z" fill="white"/>
</svg>
