<svg width="216" height="52" viewBox="0 0 216 52" fill="none" xmlns="http://www.w3.org/2000/svg">
<g clip-path="url(#clip0_3_2029)">
<path d="M149.855 25.9823C149.855 25.0177 149.855 24.1104 149.823 23.2725C149.802 22.4821 149.724 21.6942 149.59 20.915C149.464 20.2034 149.243 19.5124 148.931 18.861C148.602 18.1893 148.162 17.5782 147.631 17.0533C146.876 16.2781 145.979 15.6577 144.988 15.2266C143.916 14.7911 142.768 14.5752 141.612 14.5917C140.451 14.5766 139.299 14.7924 138.222 15.2266C137.226 15.6518 136.323 16.2695 135.564 17.0447C135.033 17.5692 134.595 18.1805 134.269 18.8523C133.96 19.5039 133.742 20.195 133.62 20.9063C133.489 21.6857 133.414 22.4736 133.395 23.2639C133.375 24.1018 133.364 25.009 133.369 25.9736C133.375 26.9381 133.369 27.8385 133.395 28.6816C133.414 29.4718 133.489 30.2597 133.62 31.0391C133.742 31.7504 133.96 32.4415 134.269 33.0931C134.597 33.7642 135.034 34.3752 135.564 34.9007C136.321 35.6765 137.225 36.2933 138.222 36.7153C139.299 37.1523 140.451 37.3694 141.612 37.3537C142.769 37.3708 143.917 37.1537 144.988 36.7153C145.979 36.29 146.877 35.6735 147.631 34.9007C148.161 34.3749 148.601 33.764 148.931 33.0931C149.243 32.4417 149.464 31.7506 149.59 31.0391C149.723 30.2621 149.8 29.4766 149.82 28.6885C149.846 27.8454 149.858 26.9433 149.851 25.9805L149.855 25.9823ZM145.496 25.9823C145.496 27.0509 145.481 27.9408 145.444 28.6486C145.424 29.23 145.366 29.8095 145.272 30.3834C145.207 30.7658 145.09 31.1375 144.926 31.4884C144.792 31.7713 144.617 32.0326 144.407 32.2639C144.082 32.6367 143.679 32.9329 143.227 33.1313C142.719 33.3496 142.171 33.4606 141.617 33.4575C141.061 33.4599 140.51 33.3489 139.998 33.1313C139.535 32.9366 139.122 32.6402 138.788 32.2639C138.576 32.0337 138.401 31.7721 138.269 31.4884C138.109 31.1372 137.998 30.7652 137.94 30.3834C137.848 29.8091 137.79 29.2298 137.767 28.6486C137.736 27.9408 137.721 27.052 137.721 25.9823C137.721 24.9136 137.736 24.022 137.767 23.3142C137.79 22.7329 137.848 22.1536 137.94 21.5794C137.998 21.1975 138.109 20.8256 138.269 20.4743C138.402 20.1909 138.577 19.9294 138.788 19.6989C139.122 19.3231 139.536 19.0268 139.998 18.8315C140.51 18.6114 141.061 18.5003 141.617 18.5054C142.171 18.4996 142.719 18.6107 143.227 18.8315C143.679 19.0305 144.082 19.3266 144.407 19.6989C144.617 19.9305 144.792 20.1917 144.926 20.4743C145.09 20.8252 145.207 21.197 145.272 21.5794C145.366 22.1533 145.424 22.7328 145.444 23.3142C145.483 24.0202 145.496 24.9119 145.496 25.9823Z" fill="white"/>
<path d="M184.578 15.1705C184.576 14.9595 184.406 14.789 184.196 14.7871H180.601C180.39 14.7881 180.219 14.9592 180.218 15.1705V28.4936L171.45 14.8947C171.391 14.8027 171.339 14.7871 171.21 14.7871H167.875C167.665 14.7899 167.496 14.9599 167.493 15.1705V36.7893C167.496 36.9996 167.666 37.1691 167.875 37.171H171.469C171.679 37.17 171.849 36.9997 171.85 36.7893V23.4315L180.62 37.0617C180.68 37.1536 180.729 37.1692 180.86 37.1692H184.193C184.403 37.1683 184.573 36.9982 184.575 36.7876L184.578 15.1705Z" fill="white"/>
<path d="M160.475 15.1705C160.474 14.9592 160.303 14.7881 160.092 14.7871H156.5C156.29 14.7881 156.119 14.9592 156.118 15.1705V36.7876C156.119 36.9989 156.29 37.17 156.5 37.171H160.092C160.303 37.17 160.474 36.9989 160.475 36.7876V15.1705Z" fill="white"/>
<path d="M117.473 25.982C117.473 24.9064 117.485 24.0113 117.516 23.2983C117.537 22.717 117.595 22.1375 117.689 21.5635C118.021 19.6379 119.491 18.5016 121.368 18.5016C122.592 18.512 123.702 18.9666 124.412 20.0005C124.733 20.4832 124.967 21.0187 125.103 21.5826C125.114 21.642 125.168 21.6835 125.228 21.678H129.456C129.517 21.678 129.539 21.6364 129.529 21.5774C129.067 18.9527 127.672 16.5951 125.205 15.4276C123.993 14.8647 122.67 14.583 121.335 14.6036C118.954 14.6036 116.948 15.4212 115.318 17.0566C114.387 17.9665 113.752 19.1371 113.495 20.4151C113.246 21.6734 113.121 23.5284 113.118 25.9803C113.116 28.4321 113.242 30.2866 113.495 31.5437C113.75 32.8234 114.383 33.9963 115.313 34.9092C116.942 36.5433 118.948 37.3604 121.33 37.3604C122.665 37.3807 123.988 37.0997 125.2 36.5381C127.666 35.3706 129.062 33.0131 129.524 30.3883C129.534 30.3276 129.512 30.2877 129.451 30.2877H125.221C125.161 30.2814 125.106 30.3233 125.096 30.3831C124.96 30.9464 124.725 31.4813 124.405 31.9635C123.696 33.0044 122.585 33.4537 121.361 33.4624C119.484 33.4624 118.014 32.3278 117.682 30.4022C117.588 29.8282 117.531 29.2488 117.509 28.6674C117.485 27.951 117.473 27.0541 117.473 25.982Z" fill="white"/>
<path d="M72.8145 15.1705C72.8135 14.9592 72.643 14.7881 72.4323 14.7871H68.8402C68.6295 14.7881 68.459 14.9592 68.458 15.1705V36.7893C68.4599 37 68.6302 37.17 68.8402 37.1712H72.4323C72.6423 37.17 72.8126 37 72.8145 36.7893V30.4435L75.6975 26.9861L81.6191 37.0565C81.6647 37.1307 81.7467 37.1745 81.8335 37.1712H86.1987C86.3993 37.1712 86.4356 37.0461 86.3353 36.8743L78.5822 23.69L85.6954 15.1306C85.8389 14.9571 85.7784 14.7923 85.5536 14.7923H80.782C80.724 14.7889 80.6681 14.815 80.6333 14.8617L72.8145 24.2677V15.1705Z" fill="white"/>
<path d="M98.9858 33.462C96.9641 33.462 95.1309 31.585 95.1309 29.3436V15.1705C95.1299 14.9592 94.9594 14.7881 94.7487 14.7871H91.1566C90.9459 14.7881 90.7754 14.9592 90.7744 15.1705V29.2881C90.7744 34.2236 94.4547 37.3601 98.9858 37.3601C103.517 37.3601 107.197 34.2236 107.197 29.2881V15.1705C107.195 14.9595 107.025 14.789 106.815 14.7871H103.221C103.011 14.789 102.842 14.9598 102.841 15.1705V29.3436C102.841 31.5832 101.006 33.462 98.9858 33.462Z" fill="white"/>
<path fill-rule="evenodd" clip-rule="evenodd" d="M32.3493 25.9822L43.5008 37.1698L50.5396 30.1092C51.7983 28.9725 53.7238 29.023 54.9214 30.2243C56.1191 31.4256 56.1695 33.3571 55.0362 34.6197L45.7473 43.9389C44.4996 45.1698 42.4985 45.1698 41.2507 43.9389L27.8493 30.4926V38.4848C27.8493 40.2486 26.4238 41.6785 24.6654 41.6785C22.9069 41.6785 21.4814 40.2486 21.4814 38.4848V13.4692C21.4814 11.7054 22.9069 10.2755 24.6654 10.2755C26.4238 10.2755 27.8493 11.7054 27.8493 13.4692V21.4614L41.249 8.01857C42.4963 6.78678 44.4983 6.78678 45.7456 8.01857L55.0414 17.3361C56.1747 18.5986 56.1242 20.5301 54.9266 21.7314C53.729 22.9327 51.8034 22.9833 50.5448 21.8465L43.5059 14.7859L32.3493 25.9822ZM43.5059 22.785C42.2166 22.7843 41.0539 23.5628 40.56 24.7575C40.0661 25.9521 40.3384 27.3276 41.2498 28.2423C42.1612 29.1571 43.5323 29.431 44.7236 28.9362C45.9148 28.4414 46.6916 27.2755 46.6916 25.9822C46.692 25.1343 46.3567 24.3209 45.7593 23.7209C45.1618 23.121 44.3513 22.7837 43.5059 22.7833V22.785Z" fill="white"/>
</g>
<defs>
<clipPath id="clip0_3_2029">
<rect width="164.273" height="37.8182" fill="white" transform="translate(21.4814 7.09082)"/>
</clipPath>
</defs>
</svg>
