<svg width="188" height="52" viewBox="0 0 188 52" fill="none" xmlns="http://www.w3.org/2000/svg">
<g clip-path="url(#clip0_3_1975)">
<g clip-path="url(#clip1_3_1975)">
<path d="M48.4707 38.6692V13.1582H54.9331V33.58H66.3139V38.6855L48.4707 38.6692Z" fill="white"/>
<path d="M179.04 38.6696L166.429 25.9918L179.04 13.3117H169.812L161.815 21.3528V13.1562H155.357V38.6696H161.815V30.6285L169.812 38.6696H179.04Z" fill="white"/>
<path d="M105.369 33.7216L103.832 38.6692H97.0645L105.83 13.1582H114.441L123.212 38.6715H116.443L114.903 33.7239L113.366 28.9387L110.135 18.2637L106.753 28.9387L105.369 33.7216Z" fill="white"/>
<path d="M133.661 21.9767V38.6855H127.518V13.1582H135.508L145.042 30.6328V13.1582H151.202V38.6692H143.205L133.661 21.9767Z" fill="white"/>
<path d="M92.3004 28.7738C91.9822 28.0512 91.5684 27.3752 91.0702 26.7641C90.544 26.2308 89.9159 25.81 89.2238 25.5272C88.6076 25.2162 87.839 25.063 87.2251 24.9075C87.8613 24.771 88.4806 24.564 89.0715 24.2902C89.642 24.0205 90.162 23.6539 90.6086 23.2065C91.0927 22.7559 91.4169 22.1585 91.5318 21.5055C91.8388 20.8882 91.8388 20.1131 91.8388 19.3403C91.8129 18.5584 91.7101 17.7811 91.5318 17.0196C91.2249 16.2468 90.9179 15.6272 90.147 15.0099C89.4628 14.3353 88.6131 13.8549 87.6844 13.6175C86.4314 13.2825 85.1378 13.1263 83.8415 13.1534H70.4551V38.6807H84.7647C87.3797 38.6807 89.2261 38.0634 90.6086 36.8241C91.9911 35.5849 92.6097 33.8862 92.6097 31.7187C92.7455 30.7264 92.6393 29.7157 92.3004 28.7738ZM77.0768 17.3352H83.8438C84.37 17.3492 84.8898 17.4536 85.381 17.6439C85.7858 17.7556 86.1559 17.9688 86.4565 18.2635C86.7144 18.5343 86.923 18.8485 87.0727 19.1918C87.2274 19.5004 87.2274 19.8091 87.2274 20.2732C87.2327 21.0171 86.9572 21.7353 86.4565 22.2829C85.9949 22.9025 85.0717 23.058 83.8438 23.058H77.0768V17.3352ZM87.232 33.2619C86.7704 33.8815 85.8472 34.0347 84.617 34.0347H77.0768V28.3096H84.6124C85.1385 28.3237 85.6584 28.428 86.1495 28.6183C86.5551 28.7299 86.9259 28.9431 87.2274 29.2379C87.4837 29.5094 87.6914 29.8235 87.8413 30.1662C87.9959 30.4748 87.996 30.7835 87.996 31.2476C87.996 32.0204 87.8413 32.7931 87.2274 33.2573L87.232 33.2619Z" fill="white"/>
<path d="M16.9394 42.9977C26.2764 42.9977 33.8455 35.387 33.8455 25.9988C33.8455 16.6106 26.2764 9 16.9394 9C7.60235 9 0.0332031 16.6106 0.0332031 25.9988C0.0332031 35.387 7.60235 42.9977 16.9394 42.9977Z" fill="white"/>
<path d="M21.4131 28.231C22.7146 28.231 23.7696 27.1577 23.7696 25.8338C23.7696 24.5098 22.7146 23.4365 21.4131 23.4365C20.1117 23.4365 19.0566 24.5098 19.0566 25.8338C19.0566 27.1577 20.1117 28.231 21.4131 28.231Z" fill="#080D0B"/>
<path d="M27.8565 29.3748L27.7872 29.2657L27.7688 29.2355C27.5103 28.8271 27.4318 28.7412 27.3072 28.5533C25.5831 25.8845 26.5686 24.1695 27.3441 23.2946C27.4387 23.1879 27.5264 23.0626 27.6072 22.9651C27.7254 22.8276 27.8269 22.6765 27.9096 22.5149L27.9234 22.4917C28.0793 22.1768 28.1584 21.8292 28.1542 21.4776C28.1027 20.9003 27.8382 20.3633 27.4128 19.9722C26.9874 19.5811 26.4318 19.3643 25.8554 19.3643C25.279 19.3643 24.7234 19.5811 24.298 19.9722C23.8726 20.3633 23.6082 20.9003 23.5566 21.4776C23.5559 21.8623 23.6528 22.241 23.8382 22.5776C23.8659 22.6332 23.9975 22.8096 24.0113 22.8398C24.0252 22.87 24.0736 22.9233 24.1083 22.9628C24.1889 23.0621 24.2752 23.1566 24.3668 23.2459C24.598 23.5037 24.7993 23.7871 24.9668 24.0906C25.2979 24.7722 25.4353 25.5324 25.3641 26.2874C25.2928 27.0425 25.0156 27.7632 24.5629 28.3699L23.9859 29.1914C23.9677 29.2153 23.9508 29.24 23.9352 29.2657L23.9213 29.2843C23.6868 29.6526 23.5641 30.0816 23.5682 30.5189C23.6197 31.0961 23.8842 31.6331 24.3096 32.0242C24.735 32.4153 25.2905 32.6322 25.867 32.6322C26.4434 32.6322 26.9989 32.4153 27.4244 32.0242C27.8498 31.6331 28.1142 31.0961 28.1657 30.5189C28.1653 30.1164 28.0577 29.7213 27.8542 29.3748H27.8565Z" fill="#080D0B"/>
<path d="M18.9291 29.3746L18.8622 29.2656L18.8414 29.2354C18.5829 28.827 18.5044 28.7411 18.3798 28.5531C16.6557 25.8844 17.6412 24.1694 18.4167 23.2945C18.5113 23.1878 18.599 23.0624 18.6798 22.965C18.798 22.8275 18.8995 22.6764 18.9822 22.5148L18.996 22.4916C19.1508 22.1763 19.2299 21.829 19.2268 21.4774C19.2335 21.1205 19.1581 20.7669 19.0067 20.444C18.8552 20.1211 18.6318 19.8377 18.3536 19.6159C18.0755 19.394 17.7502 19.2397 17.403 19.1648C17.0559 19.09 16.6963 19.0967 16.3521 19.1844C16.008 19.2721 15.6886 19.4385 15.4188 19.6706C15.149 19.9026 14.9361 20.1941 14.7967 20.5224C14.6572 20.8507 14.595 21.2069 14.6148 21.5633C14.6346 21.9198 14.7359 22.2668 14.9108 22.5774C14.9385 22.6331 15.0701 22.8095 15.0839 22.8397C15.0978 22.8698 15.1463 22.9232 15.1809 22.9627C15.2615 23.062 15.3478 23.1565 15.4394 23.2458C15.671 23.5038 15.8731 23.7871 16.0418 24.0905C16.3739 24.7711 16.513 25.5307 16.4438 26.2856C16.3746 27.0405 16.0997 27.7617 15.6494 28.3698C15.5101 28.5679 15.3558 28.7549 15.1878 28.9291L15.1486 28.9685C14.892 29.2014 14.6102 29.4046 14.3084 29.5742C11.9035 30.7206 9.94862 29.1263 9.94862 29.1263L9.75244 28.9639C9.60658 28.8502 9.48228 28.7111 9.38547 28.5531C7.66138 25.8844 8.6469 24.1694 9.42239 23.2945C9.51702 23.1878 9.60473 23.0624 9.68551 22.965C9.80371 22.8275 9.90521 22.6764 9.98785 22.5148L10.0017 22.4916C10.1616 22.1777 10.2447 21.83 10.244 21.4774C10.1925 20.9002 9.92807 20.3632 9.50266 19.9721C9.07725 19.581 8.52169 19.3641 7.94527 19.3641C7.36885 19.3641 6.81329 19.581 6.38788 19.9721C5.96246 20.3632 5.69799 20.9002 5.64649 21.4774C5.6457 21.8622 5.74262 22.2408 5.92807 22.5774C5.95576 22.6331 6.08732 22.8095 6.10117 22.8397C6.11501 22.8698 6.16348 22.9232 6.1981 22.9627C6.27876 23.062 6.36508 23.1565 6.4566 23.2458C6.68781 23.5036 6.88913 23.787 7.05668 24.0905C7.38772 24.772 7.52517 25.5322 7.45391 26.2873C7.38264 27.0424 7.10541 27.763 6.65278 28.3698L6.35966 28.7875C6.13421 29.0042 5.95477 29.2646 5.83219 29.553C5.70962 29.8414 5.64644 30.1517 5.64649 30.4654C5.64649 30.4654 5.64649 30.4862 5.64649 30.4978C5.64649 30.5094 5.64649 30.5118 5.64649 30.5187C5.65466 30.9738 5.79574 31.4164 6.05218 31.7915C6.30862 32.1666 6.66909 32.4575 7.08874 32.6282C7.50839 32.7989 7.96868 32.8417 8.41234 32.7513C8.856 32.6609 9.26344 32.4414 9.58395 32.12C9.69705 32.0411 9.7709 31.9854 9.87476 31.9181C12.529 30.1846 14.2346 31.1755 15.107 31.9552C15.1763 32.0179 15.2501 32.0782 15.324 32.1339C15.6466 32.4519 16.0549 32.6678 16.4983 32.7547C16.9418 32.8416 17.4008 32.7957 17.8186 32.6227C18.2363 32.4498 18.5944 32.1573 18.8484 31.7817C19.1025 31.406 19.2412 30.9637 19.2476 30.5094C19.2471 30.107 19.1395 29.7119 18.936 29.3654L18.9291 29.3746Z" fill="#080D0B"/>
</g>
</g>
<defs>
<clipPath id="clip0_3_1975">
<rect width="187.087" height="52" fill="white" transform="translate(0.0332031)"/>
</clipPath>
<clipPath id="clip1_3_1975">
<rect width="179" height="34" fill="white" transform="translate(0.0332031 9)"/>
</clipPath>
</defs>
</svg>
