<svg width="212" height="56" viewBox="0 0 212 56" fill="none" xmlns="http://www.w3.org/2000/svg">
<g clip-path="url(#clip0_3_2005)">
<g clip-path="url(#clip1_3_2005)">
<path fill-rule="evenodd" clip-rule="evenodd" d="M1.59009 3.90221C6.23134 9.53677 11.3273 16.6155 12.1516 17.7604C12.1955 17.8215 12.2273 17.8657 12.2463 17.8918C12.6856 18.4993 13.0484 18.9509 13.3238 19.2938L13.3239 19.2938C13.9354 20.0551 14.1168 20.281 13.7519 20.4885C13.4576 20.6558 13.154 20.711 12.851 20.711C12.5083 20.711 12.1223 20.5459 11.8412 20.2792C11.6425 20.0907 10.2829 18.1156 8.4315 15.2422C7.01496 13.0436 5.82947 11.2198 5.79713 11.1893C5.72236 11.1186 5.72364 11.121 8.28707 15.7088C9.89668 18.5897 10.9977 20.7186 10.9977 20.8548C10.9977 21.1318 10.9221 21.2774 10.5805 21.6586C10.0109 22.2943 9.75626 23.0085 9.57246 24.4864C9.36641 26.1432 8.78701 27.3137 7.18129 29.3166C6.24136 30.4892 6.08757 30.7041 5.85039 31.1767C5.55167 31.7718 5.46951 32.1052 5.43622 32.8567C5.40103 33.6513 5.46957 34.1646 5.71226 34.9242C5.92474 35.5893 6.1465 36.0286 6.71346 36.907C7.20275 37.6648 7.48448 38.2281 7.48448 38.4486C7.48448 38.6239 7.51795 38.6241 8.27614 38.453C10.0906 38.043 11.5639 37.3223 12.3925 36.4389C12.9053 35.8921 13.0257 35.5902 13.0296 34.841C13.0322 34.3509 13.015 34.2484 12.8825 33.9664C12.6669 33.5074 12.2745 33.126 11.4094 32.5345C10.276 31.7594 9.79189 31.1355 9.65817 30.2774C9.54848 29.5734 9.67574 29.0766 10.3028 27.7622C10.9517 26.4015 11.1126 25.8217 11.2214 24.4502C11.2916 23.5641 11.389 23.2147 11.6435 22.9343C11.9089 22.6418 12.1479 22.5427 12.8048 22.4528C13.8758 22.3066 14.5577 22.0294 15.1183 21.5127C15.6045 21.0645 15.808 20.6326 15.8392 19.9825L15.863 19.4897L15.5912 19.1728C14.6071 18.0251 0.931053 3 0.870492 3C0.857554 3 1.18139 3.40602 1.59009 3.90221ZM8.03691 33.7558C8.25941 33.3615 8.14119 32.855 7.769 32.6073C7.41734 32.3735 6.87107 32.4837 6.87107 32.7884C6.87107 32.8814 6.92248 32.9491 7.03837 33.0089C7.23349 33.1093 7.24766 33.2222 7.09414 33.453C6.93866 33.6868 6.9512 33.8923 7.12954 34.0318C7.41695 34.257 7.82381 34.1332 8.03691 33.7558ZM14.734 12.2622C14.2949 12.1941 14.2764 12.1861 14.483 12.1543C14.879 12.0934 15.8139 12.1764 16.4581 12.3297C17.9622 12.6873 19.3308 13.6033 20.7916 15.2303L21.1797 15.6626L21.735 15.5733C24.074 15.1973 26.4535 15.4961 28.4438 16.4157C28.9913 16.6687 29.8545 17.1724 29.9624 17.3018C29.9966 17.343 30.0599 17.6085 30.1025 17.8918C30.2504 18.872 30.1764 19.6233 29.8766 20.1845C29.7136 20.4898 29.7045 20.5866 29.8141 20.8479C29.9016 21.0565 30.1456 21.2108 30.3874 21.2105C30.8819 21.2098 31.4142 20.4101 31.6609 19.2974L31.7589 18.8554L31.953 19.0753C33.0175 20.2818 33.8538 21.9272 33.9975 23.0984L34.0348 23.4037L33.856 23.1261C33.5478 22.6485 33.2385 22.3233 32.8422 22.061C32.128 21.5882 31.3725 21.4273 29.3724 21.3219C27.5658 21.2267 26.5435 21.0723 25.5297 20.7417C23.8046 20.1791 22.9352 19.4299 20.8861 16.741C19.9761 15.5466 19.4135 14.8858 18.854 14.3536C17.5825 13.1445 16.3332 12.5103 14.734 12.2622ZM30.3698 14.9289C30.4153 14.1286 30.5238 13.6007 30.742 13.1186C30.8283 12.9278 30.9092 12.7716 30.9216 12.7716C30.9342 12.7716 30.8966 12.9124 30.8382 13.0846C30.6796 13.5524 30.6535 14.1924 30.7629 14.9369C30.9015 15.8816 30.9804 16.0179 31.9785 17.0383C32.4467 17.517 32.9914 18.1207 33.1888 18.3798L33.5478 18.8511L33.1888 18.5143C32.7498 18.1024 31.7403 17.2992 31.5173 17.1844C31.3677 17.1074 31.3455 17.1087 31.2533 17.2006C31.1684 17.2852 31.1504 17.4123 31.1385 18.0134C31.1202 18.9502 30.9926 19.5515 30.6845 20.1527C30.5178 20.4779 30.4915 20.4085 30.6423 20.0414C30.7549 19.7674 30.7664 19.6469 30.7656 18.74C30.7638 16.9179 30.5475 16.4799 29.2791 15.7294C28.958 15.5393 28.4285 15.2652 28.1027 15.1202C27.7772 14.9751 27.5184 14.8488 27.5277 14.8394C27.5637 14.8036 28.8007 15.1648 29.2985 15.3563C30.039 15.6412 30.1611 15.6782 30.2511 15.6438C30.3113 15.6207 30.3405 15.4451 30.3698 14.9289ZM14.2634 13.53C14.1441 14.9368 14.6955 16.8186 15.5868 18.046C16.2777 18.9975 17.3488 19.7368 18.1395 19.8083C18.6572 19.855 18.8128 19.6929 18.5786 19.3508C18.2534 18.8757 17.8534 18.1443 17.7476 17.8312C17.6819 17.6366 17.539 17.062 17.4301 16.5542C17.0583 14.8206 16.6929 14.1455 15.8487 13.6327C15.5411 13.4458 14.8842 13.2012 14.5032 13.1317L14.3004 13.0947L14.2634 13.53ZM29.2888 27.1809C25.1235 25.5034 23.6564 24.0473 23.6564 21.5905C23.6564 21.2289 23.6689 20.9331 23.684 20.9331C23.6993 20.9331 23.8604 21.0524 24.0421 21.1983C24.8867 21.8759 25.8326 22.1653 28.4511 22.5473C29.9918 22.7723 30.8589 22.9538 31.6588 23.2193C34.2011 24.0626 35.774 25.774 36.1491 28.1053C36.2581 28.7826 36.1942 30.0528 36.0175 30.7223C35.878 31.2511 35.4522 32.2041 35.3393 32.2407C35.308 32.2508 35.2772 32.1308 35.2693 31.9675C35.2265 31.0922 34.7842 30.24 34.0416 29.6016C33.1971 28.8758 32.0625 28.2981 29.2888 27.1809ZM26.1634 26.9963C26.2218 27.1705 26.3124 27.5671 26.3645 27.8778C26.6982 29.8638 25.6559 31.4684 23.6285 32.0902C23.4138 32.1559 22.5684 32.3215 21.7497 32.4578C20.0924 32.7338 19.3528 32.9293 18.6097 33.2874C18.0827 33.5413 17.4447 33.9216 17.4826 33.9593C17.4948 33.9716 17.6151 33.9429 17.7498 33.8955C18.6869 33.5664 19.7298 33.396 21.3142 33.3136C21.9431 33.281 22.6582 33.2289 22.9036 33.198C24.3152 33.0202 25.2936 32.5912 26.0544 31.8167C26.4777 31.3856 26.7301 30.9841 26.9335 30.4179C27.0624 30.0587 27.0798 29.9253 27.0808 29.289C27.082 28.6406 27.0663 28.5219 26.9265 28.1231C26.7436 27.6002 26.5278 27.2079 26.2546 26.901L26.0571 26.6795L26.1634 26.9963ZM28.274 31.2697C27.7205 30.0796 27.5935 28.9308 27.8966 27.8594C27.9291 27.7447 27.9812 27.651 28.0127 27.651C28.0441 27.651 28.1745 27.7217 28.3029 27.808C28.5578 27.9797 29.0693 28.2689 30.4319 29.012C32.1324 29.9393 33.1019 30.6573 33.7611 31.4778C34.3385 32.1962 34.6958 33.0144 34.8676 34.0122C34.9652 34.5775 34.9081 35.9375 34.7631 36.5066C34.306 38.3012 33.2434 39.7107 31.7279 40.5333C31.5059 40.6537 31.3066 40.7526 31.2849 40.7532C31.2634 40.7535 31.3443 40.5479 31.4647 40.2958C31.9745 39.2298 32.0325 38.1929 31.6472 37.0388C31.4111 36.3322 30.9299 35.4699 29.9583 34.0124C28.8287 32.3181 28.5518 31.8671 28.274 31.2697ZM17.8496 35.1728C16.0977 35.4574 14.1745 36.3847 12.6288 37.6901L12.1686 38.0788L12.573 38.1421C14.6835 38.4716 15.2518 38.7638 16.7157 40.2723C17.5581 41.1401 17.8426 41.3333 18.5414 41.5118C19.5677 41.7738 20.5793 41.2923 20.9264 40.3765C21.0814 39.9673 21.0607 39.2898 20.8828 38.9496C20.4597 38.1394 19.2271 37.8776 18.631 38.471C18.1345 38.9653 18.2792 39.7099 18.8967 39.8379C19.038 39.8675 19.034 39.8611 18.8606 39.7827C18.5904 39.6605 18.473 39.491 18.4715 39.2214C18.468 38.589 19.1914 38.2341 19.8644 38.5377C20.3571 38.7602 20.5528 39.0508 20.5528 39.5602C20.5528 40.3447 19.8853 40.9358 19.1085 40.8392C18.6933 40.7875 18.1855 40.5218 17.9132 40.214C17.228 39.4391 17.4949 38.2163 18.4515 37.7471C19.1798 37.39 20.1478 37.478 20.8985 37.9696C21.7609 38.5346 22.1277 39.051 22.8706 40.7457C23.1125 41.2975 23.4237 41.9187 23.5621 42.1261C24.2658 43.1797 25.1089 43.6964 26.1245 43.6964C26.6846 43.6964 27.106 43.594 27.6361 43.3293C28.03 43.1325 28.5884 42.7586 28.5481 42.7185C28.5367 42.7072 28.3733 42.758 28.185 42.8314C27.0762 43.264 25.9489 43.2343 25.2944 42.7549C24.8821 42.4532 24.5496 41.8522 24.3787 41.1005C24.3491 40.9703 24.2515 40.3957 24.1617 39.8234C23.9341 38.3728 23.7156 37.7208 23.206 36.9725C22.6846 36.207 21.6822 35.5645 20.5615 35.2776C19.8623 35.0986 18.6046 35.0499 17.8496 35.1728ZM15.396 23.9578C15.5473 23.3989 16.036 22.8659 16.5388 22.7114C16.8585 22.6132 17.5194 22.6759 17.8301 22.8339C18.4322 23.1401 18.8694 23.8376 18.7745 24.3411C18.6588 24.955 17.6635 25.4463 16.5185 25.4543C15.9337 25.4583 15.7177 25.3798 15.4943 25.0815C15.3561 24.8968 15.3037 24.2988 15.396 23.9578ZM17.6763 23.0527C17.9766 23.2362 18.0539 23.5074 17.8773 23.7583C17.7557 23.9311 17.3792 24.0954 17.104 24.0954C16.6906 24.0954 16.2397 23.8018 16.2397 23.5329C16.2397 22.9926 17.1045 22.7033 17.6763 23.0527ZM107.425 24.5999C106.491 21.5231 108.031 18.9711 111.318 18.151C112.26 17.9157 116.529 18.0219 117.26 18.2989C117.529 18.4004 117.646 18.7901 117.648 19.5909C117.65 20.2216 117.719 20.9876 117.802 21.293C117.928 21.756 117.854 21.8471 117.361 21.8397C116.915 21.8328 116.645 21.5738 116.268 20.7903C115.666 19.5388 114.938 19.1407 113.24 19.136C111.072 19.1299 109.486 20.5752 109.744 22.3215C109.912 23.4579 111.059 24.5761 113.632 26.1133C116.08 27.5755 117.509 28.778 118.078 29.8554C119.601 32.7357 118.301 35.8181 114.909 37.3712C113.167 38.1683 110.249 38.2508 108.198 37.5608L106.884 37.1188V35.04C106.884 33.1572 106.929 32.9608 107.363 32.9608C107.725 32.9608 107.882 33.198 108.009 33.9413C108.325 35.7896 109.744 36.9116 111.764 36.9116C113.743 36.9116 115.126 35.8409 115.656 33.8995C115.882 33.0725 115.843 32.7676 115.395 31.8552C114.858 30.7614 113.935 30.0355 110.797 28.2431C109.056 27.2483 107.825 25.9183 107.425 24.5999ZM45.9189 19.3793C45.4907 19.3793 45.3237 19.2407 45.3237 18.8854C45.3237 18.415 45.4907 18.3915 48.8455 18.3915C51.9593 18.3915 52.3578 18.4379 52.2864 18.7918C52.2417 19.0121 51.8114 19.3175 51.3297 19.4709L50.4537 19.7497L50.379 26.0466C50.3289 30.2483 50.3993 32.6721 50.5904 33.3311C51.1584 35.2908 52.8913 36.4178 55.3362 36.4178C57.0382 36.4178 58.0325 36.0238 59.2816 34.8535C60.6253 33.5954 60.8395 32.3999 60.8353 26.1869C60.8312 20.0584 60.7234 19.5526 59.3943 19.4254C58.7894 19.3674 58.5868 19.2279 58.5868 18.8698C58.5868 18.4234 58.7863 18.3915 61.5897 18.3915C64.4258 18.3915 64.5926 18.4189 64.5926 18.8854C64.5926 19.1896 64.4244 19.3807 64.1546 19.383C62.9956 19.3931 62.9743 19.5023 62.8183 26.2223C62.6565 33.2009 62.5054 34.0272 61.0772 35.7367C60.6653 36.2298 59.6831 36.9459 58.8945 37.3281C57.6096 37.9508 57.2008 38.0223 54.9582 38.0183C52.8909 38.014 52.2382 37.9151 51.2045 37.4492C49.6956 36.769 48.7143 35.8887 47.9908 34.5658C47.4858 33.6423 47.4427 33.1426 47.3258 26.8861C47.1918 19.7245 47.127 19.3793 45.9189 19.3793ZM69.3355 19.3793C68.7634 19.3793 68.5965 19.2676 68.5965 18.8854C68.5965 18.4224 68.7564 18.3928 71.1614 18.4118L73.7265 18.432L74.9538 19.8316C75.6283 20.6013 77.8278 23.0092 79.8409 25.1822C81.8542 27.3553 84.1656 29.8832 84.9771 30.7999C85.7889 31.7168 86.5528 32.4668 86.6749 32.4668C86.8003 32.4668 86.8629 29.877 86.8181 26.5186L86.7392 20.5705L86.037 19.9749C85.6509 19.6472 85.06 19.3793 84.7234 19.3793C84.2757 19.3793 84.1118 19.2449 84.1118 18.8785C84.1118 18.3962 84.2395 18.3802 87.5525 18.4463C90.3696 18.5026 90.9934 18.5804 90.9934 18.8753C90.9934 19.0854 90.645 19.3059 90.1569 19.4045C89.697 19.4973 89.1901 19.7018 89.0308 19.8588C88.8252 20.0616 88.7205 22.6828 88.6696 28.8984L88.5978 37.6524H87.8726C87.2482 37.6524 86.505 36.9566 82.5314 32.652C79.9927 29.9016 77.0293 26.6329 75.9462 25.3882C74.8629 24.1433 73.8922 23.1154 73.7891 23.1041C73.4985 23.0719 73.5688 34.1936 73.8659 35.2493C74.0976 36.0719 74.2569 36.2135 75.2411 36.4734C76.0336 36.6825 76.3541 36.8947 76.3541 37.2098C76.3541 37.6144 76.052 37.6524 72.8507 37.6524C69.592 37.6524 69.3473 37.6202 69.3473 37.1895C69.3473 36.8742 69.5831 36.68 70.0867 36.5806C71.6147 36.2791 71.7161 35.8005 71.8019 28.4846C71.8499 24.3871 71.7794 21.5202 71.6155 20.9199C71.3275 19.8643 70.6098 19.3793 69.3355 19.3793ZM95.5752 19.3793C95.0391 19.3793 94.8723 19.262 94.8723 18.8854C94.8723 18.4135 95.0391 18.3915 98.6259 18.3915C102.213 18.3915 102.38 18.4135 102.38 18.8854C102.38 19.2477 102.213 19.3793 101.754 19.3793C101.41 19.3793 100.899 19.606 100.618 19.883C100.122 20.3722 100.109 20.6154 100.18 28.1756C100.249 35.5557 100.278 35.9828 100.738 36.3145C101.005 36.5072 101.484 36.6647 101.802 36.6647C102.213 36.6647 102.38 36.8071 102.38 37.1586C102.38 37.6305 102.213 37.6524 98.6259 37.6524C95.1245 37.6524 94.8723 37.6213 94.8723 37.1903C94.8723 36.8426 95.1179 36.6891 95.8636 36.5714C97.3445 36.3377 97.4201 35.8593 97.3278 27.3227C97.2541 20.4863 97.2223 20.0601 96.7638 19.7294C96.4965 19.5368 95.9618 19.3793 95.5752 19.3793ZM121.759 19.3793C121.417 19.3793 121.156 19.1913 121.075 18.8854C120.949 18.4078 121.068 18.3915 124.675 18.3915C128.238 18.3915 128.405 18.4135 128.405 18.8854C128.405 19.2649 128.238 19.3793 127.685 19.3793C126.109 19.3793 126.145 19.6617 128.529 26.1196C129.743 29.4069 130.921 32.5295 131.147 33.0587L131.559 34.0211L133.47 28.9842C135.72 23.0554 136.013 21.959 135.631 20.8777C135.364 20.124 134.329 19.3793 133.547 19.3793C133.327 19.3793 133.16 19.1669 133.16 18.8854C133.16 18.4128 133.327 18.3915 137.039 18.3915C140.75 18.3915 140.917 18.4128 140.917 18.8854C140.917 19.2368 140.75 19.3793 140.339 19.3793C139.287 19.3793 138.823 19.9329 138.975 21.0086C139.13 22.1158 143.434 34.0163 143.615 33.8382C143.908 33.5486 148.675 20.7377 148.675 20.2383C148.675 19.64 148.251 19.3793 147.278 19.3793C146.84 19.3793 146.673 19.2432 146.673 18.8854C146.673 18.4189 146.84 18.3915 149.676 18.3915C152.223 18.3915 152.679 18.4498 152.679 18.7748C152.679 18.9857 152.367 19.2654 151.985 19.3965C151.127 19.6916 150.912 20.0285 149.836 22.7568C149.363 23.9549 147.885 27.7047 146.549 31.0891C145.214 34.474 144.064 37.3909 143.994 37.5713C143.924 37.7518 143.51 37.8994 143.074 37.8994H142.282L140.485 33.2693C139.496 30.723 138.328 27.7062 137.889 26.5654C137.137 24.6106 137.074 24.5257 136.791 25.0836C136.626 25.4097 135.438 28.4319 134.152 31.7998L131.812 37.9236L130.939 37.8498L130.066 37.776L126.736 29.1525C124.876 24.3346 123.165 20.2751 122.859 19.9541C122.558 19.6378 122.063 19.3793 121.759 19.3793ZM171.796 19.484C171.754 19.3902 171.754 19.0531 171.754 19.0531C171.754 19.0531 171.745 18.9315 171.796 18.8666C171.848 18.802 171.866 18.8003 172.05 18.7829L172.052 18.7828C172.727 18.7191 174.083 18.612 175.214 18.5631C175.318 18.5587 175.433 18.5535 175.558 18.5479L175.561 18.5477L175.562 18.5477L175.563 18.5476C176.808 18.4917 179.036 18.4169 180.568 18.4926C183.506 18.638 185.595 20.0444 186.307 22.3685C187.02 24.6924 186.643 26.874 185.672 28.2626C184.702 29.6512 183.069 30.8469 180.356 30.769C178.116 30.7048 177.517 30.2895 177.038 29.9577C176.937 29.8876 176.841 29.8211 176.736 29.7626V32.7263C176.76 34.7477 176.777 35.7185 176.935 36.0778C177.148 36.5616 177.629 36.8596 178.567 37.0881C178.567 37.0881 178.992 37.1866 179.101 37.2917C179.211 37.3967 179.211 37.6299 179.211 37.6299C179.211 37.6299 179.233 37.8481 179.145 37.9592C179.057 38.0704 178.887 38.0482 178.887 38.0482L174.734 38.015L172.229 38.0085C172.229 38.0085 171.967 38.0583 171.868 37.9537C171.77 37.8488 171.779 37.6305 171.779 37.6305C171.779 37.6305 171.8 37.3953 171.915 37.2901C172.03 37.1847 172.458 37.067 172.458 37.067C173.424 36.7985 173.843 36.5144 174.061 35.9793C174.238 35.5479 174.239 34.7479 174.237 28.2191C174.235 22.0277 174.226 20.8728 174.083 20.5406C173.871 20.0489 173.339 19.9186 172.583 19.7332L172.583 19.7331C172.433 19.6963 172.274 19.6574 172.107 19.613C172.107 19.613 171.838 19.5778 171.796 19.484ZM183.89 24.536C183.89 25.5513 183.872 27.1408 182.781 28.1568C181.689 29.1728 179.54 29.451 178.081 29.1681C177.622 29.0789 177.359 28.9415 177.156 28.8355L177.136 28.825L176.762 28.6302L176.741 25.0631C176.727 22.8281 176.751 21.3719 176.804 21.1638C176.853 19.9853 178.608 19.8387 179.466 19.8823C183.135 19.8823 183.783 22.9441 183.89 24.536ZM160.273 18.5298C160.273 18.5298 160.094 18.5979 159.822 18.7L158.842 19.2011L158.137 20.9454C157.749 21.9048 157.039 23.6659 156.559 24.859C155.686 27.0321 155.109 28.4598 154.502 29.9501C154.324 30.3884 153.785 31.7232 153.305 32.9163C152.824 34.1092 152.344 35.2447 152.238 35.4394C152.22 35.4718 152.201 35.5067 152.182 35.5435C151.913 36.0433 151.446 36.9116 150.623 37.0429C150.623 37.0429 150.17 37.087 150.002 37.251C149.834 37.4153 149.85 37.5494 149.85 37.5494V37.7563C149.85 37.7563 149.866 37.8565 149.961 37.9063C150.056 37.9564 150.184 37.9592 150.184 37.9592L153.198 37.9253H156.313C156.313 37.9253 156.533 37.9508 156.618 37.881C156.703 37.8113 156.727 37.7078 156.727 37.7078V37.49C156.727 37.49 156.683 37.2539 156.56 37.1617C156.437 37.0697 155.974 37.0066 155.974 37.0066C154.727 36.8443 154.513 35.9103 154.667 35.0704C154.742 34.6578 155.243 33.1313 155.808 31.5946L156.003 31.0634L159.267 31.0387C161.062 31.0251 162.612 31.0343 162.711 31.0592C162.853 31.0947 163.051 31.4935 163.633 32.9142C164.516 35.0666 164.586 35.3288 164.391 35.7315C164.379 35.756 164.366 35.783 164.353 35.8122C164.169 36.2016 163.813 36.9583 162.917 37.0354C162.917 37.0354 162.441 37.0517 162.322 37.1926C162.204 37.3336 162.23 37.4958 162.23 37.4958V37.7112C162.23 37.7112 162.261 37.8375 162.322 37.8875C162.383 37.9376 162.487 37.9249 162.487 37.9249L165.449 37.9038L169.614 37.9036C169.614 37.9036 169.777 37.9209 169.822 37.8588C169.866 37.7965 169.876 37.7233 169.876 37.7233V37.4371C169.876 37.4371 169.857 37.2849 169.777 37.201C169.697 37.1172 169.157 37.0287 169.157 37.0287C168.467 36.9185 168.124 36.3546 167.868 35.9347C167.803 35.8275 167.743 35.7298 167.685 35.6514C167.566 35.4913 167.143 34.6143 166.811 33.7707C166.48 32.9272 165.731 31.0217 165.149 29.5364C164.566 28.0512 163.752 25.9793 163.341 24.9324C162.929 23.8853 162.148 21.8932 161.604 20.5053C161.515 20.2775 161.435 20.0729 161.363 19.8897L161.363 19.8889C160.998 18.9568 160.851 18.5807 160.81 18.5298C160.679 18.3645 160.273 18.5298 160.273 18.5298ZM160.079 24.2014C159.948 23.885 159.716 23.3172 159.565 22.9398C159.29 22.2539 159.186 22.0959 159.101 22.2376C159.076 22.279 158.903 22.7478 158.716 23.2795C157.509 26.7218 156.962 28.2718 156.852 28.5639C156.783 28.7475 156.727 28.9367 156.727 28.9844C156.727 29.0393 157.709 29.0713 159.392 29.0713C160.858 29.0713 162.058 29.0532 162.058 29.0312C162.058 29.0092 161.927 28.6806 161.767 28.3008C161.607 27.9209 161.216 26.9727 160.897 26.1936C160.579 25.4145 160.211 24.518 160.079 24.2014Z" fill="white"/>
</g>
</g>
<defs>
<clipPath id="clip0_3_2005">
<rect width="211.127" height="56" fill="white" transform="translate(0.858398)"/>
</clipPath>
<clipPath id="clip1_3_2005">
<rect width="186" height="46" fill="white" transform="translate(0.858398 3)"/>
</clipPath>
</defs>
</svg>
