<svg width="216" height="53" viewBox="0 0 216 53" fill="none" xmlns="http://www.w3.org/2000/svg">
<path d="M86.7417 22.1544H77.1864V11.3359H70.4121V39.6672H77.1864V28.8487H86.7417V39.6672H93.516V11.3359H86.7417V22.1544Z" fill="white"/>
<path d="M107.82 15.4414C101.05 15.4414 95.5615 20.8648 95.5615 27.553C95.5615 34.2412 101.052 39.6667 107.82 39.6667C114.59 39.6667 120.076 34.2432 120.076 27.553C120.076 20.8628 114.59 15.4414 107.82 15.4414ZM107.82 32.8975C104.832 32.8975 102.412 30.5055 102.412 27.553C102.412 24.6005 104.834 22.2085 107.82 22.2085C110.808 22.2085 113.228 24.6005 113.228 27.553C113.228 30.5055 110.808 32.8975 107.82 32.8975Z" fill="white"/>
<path d="M134.386 15.4414C127.616 15.4414 122.128 20.8648 122.128 27.553C122.128 34.2412 127.618 39.6667 134.386 39.6667C141.157 39.6667 146.643 34.2432 146.643 27.553C146.643 20.8628 141.157 15.4414 134.386 15.4414ZM134.386 32.8975C131.399 32.8975 128.978 30.5055 128.978 27.553C128.978 24.6005 131.399 22.2085 134.386 22.2085C137.372 22.2085 139.795 24.6005 139.795 27.553C139.795 30.5055 137.374 32.8975 134.386 32.8975Z" fill="white"/>
</svg>
