<svg width="197" height="52" viewBox="0 0 197 52" fill="none" xmlns="http://www.w3.org/2000/svg">
<g clip-path="url(#clip0_3_1987)">
<g clip-path="url(#clip1_3_1987)">
<path fill-rule="evenodd" clip-rule="evenodd" d="M65.1006 32.2038L62.783 28.1288H59.3896V32.2038H57.3936V19.9679H63.4039C64.1366 19.962 64.8568 20.1609 65.4862 20.5428C66.1155 20.9249 66.6297 21.4753 66.9729 22.1343C67.316 22.7932 67.4749 23.5353 67.4323 24.2799C67.3895 25.0244 67.147 25.7428 66.7309 26.3566C66.2963 27.0077 65.6831 27.5142 64.9676 27.8129L67.4406 32.2038H65.1006ZM63.4039 22.0448H59.3896V26.1083H63.4039C63.6663 26.1082 63.9258 26.053 64.1663 25.9461C64.4066 25.8395 64.6228 25.6832 64.8012 25.4875C65.0776 25.2019 65.2653 24.8399 65.3409 24.4465C65.4166 24.0531 65.377 23.6457 65.2269 23.2751C65.0766 22.9045 64.8228 22.587 64.4967 22.3621C64.1706 22.1374 63.7866 22.0153 63.3929 22.011L63.4039 22.0448ZM84.7736 19.9679L78.7519 32.2038H80.9921L84.7736 24.5393L88.5441 32.2038H90.7841L84.7736 19.9679ZM110.146 19.9679H107.596L104.169 24.4829L100.753 19.9679H98.1917L103.215 26.4922V32.2038H105.211V26.3906L110.146 19.9679ZM120.371 19.9679H124.374C125.964 19.9797 127.486 20.6281 128.611 21.7729C129.736 22.9176 130.373 24.4669 130.384 26.0858C130.376 27.7057 129.74 29.2565 128.614 30.402C127.489 31.5474 125.965 32.1948 124.374 32.2038H120.371V19.9679ZM124.374 30.1267C125.435 30.1239 126.451 29.6935 127.201 28.9299C127.952 28.1664 128.374 27.1318 128.377 26.0519C128.366 24.9748 127.94 23.9452 127.192 23.1835C126.444 22.4219 125.432 21.9888 124.374 21.977H122.356V30.1267H124.374ZM143.725 19.9679H141.729V32.2038H143.725V19.9679ZM165.084 27.0903C165.095 27.7634 164.97 28.4316 164.716 29.0532C164.462 29.6746 164.086 30.2363 163.608 30.7024C162.908 31.4155 162.016 31.901 161.045 32.0973C160.072 32.2934 159.066 32.1917 158.152 31.8048C157.237 31.4179 156.456 30.7633 155.907 29.924C155.358 29.0848 155.067 28.0985 155.07 27.0903V19.9679H157.066V27.0903C157.066 27.9017 157.382 28.6797 157.946 29.2535C158.509 29.8271 159.273 30.1494 160.071 30.1494C160.868 30.1494 161.633 29.8271 162.197 29.2535C162.759 28.6797 163.076 27.9017 163.076 27.0903V19.9679H165.084V27.0903ZM178.424 32.2038V24.8894L182.449 28.9754L186.453 24.8894V32.2038H188.482V19.9679L182.449 26.0858L176.439 19.9679V32.2038H178.424Z" fill="white"/>
<path d="M42.5641 19.5841V37.7799L22.6806 49.4626L2.78611 37.7799V14.4031L22.6806 2.70904L37.962 11.694L40.2686 10.3395L22.6806 0L0.479492 13.0486V39.1344L22.6806 52.1829L44.8818 39.1344V18.2296L42.5641 19.5841Z" fill="white"/>
<path d="M17.111 37.7913H13.7842V26.4359H24.8737C25.9229 26.4241 26.9253 25.9922 27.6641 25.2338C28.4029 24.4755 28.8187 23.4516 28.8216 22.3835C28.8275 21.8555 28.7274 21.3317 28.5272 20.8445C28.3268 20.3572 28.0309 19.9169 27.6571 19.5504C27.2955 19.1722 26.8626 18.8722 26.3843 18.6686C25.906 18.4648 25.3921 18.3616 24.8737 18.3651H13.7842V14.9111H24.8847C26.8281 14.923 28.6887 15.7141 30.063 17.1128C31.4371 18.5117 32.2143 20.4055 32.2259 22.3835C32.2378 23.8978 31.7843 25.3778 30.9286 26.6164C30.141 27.8015 29.0312 28.7272 27.7348 29.2803C26.451 29.6947 25.1114 29.9004 23.7647 29.8899H17.111V37.7913Z" fill="white"/>
<path d="M32.1479 37.5095H28.2665L25.2725 32.1931C26.457 32.1193 27.6254 31.8761 28.7434 31.4707L32.1479 37.5095Z" fill="white"/>
<path d="M40.2529 15.8025L42.5484 17.1006L44.844 15.8025V13.0596L42.5484 11.7051L40.2529 13.0596V15.8025Z" fill="white"/>
</g>
</g>
<defs>
<clipPath id="clip0_3_1987">
<rect width="196.494" height="52" fill="white" transform="translate(0.479492)"/>
</clipPath>
<clipPath id="clip1_3_1987">
<rect width="188" height="52" fill="white" transform="translate(0.479492)"/>
</clipPath>
</defs>
</svg>
