<svg width="215" height="53" viewBox="0 0 215 53" fill="none" xmlns="http://www.w3.org/2000/svg">
<path d="M50.0934 26.338L49.6965 25.9568C49.3971 25.6706 48.8821 25.8733 48.8821 26.2793V31.7232C48.8821 31.9749 49.0973 32.1792 49.3611 32.1792H55.052C55.476 32.1792 55.6903 31.6874 55.3883 31.4008C55.2992 31.3153 55.2491 31.1994 55.2491 31.0787C55.2491 30.9579 55.2992 30.842 55.3883 30.7565L61.4418 24.949C61.6276 24.7714 61.6276 24.4831 61.4418 24.3043L60.8904 23.7786C60.5908 23.4924 60.8043 23.0005 61.2274 23.0005H66.9152C67.1782 23.0005 67.3932 23.2049 67.3932 23.4566V28.9008C67.3932 29.3064 66.8769 29.5099 66.5772 29.2233L66.1931 28.8565C66.0048 28.6736 65.7052 28.6736 65.5205 28.8565L55.3155 38.6162C55.1301 38.7931 54.8287 38.7931 54.6407 38.6162L42.1553 26.6698C42.1107 26.6275 42.0753 26.5771 42.0511 26.5216C42.0269 26.4661 42.0145 26.4066 42.0145 26.3465C42.0145 26.2864 42.0269 26.2268 42.0511 26.1714C42.0753 26.1159 42.1107 26.0655 42.1553 26.0232L59.4398 9.48627C59.6247 9.30831 59.6247 9.0179 59.4398 8.84056L55.3755 4.95221C55.2857 4.86709 55.1644 4.81934 55.038 4.81934C54.9116 4.81934 54.7904 4.86709 54.7006 4.95221L32.3266 26.3614C32.1411 26.5394 32.1411 26.8299 32.3266 27.0071L54.7006 48.4139C54.8861 48.5908 55.1906 48.5908 55.3755 48.4139L77.7487 27.0071C77.9335 26.8292 77.9335 26.5402 77.7487 26.3628L64.5858 13.7687C64.4017 13.5916 64.0989 13.5916 63.9123 13.7687L50.7692 26.3381C50.725 26.3808 50.6723 26.4147 50.6143 26.4378C50.5564 26.461 50.4942 26.4729 50.4313 26.4729C50.3685 26.4729 50.3063 26.461 50.2483 26.4378C50.1903 26.4147 50.1377 26.3808 50.0935 26.3381L50.0934 26.338ZM153.372 31.7545C152.796 31.7545 152.298 31.9523 151.881 32.35C151.469 32.7479 151.259 33.2178 151.259 33.7618C151.259 34.5911 151.698 35.2362 152.572 35.6972C153.529 35.9474 154.299 35.7845 154.879 35.2174C155.297 34.8169 155.504 34.3368 155.504 33.7774C155.504 33.2112 155.297 32.7379 154.879 32.3501C154.463 31.955 153.964 31.7575 153.371 31.7575L153.372 31.7551V31.7545ZM119.373 16.3669H117.795C117.114 16.3669 116.56 16.8931 116.56 17.5451V18.3869C114.882 16.7172 112.982 15.8819 110.86 15.8819C108.409 15.8819 106.364 16.7544 104.734 18.4947C103.099 20.235 102.285 22.4104 102.285 25.0221C102.285 27.6786 103.099 29.8964 104.729 31.6738C106.378 33.415 108.456 34.2853 110.974 34.2853C112.965 34.2853 114.828 33.5075 116.56 31.9558V33.6203C116.56 34.4288 117.247 35.086 118.091 35.086H120.784V17.7158C120.784 16.9727 120.151 16.3669 119.373 16.3669ZM115.386 29.1507C114.426 30.1763 113.17 30.6883 111.611 30.6883C110.151 30.6883 108.941 30.1582 107.985 29.098C107.048 28.0506 106.581 26.6877 106.581 25.0195C106.581 23.4589 107.062 22.1446 108.02 21.0848C108.992 20.0348 110.201 19.5126 111.647 19.5126C113.18 19.5126 114.424 20.03 115.384 21.0719C116.344 22.1319 116.824 23.4769 116.824 25.1107C116.824 26.7446 116.344 28.0894 115.384 29.1521L115.387 29.1508L115.386 29.1507ZM102.283 19.306V17.5837C102.283 16.9114 101.714 16.3699 101.011 16.3699H99.3489C98.6485 16.3699 98.0786 16.9089 98.0786 17.5837V18.336C96.5581 16.7011 94.6518 15.8822 92.3591 15.8822C89.7426 15.8822 87.6343 16.8267 86.0405 18.708C84.5572 20.4817 83.816 22.6417 83.816 25.1814C83.816 27.7919 84.6152 29.9698 86.211 31.7087C87.7936 33.4298 89.8239 34.2832 92.3041 34.2832C94.4821 34.2832 96.4086 33.4696 98.0786 31.8357V34.2679C98.0786 37.8818 96.5402 39.6888 93.4633 39.6888C91.7929 39.6888 90.524 39.1447 89.652 38.059C89.4296 37.7843 89.245 37.4404 89.0981 37.0297C88.892 36.4547 88.3206 36.0723 87.6874 36.0723H86.0938C85.2901 36.0723 84.6928 36.8038 84.8961 37.5482C85.332 39.1318 86.1736 40.4203 87.4266 41.4175C88.9964 42.6703 90.9977 43.298 93.4257 43.298C96.3036 43.298 98.5657 42.3893 100.212 40.5797C101.084 39.6377 101.667 38.5109 101.967 37.1993C102.067 36.7245 102.145 36.1716 102.2 35.5439C102.255 34.9201 102.283 34.1961 102.283 33.3724V30.8416C101.106 29.218 100.513 27.2788 100.513 25.0202C100.513 22.8012 101.105 20.9005 102.283 19.3078V19.3065L102.283 19.306ZM96.9565 29.0134C96.0224 30.1299 94.7533 30.6881 93.1437 30.6881C91.5362 30.6881 90.278 30.1334 89.3666 29.0236C88.5335 28.0124 88.1161 26.7108 88.1161 25.1273C88.1161 23.5166 88.5333 22.205 89.3666 21.1926C90.2909 20.0618 91.5477 19.4961 93.1437 19.4961C94.6381 19.4961 95.8661 20.0143 96.8244 21.0501C97.7718 22.0628 98.2473 23.4157 98.2473 25.111C98.2473 26.6959 97.8161 27.9947 96.9563 29.0111V29.0138L96.9565 29.0134ZM137.242 16.3797V16.367H128.521V11.2578C128.521 10.6008 127.966 10.0681 127.277 10.0681H125.575C124.88 10.0681 124.317 10.6072 124.317 11.272V16.3671H122.521V20.1197H124.314V35.0838H126.712C126.95 35.0843 127.185 35.04 127.404 34.9533C127.623 34.8667 127.823 34.7395 127.99 34.579C128.158 34.4185 128.291 34.2278 128.382 34.018C128.472 33.8082 128.519 33.5833 128.518 33.3563V20.1221H132.831C133.169 19.5008 133.587 18.9223 134.074 18.3997C134.968 17.468 136.024 16.7929 137.24 16.3797H137.243H137.242ZM158.701 10.0681C157.956 10.0681 157.314 10.3248 156.778 10.8381C156.244 11.35 155.973 11.9597 155.973 12.6617C155.973 13.4025 156.242 14.0235 156.778 14.5408C157.314 15.0527 157.964 15.3082 158.723 15.3082C159.483 15.3082 160.123 15.0528 160.645 14.5393C161.18 14.0235 161.451 13.4076 161.451 12.6798C161.451 11.9546 161.183 11.3387 160.646 10.8408C160.108 10.325 159.461 10.0681 158.701 10.0681ZM159.553 18.3381H158.028C157.246 18.3381 156.609 18.944 156.609 19.6959V32.4706C156.931 32.8314 157.084 33.2562 157.084 33.7502C157.084 34.2442 156.931 34.674 156.609 35.0374V35.7563H159.316C160.145 35.7563 160.815 35.1132 160.815 34.3187V19.542C160.815 18.8771 160.25 18.3381 159.552 18.3381H159.553ZM179.318 20.805C177.424 19.0299 175.118 18.1418 172.402 18.1418C169.698 18.1418 167.404 19.0223 165.523 20.7895C163.643 22.5528 162.701 24.6936 162.701 27.2089C162.701 29.8784 163.621 32.0962 165.467 33.8619C167.313 35.6486 169.601 36.543 172.326 36.543C175.079 36.543 177.404 35.6676 179.299 33.9145C181.177 32.1473 182.121 29.9629 182.121 27.3514C182.121 24.7628 181.186 22.581 179.318 20.8022V20.805ZM176.343 31.4287C175.361 32.4438 174.046 32.9457 172.402 32.9457C170.767 32.9457 169.454 32.4362 168.456 31.4081C167.485 30.3969 166.998 29.016 166.998 27.2783C166.998 25.6587 167.499 24.3342 168.496 23.31C169.491 22.2858 170.793 21.7711 172.402 21.7711C174.032 21.7711 175.348 22.2858 176.343 23.31C177.328 24.3213 177.821 25.6767 177.821 27.3656C177.821 29.0622 177.327 30.4122 176.343 31.426V31.4287Z" fill="white"/>
<path d="M138.807 30.7255C137.94 29.886 137.456 28.7413 137.345 27.3117H149.398C149.948 27.3117 150.402 26.8907 150.41 26.3658C150.41 23.4872 149.637 21.2438 148.093 19.6214C146.533 17.9893 144.413 17.1729 141.736 17.1729C139.086 17.1729 136.953 18.0147 135.346 19.6935C133.75 21.4003 132.953 23.6281 132.953 26.3824C132.953 29.1598 133.777 31.3901 135.419 33.069C136.567 34.2368 137.974 34.9938 139.644 35.3468C140.344 35.5045 141.071 35.5866 141.805 35.5763C144.8 35.6355 147.403 35.6944 150.397 35.7536L150.402 35.3338C150.035 34.9528 149.852 34.4934 149.852 33.9567C149.852 33.4358 150.043 32.9879 150.417 32.6004L150.42 32.0908C148.057 32.0343 142.335 31.9804 142.107 31.9804C140.765 31.9804 139.662 31.5659 138.807 30.728V30.7255H138.807ZM138.222 22.6813C138.486 22.2885 138.799 21.9523 139.168 21.6725C139.537 21.3889 139.942 21.1771 140.393 21.0283C140.84 20.8794 141.321 20.8049 141.833 20.8049C144.073 20.8049 145.487 21.8766 146.077 24.0212H137.625C137.763 23.5218 137.962 23.0752 138.222 22.6812V22.6813Z" fill="white"/>
</svg>
