<svg width="216" height="53" viewBox="0 0 216 53" fill="none" xmlns="http://www.w3.org/2000/svg">
<path d="M42.6639 25.6407H42.6531C42.6531 23.1315 42.6423 20.6224 42.6639 18.1023C42.7065 17.7386 42.6383 17.3705 42.4684 17.0469C42.2986 16.7234 42.0351 16.4598 41.713 16.2913C37.2075 13.7276 32.7343 11.0984 28.2071 8.55653C27.9343 8.42985 27.6376 8.36426 27.3373 8.36426C27.0371 8.36426 26.7403 8.42985 26.4675 8.55653C21.9512 11.1093 17.4636 13.7131 13.0048 16.3677C12.7442 16.5537 12.5263 16.7941 12.366 17.0727C12.2056 17.3514 12.1066 17.6616 12.0756 17.9823C12.0108 23.0988 12.054 28.2044 12.0324 33.3209C12.0026 33.685 12.0839 34.0496 12.2655 34.3656C12.4471 34.6815 12.7202 34.9338 13.048 35.0883C17.4348 37.5975 21.8107 40.1321 26.1758 42.6922C26.5244 42.9405 26.9397 43.0756 27.3664 43.0795C27.793 43.0834 28.2106 42.9559 28.5637 42.714C32.8748 40.1612 37.2111 37.6484 41.5726 35.1756C41.9377 34.9981 42.2395 34.711 42.4368 34.3536C42.6341 33.9962 42.7172 33.586 42.6747 33.1791C42.6314 30.6699 42.6639 28.1608 42.6639 25.6407ZM21.4649 16.5204C21.5654 16.3518 21.7039 16.2096 21.8691 16.1054C22.0344 16.0011 22.2217 15.9377 22.4158 15.9204C25.6896 15.8768 28.9742 15.8768 32.2481 15.9095C32.5938 15.9204 33.1557 16.204 33.2313 16.4659C33.7067 18.1241 34.0741 19.8042 34.5063 21.6479H20.244C20.6654 19.8478 21.0111 18.1678 21.4649 16.5204ZM25.3222 34.5428C24.898 34.9717 24.4469 35.3725 23.9716 35.7428C23.1721 36.332 21.6594 36.321 21.2597 35.6338C19.5633 32.7864 17.9318 29.8954 16.2246 26.928C17.3916 26.0553 18.4396 25.2262 19.5417 24.4843C19.7101 24.4188 19.8899 24.3888 20.0702 24.3964C20.2505 24.4039 20.4273 24.4486 20.5898 24.5279C21.238 24.8443 21.8215 25.3243 22.459 25.6625C22.7999 25.8036 23.0808 26.0612 23.2526 26.3903C23.4244 26.7193 23.4762 27.0989 23.399 27.4626C23.2218 28.3531 23.3076 29.2765 23.6456 30.1183C23.9837 30.96 24.5592 31.6829 25.3006 32.1973C26.3703 33.0373 26.2839 33.6046 25.3222 34.5428ZM24.674 29.7972C24.8433 28.6272 24.9119 27.4445 24.8792 26.2625C24.653 25.1621 24.3275 24.0848 23.9068 23.0443H30.8327C30.7578 23.4313 30.6494 23.811 30.5085 24.1788C29.8621 25.5597 29.6983 27.1211 30.0439 28.6081C30.206 29.4372 30.0223 29.8299 29.1039 29.8081C27.6561 29.7754 26.2082 29.7972 24.674 29.7972ZM36.8293 29.8845C35.8028 31.6518 34.8412 33.441 33.7499 35.1537C33.3395 35.6265 32.8582 36.0314 32.3237 36.3538C31.2757 36.1029 28.9742 34.5101 28.8338 33.7137C28.8011 33.2973 28.8994 32.8812 29.1147 32.5246C29.3035 32.2323 29.5545 31.9863 29.8494 31.8045C30.4717 31.38 30.9609 30.7848 31.2595 30.0891C31.5581 29.3933 31.6537 28.6259 31.535 27.8771C31.5973 27.0331 31.9257 26.2313 32.472 25.5894C33.0184 24.9474 33.754 24.499 34.5711 24.3098C34.9902 24.3475 35.3852 24.5239 35.6948 24.8116C38.5689 26.8735 38.5581 26.8844 36.8293 29.8845Z" fill="white"/>
<path d="M184.691 21.638C185.338 20.8919 186.158 20.3189 187.078 19.9701C187.997 19.6213 188.988 19.5075 189.962 19.6388C192.019 19.9275 193.643 21.1703 193.808 23.2471C194.068 26.5185 194.021 29.8163 194.026 33.103C194.027 33.3964 193.501 33.8867 193.156 33.9528C191.041 34.3586 190.666 34.0136 190.665 31.866C190.663 29.7867 190.702 27.7063 190.645 25.6285C190.594 23.7634 189.58 22.6678 188.05 22.6722C187.671 22.678 187.297 22.7634 186.952 22.9229C186.606 23.0824 186.298 23.3125 186.046 23.5987C185.793 23.8849 185.603 24.2209 185.486 24.5855C185.369 24.95 185.328 25.3351 185.366 25.7163C185.322 28.0114 185.295 30.3098 185.372 32.603C185.414 33.8446 184.806 34.0628 183.79 34.0156C182.839 33.9714 181.838 34.1699 181.881 32.6415C181.947 30.3042 181.912 27.9634 181.888 25.6244C181.869 23.7916 180.967 22.7142 179.481 22.6732C179.113 22.661 178.746 22.7267 178.404 22.8662C178.062 23.0057 177.753 23.2158 177.496 23.4831C177.24 23.7503 177.042 24.0689 176.914 24.4181C176.787 24.7674 176.733 25.1398 176.757 25.5112C176.689 27.8486 176.666 30.1908 176.739 32.5273C176.783 33.9404 176.007 34.0234 174.937 34.0265C173.876 34.0295 173.256 33.8614 173.283 32.5412C173.361 28.7741 173.298 25.0042 173.32 21.2356C173.325 20.5238 173.009 19.6152 174.264 19.4873C176.093 19.3007 176.496 19.4799 176.886 21.0323C179.58 19.0957 182.183 18.8801 184.691 21.638Z" fill="white"/>
<path d="M96.94 31.9711C96.94 33.625 96.8935 35.0946 96.9538 36.5597C97.0085 37.8897 96.1167 37.7157 95.3056 37.7204C94.4836 37.7251 93.6566 37.8653 93.6671 36.5465C93.709 31.2712 93.7081 25.9956 93.6644 20.7198C93.6551 19.5717 94.2727 19.4239 95.1355 19.493C95.9154 19.5554 97.016 19.1454 96.9451 20.6153C96.9328 20.8707 96.9659 21.1283 96.9922 21.686C97.5902 20.9705 98.3479 20.4087 99.2031 20.0468C100.058 19.6849 100.986 19.5332 101.911 19.6044C102.816 19.6731 103.695 19.9422 104.485 20.3926C105.275 20.843 105.957 21.4637 106.483 22.2105C107.472 23.6911 107.943 25.4624 107.823 27.244C107.702 29.0256 106.996 30.7156 105.817 32.0464C103.458 34.4239 100.447 34.4402 96.94 31.9711ZM104.355 26.6975C104.34 24.23 102.855 22.6012 100.636 22.6185C100.118 22.6317 99.6087 22.7514 99.1382 22.9701C98.6677 23.1888 98.2462 23.502 97.8995 23.8905C97.5529 24.2791 97.2882 24.735 97.1218 25.2302C96.9553 25.7255 96.8906 26.2498 96.9314 26.7711C96.902 27.294 96.9778 27.8175 97.1543 28.3101C97.3307 28.8026 97.604 29.2539 97.9579 29.6369C98.3118 30.0199 98.7388 30.3265 99.2132 30.5383C99.6876 30.7502 100.2 30.8628 100.718 30.8694C102.883 30.872 104.37 29.1662 104.355 26.6975Z" fill="white"/>
<path d="M126.878 33.9267C125.927 33.9331 124.984 33.7465 124.105 33.378C123.227 33.0095 122.43 32.4665 121.764 31.7813C121.097 31.096 120.573 30.2826 120.224 29.3891C119.874 28.4956 119.706 27.5404 119.729 26.58C119.763 25.6206 119.985 24.6775 120.381 23.8048C120.777 22.9322 121.341 22.1472 122.038 21.495C122.736 20.8429 123.554 20.3363 124.447 20.0046C125.339 19.6728 126.287 19.5223 127.237 19.5618C128.188 19.5561 129.131 19.7431 130.009 20.1116C130.887 20.48 131.683 21.0226 132.35 21.7071C133.017 22.3916 133.541 23.2041 133.892 24.0967C134.242 24.9893 134.412 25.9438 134.391 26.9038C134.314 28.84 133.481 30.6665 132.072 31.983C130.664 33.2995 128.796 33.9984 126.878 33.9267ZM126.991 30.8742C127.52 30.9023 128.05 30.819 128.545 30.6295C129.041 30.44 129.492 30.1485 129.87 29.7735C130.248 29.3985 130.545 28.9483 130.742 28.4513C130.938 27.9543 131.03 27.4215 131.012 26.8866C131.037 26.3431 130.954 25.8001 130.768 25.2895C130.582 24.779 130.296 24.3111 129.928 23.9136C129.56 23.516 129.118 23.1968 128.626 22.9747C128.134 22.7527 127.603 22.6322 127.064 22.6204C126.546 22.6051 126.03 22.6964 125.547 22.8886C125.065 23.0809 124.626 23.3702 124.258 23.7389C123.89 24.1076 123.6 24.548 123.405 25.0334C123.211 25.5188 123.116 26.0391 123.127 26.5626C123.087 27.1047 123.158 27.6492 123.333 28.1632C123.508 28.6772 123.784 29.15 124.146 29.553C124.507 29.956 124.945 30.2809 125.434 30.508C125.923 30.7351 126.453 30.8597 126.991 30.8742Z" fill="white"/>
<path d="M156.436 26.7822C156.427 25.8234 156.609 24.8725 156.97 23.9859C157.332 23.0994 157.867 22.2952 158.542 21.6211C159.217 20.947 160.02 20.4167 160.902 20.0618C161.784 19.7068 162.728 19.5343 163.677 19.5545C164.628 19.5281 165.574 19.6928 166.462 20.039C167.349 20.3851 168.159 20.9059 168.845 21.5709C169.531 22.236 170.079 23.0321 170.458 23.9129C170.836 24.7938 171.038 25.7419 171.05 26.702C171.038 27.6726 170.835 28.6309 170.452 29.5215C170.07 30.412 169.516 31.217 168.823 31.8895C168.13 32.5621 167.312 33.0888 166.415 33.4391C165.519 33.7895 164.562 33.9564 163.601 33.9302C162.662 33.9488 161.729 33.7772 160.857 33.4257C159.986 33.0741 159.192 32.5497 158.524 31.8834C157.856 31.217 157.327 30.4223 156.969 29.5462C156.61 28.67 156.429 27.7302 156.436 26.7822ZM163.752 30.8752C164.281 30.8914 164.807 30.7943 165.297 30.5903C165.786 30.3863 166.227 30.08 166.591 29.6916C166.954 29.3031 167.232 28.8413 167.407 28.3365C167.581 27.8318 167.647 27.2955 167.601 26.7629C167.624 26.2196 167.537 25.6773 167.344 25.1696C167.151 24.6619 166.857 24.1995 166.48 23.8112C166.103 23.423 165.651 23.117 165.152 22.9123C164.653 22.7075 164.117 22.6084 163.579 22.6211C163.061 22.6282 162.55 22.7397 162.076 22.9491C161.602 23.1585 161.174 23.4615 160.817 23.8403C160.46 24.2192 160.182 24.6661 159.999 25.155C159.816 25.6439 159.731 26.1648 159.751 26.6872C159.727 27.231 159.813 27.774 160.004 28.2831C160.195 28.7923 160.486 29.2568 160.86 29.6486C161.235 30.0404 161.684 30.3512 162.181 30.5621C162.678 30.7729 163.212 30.8795 163.752 30.8752Z" fill="white"/>
<path d="M81.6128 37.4622C81.9892 36.6035 82.3076 35.7201 82.5659 34.818C82.7521 34.1375 82.7433 33.4177 82.5403 32.7422C81.0012 28.8402 79.3669 24.9759 77.7665 21.0982C77.6039 20.7042 77.4585 20.3031 77.3095 19.9166C79.1385 18.8886 80.6679 19.3777 81.3474 21.1466C82.3837 23.8445 83.4181 26.5431 84.5854 29.5859C85.1027 28.2408 85.5047 27.22 85.8881 26.1922C86.4776 24.6121 87.0517 23.0262 87.6371 21.4445C88.4074 19.363 89.3893 18.9485 91.6776 19.8351C91.5194 20.3054 91.3751 20.7891 91.1958 21.2595C89.3791 26.0281 87.56 30.7959 85.7385 35.5627C84.8415 37.9245 84.3141 38.1961 81.6128 37.4622Z" fill="white"/>
<path d="M58.4698 33.896C57.0975 33.7595 55.7992 33.2033 54.7483 32.3018C53.6975 31.4003 52.9442 30.1964 52.5892 28.8511C52.1766 27.4279 52.2021 25.9118 52.6621 24.5036C53.1222 23.0954 53.9952 21.8615 55.1654 20.9655C56.4012 20.0745 57.8764 19.5845 59.3948 19.5607C60.9132 19.5369 62.4028 19.9805 63.6653 20.8325C64.1157 21.1584 64.7974 21.9376 64.6931 22.1226C64.2362 22.844 63.6611 23.4819 62.9926 24.0088C62.8886 24.0986 62.3399 23.7401 62.0431 23.5246C60.0557 22.0814 57.6793 22.3568 56.4515 24.1904C55.8044 25.1492 55.5526 26.3248 55.7496 27.4679C55.9465 28.611 56.5768 29.6317 57.5067 30.3135C58.211 30.746 59.0303 30.9489 59.853 30.8944C60.6756 30.84 61.4617 30.5309 62.1041 30.0092C63.1711 29.241 63.5115 29.3539 64.563 30.6603C65.3547 31.6439 64.3776 31.9662 63.9113 32.3823C62.5875 33.5634 60.96 33.9367 58.4698 33.896Z" fill="white"/>
<path d="M149.489 33.8417C147.971 33.9213 146.471 33.4871 145.225 32.6079C143.98 31.7286 143.061 30.4547 142.614 28.9881C142.148 27.513 142.159 25.9264 142.646 24.458C143.132 22.9897 144.069 21.7158 145.321 20.821C146.597 19.951 148.11 19.5035 149.65 19.5404C151.189 19.5773 152.679 20.0968 153.913 21.0269C154.372 21.3986 155.268 21.7106 154.566 22.6444C153.445 24.1367 153.043 24.286 151.977 23.4976C151.24 22.8797 150.304 22.5588 149.347 22.5967C148.391 22.6347 147.482 23.0288 146.796 23.7031C146.09 24.5288 145.695 25.5792 145.679 26.6699C145.664 27.7606 146.029 28.8221 146.711 29.6682C147.386 30.3863 148.301 30.8253 149.279 30.8997C150.257 30.9741 151.227 30.6786 152.001 30.0708C152.355 29.8268 152.993 29.4636 153.174 29.5977C153.772 30.0795 154.293 30.6512 154.719 31.293C154.79 31.3909 154.445 31.8773 154.209 32.093C153.585 32.6986 152.843 33.1667 152.031 33.4678C151.218 33.7688 150.353 33.8961 149.489 33.8417Z" fill="white"/>
<path d="M111.148 27.0039C111.148 26.1389 111.13 25.2733 111.153 24.4089C111.176 23.5752 111.117 22.9245 110.052 22.6837C109.763 22.6181 109.571 21.6368 109.542 21.0651C109.523 20.7021 109.864 20.0125 110.082 19.9969C111.172 19.9189 111.174 19.2237 111.149 18.4492C111.143 18.2764 111.147 18.1032 111.149 17.9302C111.129 17.5734 111.208 17.2181 111.378 16.9046C111.548 16.5911 111.802 16.3319 112.11 16.1563C112.418 15.9808 112.769 15.896 113.123 15.9115C113.476 15.927 113.818 16.0422 114.111 16.2441C114.336 16.4191 114.484 16.6762 114.524 16.9603C114.597 17.3875 114.605 17.8234 114.548 18.2531C114.367 19.5519 114.855 20.1162 116.188 19.9191C117.318 19.7521 117.417 20.4699 117.426 21.3564C117.435 22.2626 117.282 22.9509 116.184 22.8162C114.835 22.6508 114.449 23.2537 114.536 24.5313C114.633 25.952 114.581 27.3849 114.553 28.8116C114.529 30.0572 115.006 30.8446 116.333 30.8204C117.71 30.7953 117.345 31.788 117.407 32.5447C117.476 33.375 117.206 33.8859 116.261 33.8241C115.702 33.7877 115.137 33.8436 114.579 33.8041C113.77 33.8276 112.983 33.5381 112.379 32.9949C111.774 32.4517 111.398 31.6957 111.327 30.8817C111.141 29.6057 111.156 28.3001 111.081 27.0077L111.148 27.0039Z" fill="white"/>
<path d="M70.985 21.4914C72.0525 20.8386 73.157 20.2495 74.2927 19.7272C75.0891 19.4102 75.7402 19.7427 75.6616 20.8041C75.6362 21.2362 75.6351 21.6695 75.6584 22.1018C75.6849 22.7788 75.4002 23.0618 74.706 23.2044C73.6388 23.3028 72.6518 23.8182 71.9555 24.6408C71.2593 25.4633 70.9088 26.528 70.9788 27.6077C70.9101 29.293 70.8812 30.9836 70.931 32.6689C70.9726 34.077 70.0767 34.0054 69.1287 34.0158C68.1802 34.0261 67.4666 33.969 67.4885 32.6655C67.5524 28.8584 67.5157 25.0495 67.5065 21.2414C67.5045 20.3804 67.4422 19.6229 68.7227 19.628C70.7953 19.6364 70.794 19.5672 70.9262 21.1758C70.936 21.2827 70.9557 21.3883 70.985 21.4914Z" fill="white"/>
<path d="M139.986 31.7573C139.97 32.2052 139.79 32.6313 139.481 32.9529C139.172 33.2744 138.755 33.4684 138.312 33.4971C137.869 33.4551 137.458 33.2436 137.164 32.9059C136.871 32.5682 136.716 32.1299 136.731 31.6806C136.72 31.4542 136.755 31.2278 136.834 31.0157C136.913 30.8036 137.035 30.6102 137.191 30.4477C137.348 30.2853 137.536 30.1571 137.744 30.0714C137.952 29.9857 138.175 29.9441 138.399 29.9494C138.624 29.9547 138.845 30.0067 139.048 30.1022C139.252 30.1976 139.434 30.3345 139.583 30.5041C139.732 30.6738 139.844 30.8727 139.914 31.0883C139.983 31.304 140.007 31.5317 139.986 31.7573Z" fill="white"/>
</svg>
